<svg width="341pt" height="260pt"
 viewBox="0.00 0.00 341.25 260.00" xmlns="http://www.w3.org/2000/svg" xmlns:xlink="http://www.w3.org/1999/xlink">
<g id="graph0" class="graph" transform="scale(1 1) rotate(0) translate(4 256)">
<title>G</title>
<polygon fill="white" stroke="none" points="-4,4 -4,-256 337.25,-256 337.25,4 -4,4"/>
<!-- build and dependencies management tools / npm -->
<g id="node1" class="node">
<title>build and dependencies management tools / npm</title>
<polygon fill="#00b2ee" stroke="white" points="326.12,-36 7.12,-36 7.12,0 326.12,0 326.12,-36"/>
<text text-anchor="middle" x="166.62" y="-13.32" font-family="Tahoma" font-size="14.00">build and dependencies management tools / npm</text>
</g>
<!-- build and dependencies management tools / gradle -->
<g id="node2" class="node">
<title>build and dependencies management tools / gradle</title>
<polygon fill="#00b2ee" stroke="white" points="331.38,-90 1.88,-90 1.88,-54 331.38,-54 331.38,-90"/>
<text text-anchor="middle" x="166.62" y="-67.33" font-family="Tahoma" font-size="14.00">build and dependencies management tools / gradle</text>
</g>
<!-- build and dependencies management tools / sbt -->
<g id="node3" class="node">
<title>build and dependencies management tools / sbt</title>
<polygon fill="#00b2ee" stroke="white" points="321.62,-144 11.62,-144 11.62,-108 321.62,-108 321.62,-144"/>
<text text-anchor="middle" x="166.62" y="-121.33" font-family="Tahoma" font-size="14.00">build and dependencies management tools / sbt</text>
</g>
<!-- build and dependencies management tools / maven -->
<g id="node4" class="node">
<title>build and dependencies management tools / maven</title>
<polygon fill="#00b2ee" stroke="white" points="333.25,-198 0,-198 0,-162 333.25,-162 333.25,-198"/>
<text text-anchor="middle" x="166.62" y="-175.32" font-family="Tahoma" font-size="14.00">build and dependencies management tools / maven</text>
</g>
<!-- build and dependencies management tools / jest -->
<g id="node5" class="node">
<title>build and dependencies management tools / jest</title>
<polygon fill="#00b2ee" stroke="white" points="323.5,-252 9.75,-252 9.75,-216 323.5,-216 323.5,-252"/>
<text text-anchor="middle" x="166.62" y="-229.32" font-family="Tahoma" font-size="14.00">build and dependencies management tools / jest</text>
</g>
</g>
</svg>
