<svg width="197pt" height="4364pt"
 viewBox="0.00 0.00 197.25 4364.00" xmlns="http://www.w3.org/2000/svg" xmlns:xlink="http://www.w3.org/1999/xlink">
<g id="graph0" class="graph" transform="scale(1 1) rotate(0) translate(4 4360)">
<title>G</title>
<polygon fill="white" stroke="none" points="-4,4 -4,-4360 193.25,-4360 193.25,4 -4,4"/>
<!-- all file extensions / xml -->
<g id="node1" class="node">
<title>all file extensions / xml</title>
<polygon fill="#00b2ee" stroke="white" points="172.75,-36 16.5,-36 16.5,0 172.75,0 172.75,-36"/>
<text text-anchor="middle" x="94.62" y="-13.32" font-family="Tahoma" font-size="14.00">all file extensions / xml</text>
</g>
<!-- main file extensions / rb -->
<g id="node2" class="node">
<title>main file extensions / rb</title>
<polygon fill="#00b2ee" stroke="white" points="176.5,-90 12.75,-90 12.75,-54 176.5,-54 176.5,-90"/>
<text text-anchor="middle" x="94.62" y="-67.33" font-family="Tahoma" font-size="14.00">main file extensions / rb</text>
</g>
<!-- all file extensions / bzl -->
<g id="node3" class="node">
<title>all file extensions / bzl</title>
<polygon fill="#00b2ee" stroke="white" points="170.12,-144 19.12,-144 19.12,-108 170.12,-108 170.12,-144"/>
<text text-anchor="middle" x="94.62" y="-121.33" font-family="Tahoma" font-size="14.00">all file extensions / bzl</text>
</g>
<!-- main file extensions / hpp -->
<g id="node4" class="node">
<title>main file extensions / hpp</title>
<polygon fill="#00b2ee" stroke="white" points="181.38,-198 7.88,-198 7.88,-162 181.38,-162 181.38,-198"/>
<text text-anchor="middle" x="94.62" y="-175.32" font-family="Tahoma" font-size="14.00">main file extensions / hpp</text>
</g>
<!-- all file extensions / py -->
<g id="node5" class="node">
<title>all file extensions / py</title>
<polygon fill="#00b2ee" stroke="white" points="169,-252 20.25,-252 20.25,-216 169,-216 169,-252"/>
<text text-anchor="middle" x="94.62" y="-229.32" font-family="Tahoma" font-size="14.00">all file extensions / py</text>
</g>
<!-- all file extensions / pyx -->
<g id="node6" class="node">
<title>all file extensions / pyx</title>
<polygon fill="#00b2ee" stroke="white" points="172.38,-306 16.88,-306 16.88,-270 172.38,-270 172.38,-306"/>
<text text-anchor="middle" x="94.62" y="-283.32" font-family="Tahoma" font-size="14.00">all file extensions / pyx</text>
</g>
<!-- all file extensions / in -->
<g id="node7" class="node">
<title>all file extensions / in</title>
<polygon fill="#00b2ee" stroke="white" points="167.12,-360 22.12,-360 22.12,-324 167.12,-324 167.12,-360"/>
<text text-anchor="middle" x="94.62" y="-337.32" font-family="Tahoma" font-size="14.00">all file extensions / in</text>
</g>
<!-- all file extensions / css -->
<g id="node8" class="node">
<title>all file extensions / css</title>
<polygon fill="#00b2ee" stroke="white" points="171.25,-414 18,-414 18,-378 171.25,-378 171.25,-414"/>
<text text-anchor="middle" x="94.62" y="-391.32" font-family="Tahoma" font-size="14.00">all file extensions / css</text>
</g>
<!-- all file extensions / el -->
<g id="node9" class="node">
<title>all file extensions / el</title>
<polygon fill="#00b2ee" stroke="white" points="167.12,-468 22.12,-468 22.12,-432 167.12,-432 167.12,-468"/>
<text text-anchor="middle" x="94.62" y="-445.32" font-family="Tahoma" font-size="14.00">all file extensions / el</text>
</g>
<!-- all file extensions / pyi -->
<g id="node10" class="node">
<title>all file extensions / pyi</title>
<polygon fill="#00b2ee" stroke="white" points="170.5,-522 18.75,-522 18.75,-486 170.5,-486 170.5,-522"/>
<text text-anchor="middle" x="94.62" y="-499.32" font-family="Tahoma" font-size="14.00">all file extensions / pyi</text>
</g>
<!-- main file extensions / el -->
<g id="node11" class="node">
<title>main file extensions / el</title>
<polygon fill="#00b2ee" stroke="white" points="175.38,-576 13.88,-576 13.88,-540 175.38,-540 175.38,-576"/>
<text text-anchor="middle" x="94.62" y="-553.33" font-family="Tahoma" font-size="14.00">main file extensions / el</text>
</g>
<!-- all file extensions / mm -->
<g id="node12" class="node">
<title>all file extensions / mm</title>
<polygon fill="#00b2ee" stroke="white" points="173.88,-630 15.38,-630 15.38,-594 173.88,-594 173.88,-630"/>
<text text-anchor="middle" x="94.62" y="-607.33" font-family="Tahoma" font-size="14.00">all file extensions / mm</text>
</g>
<!-- all file extensions / sbt -->
<g id="node13" class="node">
<title>all file extensions / sbt</title>
<polygon fill="#00b2ee" stroke="white" points="170.88,-684 18.38,-684 18.38,-648 170.88,-648 170.88,-684"/>
<text text-anchor="middle" x="94.62" y="-661.33" font-family="Tahoma" font-size="14.00">all file extensions / sbt</text>
</g>
<!-- all file extensions / toml -->
<g id="node14" class="node">
<title>all file extensions / toml</title>
<polygon fill="#00b2ee" stroke="white" points="175.38,-738 13.88,-738 13.88,-702 175.38,-702 175.38,-738"/>
<text text-anchor="middle" x="94.62" y="-715.33" font-family="Tahoma" font-size="14.00">all file extensions / toml</text>
</g>
<!-- all file extensions / html -->
<g id="node15" class="node">
<title>all file extensions / html</title>
<polygon fill="#00b2ee" stroke="white" points="175.38,-792 13.88,-792 13.88,-756 175.38,-756 175.38,-792"/>
<text text-anchor="middle" x="94.62" y="-769.33" font-family="Tahoma" font-size="14.00">all file extensions / html</text>
</g>
<!-- all file extensions / scss -->
<g id="node16" class="node">
<title>all file extensions / scss</title>
<polygon fill="#00b2ee" stroke="white" points="174.25,-846 15,-846 15,-810 174.25,-810 174.25,-846"/>
<text text-anchor="middle" x="94.62" y="-823.33" font-family="Tahoma" font-size="14.00">all file extensions / scss</text>
</g>
<!-- all file extensions / tpl -->
<g id="node17" class="node">
<title>all file extensions / tpl</title>
<polygon fill="#00b2ee" stroke="white" points="169.38,-900 19.88,-900 19.88,-864 169.38,-864 169.38,-900"/>
<text text-anchor="middle" x="94.62" y="-877.33" font-family="Tahoma" font-size="14.00">all file extensions / tpl</text>
</g>
<!-- all file extensions / mjs -->
<g id="node18" class="node">
<title>all file extensions / mjs</title>
<polygon fill="#00b2ee" stroke="white" points="172.75,-954 16.5,-954 16.5,-918 172.75,-918 172.75,-954"/>
<text text-anchor="middle" x="94.62" y="-931.33" font-family="Tahoma" font-size="14.00">all file extensions / mjs</text>
</g>
<!-- main file extensions / proto -->
<g id="node19" class="node">
<title>main file extensions / proto</title>
<polygon fill="#00b2ee" stroke="white" points="186.25,-1008 3,-1008 3,-972 186.25,-972 186.25,-1008"/>
<text text-anchor="middle" x="94.62" y="-985.33" font-family="Tahoma" font-size="14.00">main file extensions / proto</text>
</g>
<!-- all file extensions / rdf -->
<g id="node20" class="node">
<title>all file extensions / rdf</title>
<polygon fill="#00b2ee" stroke="white" points="170.5,-1062 18.75,-1062 18.75,-1026 170.5,-1026 170.5,-1062"/>
<text text-anchor="middle" x="94.62" y="-1039.33" font-family="Tahoma" font-size="14.00">all file extensions / rdf</text>
</g>
<!-- all file extensions / tf -->
<g id="node21" class="node">
<title>all file extensions / tf</title>
<polygon fill="#00b2ee" stroke="white" points="166.38,-1116 22.88,-1116 22.88,-1080 166.38,-1080 166.38,-1116"/>
<text text-anchor="middle" x="94.62" y="-1093.33" font-family="Tahoma" font-size="14.00">all file extensions / tf</text>
</g>
<!-- main file extensions / dart -->
<g id="node22" class="node">
<title>main file extensions / dart</title>
<polygon fill="#00b2ee" stroke="white" points="182.5,-1170 6.75,-1170 6.75,-1134 182.5,-1134 182.5,-1170"/>
<text text-anchor="middle" x="94.62" y="-1147.33" font-family="Tahoma" font-size="14.00">main file extensions / dart</text>
</g>
<!-- all file extensions / groovy -->
<g id="node23" class="node">
<title>all file extensions / groovy</title>
<polygon fill="#00b2ee" stroke="white" points="182.5,-1224 6.75,-1224 6.75,-1188 182.5,-1188 182.5,-1224"/>
<text text-anchor="middle" x="94.62" y="-1201.33" font-family="Tahoma" font-size="14.00">all file extensions / groovy</text>
</g>
<!-- all file extensions / hpp -->
<g id="node24" class="node">
<title>all file extensions / hpp</title>
<polygon fill="#00b2ee" stroke="white" points="173.12,-1278 16.12,-1278 16.12,-1242 173.12,-1242 173.12,-1278"/>
<text text-anchor="middle" x="94.62" y="-1255.33" font-family="Tahoma" font-size="14.00">all file extensions / hpp</text>
</g>
<!-- all file extensions / proto -->
<g id="node25" class="node">
<title>all file extensions / proto</title>
<polygon fill="#00b2ee" stroke="white" points="178,-1332 11.25,-1332 11.25,-1296 178,-1296 178,-1332"/>
<text text-anchor="middle" x="94.62" y="-1309.33" font-family="Tahoma" font-size="14.00">all file extensions / proto</text>
</g>
<!-- all file extensions / kt -->
<g id="node26" class="node">
<title>all file extensions / kt</title>
<polygon fill="#00b2ee" stroke="white" points="167.5,-1386 21.75,-1386 21.75,-1350 167.5,-1350 167.5,-1386"/>
<text text-anchor="middle" x="94.62" y="-1363.33" font-family="Tahoma" font-size="14.00">all file extensions / kt</text>
</g>
<!-- all file extensions / go -->
<g id="node27" class="node">
<title>all file extensions / go</title>
<polygon fill="#00b2ee" stroke="white" points="169.38,-1440 19.88,-1440 19.88,-1404 169.38,-1404 169.38,-1440"/>
<text text-anchor="middle" x="94.62" y="-1417.33" font-family="Tahoma" font-size="14.00">all file extensions / go</text>
</g>
<!-- all file extensions / cjs -->
<g id="node28" class="node">
<title>all file extensions / cjs</title>
<polygon fill="#00b2ee" stroke="white" points="170.12,-1494 19.12,-1494 19.12,-1458 170.12,-1458 170.12,-1494"/>
<text text-anchor="middle" x="94.62" y="-1471.33" font-family="Tahoma" font-size="14.00">all file extensions / cjs</text>
</g>
<!-- all file extensions / sass -->
<g id="node29" class="node">
<title>all file extensions / sass</title>
<polygon fill="#00b2ee" stroke="white" points="174.62,-1548 14.62,-1548 14.62,-1512 174.62,-1512 174.62,-1548"/>
<text text-anchor="middle" x="94.62" y="-1525.33" font-family="Tahoma" font-size="14.00">all file extensions / sass</text>
</g>
<!-- all file extensions / scala -->
<g id="node30" class="node">
<title>all file extensions / scala</title>
<polygon fill="#00b2ee" stroke="white" points="177.25,-1602 12,-1602 12,-1566 177.25,-1566 177.25,-1602"/>
<text text-anchor="middle" x="94.62" y="-1579.33" font-family="Tahoma" font-size="14.00">all file extensions / scala</text>
</g>
<!-- main file extensions / h -->
<g id="node31" class="node">
<title>main file extensions / h</title>
<polygon fill="#00b2ee" stroke="white" points="173.88,-1656 15.38,-1656 15.38,-1620 173.88,-1620 173.88,-1656"/>
<text text-anchor="middle" x="94.62" y="-1633.33" font-family="Tahoma" font-size="14.00">main file extensions / h</text>
</g>
<!-- main file extensions / scala -->
<g id="node32" class="node">
<title>main file extensions / scala</title>
<polygon fill="#00b2ee" stroke="white" points="185.5,-1710 3.75,-1710 3.75,-1674 185.5,-1674 185.5,-1710"/>
<text text-anchor="middle" x="94.62" y="-1687.33" font-family="Tahoma" font-size="14.00">main file extensions / scala</text>
</g>
<!-- main file extensions / m -->
<g id="node33" class="node">
<title>main file extensions / m</title>
<polygon fill="#00b2ee" stroke="white" points="176.12,-1764 13.12,-1764 13.12,-1728 176.12,-1728 176.12,-1764"/>
<text text-anchor="middle" x="94.62" y="-1741.33" font-family="Tahoma" font-size="14.00">main file extensions / m</text>
</g>
<!-- all file extensions / cfg -->
<g id="node34" class="node">
<title>all file extensions / cfg</title>
<polygon fill="#00b2ee" stroke="white" points="171.25,-1818 18,-1818 18,-1782 171.25,-1782 171.25,-1818"/>
<text text-anchor="middle" x="94.62" y="-1795.33" font-family="Tahoma" font-size="14.00">all file extensions / cfg</text>
</g>
<!-- all file extensions / pm -->
<g id="node35" class="node">
<title>all file extensions / pm</title>
<polygon fill="#00b2ee" stroke="white" points="171.62,-1872 17.62,-1872 17.62,-1836 171.62,-1836 171.62,-1872"/>
<text text-anchor="middle" x="94.62" y="-1849.33" font-family="Tahoma" font-size="14.00">all file extensions / pm</text>
</g>
<!-- all file extensions / ts -->
<g id="node36" class="node">
<title>all file extensions / ts</title>
<polygon fill="#00b2ee" stroke="white" points="167.12,-1926 22.12,-1926 22.12,-1890 167.12,-1890 167.12,-1926"/>
<text text-anchor="middle" x="94.62" y="-1903.33" font-family="Tahoma" font-size="14.00">all file extensions / ts</text>
</g>
<!-- all file extensions / tsx -->
<g id="node37" class="node">
<title>all file extensions / tsx</title>
<polygon fill="#00b2ee" stroke="white" points="170.5,-1980 18.75,-1980 18.75,-1944 170.5,-1944 170.5,-1980"/>
<text text-anchor="middle" x="94.62" y="-1957.33" font-family="Tahoma" font-size="14.00">all file extensions / tsx</text>
</g>
<!-- main file extensions / c -->
<g id="node38" class="node">
<title>main file extensions / c</title>
<polygon fill="#00b2ee" stroke="white" points="173.5,-2034 15.75,-2034 15.75,-1998 173.5,-1998 173.5,-2034"/>
<text text-anchor="middle" x="94.62" y="-2011.33" font-family="Tahoma" font-size="14.00">main file extensions / c</text>
</g>
<!-- main file extensions / tsx -->
<g id="node39" class="node">
<title>main file extensions / tsx</title>
<polygon fill="#00b2ee" stroke="white" points="178.75,-2088 10.5,-2088 10.5,-2052 178.75,-2052 178.75,-2088"/>
<text text-anchor="middle" x="94.62" y="-2065.32" font-family="Tahoma" font-size="14.00">main file extensions / tsx</text>
</g>
<!-- all file extensions / ftl -->
<g id="node40" class="node">
<title>all file extensions / ftl</title>
<polygon fill="#00b2ee" stroke="white" points="167.88,-2142 21.38,-2142 21.38,-2106 167.88,-2106 167.88,-2142"/>
<text text-anchor="middle" x="94.62" y="-2119.32" font-family="Tahoma" font-size="14.00">all file extensions / ftl</text>
</g>
<!-- main file extensions / py -->
<g id="node41" class="node">
<title>main file extensions / py</title>
<polygon fill="#00b2ee" stroke="white" points="177.25,-2196 12,-2196 12,-2160 177.25,-2160 177.25,-2196"/>
<text text-anchor="middle" x="94.62" y="-2173.32" font-family="Tahoma" font-size="14.00">main file extensions / py</text>
</g>
<!-- all file extensions / avsc -->
<g id="node42" class="node">
<title>all file extensions / avsc</title>
<polygon fill="#00b2ee" stroke="white" points="175.38,-2250 13.88,-2250 13.88,-2214 175.38,-2214 175.38,-2250"/>
<text text-anchor="middle" x="94.62" y="-2227.32" font-family="Tahoma" font-size="14.00">all file extensions / avsc</text>
</g>
<!-- all file extensions / pxd -->
<g id="node43" class="node">
<title>all file extensions / pxd</title>
<polygon fill="#00b2ee" stroke="white" points="172.75,-2304 16.5,-2304 16.5,-2268 172.75,-2268 172.75,-2304"/>
<text text-anchor="middle" x="94.62" y="-2281.32" font-family="Tahoma" font-size="14.00">all file extensions / pxd</text>
</g>
<!-- all file extensions / c -->
<g id="node44" class="node">
<title>all file extensions / c</title>
<polygon fill="#00b2ee" stroke="white" points="165.25,-2358 24,-2358 24,-2322 165.25,-2322 165.25,-2358"/>
<text text-anchor="middle" x="94.62" y="-2335.32" font-family="Tahoma" font-size="14.00">all file extensions / c</text>
</g>
<!-- main file extensions / yaml -->
<g id="node45" class="node">
<title>main file extensions / yaml</title>
<polygon fill="#00b2ee" stroke="white" points="184.75,-2412 4.5,-2412 4.5,-2376 184.75,-2376 184.75,-2412"/>
<text text-anchor="middle" x="94.62" y="-2389.32" font-family="Tahoma" font-size="14.00">main file extensions / yaml</text>
</g>
<!-- main file extensions / tf -->
<g id="node46" class="node">
<title>main file extensions / tf</title>
<polygon fill="#00b2ee" stroke="white" points="174.62,-2466 14.62,-2466 14.62,-2430 174.62,-2430 174.62,-2466"/>
<text text-anchor="middle" x="94.62" y="-2443.32" font-family="Tahoma" font-size="14.00">main file extensions / tf</text>
</g>
<!-- main file extensions / ts -->
<g id="node47" class="node">
<title>main file extensions / ts</title>
<polygon fill="#00b2ee" stroke="white" points="175.38,-2520 13.88,-2520 13.88,-2484 175.38,-2484 175.38,-2520"/>
<text text-anchor="middle" x="94.62" y="-2497.32" font-family="Tahoma" font-size="14.00">main file extensions / ts</text>
</g>
<!-- all file extensions / js -->
<g id="node48" class="node">
<title>all file extensions / js</title>
<polygon fill="#00b2ee" stroke="white" points="166.75,-2574 22.5,-2574 22.5,-2538 166.75,-2538 166.75,-2574"/>
<text text-anchor="middle" x="94.62" y="-2551.32" font-family="Tahoma" font-size="14.00">all file extensions / js</text>
</g>
<!-- all file extensions / sql -->
<g id="node49" class="node">
<title>all file extensions / sql</title>
<polygon fill="#00b2ee" stroke="white" points="170.12,-2628 19.12,-2628 19.12,-2592 170.12,-2592 170.12,-2628"/>
<text text-anchor="middle" x="94.62" y="-2605.32" font-family="Tahoma" font-size="14.00">all file extensions / sql</text>
</g>
<!-- all file extensions / jsx -->
<g id="node50" class="node">
<title>all file extensions / jsx</title>
<polygon fill="#00b2ee" stroke="white" points="170.12,-2682 19.12,-2682 19.12,-2646 170.12,-2646 170.12,-2682"/>
<text text-anchor="middle" x="94.62" y="-2659.32" font-family="Tahoma" font-size="14.00">all file extensions / jsx</text>
</g>
<!-- all file extensions / less -->
<g id="node51" class="node">
<title>all file extensions / less</title>
<polygon fill="#00b2ee" stroke="white" points="173.12,-2736 16.12,-2736 16.12,-2700 173.12,-2700 173.12,-2736"/>
<text text-anchor="middle" x="94.62" y="-2713.32" font-family="Tahoma" font-size="14.00">all file extensions / less</text>
</g>
<!-- all file extensions / st -->
<g id="node52" class="node">
<title>all file extensions / st</title>
<polygon fill="#00b2ee" stroke="white" points="167.12,-2790 22.12,-2790 22.12,-2754 167.12,-2754 167.12,-2790"/>
<text text-anchor="middle" x="94.62" y="-2767.32" font-family="Tahoma" font-size="14.00">all file extensions / st</text>
</g>
<!-- all file extensions / yaml -->
<g id="node53" class="node">
<title>all file extensions / yaml</title>
<polygon fill="#00b2ee" stroke="white" points="176.5,-2844 12.75,-2844 12.75,-2808 176.5,-2808 176.5,-2844"/>
<text text-anchor="middle" x="94.62" y="-2821.32" font-family="Tahoma" font-size="14.00">all file extensions / yaml</text>
</g>
<!-- all file extensions / cc -->
<g id="node54" class="node">
<title>all file extensions / cc</title>
<polygon fill="#00b2ee" stroke="white" points="168.62,-2898 20.62,-2898 20.62,-2862 168.62,-2862 168.62,-2898"/>
<text text-anchor="middle" x="94.62" y="-2875.32" font-family="Tahoma" font-size="14.00">all file extensions / cc</text>
</g>
<!-- all file extensions / m -->
<g id="node55" class="node">
<title>all file extensions / m</title>
<polygon fill="#00b2ee" stroke="white" points="167.88,-2952 21.38,-2952 21.38,-2916 167.88,-2916 167.88,-2952"/>
<text text-anchor="middle" x="94.62" y="-2929.32" font-family="Tahoma" font-size="14.00">all file extensions / m</text>
</g>
<!-- all file extensions / ipynb -->
<g id="node56" class="node">
<title>all file extensions / ipynb</title>
<polygon fill="#00b2ee" stroke="white" points="178,-3006 11.25,-3006 11.25,-2970 178,-2970 178,-3006"/>
<text text-anchor="middle" x="94.62" y="-2983.32" font-family="Tahoma" font-size="14.00">all file extensions / ipynb</text>
</g>
<!-- all file extensions / swift -->
<g id="node57" class="node">
<title>all file extensions / swift</title>
<polygon fill="#00b2ee" stroke="white" points="176.12,-3060 13.12,-3060 13.12,-3024 176.12,-3024 176.12,-3060"/>
<text text-anchor="middle" x="94.62" y="-3037.32" font-family="Tahoma" font-size="14.00">all file extensions / swift</text>
</g>
<!-- main file extensions / go -->
<g id="node58" class="node">
<title>main file extensions / go</title>
<polygon fill="#00b2ee" stroke="white" points="177.62,-3114 11.62,-3114 11.62,-3078 177.62,-3078 177.62,-3114"/>
<text text-anchor="middle" x="94.62" y="-3091.32" font-family="Tahoma" font-size="14.00">main file extensions / go</text>
</g>
<!-- all file extensions / i -->
<g id="node59" class="node">
<title>all file extensions / i</title>
<polygon fill="#00b2ee" stroke="white" points="163.38,-3168 25.88,-3168 25.88,-3132 163.38,-3132 163.38,-3168"/>
<text text-anchor="middle" x="94.62" y="-3145.32" font-family="Tahoma" font-size="14.00">all file extensions / i</text>
</g>
<!-- main file extensions / kt -->
<g id="node60" class="node">
<title>main file extensions / kt</title>
<polygon fill="#00b2ee" stroke="white" points="175.75,-3222 13.5,-3222 13.5,-3186 175.75,-3186 175.75,-3222"/>
<text text-anchor="middle" x="94.62" y="-3199.32" font-family="Tahoma" font-size="14.00">main file extensions / kt</text>
</g>
<!-- all file extensions / h -->
<g id="node61" class="node">
<title>all file extensions / h</title>
<polygon fill="#00b2ee" stroke="white" points="165.62,-3276 23.62,-3276 23.62,-3240 165.62,-3240 165.62,-3276"/>
<text text-anchor="middle" x="94.62" y="-3253.32" font-family="Tahoma" font-size="14.00">all file extensions / h</text>
</g>
<!-- all file extensions / java -->
<g id="node62" class="node">
<title>all file extensions / java</title>
<polygon fill="#00b2ee" stroke="white" points="174.62,-3330 14.62,-3330 14.62,-3294 174.62,-3294 174.62,-3330"/>
<text text-anchor="middle" x="94.62" y="-3307.32" font-family="Tahoma" font-size="14.00">all file extensions / java</text>
</g>
<!-- main file extensions / css -->
<g id="node63" class="node">
<title>main file extensions / css</title>
<polygon fill="#00b2ee" stroke="white" points="179.5,-3384 9.75,-3384 9.75,-3348 179.5,-3348 179.5,-3384"/>
<text text-anchor="middle" x="94.62" y="-3361.32" font-family="Tahoma" font-size="14.00">main file extensions / css</text>
</g>
<!-- all file extensions / rb -->
<g id="node64" class="node">
<title>all file extensions / rb</title>
<polygon fill="#00b2ee" stroke="white" points="168.25,-3438 21,-3438 21,-3402 168.25,-3402 168.25,-3438"/>
<text text-anchor="middle" x="94.62" y="-3415.32" font-family="Tahoma" font-size="14.00">all file extensions / rb</text>
</g>
<!-- main file extensions / sbt -->
<g id="node65" class="node">
<title>main file extensions / sbt</title>
<polygon fill="#00b2ee" stroke="white" points="179.12,-3492 10.12,-3492 10.12,-3456 179.12,-3456 179.12,-3492"/>
<text text-anchor="middle" x="94.62" y="-3469.32" font-family="Tahoma" font-size="14.00">main file extensions / sbt</text>
</g>
<!-- all file extensions / kts -->
<g id="node66" class="node">
<title>all file extensions / kts</title>
<polygon fill="#00b2ee" stroke="white" points="170.5,-3546 18.75,-3546 18.75,-3510 170.5,-3510 170.5,-3546"/>
<text text-anchor="middle" x="94.62" y="-3523.32" font-family="Tahoma" font-size="14.00">all file extensions / kts</text>
</g>
<!-- all file extensions / edn -->
<g id="node67" class="node">
<title>all file extensions / edn</title>
<polygon fill="#00b2ee" stroke="white" points="173.12,-3600 16.12,-3600 16.12,-3564 173.12,-3564 173.12,-3600"/>
<text text-anchor="middle" x="94.62" y="-3577.32" font-family="Tahoma" font-size="14.00">all file extensions / edn</text>
</g>
<!-- all file extensions / pro -->
<g id="node68" class="node">
<title>all file extensions / pro</title>
<polygon fill="#00b2ee" stroke="white" points="172,-3654 17.25,-3654 17.25,-3618 172,-3618 172,-3654"/>
<text text-anchor="middle" x="94.62" y="-3631.32" font-family="Tahoma" font-size="14.00">all file extensions / pro</text>
</g>
<!-- main file extensions / swift -->
<g id="node69" class="node">
<title>main file extensions / swift</title>
<polygon fill="#00b2ee" stroke="white" points="184.38,-3708 4.88,-3708 4.88,-3672 184.38,-3672 184.38,-3708"/>
<text text-anchor="middle" x="94.62" y="-3685.32" font-family="Tahoma" font-size="14.00">main file extensions / swift</text>
</g>
<!-- all file extensions / cpp -->
<g id="node70" class="node">
<title>all file extensions / cpp</title>
<polygon fill="#00b2ee" stroke="white" points="172.75,-3762 16.5,-3762 16.5,-3726 172.75,-3726 172.75,-3762"/>
<text text-anchor="middle" x="94.62" y="-3739.32" font-family="Tahoma" font-size="14.00">all file extensions / cpp</text>
</g>
<!-- main file extensions / html -->
<g id="node71" class="node">
<title>main file extensions / html</title>
<polygon fill="#00b2ee" stroke="white" points="183.62,-3816 5.62,-3816 5.62,-3780 183.62,-3780 183.62,-3816"/>
<text text-anchor="middle" x="94.62" y="-3793.32" font-family="Tahoma" font-size="14.00">main file extensions / html</text>
</g>
<!-- all file extensions / clj -->
<g id="node72" class="node">
<title>all file extensions / clj</title>
<polygon fill="#00b2ee" stroke="white" points="168.62,-3870 20.62,-3870 20.62,-3834 168.62,-3834 168.62,-3870"/>
<text text-anchor="middle" x="94.62" y="-3847.32" font-family="Tahoma" font-size="14.00">all file extensions / clj</text>
</g>
<!-- all file extensions / rs -->
<g id="node73" class="node">
<title>all file extensions / rs</title>
<polygon fill="#00b2ee" stroke="white" points="167.5,-3924 21.75,-3924 21.75,-3888 167.5,-3888 167.5,-3924"/>
<text text-anchor="middle" x="94.62" y="-3901.32" font-family="Tahoma" font-size="14.00">all file extensions / rs</text>
</g>
<!-- all file extensions / rockspec -->
<g id="node74" class="node">
<title>all file extensions / rockspec</title>
<polygon fill="#00b2ee" stroke="white" points="188.88,-3978 0.38,-3978 0.38,-3942 188.88,-3942 188.88,-3978"/>
<text text-anchor="middle" x="94.62" y="-3955.32" font-family="Tahoma" font-size="14.00">all file extensions / rockspec</text>
</g>
<!-- main file extensions / rs -->
<g id="node75" class="node">
<title>main file extensions / rs</title>
<polygon fill="#00b2ee" stroke="white" points="175.75,-4032 13.5,-4032 13.5,-3996 175.75,-3996 175.75,-4032"/>
<text text-anchor="middle" x="94.62" y="-4009.32" font-family="Tahoma" font-size="14.00">main file extensions / rs</text>
</g>
<!-- all file extensions / mako -->
<g id="node76" class="node">
<title>all file extensions / mako</title>
<polygon fill="#00b2ee" stroke="white" points="178.75,-4086 10.5,-4086 10.5,-4050 178.75,-4050 178.75,-4086"/>
<text text-anchor="middle" x="94.62" y="-4063.32" font-family="Tahoma" font-size="14.00">all file extensions / mako</text>
</g>
<!-- all file extensions / dart -->
<g id="node77" class="node">
<title>all file extensions / dart</title>
<polygon fill="#00b2ee" stroke="white" points="174.25,-4140 15,-4140 15,-4104 174.25,-4104 174.25,-4140"/>
<text text-anchor="middle" x="94.62" y="-4117.32" font-family="Tahoma" font-size="14.00">all file extensions / dart</text>
</g>
<!-- all file extensions / gemspec -->
<g id="node78" class="node">
<title>all file extensions / gemspec</title>
<polygon fill="#00b2ee" stroke="white" points="189.25,-4194 0,-4194 0,-4158 189.25,-4158 189.25,-4194"/>
<text text-anchor="middle" x="94.62" y="-4171.32" font-family="Tahoma" font-size="14.00">all file extensions / gemspec</text>
</g>
<!-- main file extensions / java -->
<g id="node79" class="node">
<title>main file extensions / java</title>
<polygon fill="#00b2ee" stroke="white" points="182.88,-4248 6.38,-4248 6.38,-4212 182.88,-4212 182.88,-4248"/>
<text text-anchor="middle" x="94.62" y="-4225.32" font-family="Tahoma" font-size="14.00">main file extensions / java</text>
</g>
<!-- main file extensions / js -->
<g id="node80" class="node">
<title>main file extensions / js</title>
<polygon fill="#00b2ee" stroke="white" points="175,-4302 14.25,-4302 14.25,-4266 175,-4266 175,-4302"/>
<text text-anchor="middle" x="94.62" y="-4279.32" font-family="Tahoma" font-size="14.00">main file extensions / js</text>
</g>
<!-- all file extensions / nix -->
<g id="node81" class="node">
<title>all file extensions / nix</title>
<polygon fill="#00b2ee" stroke="white" points="170.5,-4356 18.75,-4356 18.75,-4320 170.5,-4320 170.5,-4356"/>
<text text-anchor="middle" x="94.62" y="-4333.32" font-family="Tahoma" font-size="14.00">all file extensions / nix</text>
</g>
</g>
</svg>
