<svg width="832pt" height="389pt"
 viewBox="0.00 0.00 832.00 389.00" xmlns="http://www.w3.org/2000/svg" xmlns:xlink="http://www.w3.org/1999/xlink">
<g id="graph0" class="graph" transform="scale(1 1) rotate(0) translate(4 385)">
<title>G</title>
<polygon fill="white" stroke="none" points="-4,4 -4,-385 828,-385 828,4 -4,4"/>
<!-- scala (7) -->
<g id="node1" class="node">
<title>scala (7)</title>
<polygon fill="#00b2ee" stroke="white" points="217.62,-294.75 148.38,-294.75 148.38,-258.75 217.62,-258.75 217.62,-294.75"/>
<text text-anchor="middle" x="183" y="-272.07" font-family="Tahoma" font-size="14.00">scala (7)</text>
</g>
<!-- yaml (5) -->
<g id="node7" class="node">
<title>yaml (5)</title>
<polygon fill="#00b2ee" stroke="white" points="136.88,-208.5 69.12,-208.5 69.12,-172.5 136.88,-172.5 136.88,-208.5"/>
<text text-anchor="middle" x="103" y="-185.82" font-family="Tahoma" font-size="14.00">yaml (5)</text>
</g>
<!-- scala (7)&#45;&#45;yaml (5) -->
<g id="edge3" class="edge">
<title>scala (7)&#45;&#45;yaml (5)</title>
<path fill="none" stroke="#00688b" stroke-width="3" stroke-opacity="0.509804" d="M158.24,-258.41C151.42,-253.11 144.26,-247.02 138.25,-240.75 128.94,-231.03 120.13,-218.72 113.64,-208.84"/>
<text text-anchor="middle" x="144.62" y="-229.35" font-family="Arial" font-size="12.00"> 3 </text>
</g>
<!-- sql (1) -->
<g id="node11" class="node">
<title>sql (1)</title>
<polygon fill="#00b2ee" stroke="white" points="305.5,-36 250.5,-36 250.5,0 305.5,0 305.5,-36"/>
<text text-anchor="middle" x="278" y="-13.32" font-family="Tahoma" font-size="14.00">sql (1)</text>
</g>
<!-- scala (7)&#45;&#45;sql (1) -->
<g id="edge12" class="edge">
<title>scala (7)&#45;&#45;sql (1)</title>
<path fill="none" stroke="#00688b" stroke-opacity="0.368627" d="M176.44,-258.49C162.41,-218.36 134.2,-117.35 179,-54 195,-31.38 226.9,-23.28 250.18,-20.43"/>
<text text-anchor="middle" x="161.3" y="-143.1" font-family="Arial" font-size="12.00"> 1 </text>
</g>
<!-- proto (1) -->
<g id="node12" class="node">
<title>proto (1)</title>
<polygon fill="#00b2ee" stroke="white" points="76.38,-36 5.62,-36 5.62,0 76.38,0 76.38,-36"/>
<text text-anchor="middle" x="41" y="-13.32" font-family="Tahoma" font-size="14.00">proto (1)</text>
</g>
<!-- scala (7)&#45;&#45;proto (1) -->
<g id="edge7" class="edge">
<title>scala (7)&#45;&#45;proto (1)</title>
<path fill="none" stroke="#00688b" stroke-opacity="0.368627" d="M147.95,-258.69C113.55,-241.62 65.46,-216.74 60,-208.5 24.2,-154.48 32.08,-72.1 37.74,-36.45"/>
<text text-anchor="middle" x="44.65" y="-143.1" font-family="Arial" font-size="12.00"> 1 </text>
</g>
<!-- xml (2) -->
<g id="node15" class="node">
<title>xml (2)</title>
<polygon fill="#00b2ee" stroke="white" points="302.12,-208.5 241.88,-208.5 241.88,-172.5 302.12,-172.5 302.12,-208.5"/>
<text text-anchor="middle" x="272" y="-185.82" font-family="Tahoma" font-size="14.00">xml (2)</text>
</g>
<!-- scala (7)&#45;&#45;xml (2) -->
<g id="edge11" class="edge">
<title>scala (7)&#45;&#45;xml (2)</title>
<path fill="none" stroke="#00688b" stroke-opacity="0.368627" d="M202.6,-258.48C208.86,-252.88 215.77,-246.61 222,-240.75 233.18,-230.23 245.47,-218.14 255.07,-208.57"/>
<text text-anchor="middle" x="242.3" y="-229.35" font-family="Arial" font-size="12.00"> 1 </text>
</g>
<!-- java (2) -->
<g id="node16" class="node">
<title>java (2)</title>
<polygon fill="#00b2ee" stroke="white" points="257,-122.25 193,-122.25 193,-86.25 257,-86.25 257,-122.25"/>
<text text-anchor="middle" x="225" y="-99.58" font-family="Tahoma" font-size="14.00">java (2)</text>
</g>
<!-- scala (7)&#45;&#45;java (2) -->
<g id="edge5" class="edge">
<title>scala (7)&#45;&#45;java (2)</title>
<path fill="none" stroke="#00688b" stroke-width="2" stroke-opacity="0.439216" d="M187.26,-258.46C195.31,-225.78 212.67,-155.3 220.73,-122.58"/>
<text text-anchor="middle" x="214.55" y="-186.22" font-family="Arial" font-size="12.00"> 2 </text>
</g>
<!-- kt (2) -->
<g id="node2" class="node">
<title>kt (2)</title>
<polygon fill="#00b2ee" stroke="white" points="553,-294.75 499,-294.75 499,-258.75 553,-258.75 553,-294.75"/>
<text text-anchor="middle" x="526" y="-272.07" font-family="Tahoma" font-size="14.00">kt (2)</text>
</g>
<!-- html (1) -->
<g id="node4" class="node">
<title>html (1)</title>
<polygon fill="#00b2ee" stroke="white" points="506.75,-36 441.25,-36 441.25,0 506.75,0 506.75,-36"/>
<text text-anchor="middle" x="474" y="-13.32" font-family="Tahoma" font-size="14.00">html (1)</text>
</g>
<!-- kt (2)&#45;&#45;html (1) -->
<g id="edge19" class="edge">
<title>kt (2)&#45;&#45;html (1)</title>
<path fill="none" stroke="#00688b" stroke-opacity="0.368627" d="M499.37,-258.39C492.8,-253.26 486.18,-247.25 481,-240.75 462.49,-217.51 438.58,-137.54 436,-122.25 433.33,-106.47 431.93,-101.72 436,-86.25 440.81,-67.96 451.85,-49.42 460.8,-36.45"/>
<text text-anchor="middle" x="450.97" y="-143.1" font-family="Arial" font-size="12.00"> 1 </text>
</g>
<!-- css (1) -->
<g id="node9" class="node">
<title>css (1)</title>
<polygon fill="#00b2ee" stroke="white" points="502.62,-122.25 445.38,-122.25 445.38,-86.25 502.62,-86.25 502.62,-122.25"/>
<text text-anchor="middle" x="474" y="-99.58" font-family="Tahoma" font-size="14.00">css (1)</text>
</g>
<!-- kt (2)&#45;&#45;css (1) -->
<g id="edge18" class="edge">
<title>kt (2)&#45;&#45;css (1)</title>
<path fill="none" stroke="#00688b" stroke-opacity="0.368627" d="M508.42,-258.42C496.89,-245.79 482.78,-227.6 476.25,-208.5 466.39,-179.66 468.63,-143.59 471.25,-122.61"/>
<text text-anchor="middle" x="482.62" y="-186.22" font-family="Arial" font-size="12.00"> 1 </text>
</g>
<!-- dart (1) -->
<g id="node13" class="node">
<title>dart (1)</title>
<polygon fill="#00b2ee" stroke="white" points="635.62,-208.5 572.38,-208.5 572.38,-172.5 635.62,-172.5 635.62,-208.5"/>
<text text-anchor="middle" x="604" y="-185.82" font-family="Tahoma" font-size="14.00">dart (1)</text>
</g>
<!-- kt (2)&#45;&#45;dart (1) -->
<g id="edge25" class="edge">
<title>kt (2)&#45;&#45;dart (1)</title>
<path fill="none" stroke="#00688b" stroke-opacity="0.368627" d="M542.16,-258.29C555.55,-243.83 574.48,-223.39 587.86,-208.93"/>
<text text-anchor="middle" x="576.05" y="-229.35" font-family="Arial" font-size="12.00"> 1 </text>
</g>
<!-- kts (1) -->
<g id="node14" class="node">
<title>kts (1)</title>
<polygon fill="#00b2ee" stroke="white" points="553.88,-208.5 498.12,-208.5 498.12,-172.5 553.88,-172.5 553.88,-208.5"/>
<text text-anchor="middle" x="526" y="-185.82" font-family="Tahoma" font-size="14.00">kts (1)</text>
</g>
<!-- kt (2)&#45;&#45;kts (1) -->
<g id="edge17" class="edge">
<title>kt (2)&#45;&#45;kts (1)</title>
<path fill="none" stroke="#00688b" stroke-opacity="0.368627" d="M526,-258.29C526,-243.83 526,-223.39 526,-208.93"/>
<text text-anchor="middle" x="532.38" y="-229.35" font-family="Arial" font-size="12.00"> 1 </text>
</g>
<!-- m (2) -->
<g id="node3" class="node">
<title>m (2)</title>
<polygon fill="#00b2ee" stroke="white" points="680,-381 626,-381 626,-345 680,-345 680,-381"/>
<text text-anchor="middle" x="653" y="-358.32" font-family="Tahoma" font-size="14.00">m (2)</text>
</g>
<!-- go (1) -->
<g id="node5" class="node">
<title>go (1)</title>
<polygon fill="#00b2ee" stroke="white" points="130,-122.25 76,-122.25 76,-86.25 130,-86.25 130,-122.25"/>
<text text-anchor="middle" x="103" y="-99.58" font-family="Tahoma" font-size="14.00">go (1)</text>
</g>
<!-- sbt (8) -->
<g id="node6" class="node">
<title>sbt (8)</title>
<polygon fill="#00b2ee" stroke="white" points="286.25,-381 229.75,-381 229.75,-345 286.25,-345 286.25,-381"/>
<text text-anchor="middle" x="258" y="-358.32" font-family="Tahoma" font-size="14.00">sbt (8)</text>
</g>
<!-- sbt (8)&#45;&#45;scala (7) -->
<g id="edge1" class="edge">
<title>sbt (8)&#45;&#45;scala (7)</title>
<path fill="none" stroke="#00688b" stroke-width="6" stroke-opacity="0.717647" d="M242.46,-344.54C229.59,-330.08 211.39,-309.64 198.52,-295.18"/>
<text text-anchor="middle" x="231.37" y="-315.6" font-family="Arial" font-size="12.00"> 6 </text>
</g>
<!-- sbt (8)&#45;&#45;yaml (5) -->
<g id="edge2" class="edge">
<title>sbt (8)&#45;&#45;yaml (5)</title>
<path fill="none" stroke="#00688b" stroke-width="3" stroke-opacity="0.509804" d="M229.47,-355.16C199.17,-346.37 152.16,-328.12 126.25,-294.75 106.64,-269.5 102.95,-230.87 102.59,-208.72"/>
<text text-anchor="middle" x="132.62" y="-272.48" font-family="Arial" font-size="12.00"> 3 </text>
</g>
<!-- sbt (8)&#45;&#45;sql (1) -->
<g id="edge10" class="edge">
<title>sbt (8)&#45;&#45;sql (1)</title>
<path fill="none" stroke="#00688b" stroke-opacity="0.368627" d="M286.56,-355.09C321.49,-344.73 376,-321.55 376,-277.75 376,-277.75 376,-277.75 376,-103.25 376,-66 334.79,-41.64 305.82,-29.11"/>
<text text-anchor="middle" x="382.38" y="-186.22" font-family="Arial" font-size="12.00"> 1 </text>
</g>
<!-- sbt (8)&#45;&#45;proto (1) -->
<g id="edge6" class="edge">
<title>sbt (8)&#45;&#45;proto (1)</title>
<path fill="none" stroke="#00688b" stroke-opacity="0.368627" d="M229.4,-358.81C162.23,-350.53 0,-325.58 0,-277.75 0,-277.75 0,-277.75 0,-103.25 0,-78.04 15.03,-52.47 26.89,-36.22"/>
<text text-anchor="middle" x="6.38" y="-186.22" font-family="Arial" font-size="12.00"> 1 </text>
</g>
<!-- sbt (8)&#45;&#45;xml (2) -->
<g id="edge9" class="edge">
<title>sbt (8)&#45;&#45;xml (2)</title>
<path fill="none" stroke="#00688b" stroke-opacity="0.368627" d="M259.42,-344.71C262.1,-312.03 267.89,-241.55 270.58,-208.83"/>
<text text-anchor="middle" x="272.77" y="-272.48" font-family="Arial" font-size="12.00"> 1 </text>
</g>
<!-- sbt (8)&#45;&#45;java (2) -->
<g id="edge4" class="edge">
<title>sbt (8)&#45;&#45;java (2)</title>
<path fill="none" stroke="#00688b" stroke-width="2" stroke-opacity="0.439216" d="M270.93,-344.52C294.63,-310.18 340.04,-232.07 311,-172.5 299.87,-149.67 276.83,-132.31 257.4,-120.96"/>
<text text-anchor="middle" x="326.12" y="-229.35" font-family="Arial" font-size="12.00"> 2 </text>
</g>
<!-- yaml (5)&#45;&#45;go (1) -->
<g id="edge16" class="edge">
<title>yaml (5)&#45;&#45;go (1)</title>
<path fill="none" stroke="#00688b" stroke-opacity="0.368627" d="M103,-172.04C103,-157.58 103,-137.14 103,-122.68"/>
<text text-anchor="middle" x="109.38" y="-143.1" font-family="Arial" font-size="12.00"> 1 </text>
</g>
<!-- swift (2) -->
<g id="node8" class="node">
<title>swift (2)</title>
<polygon fill="#00b2ee" stroke="white" points="607.5,-381 540.5,-381 540.5,-345 607.5,-345 607.5,-381"/>
<text text-anchor="middle" x="574" y="-358.32" font-family="Tahoma" font-size="14.00">swift (2)</text>
</g>
<!-- swift (2)&#45;&#45;kt (2) -->
<g id="edge23" class="edge">
<title>swift (2)&#45;&#45;kt (2)</title>
<path fill="none" stroke="#00688b" stroke-opacity="0.368627" d="M564.05,-344.54C555.82,-330.08 544.17,-309.64 535.93,-295.18"/>
<text text-anchor="middle" x="559.25" y="-315.6" font-family="Arial" font-size="12.00"> 1 </text>
</g>
<!-- swift (2)&#45;&#45;dart (1) -->
<g id="edge24" class="edge">
<title>swift (2)&#45;&#45;dart (1)</title>
<path fill="none" stroke="#00688b" stroke-opacity="0.368627" d="M577.04,-344.71C582.79,-312.03 595.19,-241.55 600.95,-208.83"/>
<text text-anchor="middle" x="598.36" y="-272.48" font-family="Arial" font-size="12.00"> 1 </text>
</g>
<!-- css (1)&#45;&#45;html (1) -->
<g id="edge22" class="edge">
<title>css (1)&#45;&#45;html (1)</title>
<path fill="none" stroke="#00688b" stroke-opacity="0.368627" d="M474,-85.79C474,-71.33 474,-50.89 474,-36.43"/>
<text text-anchor="middle" x="480.38" y="-56.85" font-family="Arial" font-size="12.00"> 1 </text>
</g>
<!-- ts (1) -->
<g id="node10" class="node">
<title>ts (1)</title>
<polygon fill="#00b2ee" stroke="white" points="752,-381 698,-381 698,-345 752,-345 752,-381"/>
<text text-anchor="middle" x="725" y="-358.32" font-family="Tahoma" font-size="14.00">ts (1)</text>
</g>
<!-- kts (1)&#45;&#45;html (1) -->
<g id="edge21" class="edge">
<title>kts (1)&#45;&#45;html (1)</title>
<path fill="none" stroke="#00688b" stroke-opacity="0.368627" d="M524,-172.16C522.88,-162.72 521.43,-150.83 520,-140.25 516.75,-116.21 519.88,-109.2 512,-86.25 505.82,-68.24 494.8,-49.52 486.22,-36.42"/>
<text text-anchor="middle" x="524.67" y="-99.97" font-family="Arial" font-size="12.00"> 1 </text>
</g>
<!-- kts (1)&#45;&#45;css (1) -->
<g id="edge20" class="edge">
<title>kts (1)&#45;&#45;css (1)</title>
<path fill="none" stroke="#00688b" stroke-opacity="0.368627" d="M515.23,-172.04C506.3,-157.58 493.68,-137.14 484.76,-122.68"/>
<text text-anchor="middle" x="509.49" y="-143.1" font-family="Arial" font-size="12.00"> 1 </text>
</g>
<!-- xml (2)&#45;&#45;sql (1) -->
<g id="edge14" class="edge">
<title>xml (2)&#45;&#45;sql (1)</title>
<path fill="none" stroke="#00688b" stroke-opacity="0.368627" d="M272.61,-172.21C273.76,-139.53 276.24,-69.05 277.39,-36.33"/>
<text text-anchor="middle" x="281.97" y="-99.97" font-family="Arial" font-size="12.00"> 1 </text>
</g>
<!-- xml (2)&#45;&#45;java (2) -->
<g id="edge13" class="edge">
<title>xml (2)&#45;&#45;java (2)</title>
<path fill="none" stroke="#00688b" stroke-opacity="0.368627" d="M262.26,-172.04C254.2,-157.58 242.79,-137.14 234.73,-122.68"/>
<text text-anchor="middle" x="257.69" y="-143.1" font-family="Arial" font-size="12.00"> 1 </text>
</g>
<!-- java (2)&#45;&#45;sql (1) -->
<g id="edge15" class="edge">
<title>java (2)&#45;&#45;sql (1)</title>
<path fill="none" stroke="#00688b" stroke-opacity="0.368627" d="M235.98,-85.79C245.08,-71.33 257.94,-50.89 267.03,-36.43"/>
<text text-anchor="middle" x="261.05" y="-56.85" font-family="Arial" font-size="12.00"> 1 </text>
</g>
<!-- java (2)&#45;&#45;proto (1) -->
<g id="edge8" class="edge">
<title>java (2)&#45;&#45;proto (1)</title>
<path fill="none" stroke="#00688b" stroke-opacity="0.368627" d="M192.53,-88.38C160.03,-73.5 110.16,-50.67 76.6,-35.3"/>
<text text-anchor="middle" x="150.39" y="-56.85" font-family="Arial" font-size="12.00"> 1 </text>
</g>
<!-- py (2) -->
<g id="node17" class="node">
<title>py (2)</title>
<polygon fill="#00b2ee" stroke="white" points="824,-381 770,-381 770,-345 824,-345 824,-381"/>
<text text-anchor="middle" x="797" y="-358.32" font-family="Tahoma" font-size="14.00">py (2)</text>
</g>
</g>
</svg>
