<svg width="608pt" height="1435pt"
 viewBox="0.00 0.00 607.75 1435.00" xmlns="http://www.w3.org/2000/svg" xmlns:xlink="http://www.w3.org/1999/xlink">
<g id="graph0" class="graph" transform="scale(1 1) rotate(0) translate(4 1431)">
<title>G</title>
<polygon fill="white" stroke="none" points="-4,4 -4,-1431 603.75,-1431 603.75,4 -4,4"/>
<!-- 43047562+scala&#45;steward@users.noreply.github.com -->
<g id="node1" class="node">
<title>43047562+scala&#45;steward@users.noreply.github.com</title>
<polygon fill="#00b2ee" stroke="white" points="337.75,-446 0,-446 0,-410 337.75,-410 337.75,-446"/>
<text text-anchor="middle" x="168.88" y="-423.32" font-family="Tahoma" font-size="14.00">43047562+scala&#45;steward@users.noreply.github.com</text>
</g>
<!-- [spotify / ratatool] -->
<g id="node2" class="node">
<title>[spotify / ratatool]</title>
<polygon fill="#00b2ee" stroke="white" points="556.62,-649 429.62,-649 429.62,-613 556.62,-613 556.62,-649"/>
<text text-anchor="middle" x="493.12" y="-626.33" font-family="Tahoma" font-size="14.00">[spotify / ratatool]</text>
</g>
<!-- 43047562+scala&#45;steward@users.noreply.github.com&#45;&#45;[spotify / ratatool] -->
<g id="edge1" class="edge">
<title>43047562+scala&#45;steward@users.noreply.github.com&#45;&#45;[spotify / ratatool]</title>
<path fill="none" stroke="#00688b" stroke-opacity="0.368627" d="M223.74,-446.35C267.96,-463.87 329.43,-494.24 368.5,-538.75 382.78,-555.02 371.51,-568.39 386.5,-584 398.32,-596.3 413.93,-605.62 429.52,-612.57"/>
<text text-anchor="middle" x="362.12" y="-541.6" font-family="Arial" font-size="12.00"> 1 </text>
</g>
<!-- [spotify / magnolify] -->
<g id="node3" class="node">
<title>[spotify / magnolify]</title>
<polygon fill="#00b2ee" stroke="white" points="563,-481 423.25,-481 423.25,-445 563,-445 563,-481"/>
<text text-anchor="middle" x="493.12" y="-458.32" font-family="Tahoma" font-size="14.00">[spotify / magnolify]</text>
</g>
<!-- 43047562+scala&#45;steward@users.noreply.github.com&#45;&#45;[spotify / magnolify] -->
<g id="edge2" class="edge">
<title>43047562+scala&#45;steward@users.noreply.github.com&#45;&#45;[spotify / magnolify]</title>
<path fill="none" stroke="#00688b" stroke-opacity="0.368627" d="M338.15,-443.45C348.43,-444.53 358.6,-445.63 368.5,-446.75 386.14,-448.74 405.16,-451.12 422.87,-453.44"/>
<text text-anchor="middle" x="362.12" y="-449.6" font-family="Arial" font-size="12.00"> 1 </text>
</g>
<!-- [spotify / scio&#45;idea&#45;plugin] -->
<g id="node4" class="node">
<title>[spotify / scio&#45;idea&#45;plugin]</title>
<polygon fill="#00b2ee" stroke="white" points="581,-427 405.25,-427 405.25,-391 581,-391 581,-427"/>
<text text-anchor="middle" x="493.12" y="-404.32" font-family="Tahoma" font-size="14.00">[spotify / scio&#45;idea&#45;plugin]</text>
</g>
<!-- 43047562+scala&#45;steward@users.noreply.github.com&#45;&#45;[spotify / scio&#45;idea&#45;plugin] -->
<g id="edge3" class="edge">
<title>43047562+scala&#45;steward@users.noreply.github.com&#45;&#45;[spotify / scio&#45;idea&#45;plugin]</title>
<path fill="none" stroke="#00688b" stroke-opacity="0.368627" d="M338.01,-410.79C343.99,-410.4 349.92,-410.05 355.75,-409.75 371.59,-408.93 388.48,-408.49 404.79,-408.28"/>
<text text-anchor="middle" x="362.12" y="-412.6" font-family="Arial" font-size="12.00"> 1 </text>
</g>
<!-- [spotify / scio] -->
<g id="node5" class="node">
<title>[spotify / scio]</title>
<polygon fill="#00b2ee" stroke="white" points="545,-209 441.25,-209 441.25,-173 545,-173 545,-209"/>
<text text-anchor="middle" x="493.12" y="-186.32" font-family="Tahoma" font-size="14.00">[spotify / scio]</text>
</g>
<!-- 43047562+scala&#45;steward@users.noreply.github.com&#45;&#45;[spotify / scio] -->
<g id="edge4" class="edge">
<title>43047562+scala&#45;steward@users.noreply.github.com&#45;&#45;[spotify / scio]</title>
<path fill="none" stroke="#00688b" stroke-opacity="0.368627" d="M204.1,-409.51C238.82,-390.23 293.6,-358.35 337.75,-326 389.74,-287.92 445.38,-236.2 473.52,-209.17"/>
<text text-anchor="middle" x="362.12" y="-311.98" font-family="Arial" font-size="12.00"> 1 </text>
</g>
<!-- [spotify / gcs&#45;tools] -->
<g id="node6" class="node">
<title>[spotify / gcs&#45;tools]</title>
<polygon fill="#00b2ee" stroke="white" points="560.38,-373 425.88,-373 425.88,-337 560.38,-337 560.38,-373"/>
<text text-anchor="middle" x="493.12" y="-350.32" font-family="Tahoma" font-size="14.00">[spotify / gcs&#45;tools]</text>
</g>
<!-- 43047562+scala&#45;steward@users.noreply.github.com&#45;&#45;[spotify / gcs&#45;tools] -->
<g id="edge5" class="edge">
<title>43047562+scala&#45;steward@users.noreply.github.com&#45;&#45;[spotify / gcs&#45;tools]</title>
<path fill="none" stroke="#00688b" stroke-opacity="0.368627" d="M251.19,-409.58C305.08,-397.37 374.89,-381.56 425.49,-370.1"/>
<text text-anchor="middle" x="362.12" y="-387.81" font-family="Arial" font-size="12.00"> 1 </text>
</g>
<!-- [spotify / elitzur] -->
<g id="node7" class="node">
<title>[spotify / elitzur]</title>
<polygon fill="#00b2ee" stroke="white" points="551.75,-575 434.5,-575 434.5,-539 551.75,-539 551.75,-575"/>
<text text-anchor="middle" x="493.12" y="-552.33" font-family="Tahoma" font-size="14.00">[spotify / elitzur]</text>
</g>
<!-- 43047562+scala&#45;steward@users.noreply.github.com&#45;&#45;[spotify / elitzur] -->
<g id="edge6" class="edge">
<title>43047562+scala&#45;steward@users.noreply.github.com&#45;&#45;[spotify / elitzur]</title>
<path fill="none" stroke="#00688b" stroke-opacity="0.368627" d="M254.17,-446.47C290.13,-455.67 332.11,-468.18 368.5,-483.75 403.82,-498.86 441.38,-522.3 465.71,-538.58"/>
<text text-anchor="middle" x="362.12" y="-486.6" font-family="Arial" font-size="12.00"> 1 </text>
</g>
<!-- actions@users.noreply.github.com -->
<g id="node8" class="node">
<title>actions@users.noreply.github.com</title>
<polygon fill="#00b2ee" stroke="white" points="281.5,-740 56.25,-740 56.25,-704 281.5,-704 281.5,-740"/>
<text text-anchor="middle" x="168.88" y="-717.33" font-family="Tahoma" font-size="14.00">actions@users.noreply.github.com</text>
</g>
<!-- [spotify / spotify.github.io] -->
<g id="node9" class="node">
<title>[spotify / spotify.github.io]</title>
<polygon fill="#00b2ee" stroke="white" points="581.38,-740 404.88,-740 404.88,-704 581.38,-704 581.38,-740"/>
<text text-anchor="middle" x="493.12" y="-717.33" font-family="Tahoma" font-size="14.00">[spotify / spotify.github.io]</text>
</g>
<!-- actions@users.noreply.github.com&#45;&#45;[spotify / spotify.github.io] -->
<g id="edge7" class="edge">
<title>actions@users.noreply.github.com&#45;&#45;[spotify / spotify.github.io]</title>
<path fill="none" stroke="#00688b" stroke-opacity="0.368627" d="M281.68,-722C321.85,-722 366.55,-722 404.39,-722"/>
<text text-anchor="middle" x="362.12" y="-724.85" font-family="Arial" font-size="12.00"> 1 </text>
</g>
<!-- micheld@spotify.com -->
<g id="node10" class="node">
<title>micheld@spotify.com</title>
<polygon fill="#00b2ee" stroke="white" points="241.75,-155 96,-155 96,-119 241.75,-119 241.75,-155"/>
<text text-anchor="middle" x="168.88" y="-132.32" font-family="Tahoma" font-size="14.00">micheld@spotify.com</text>
</g>
<!-- micheld@spotify.com&#45;&#45;[spotify / scio] -->
<g id="edge8" class="edge">
<title>micheld@spotify.com&#45;&#45;[spotify / scio]</title>
<path fill="none" stroke="#00688b" stroke-opacity="0.368627" d="M242.21,-148.41C271.84,-153.14 306.45,-158.75 337.75,-164 372.23,-169.79 410.99,-176.57 441.05,-181.89"/>
<text text-anchor="middle" x="362.12" y="-171.87" font-family="Arial" font-size="12.00"> 1 </text>
</g>
<!-- oss@regadas.email -->
<g id="node11" class="node">
<title>oss@regadas.email</title>
<polygon fill="#00b2ee" stroke="white" points="236.12,-861 101.62,-861 101.62,-825 236.12,-825 236.12,-861"/>
<text text-anchor="middle" x="168.88" y="-838.33" font-family="Tahoma" font-size="14.00">oss@regadas.email</text>
</g>
<!-- [spotify / flink&#45;on&#45;k8s&#45;operator] -->
<g id="node12" class="node">
<title>[spotify / flink&#45;on&#45;k8s&#45;operator]</title>
<polygon fill="#00b2ee" stroke="white" points="596.75,-821 389.5,-821 389.5,-785 596.75,-785 596.75,-821"/>
<text text-anchor="middle" x="493.12" y="-798.33" font-family="Tahoma" font-size="14.00">[spotify / flink&#45;on&#45;k8s&#45;operator]</text>
</g>
<!-- oss@regadas.email&#45;&#45;[spotify / flink&#45;on&#45;k8s&#45;operator] -->
<g id="edge9" class="edge">
<title>oss@regadas.email&#45;&#45;[spotify / flink&#45;on&#45;k8s&#45;operator]</title>
<path fill="none" stroke="#00688b" stroke-opacity="0.368627" d="M236.25,-834.76C280.29,-829.29 338.97,-822.01 389.02,-815.8"/>
<text text-anchor="middle" x="362.12" y="-822.27" font-family="Arial" font-size="12.00"> 1 </text>
</g>
<!-- scala_steward@virtuslab.com -->
<g id="node13" class="node">
<title>scala_steward@virtuslab.com</title>
<polygon fill="#00b2ee" stroke="white" points="267.62,-575 70.12,-575 70.12,-539 267.62,-539 267.62,-575"/>
<text text-anchor="middle" x="168.88" y="-552.33" font-family="Tahoma" font-size="14.00">scala_steward@virtuslab.com</text>
</g>
<!-- scala_steward@virtuslab.com&#45;&#45;[spotify / elitzur] -->
<g id="edge10" class="edge">
<title>scala_steward@virtuslab.com&#45;&#45;[spotify / elitzur]</title>
<path fill="none" stroke="#00688b" stroke-opacity="0.368627" d="M267.87,-557C322.31,-557 388.17,-557 434.39,-557"/>
<text text-anchor="middle" x="362.12" y="-559.85" font-family="Arial" font-size="12.00"> 1 </text>
</g>
<!-- clairem@spotify.com -->
<g id="node14" class="node">
<title>clairem@spotify.com</title>
<polygon fill="#00b2ee" stroke="white" points="240.62,-101 97.12,-101 97.12,-65 240.62,-65 240.62,-101"/>
<text text-anchor="middle" x="168.88" y="-78.33" font-family="Tahoma" font-size="14.00">clairem@spotify.com</text>
</g>
<!-- clairem@spotify.com&#45;&#45;[spotify / scio] -->
<g id="edge11" class="edge">
<title>clairem@spotify.com&#45;&#45;[spotify / scio]</title>
<path fill="none" stroke="#00688b" stroke-opacity="0.368627" d="M240.93,-89.27C271.29,-93.26 306.8,-99.7 337.75,-110 384.27,-125.49 433.73,-153.81 463.79,-172.52"/>
<text text-anchor="middle" x="362.12" y="-122.89" font-family="Arial" font-size="12.00"> 1 </text>
</g>
<!-- nicklasl@spotify.com -->
<g id="node15" class="node">
<title>nicklasl@spotify.com</title>
<polygon fill="#00b2ee" stroke="white" points="239.88,-915 97.88,-915 97.88,-879 239.88,-879 239.88,-915"/>
<text text-anchor="middle" x="168.88" y="-892.33" font-family="Tahoma" font-size="14.00">nicklasl@spotify.com</text>
</g>
<!-- [spotify / confidence&#45;sdk&#45;js] -->
<g id="node16" class="node">
<title>[spotify / confidence&#45;sdk&#45;js]</title>
<polygon fill="#00b2ee" stroke="white" points="586.25,-915 400,-915 400,-879 586.25,-879 586.25,-915"/>
<text text-anchor="middle" x="493.12" y="-892.33" font-family="Tahoma" font-size="14.00">[spotify / confidence&#45;sdk&#45;js]</text>
</g>
<!-- nicklasl@spotify.com&#45;&#45;[spotify / confidence&#45;sdk&#45;js] -->
<g id="edge12" class="edge">
<title>nicklasl@spotify.com&#45;&#45;[spotify / confidence&#45;sdk&#45;js]</title>
<path fill="none" stroke="#00688b" stroke-opacity="0.368627" d="M240.2,-897C286.96,-897 348.87,-897 399.61,-897"/>
<text text-anchor="middle" x="362.12" y="-899.85" font-family="Arial" font-size="12.00"> 1 </text>
</g>
<!-- vahidlazio@gmail.com -->
<g id="node17" class="node">
<title>vahidlazio@gmail.com</title>
<polygon fill="#00b2ee" stroke="white" points="244.75,-969 93,-969 93,-933 244.75,-933 244.75,-969"/>
<text text-anchor="middle" x="168.88" y="-946.33" font-family="Tahoma" font-size="14.00">vahidlazio@gmail.com</text>
</g>
<!-- [spotify / confidence&#45;sdk&#45;flutter] -->
<g id="node18" class="node">
<title>[spotify / confidence&#45;sdk&#45;flutter]</title>
<polygon fill="#00b2ee" stroke="white" points="599.75,-969 386.5,-969 386.5,-933 599.75,-933 599.75,-969"/>
<text text-anchor="middle" x="493.12" y="-946.33" font-family="Tahoma" font-size="14.00">[spotify / confidence&#45;sdk&#45;flutter]</text>
</g>
<!-- vahidlazio@gmail.com&#45;&#45;[spotify / confidence&#45;sdk&#45;flutter] -->
<g id="edge13" class="edge">
<title>vahidlazio@gmail.com&#45;&#45;[spotify / confidence&#45;sdk&#45;flutter]</title>
<path fill="none" stroke="#00688b" stroke-opacity="0.368627" d="M245.02,-951C287.05,-951 340.12,-951 386.3,-951"/>
<text text-anchor="middle" x="362.12" y="-953.85" font-family="Arial" font-size="12.00"> 1 </text>
</g>
<!-- dlstadther@gmail.com -->
<g id="node19" class="node">
<title>dlstadther@gmail.com</title>
<polygon fill="#00b2ee" stroke="white" points="245.5,-1090 92.25,-1090 92.25,-1054 245.5,-1054 245.5,-1090"/>
<text text-anchor="middle" x="168.88" y="-1067.33" font-family="Tahoma" font-size="14.00">dlstadther@gmail.com</text>
</g>
<!-- [spotify / luigi] -->
<g id="node20" class="node">
<title>[spotify / luigi]</title>
<polygon fill="#00b2ee" stroke="white" points="545.38,-1050 440.88,-1050 440.88,-1014 545.38,-1014 545.38,-1050"/>
<text text-anchor="middle" x="493.12" y="-1027.33" font-family="Tahoma" font-size="14.00">[spotify / luigi]</text>
</g>
<!-- dlstadther@gmail.com&#45;&#45;[spotify / luigi] -->
<g id="edge14" class="edge">
<title>dlstadther@gmail.com&#45;&#45;[spotify / luigi]</title>
<path fill="none" stroke="#00688b" stroke-opacity="0.368627" d="M245.84,-1062.57C305.94,-1055.11 388.23,-1044.9 440.79,-1038.37"/>
<text text-anchor="middle" x="362.12" y="-1051.27" font-family="Arial" font-size="12.00"> 1 </text>
</g>
<!-- kellen@users.noreply.github.com -->
<g id="node21" class="node">
<title>kellen@users.noreply.github.com</title>
<polygon fill="#00b2ee" stroke="white" points="277.75,-46 60,-46 60,-10 277.75,-10 277.75,-46"/>
<text text-anchor="middle" x="168.88" y="-23.32" font-family="Tahoma" font-size="14.00">kellen@users.noreply.github.com</text>
</g>
<!-- kellen@users.noreply.github.com&#45;&#45;[spotify / scio] -->
<g id="edge16" class="edge">
<title>kellen@users.noreply.github.com&#45;&#45;[spotify / scio]</title>
<path fill="none" stroke="#00688b" stroke-opacity="0.368627" d="M278.24,-37.04C298.63,-41.23 319.32,-47.28 337.75,-56 397.61,-84.32 451.98,-142.75 477.24,-172.59"/>
<text text-anchor="middle" x="362.12" y="-75.08" font-family="Arial" font-size="12.00"> 1 </text>
</g>
<!-- [spotify / dbeam] -->
<g id="node22" class="node">
<title>[spotify / dbeam]</title>
<polygon fill="#00b2ee" stroke="white" points="554.38,-36 431.88,-36 431.88,0 554.38,0 554.38,-36"/>
<text text-anchor="middle" x="493.12" y="-13.32" font-family="Tahoma" font-size="14.00">[spotify / dbeam]</text>
</g>
<!-- kellen@users.noreply.github.com&#45;&#45;[spotify / dbeam] -->
<g id="edge15" class="edge">
<title>kellen@users.noreply.github.com&#45;&#45;[spotify / dbeam]</title>
<path fill="none" stroke="#00688b" stroke-opacity="0.368627" d="M277.96,-21.81C303.46,-20.58 330.56,-19.45 355.75,-18.75 380.6,-18.06 408.01,-17.81 431.69,-17.76"/>
<text text-anchor="middle" x="362.12" y="-21.6" font-family="Arial" font-size="12.00"> 1 </text>
</g>
<!-- kmcbride@users.noreply.github.com -->
<g id="node23" class="node">
<title>kmcbride@users.noreply.github.com</title>
<polygon fill="#00b2ee" stroke="white" points="288.25,-1144 49.5,-1144 49.5,-1108 288.25,-1108 288.25,-1144"/>
<text text-anchor="middle" x="168.88" y="-1121.33" font-family="Tahoma" font-size="14.00">kmcbride@users.noreply.github.com</text>
</g>
<!-- [spotify / Mobius.swift] -->
<g id="node24" class="node">
<title>[spotify / Mobius.swift]</title>
<polygon fill="#00b2ee" stroke="white" points="570.88,-1144 415.38,-1144 415.38,-1108 570.88,-1108 570.88,-1144"/>
<text text-anchor="middle" x="493.12" y="-1121.33" font-family="Tahoma" font-size="14.00">[spotify / Mobius.swift]</text>
</g>
<!-- kmcbride@users.noreply.github.com&#45;&#45;[spotify / Mobius.swift] -->
<g id="edge17" class="edge">
<title>kmcbride@users.noreply.github.com&#45;&#45;[spotify / Mobius.swift]</title>
<path fill="none" stroke="#00688b" stroke-opacity="0.368627" d="M288.5,-1126C330.85,-1126 377.42,-1126 415.33,-1126"/>
<text text-anchor="middle" x="362.12" y="-1128.85" font-family="Arial" font-size="12.00"> 1 </text>
</g>
<!-- lschaller@spotify.com -->
<g id="node25" class="node">
<title>lschaller@spotify.com</title>
<polygon fill="#00b2ee" stroke="white" points="242.88,-631 94.88,-631 94.88,-595 242.88,-595 242.88,-631"/>
<text text-anchor="middle" x="168.88" y="-608.33" font-family="Tahoma" font-size="14.00">lschaller@spotify.com</text>
</g>
<!-- lschaller@spotify.com&#45;&#45;[spotify / ratatool] -->
<g id="edge18" class="edge">
<title>lschaller@spotify.com&#45;&#45;[spotify / ratatool]</title>
<path fill="none" stroke="#00688b" stroke-opacity="0.368627" d="M243,-617.08C299.17,-620.22 375.93,-624.51 429.34,-627.49"/>
<text text-anchor="middle" x="362.12" y="-626.46" font-family="Arial" font-size="12.00"> 1 </text>
</g>
<!-- lschaller@spotify.com&#45;&#45;[spotify / elitzur] -->
<g id="edge19" class="edge">
<title>lschaller@spotify.com&#45;&#45;[spotify / elitzur]</title>
<path fill="none" stroke="#00688b" stroke-opacity="0.368627" d="M243.01,-600.4C272.45,-595.32 306.72,-589.39 337.75,-584 369.65,-578.46 405.25,-572.23 434.22,-567.16"/>
<text text-anchor="middle" x="362.12" y="-583.2" font-family="Arial" font-size="12.00"> 1 </text>
</g>
<!-- benkonz16@gmail.com -->
<g id="node26" class="node">
<title>benkonz16@gmail.com</title>
<polygon fill="#00b2ee" stroke="white" points="247.75,-686 90,-686 90,-650 247.75,-650 247.75,-686"/>
<text text-anchor="middle" x="168.88" y="-663.33" font-family="Tahoma" font-size="14.00">benkonz16@gmail.com</text>
</g>
<!-- benkonz16@gmail.com&#45;&#45;[spotify / ratatool] -->
<g id="edge20" class="edge">
<title>benkonz16@gmail.com&#45;&#45;[spotify / ratatool]</title>
<path fill="none" stroke="#00688b" stroke-opacity="0.368627" d="M247.88,-659.04C303.48,-652.66 377.27,-644.19 429.14,-638.23"/>
<text text-anchor="middle" x="362.12" y="-649.04" font-family="Arial" font-size="12.00"> 1 </text>
</g>
<!-- kmj@google.com -->
<g id="node27" class="node">
<title>kmj@google.com</title>
<polygon fill="#00b2ee" stroke="white" points="230.12,-317 107.62,-317 107.62,-281 230.12,-281 230.12,-317"/>
<text text-anchor="middle" x="168.88" y="-294.32" font-family="Tahoma" font-size="14.00">kmj@google.com</text>
</g>
<!-- kmj@google.com&#45;&#45;[spotify / scio] -->
<g id="edge21" class="edge">
<title>kmj@google.com&#45;&#45;[spotify / scio]</title>
<path fill="none" stroke="#00688b" stroke-opacity="0.368627" d="M230.44,-294.04C262.87,-290.2 303.16,-283.51 337.75,-272 384.27,-256.51 433.73,-228.19 463.79,-209.48"/>
<text text-anchor="middle" x="362.12" y="-266.64" font-family="Arial" font-size="12.00"> 1 </text>
</g>
<!-- gianni@spotify.com -->
<g id="node28" class="node">
<title>gianni@spotify.com</title>
<polygon fill="#00b2ee" stroke="white" points="236.12,-1265 101.62,-1265 101.62,-1229 236.12,-1229 236.12,-1265"/>
<text text-anchor="middle" x="168.88" y="-1242.33" font-family="Tahoma" font-size="14.00">gianni@spotify.com</text>
</g>
<!-- [spotify / SPTDataLoader] -->
<g id="node29" class="node">
<title>[spotify / SPTDataLoader]</title>
<polygon fill="#00b2ee" stroke="white" points="580.62,-1225 405.62,-1225 405.62,-1189 580.62,-1189 580.62,-1225"/>
<text text-anchor="middle" x="493.12" y="-1202.33" font-family="Tahoma" font-size="14.00">[spotify / SPTDataLoader]</text>
</g>
<!-- gianni@spotify.com&#45;&#45;[spotify / SPTDataLoader] -->
<g id="edge22" class="edge">
<title>gianni@spotify.com&#45;&#45;[spotify / SPTDataLoader]</title>
<path fill="none" stroke="#00688b" stroke-opacity="0.368627" d="M236.25,-1238.76C285.17,-1232.69 352.16,-1224.37 405.32,-1217.77"/>
<text text-anchor="middle" x="362.12" y="-1226.27" font-family="Arial" font-size="12.00"> 1 </text>
</g>
<!-- 461260911@qq.com -->
<g id="node30" class="node">
<title>461260911@qq.com</title>
<polygon fill="#00b2ee" stroke="white" points="239.88,-1319 97.88,-1319 97.88,-1283 239.88,-1283 239.88,-1319"/>
<text text-anchor="middle" x="168.88" y="-1296.33" font-family="Tahoma" font-size="14.00">461260911@qq.com</text>
</g>
<!-- [spotify / ruler] -->
<g id="node31" class="node">
<title>[spotify / ruler]</title>
<polygon fill="#00b2ee" stroke="white" points="547.62,-1319 438.62,-1319 438.62,-1283 547.62,-1283 547.62,-1319"/>
<text text-anchor="middle" x="493.12" y="-1296.33" font-family="Tahoma" font-size="14.00">[spotify / ruler]</text>
</g>
<!-- 461260911@qq.com&#45;&#45;[spotify / ruler] -->
<g id="edge23" class="edge">
<title>461260911@qq.com&#45;&#45;[spotify / ruler]</title>
<path fill="none" stroke="#00688b" stroke-opacity="0.368627" d="M240.2,-1301C299.74,-1301 383.84,-1301 438.18,-1301"/>
<text text-anchor="middle" x="362.12" y="-1303.85" font-family="Arial" font-size="12.00"> 1 </text>
</g>
<!-- micheleg@spotify.com -->
<g id="node32" class="node">
<title>micheleg@spotify.com</title>
<polygon fill="#00b2ee" stroke="white" points="245.5,-1373 92.25,-1373 92.25,-1337 245.5,-1337 245.5,-1373"/>
<text text-anchor="middle" x="168.88" y="-1350.33" font-family="Tahoma" font-size="14.00">micheleg@spotify.com</text>
</g>
<!-- [spotify / voyager] -->
<g id="node33" class="node">
<title>[spotify / voyager]</title>
<polygon fill="#00b2ee" stroke="white" points="557.75,-1373 428.5,-1373 428.5,-1337 557.75,-1337 557.75,-1373"/>
<text text-anchor="middle" x="493.12" y="-1350.33" font-family="Tahoma" font-size="14.00">[spotify / voyager]</text>
</g>
<!-- micheleg@spotify.com&#45;&#45;[spotify / voyager] -->
<g id="edge24" class="edge">
<title>micheleg@spotify.com&#45;&#45;[spotify / voyager]</title>
<path fill="none" stroke="#00688b" stroke-opacity="0.368627" d="M245.84,-1355C301.29,-1355 375.62,-1355 428.07,-1355"/>
<text text-anchor="middle" x="362.12" y="-1357.85" font-family="Arial" font-size="12.00"> 1 </text>
</g>
<!-- ericfjosne@users.noreply.github.com -->
<g id="node34" class="node">
<title>ericfjosne@users.noreply.github.com</title>
<polygon fill="#00b2ee" stroke="white" points="289.75,-1427 48,-1427 48,-1391 289.75,-1391 289.75,-1427"/>
<text text-anchor="middle" x="168.88" y="-1404.33" font-family="Tahoma" font-size="14.00">ericfjosne@users.noreply.github.com</text>
</g>
<!-- [spotify / java&#45;locales] -->
<g id="node35" class="node">
<title>[spotify / java&#45;locales]</title>
<polygon fill="#00b2ee" stroke="white" points="569.38,-1427 416.88,-1427 416.88,-1391 569.38,-1391 569.38,-1427"/>
<text text-anchor="middle" x="493.12" y="-1404.33" font-family="Tahoma" font-size="14.00">[spotify / java&#45;locales]</text>
</g>
<!-- ericfjosne@users.noreply.github.com&#45;&#45;[spotify / java&#45;locales] -->
<g id="edge25" class="edge">
<title>ericfjosne@users.noreply.github.com&#45;&#45;[spotify / java&#45;locales]</title>
<path fill="none" stroke="#00688b" stroke-opacity="0.368627" d="M289.87,-1409C332.28,-1409 378.76,-1409 416.46,-1409"/>
<text text-anchor="middle" x="362.12" y="-1411.85" font-family="Arial" font-size="12.00"> 1 </text>
</g>
<!-- sveyrie@luminatedata.com -->
<g id="node36" class="node">
<title>sveyrie@luminatedata.com</title>
<polygon fill="#00b2ee" stroke="white" points="259.75,-263 78,-263 78,-227 259.75,-227 259.75,-263"/>
<text text-anchor="middle" x="168.88" y="-240.32" font-family="Tahoma" font-size="14.00">sveyrie@luminatedata.com</text>
</g>
<!-- sveyrie@luminatedata.com&#45;&#45;[spotify / scio] -->
<g id="edge26" class="edge">
<title>sveyrie@luminatedata.com&#45;&#45;[spotify / scio]</title>
<path fill="none" stroke="#00688b" stroke-opacity="0.368627" d="M260.08,-230.72C285.24,-226.68 312.57,-222.23 337.75,-218 372.23,-212.21 410.99,-205.43 441.05,-200.11"/>
<text text-anchor="middle" x="362.12" y="-217.29" font-family="Arial" font-size="12.00"> 1 </text>
</g>
<!-- matek_a@outlook.com -->
<g id="node37" class="node">
<title>matek_a@outlook.com</title>
<polygon fill="#00b2ee" stroke="white" points="247.38,-1036 90.38,-1036 90.38,-1000 247.38,-1000 247.38,-1036"/>
<text text-anchor="middle" x="168.88" y="-1013.33" font-family="Tahoma" font-size="14.00">matek_a@outlook.com</text>
</g>
<!-- matek_a@outlook.com&#45;&#45;[spotify / luigi] -->
<g id="edge27" class="edge">
<title>matek_a@outlook.com&#45;&#45;[spotify / luigi]</title>
<path fill="none" stroke="#00688b" stroke-opacity="0.368627" d="M247.47,-1021.37C307.44,-1023.98 388.75,-1027.51 440.83,-1029.77"/>
<text text-anchor="middle" x="362.12" y="-1029.1" font-family="Arial" font-size="12.00"> 1 </text>
</g>
<!-- akolb@spotify.com -->
<g id="node38" class="node">
<title>akolb@spotify.com</title>
<polygon fill="#00b2ee" stroke="white" points="234.25,-209 103.5,-209 103.5,-173 234.25,-173 234.25,-209"/>
<text text-anchor="middle" x="168.88" y="-186.32" font-family="Tahoma" font-size="14.00">akolb@spotify.com</text>
</g>
<!-- akolb@spotify.com&#45;&#45;[spotify / scio] -->
<g id="edge28" class="edge">
<title>akolb@spotify.com&#45;&#45;[spotify / scio]</title>
<path fill="none" stroke="#00688b" stroke-opacity="0.368627" d="M234.7,-191C295.44,-191 385.03,-191 440.91,-191"/>
<text text-anchor="middle" x="362.12" y="-193.85" font-family="Arial" font-size="12.00"> 1 </text>
</g>
<!-- danao@spotify.com -->
<g id="node39" class="node">
<title>danao@spotify.com</title>
<polygon fill="#00b2ee" stroke="white" points="236.88,-1211 100.88,-1211 100.88,-1175 236.88,-1175 236.88,-1211"/>
<text text-anchor="middle" x="168.88" y="-1188.33" font-family="Tahoma" font-size="14.00">danao@spotify.com</text>
</g>
<!-- danao@spotify.com&#45;&#45;[spotify / SPTDataLoader] -->
<g id="edge29" class="edge">
<title>danao@spotify.com&#45;&#45;[spotify / SPTDataLoader]</title>
<path fill="none" stroke="#00688b" stroke-opacity="0.368627" d="M237.04,-1195.92C285.83,-1198.04 352.28,-1200.92 405.13,-1203.22"/>
<text text-anchor="middle" x="362.12" y="-1204.1" font-family="Arial" font-size="12.00"> 1 </text>
</g>
<!-- tcodehuber@gmail.com -->
<g id="node40" class="node">
<title>tcodehuber@gmail.com</title>
<polygon fill="#00b2ee" stroke="white" points="249.62,-807 88.12,-807 88.12,-771 249.62,-771 249.62,-807"/>
<text text-anchor="middle" x="168.88" y="-784.33" font-family="Tahoma" font-size="14.00">tcodehuber@gmail.com</text>
</g>
<!-- tcodehuber@gmail.com&#45;&#45;[spotify / flink&#45;on&#45;k8s&#45;operator] -->
<g id="edge30" class="edge">
<title>tcodehuber@gmail.com&#45;&#45;[spotify / flink&#45;on&#45;k8s&#45;operator]</title>
<path fill="none" stroke="#00688b" stroke-opacity="0.368627" d="M249.95,-792.48C292.07,-794.31 344.2,-796.57 389.28,-798.53"/>
<text text-anchor="middle" x="362.12" y="-800.1" font-family="Arial" font-size="12.00"> 1 </text>
</g>
</g>
</svg>
