<svg width="1354pt" height="562pt"
 viewBox="0.00 0.00 1354.38 561.50" xmlns="http://www.w3.org/2000/svg" xmlns:xlink="http://www.w3.org/1999/xlink">
<g id="graph0" class="graph" transform="scale(1 1) rotate(0) translate(4 557.5)">
<title>G</title>
<polygon fill="white" stroke="none" points="-4,4 -4,-557.5 1350.38,-557.5 1350.38,4 -4,4"/>
<!-- 43047562+scala&#45;steward@users.noreply.github.com -->
<g id="node1" class="node">
<title>43047562+scala&#45;steward@users.noreply.github.com</title>
<polygon fill="#00b2ee" stroke="white" points="545.75,-553.5 208,-553.5 208,-517.5 545.75,-517.5 545.75,-553.5"/>
<text text-anchor="middle" x="376.88" y="-530.83" font-family="Tahoma" font-size="14.00">43047562+scala&#45;steward@users.noreply.github.com</text>
</g>
<!-- lschaller@spotify.com -->
<g id="node2" class="node">
<title>lschaller@spotify.com</title>
<polygon fill="#00b2ee" stroke="white" points="215.88,-381 67.88,-381 67.88,-345 215.88,-345 215.88,-381"/>
<text text-anchor="middle" x="141.88" y="-358.32" font-family="Tahoma" font-size="14.00">lschaller@spotify.com</text>
</g>
<!-- 43047562+scala&#45;steward@users.noreply.github.com&#45;&#45;lschaller@spotify.com -->
<g id="edge1" class="edge">
<title>43047562+scala&#45;steward@users.noreply.github.com&#45;&#45;lschaller@spotify.com</title>
<path fill="none" stroke="#00688b" stroke-width="2" stroke-opacity="0.439216" d="M332.11,-517C322.3,-512.12 312.33,-506.26 303.88,-499.5 273.66,-475.35 278.72,-457.02 249.88,-431.25 227.47,-411.24 198.39,-393.51 176.05,-381.28"/>
<text text-anchor="middle" x="283.14" y="-444.98" font-family="Arial" font-size="12.00"> 2 </text>
</g>
<!-- micheld@spotify.com -->
<g id="node5" class="node">
<title>micheld@spotify.com</title>
<polygon fill="#00b2ee" stroke="white" points="637.75,-467.25 492,-467.25 492,-431.25 637.75,-431.25 637.75,-467.25"/>
<text text-anchor="middle" x="564.88" y="-444.57" font-family="Tahoma" font-size="14.00">micheld@spotify.com</text>
</g>
<!-- 43047562+scala&#45;steward@users.noreply.github.com&#45;&#45;micheld@spotify.com -->
<g id="edge3" class="edge">
<title>43047562+scala&#45;steward@users.noreply.github.com&#45;&#45;micheld@spotify.com</title>
<path fill="none" stroke="#00688b" stroke-opacity="0.368627" d="M416.81,-517.17C429.62,-511.58 443.86,-505.31 456.88,-499.5 480.21,-489.08 506.27,-477.2 526.95,-467.72"/>
<text text-anchor="middle" x="492.98" y="-488.1" font-family="Arial" font-size="12.00"> 1 </text>
</g>
<!-- clairem@spotify.com -->
<g id="node6" class="node">
<title>clairem@spotify.com</title>
<polygon fill="#00b2ee" stroke="white" points="761.62,-381 618.12,-381 618.12,-345 761.62,-345 761.62,-381"/>
<text text-anchor="middle" x="689.88" y="-358.32" font-family="Tahoma" font-size="14.00">clairem@spotify.com</text>
</g>
<!-- 43047562+scala&#45;steward@users.noreply.github.com&#45;&#45;clairem@spotify.com -->
<g id="edge4" class="edge">
<title>43047562+scala&#45;steward@users.noreply.github.com&#45;&#45;clairem@spotify.com</title>
<path fill="none" stroke="#00688b" stroke-opacity="0.368627" d="M546.22,-517.61C582.54,-507.45 618.49,-491.66 646.88,-467.25 672.79,-444.97 683.4,-404.52 687.49,-381.42"/>
<text text-anchor="middle" x="678.46" y="-444.98" font-family="Arial" font-size="12.00"> 1 </text>
</g>
<!-- kellen@users.noreply.github.com -->
<g id="node7" class="node">
<title>kellen@users.noreply.github.com</title>
<polygon fill="#00b2ee" stroke="white" points="485.75,-294.75 268,-294.75 268,-258.75 485.75,-258.75 485.75,-294.75"/>
<text text-anchor="middle" x="376.88" y="-272.07" font-family="Tahoma" font-size="14.00">kellen@users.noreply.github.com</text>
</g>
<!-- 43047562+scala&#45;steward@users.noreply.github.com&#45;&#45;kellen@users.noreply.github.com -->
<g id="edge5" class="edge">
<title>43047562+scala&#45;steward@users.noreply.github.com&#45;&#45;kellen@users.noreply.github.com</title>
<path fill="none" stroke="#00688b" stroke-opacity="0.368627" d="M376.88,-517.26C376.88,-470.48 376.88,-341.6 376.88,-294.92"/>
<text text-anchor="middle" x="383.25" y="-401.85" font-family="Arial" font-size="12.00"> 1 </text>
</g>
<!-- kmj@google.com -->
<g id="node8" class="node">
<title>kmj@google.com</title>
<polygon fill="#00b2ee" stroke="white" points="599.12,-208.5 476.62,-208.5 476.62,-172.5 599.12,-172.5 599.12,-208.5"/>
<text text-anchor="middle" x="537.88" y="-185.82" font-family="Tahoma" font-size="14.00">kmj@google.com</text>
</g>
<!-- 43047562+scala&#45;steward@users.noreply.github.com&#45;&#45;kmj@google.com -->
<g id="edge6" class="edge">
<title>43047562+scala&#45;steward@users.noreply.github.com&#45;&#45;kmj@google.com</title>
<path fill="none" stroke="#00688b" stroke-opacity="0.368627" d="M393.11,-517.04C417.43,-489.96 463.21,-435.28 488.88,-381 517.06,-321.4 530.66,-243.31 535.6,-208.97"/>
<text text-anchor="middle" x="509.52" y="-358.73" font-family="Arial" font-size="12.00"> 1 </text>
</g>
<!-- sveyrie@luminatedata.com -->
<g id="node9" class="node">
<title>sveyrie@luminatedata.com</title>
<polygon fill="#00b2ee" stroke="white" points="709.75,-122.25 528,-122.25 528,-86.25 709.75,-86.25 709.75,-122.25"/>
<text text-anchor="middle" x="618.88" y="-99.58" font-family="Tahoma" font-size="14.00">sveyrie@luminatedata.com</text>
</g>
<!-- 43047562+scala&#45;steward@users.noreply.github.com&#45;&#45;sveyrie@luminatedata.com -->
<g id="edge7" class="edge">
<title>43047562+scala&#45;steward@users.noreply.github.com&#45;&#45;sveyrie@luminatedata.com</title>
<path fill="none" stroke="#00688b" stroke-opacity="0.368627" d="M546.09,-518.35C674.07,-503.75 827.88,-480.02 827.88,-450.25 827.88,-450.25 827.88,-450.25 827.88,-318.88 827.88,-247.33 816.42,-217.59 760.88,-172.5 733.98,-150.67 698.82,-133.95 670.22,-122.64"/>
<text text-anchor="middle" x="834.25" y="-315.6" font-family="Arial" font-size="12.00"> 1 </text>
</g>
<!-- akolb@spotify.com -->
<g id="node10" class="node">
<title>akolb@spotify.com</title>
<polygon fill="#00b2ee" stroke="white" points="623.25,-36 492.5,-36 492.5,0 623.25,0 623.25,-36"/>
<text text-anchor="middle" x="557.88" y="-13.32" font-family="Tahoma" font-size="14.00">akolb@spotify.com</text>
</g>
<!-- 43047562+scala&#45;steward@users.noreply.github.com&#45;&#45;akolb@spotify.com -->
<g id="edge8" class="edge">
<title>43047562+scala&#45;steward@users.noreply.github.com&#45;&#45;akolb@spotify.com</title>
<path fill="none" stroke="#00688b" stroke-opacity="0.368627" d="M362.16,-517.24C326.21,-473.26 236.88,-352.12 236.88,-234.62 236.88,-234.62 236.88,-234.62 236.88,-103.25 236.88,-50.96 398.23,-30.47 492.14,-22.97"/>
<text text-anchor="middle" x="250.05" y="-272.48" font-family="Arial" font-size="12.00"> 1 </text>
</g>
<!-- scala_steward@virtuslab.com -->
<g id="node15" class="node">
<title>scala_steward@virtuslab.com</title>
<polygon fill="#00b2ee" stroke="white" points="240.62,-467.25 43.12,-467.25 43.12,-431.25 240.62,-431.25 240.62,-467.25"/>
<text text-anchor="middle" x="141.88" y="-444.57" font-family="Tahoma" font-size="14.00">scala_steward@virtuslab.com</text>
</g>
<!-- 43047562+scala&#45;steward@users.noreply.github.com&#45;&#45;scala_steward@virtuslab.com -->
<g id="edge26" class="edge">
<title>43047562+scala&#45;steward@users.noreply.github.com&#45;&#45;scala_steward@virtuslab.com</title>
<path fill="none" stroke="#00688b" stroke-opacity="0.368627" d="M305.86,-517.01C287.52,-511.92 267.94,-505.97 250.12,-499.5 224.89,-490.34 197.37,-477.78 176.4,-467.64"/>
<text text-anchor="middle" x="256.5" y="-488.1" font-family="Arial" font-size="12.00"> 1 </text>
</g>
<!-- benkonz16@gmail.com -->
<g id="node16" class="node">
<title>benkonz16@gmail.com</title>
<polygon fill="#00b2ee" stroke="white" points="157.75,-294.75 0,-294.75 0,-258.75 157.75,-258.75 157.75,-294.75"/>
<text text-anchor="middle" x="78.88" y="-272.07" font-family="Tahoma" font-size="14.00">benkonz16@gmail.com</text>
</g>
<!-- 43047562+scala&#45;steward@users.noreply.github.com&#45;&#45;benkonz16@gmail.com -->
<g id="edge28" class="edge">
<title>43047562+scala&#45;steward@users.noreply.github.com&#45;&#45;benkonz16@gmail.com</title>
<path fill="none" stroke="#00688b" stroke-opacity="0.368627" d="M207.97,-521.41C133.18,-511.76 56.92,-495.25 33.88,-467.25 -8.45,-415.81 41.01,-331.32 66.06,-295.11"/>
<text text-anchor="middle" x="25.07" y="-401.85" font-family="Arial" font-size="12.00"> 1 </text>
</g>
<!-- lschaller@spotify.com&#45;&#45;benkonz16@gmail.com -->
<g id="edge29" class="edge">
<title>lschaller@spotify.com&#45;&#45;benkonz16@gmail.com</title>
<path fill="none" stroke="#00688b" stroke-opacity="0.368627" d="M128.82,-344.54C118.01,-330.08 102.72,-309.64 91.91,-295.18"/>
<text text-anchor="middle" x="120.52" y="-315.6" font-family="Arial" font-size="12.00"> 1 </text>
</g>
<!-- gianni@spotify.com -->
<g id="node3" class="node">
<title>gianni@spotify.com</title>
<polygon fill="#00b2ee" stroke="white" points="991.12,-553.5 856.62,-553.5 856.62,-517.5 991.12,-517.5 991.12,-553.5"/>
<text text-anchor="middle" x="923.88" y="-530.83" font-family="Tahoma" font-size="14.00">gianni@spotify.com</text>
</g>
<!-- danao@spotify.com -->
<g id="node4" class="node">
<title>danao@spotify.com</title>
<polygon fill="#00b2ee" stroke="white" points="991.88,-467.25 855.88,-467.25 855.88,-431.25 991.88,-431.25 991.88,-467.25"/>
<text text-anchor="middle" x="923.88" y="-444.57" font-family="Tahoma" font-size="14.00">danao@spotify.com</text>
</g>
<!-- gianni@spotify.com&#45;&#45;danao@spotify.com -->
<g id="edge2" class="edge">
<title>gianni@spotify.com&#45;&#45;danao@spotify.com</title>
<path fill="none" stroke="#00688b" stroke-opacity="0.368627" d="M923.88,-517.04C923.88,-502.58 923.88,-482.14 923.88,-467.68"/>
<text text-anchor="middle" x="930.25" y="-488.1" font-family="Arial" font-size="12.00"> 1 </text>
</g>
<!-- micheld@spotify.com&#45;&#45;clairem@spotify.com -->
<g id="edge9" class="edge">
<title>micheld@spotify.com&#45;&#45;clairem@spotify.com</title>
<path fill="none" stroke="#00688b" stroke-opacity="0.368627" d="M590.78,-430.79C612.23,-416.33 642.56,-395.89 664.01,-381.43"/>
<text text-anchor="middle" x="641.23" y="-401.85" font-family="Arial" font-size="12.00"> 1 </text>
</g>
<!-- micheld@spotify.com&#45;&#45;kellen@users.noreply.github.com -->
<g id="edge10" class="edge">
<title>micheld@spotify.com&#45;&#45;kellen@users.noreply.github.com</title>
<path fill="none" stroke="#00688b" stroke-opacity="0.368627" d="M539.96,-430.97C521.7,-417.94 496.64,-399.24 476.12,-381 444.35,-352.75 410.74,-316.17 391.93,-295"/>
<text text-anchor="middle" x="482.5" y="-358.73" font-family="Arial" font-size="12.00"> 1 </text>
</g>
<!-- micheld@spotify.com&#45;&#45;kmj@google.com -->
<g id="edge11" class="edge">
<title>micheld@spotify.com&#45;&#45;kmj@google.com</title>
<path fill="none" stroke="#00688b" stroke-opacity="0.368627" d="M563.06,-431.01C558.14,-384.23 544.59,-255.35 539.68,-208.67"/>
<text text-anchor="middle" x="558.37" y="-315.6" font-family="Arial" font-size="12.00"> 1 </text>
</g>
<!-- micheld@spotify.com&#45;&#45;sveyrie@luminatedata.com -->
<g id="edge12" class="edge">
<title>micheld@spotify.com&#45;&#45;sveyrie@luminatedata.com</title>
<path fill="none" stroke="#00688b" stroke-opacity="0.368627" d="M569.83,-430.91C580.24,-394.5 603.46,-313.39 603.88,-312.75 610.52,-302.41 619.74,-305.92 624.88,-294.75 651.63,-236.59 634.26,-157.42 624.38,-122.73"/>
<text text-anchor="middle" x="642.2" y="-272.48" font-family="Arial" font-size="12.00"> 1 </text>
</g>
<!-- micheld@spotify.com&#45;&#45;akolb@spotify.com -->
<g id="edge13" class="edge">
<title>micheld@spotify.com&#45;&#45;akolb@spotify.com</title>
<path fill="none" stroke="#00688b" stroke-opacity="0.368627" d="M631.22,-430.77C688.13,-415.11 762.29,-392.84 770.88,-381 809.51,-327.74 778.14,-141.8 742.88,-86.25 717.6,-46.43 665.82,-30 623.45,-23.31"/>
<text text-anchor="middle" x="791.58" y="-229.35" font-family="Arial" font-size="12.00"> 1 </text>
</g>
<!-- clairem@spotify.com&#45;&#45;kellen@users.noreply.github.com -->
<g id="edge14" class="edge">
<title>clairem@spotify.com&#45;&#45;kellen@users.noreply.github.com</title>
<path fill="none" stroke="#00688b" stroke-opacity="0.368627" d="M652.71,-344.54C629.13,-334.05 597.73,-321.15 568.88,-312.75 542.44,-305.05 513.45,-298.71 486.18,-293.65"/>
<text text-anchor="middle" x="616" y="-315.6" font-family="Arial" font-size="12.00"> 1 </text>
</g>
<!-- clairem@spotify.com&#45;&#45;kmj@google.com -->
<g id="edge15" class="edge">
<title>clairem@spotify.com&#45;&#45;kmj@google.com</title>
<path fill="none" stroke="#00688b" stroke-opacity="0.368627" d="M666.68,-344.59C650.42,-331.79 628.72,-313.42 612.12,-294.75 587.78,-267.36 587.61,-256 565.88,-226.5 561.54,-220.61 556.61,-214.33 552.11,-208.73"/>
<text text-anchor="middle" x="618.5" y="-272.48" font-family="Arial" font-size="12.00"> 1 </text>
</g>
<!-- clairem@spotify.com&#45;&#45;sveyrie@luminatedata.com -->
<g id="edge16" class="edge">
<title>clairem@spotify.com&#45;&#45;sveyrie@luminatedata.com</title>
<path fill="none" stroke="#00688b" stroke-opacity="0.368627" d="M691.69,-344.58C694.95,-305.36 698.31,-208.28 660.88,-140.25 657.21,-133.6 651.74,-127.68 645.94,-122.7"/>
<text text-anchor="middle" x="696.54" y="-229.35" font-family="Arial" font-size="12.00"> 1 </text>
</g>
<!-- clairem@spotify.com&#45;&#45;akolb@spotify.com -->
<g id="edge17" class="edge">
<title>clairem@spotify.com&#45;&#45;akolb@spotify.com</title>
<path fill="none" stroke="#00688b" stroke-opacity="0.368627" d="M699.93,-344.72C702.67,-339.22 705.31,-333.01 706.88,-327 733.93,-223.34 778.26,-175.42 718.88,-86.25 697.63,-54.36 658.07,-37.56 623.48,-28.73"/>
<text text-anchor="middle" x="754.7" y="-186.22" font-family="Arial" font-size="12.00"> 1 </text>
</g>
<!-- kellen@users.noreply.github.com&#45;&#45;kmj@google.com -->
<g id="edge18" class="edge">
<title>kellen@users.noreply.github.com&#45;&#45;kmj@google.com</title>
<path fill="none" stroke="#00688b" stroke-opacity="0.368627" d="M410.81,-258.38C421.7,-252.78 433.81,-246.53 444.88,-240.75 464.96,-230.26 487.4,-218.38 505.21,-208.92"/>
<text text-anchor="middle" x="476.84" y="-229.35" font-family="Arial" font-size="12.00"> 1 </text>
</g>
<!-- kellen@users.noreply.github.com&#45;&#45;sveyrie@luminatedata.com -->
<g id="edge19" class="edge">
<title>kellen@users.noreply.github.com&#45;&#45;sveyrie@luminatedata.com</title>
<path fill="none" stroke="#00688b" stroke-opacity="0.368627" d="M386.05,-258.49C398.82,-235.94 423.93,-196.51 455.12,-172.5 484.59,-149.82 522.79,-133.55 554.88,-122.71"/>
<text text-anchor="middle" x="461.5" y="-186.22" font-family="Arial" font-size="12.00"> 1 </text>
</g>
<!-- kellen@users.noreply.github.com&#45;&#45;akolb@spotify.com -->
<g id="edge20" class="edge">
<title>kellen@users.noreply.github.com&#45;&#45;akolb@spotify.com</title>
<path fill="none" stroke="#00688b" stroke-opacity="0.368627" d="M381.69,-258.55C388.02,-237.42 400.29,-200.88 416.88,-172.5 450.79,-114.46 462.62,-100.8 510.88,-54 517.3,-47.77 524.86,-41.68 532.02,-36.38"/>
<text text-anchor="middle" x="442.67" y="-143.1" font-family="Arial" font-size="12.00"> 1 </text>
</g>
<!-- kmj@google.com&#45;&#45;sveyrie@luminatedata.com -->
<g id="edge21" class="edge">
<title>kmj@google.com&#45;&#45;sveyrie@luminatedata.com</title>
<path fill="none" stroke="#00688b" stroke-opacity="0.368627" d="M554.66,-172.04C568.56,-157.58 588.22,-137.14 602.11,-122.68"/>
<text text-anchor="middle" x="589.6" y="-143.1" font-family="Arial" font-size="12.00"> 1 </text>
</g>
<!-- kmj@google.com&#45;&#45;akolb@spotify.com -->
<g id="edge22" class="edge">
<title>kmj@google.com&#45;&#45;akolb@spotify.com</title>
<path fill="none" stroke="#00688b" stroke-opacity="0.368627" d="M525.83,-172.23C513.02,-151.64 495.92,-116.25 506.12,-86.25 512.67,-67 527.2,-48.96 539.2,-36.42"/>
<text text-anchor="middle" x="512.5" y="-99.97" font-family="Arial" font-size="12.00"> 1 </text>
</g>
<!-- sveyrie@luminatedata.com&#45;&#45;akolb@spotify.com -->
<g id="edge23" class="edge">
<title>sveyrie@luminatedata.com&#45;&#45;akolb@spotify.com</title>
<path fill="none" stroke="#00688b" stroke-opacity="0.368627" d="M606.24,-85.79C595.77,-71.33 580.96,-50.89 570.5,-36.43"/>
<text text-anchor="middle" x="598.4" y="-56.85" font-family="Arial" font-size="12.00"> 1 </text>
</g>
<!-- oss@regadas.email -->
<g id="node11" class="node">
<title>oss@regadas.email</title>
<polygon fill="#00b2ee" stroke="white" points="1158.12,-553.5 1023.62,-553.5 1023.62,-517.5 1158.12,-517.5 1158.12,-553.5"/>
<text text-anchor="middle" x="1090.88" y="-530.83" font-family="Tahoma" font-size="14.00">oss@regadas.email</text>
</g>
<!-- tcodehuber@gmail.com -->
<g id="node12" class="node">
<title>tcodehuber@gmail.com</title>
<polygon fill="#00b2ee" stroke="white" points="1171.62,-467.25 1010.12,-467.25 1010.12,-431.25 1171.62,-431.25 1171.62,-467.25"/>
<text text-anchor="middle" x="1090.88" y="-444.57" font-family="Tahoma" font-size="14.00">tcodehuber@gmail.com</text>
</g>
<!-- oss@regadas.email&#45;&#45;tcodehuber@gmail.com -->
<g id="edge24" class="edge">
<title>oss@regadas.email&#45;&#45;tcodehuber@gmail.com</title>
<path fill="none" stroke="#00688b" stroke-opacity="0.368627" d="M1090.88,-517.04C1090.88,-502.58 1090.88,-482.14 1090.88,-467.68"/>
<text text-anchor="middle" x="1097.25" y="-488.1" font-family="Arial" font-size="12.00"> 1 </text>
</g>
<!-- dlstadther@gmail.com -->
<g id="node13" class="node">
<title>dlstadther@gmail.com</title>
<polygon fill="#00b2ee" stroke="white" points="1344.5,-553.5 1191.25,-553.5 1191.25,-517.5 1344.5,-517.5 1344.5,-553.5"/>
<text text-anchor="middle" x="1267.88" y="-530.83" font-family="Tahoma" font-size="14.00">dlstadther@gmail.com</text>
</g>
<!-- matek_a@outlook.com -->
<g id="node14" class="node">
<title>matek_a@outlook.com</title>
<polygon fill="#00b2ee" stroke="white" points="1346.38,-467.25 1189.38,-467.25 1189.38,-431.25 1346.38,-431.25 1346.38,-467.25"/>
<text text-anchor="middle" x="1267.88" y="-444.57" font-family="Tahoma" font-size="14.00">matek_a@outlook.com</text>
</g>
<!-- dlstadther@gmail.com&#45;&#45;matek_a@outlook.com -->
<g id="edge25" class="edge">
<title>dlstadther@gmail.com&#45;&#45;matek_a@outlook.com</title>
<path fill="none" stroke="#00688b" stroke-opacity="0.368627" d="M1267.88,-517.04C1267.88,-502.58 1267.88,-482.14 1267.88,-467.68"/>
<text text-anchor="middle" x="1274.25" y="-488.1" font-family="Arial" font-size="12.00"> 1 </text>
</g>
<!-- scala_steward@virtuslab.com&#45;&#45;lschaller@spotify.com -->
<g id="edge27" class="edge">
<title>scala_steward@virtuslab.com&#45;&#45;lschaller@spotify.com</title>
<path fill="none" stroke="#00688b" stroke-opacity="0.368627" d="M141.88,-430.79C141.88,-416.33 141.88,-395.89 141.88,-381.43"/>
<text text-anchor="middle" x="148.25" y="-401.85" font-family="Arial" font-size="12.00"> 1 </text>
</g>
</g>
</svg>
