<svg width="2883pt" height="820pt"
 viewBox="0.00 0.00 2882.62 820.25" xmlns="http://www.w3.org/2000/svg" xmlns:xlink="http://www.w3.org/1999/xlink">
<g id="graph0" class="graph" transform="scale(1 1) rotate(0) translate(4 816.25)">
<title>G</title>
<polygon fill="white" stroke="none" points="-4,4 -4,-816.25 2878.62,-816.25 2878.62,4 -4,4"/>
<!-- [spotify / java&#45;locales] -->
<g id="node1" class="node">
<title>[spotify / java&#45;locales]</title>
<polygon fill="#00b2ee" stroke="white" points="154.25,-812.25 1.75,-812.25 1.75,-776.25 154.25,-776.25 154.25,-812.25"/>
<text text-anchor="middle" x="78" y="-789.58" font-family="Tahoma" font-size="14.00">[spotify / java&#45;locales]</text>
</g>
<!-- [spotify / confidence&#45;sdk&#45;flutter] -->
<g id="node2" class="node">
<title>[spotify / confidence&#45;sdk&#45;flutter]</title>
<polygon fill="#00b2ee" stroke="white" points="385.62,-812.25 172.38,-812.25 172.38,-776.25 385.62,-776.25 385.62,-812.25"/>
<text text-anchor="middle" x="279" y="-789.58" font-family="Tahoma" font-size="14.00">[spotify / confidence&#45;sdk&#45;flutter]</text>
</g>
<!-- [spotify / confidence&#45;sdk&#45;python] -->
<g id="node25" class="node">
<title>[spotify / confidence&#45;sdk&#45;python]</title>
<polygon fill="#00b2ee" stroke="white" points="387.88,-726 170.12,-726 170.12,-690 387.88,-690 387.88,-726"/>
<text text-anchor="middle" x="279" y="-703.33" font-family="Tahoma" font-size="14.00">[spotify / confidence&#45;sdk&#45;python]</text>
</g>
<!-- [spotify / confidence&#45;sdk&#45;flutter]&#45;&#45;[spotify / confidence&#45;sdk&#45;python] -->
<g id="edge20" class="edge">
<title>[spotify / confidence&#45;sdk&#45;flutter]&#45;&#45;[spotify / confidence&#45;sdk&#45;python]</title>
<path fill="none" stroke="#00688b" stroke-width="2" stroke-opacity="0.439216" d="M279,-775.79C279,-761.33 279,-740.89 279,-726.43"/>
<text text-anchor="middle" x="285.38" y="-746.85" font-family="Arial" font-size="12.00"> 2 </text>
</g>
<!-- [spotify / ratatool] -->
<g id="node3" class="node">
<title>[spotify / ratatool]</title>
<polygon fill="#00b2ee" stroke="white" points="1061.5,-726 934.5,-726 934.5,-690 1061.5,-690 1061.5,-726"/>
<text text-anchor="middle" x="998" y="-703.33" font-family="Tahoma" font-size="14.00">[spotify / ratatool]</text>
</g>
<!-- [spotify / scio.g8] -->
<g id="node20" class="node">
<title>[spotify / scio.g8]</title>
<polygon fill="#00b2ee" stroke="white" points="1159.62,-639.75 1036.38,-639.75 1036.38,-603.75 1159.62,-603.75 1159.62,-639.75"/>
<text text-anchor="middle" x="1098" y="-617.08" font-family="Tahoma" font-size="14.00">[spotify / scio.g8]</text>
</g>
<!-- [spotify / ratatool]&#45;&#45;[spotify / scio.g8] -->
<g id="edge32" class="edge">
<title>[spotify / ratatool]&#45;&#45;[spotify / scio.g8]</title>
<path fill="none" stroke="#00688b" stroke-width="2" stroke-opacity="0.439216" d="M1018.72,-689.54C1035.88,-675.08 1060.15,-654.64 1077.31,-640.18"/>
<text text-anchor="middle" x="1060.36" y="-660.6" font-family="Arial" font-size="12.00"> 2 </text>
</g>
<!-- [spotify / confidence&#45;sdk&#45;js] -->
<g id="node4" class="node">
<title>[spotify / confidence&#45;sdk&#45;js]</title>
<polygon fill="#00b2ee" stroke="white" points="330.12,-381 143.88,-381 143.88,-345 330.12,-345 330.12,-381"/>
<text text-anchor="middle" x="237" y="-358.32" font-family="Tahoma" font-size="14.00">[spotify / confidence&#45;sdk&#45;js]</text>
</g>
<!-- [spotify / confidence&#45;sdk&#45;java] -->
<g id="node23" class="node">
<title>[spotify / confidence&#45;sdk&#45;java]</title>
<polygon fill="#00b2ee" stroke="white" points="509,-639.75 307,-639.75 307,-603.75 509,-603.75 509,-639.75"/>
<text text-anchor="middle" x="408" y="-617.08" font-family="Tahoma" font-size="14.00">[spotify / confidence&#45;sdk&#45;java]</text>
</g>
<!-- [spotify / confidence&#45;sdk&#45;js]&#45;&#45;[spotify / confidence&#45;sdk&#45;java] -->
<g id="edge13" class="edge">
<title>[spotify / confidence&#45;sdk&#45;js]&#45;&#45;[spotify / confidence&#45;sdk&#45;java]</title>
<path fill="none" stroke="#00688b" stroke-width="4" stroke-opacity="0.576471" d="M314.93,-381.44C342.24,-391.48 370.45,-407.11 388,-431.25 426.22,-483.84 417.55,-567.34 411.45,-603.32"/>
<text text-anchor="middle" x="420.07" y="-488.1" font-family="Arial" font-size="12.00"> 4 </text>
</g>
<!-- [spotify / confidence&#45;sdk&#45;android] -->
<g id="node24" class="node">
<title>[spotify / confidence&#45;sdk&#45;android]</title>
<polygon fill="#00b2ee" stroke="white" points="253.12,-553.5 30.88,-553.5 30.88,-517.5 253.12,-517.5 253.12,-553.5"/>
<text text-anchor="middle" x="142" y="-530.83" font-family="Tahoma" font-size="14.00">[spotify / confidence&#45;sdk&#45;android]</text>
</g>
<!-- [spotify / confidence&#45;sdk&#45;js]&#45;&#45;[spotify / confidence&#45;sdk&#45;android] -->
<g id="edge12" class="edge">
<title>[spotify / confidence&#45;sdk&#45;js]&#45;&#45;[spotify / confidence&#45;sdk&#45;android]</title>
<path fill="none" stroke="#00688b" stroke-width="4" stroke-opacity="0.576471" d="M204.12,-381.26C185.62,-392.81 163.95,-409.82 152.25,-431.25 137.41,-458.45 137.88,-495.71 139.79,-517.23"/>
<text text-anchor="middle" x="158.62" y="-444.98" font-family="Arial" font-size="12.00"> 4 </text>
</g>
<!-- [spotify / confidence&#45;sdk&#45;js]&#45;&#45;[spotify / confidence&#45;sdk&#45;python] -->
<g id="edge53" class="edge">
<title>[spotify / confidence&#45;sdk&#45;js]&#45;&#45;[spotify / confidence&#45;sdk&#45;python]</title>
<path fill="none" stroke="#00688b" stroke-width="2" stroke-opacity="0.439216" d="M143.67,-379.57C77.35,-393.37 0,-416.32 0,-448.25 0,-622.75 0,-622.75 0,-622.75 0,-659.88 91.68,-682.12 169.93,-694.35"/>
<text text-anchor="middle" x="6.38" y="-531.23" font-family="Arial" font-size="12.00"> 2 </text>
</g>
<!-- [spotify / confidence&#45;sdk&#45;go] -->
<g id="node26" class="node">
<title>[spotify / confidence&#45;sdk&#45;go]</title>
<polygon fill="#00b2ee" stroke="white" points="461.75,-294.75 270.25,-294.75 270.25,-258.75 461.75,-258.75 461.75,-294.75"/>
<text text-anchor="middle" x="366" y="-272.07" font-family="Tahoma" font-size="14.00">[spotify / confidence&#45;sdk&#45;go]</text>
</g>
<!-- [spotify / confidence&#45;sdk&#45;js]&#45;&#45;[spotify / confidence&#45;sdk&#45;go] -->
<g id="edge43" class="edge">
<title>[spotify / confidence&#45;sdk&#45;js]&#45;&#45;[spotify / confidence&#45;sdk&#45;go]</title>
<path fill="none" stroke="#00688b" stroke-width="2" stroke-opacity="0.439216" d="M263.73,-344.54C285.87,-330.08 317.18,-309.64 339.31,-295.18"/>
<text text-anchor="middle" x="315.6" y="-315.6" font-family="Arial" font-size="12.00"> 2 </text>
</g>
<!-- [spotify / luigi] -->
<g id="node5" class="node">
<title>[spotify / luigi]</title>
<polygon fill="#00b2ee" stroke="white" points="1323.25,-812.25 1218.75,-812.25 1218.75,-776.25 1323.25,-776.25 1323.25,-812.25"/>
<text text-anchor="middle" x="1271" y="-789.58" font-family="Tahoma" font-size="14.00">[spotify / luigi]</text>
</g>
<!-- [spotify / voyager] -->
<g id="node6" class="node">
<title>[spotify / voyager]</title>
<polygon fill="#00b2ee" stroke="white" points="772.62,-122.25 643.38,-122.25 643.38,-86.25 772.62,-86.25 772.62,-122.25"/>
<text text-anchor="middle" x="708" y="-99.58" font-family="Tahoma" font-size="14.00">[spotify / voyager]</text>
</g>
<!-- [spotify / realbook] -->
<g id="node29" class="node">
<title>[spotify / realbook]</title>
<polygon fill="#00b2ee" stroke="white" points="850.5,-36 717.5,-36 717.5,0 850.5,0 850.5,-36"/>
<text text-anchor="middle" x="784" y="-13.32" font-family="Tahoma" font-size="14.00">[spotify / realbook]</text>
</g>
<!-- [spotify / voyager]&#45;&#45;[spotify / realbook] -->
<g id="edge40" class="edge">
<title>[spotify / voyager]&#45;&#45;[spotify / realbook]</title>
<path fill="none" stroke="#00688b" stroke-width="2" stroke-opacity="0.439216" d="M723.75,-85.79C736.79,-71.33 755.24,-50.89 768.27,-36.43"/>
<text text-anchor="middle" x="756.93" y="-56.85" font-family="Arial" font-size="12.00"> 2 </text>
</g>
<!-- [spotify / magnolify] -->
<g id="node7" class="node">
<title>[spotify / magnolify]</title>
<polygon fill="#00b2ee" stroke="white" points="1067.88,-812.25 928.12,-812.25 928.12,-776.25 1067.88,-776.25 1067.88,-812.25"/>
<text text-anchor="middle" x="998" y="-789.58" font-family="Tahoma" font-size="14.00">[spotify / magnolify]</text>
</g>
<!-- [spotify / magnolify]&#45;&#45;[spotify / ratatool] -->
<g id="edge46" class="edge">
<title>[spotify / magnolify]&#45;&#45;[spotify / ratatool]</title>
<path fill="none" stroke="#00688b" stroke-width="2" stroke-opacity="0.439216" d="M998,-775.79C998,-761.33 998,-740.89 998,-726.43"/>
<text text-anchor="middle" x="1004.38" y="-746.85" font-family="Arial" font-size="12.00"> 2 </text>
</g>
<!-- [spotify / dbeam] -->
<g id="node8" class="node">
<title>[spotify / dbeam]</title>
<polygon fill="#00b2ee" stroke="white" points="1283.25,-208.5 1160.75,-208.5 1160.75,-172.5 1283.25,-172.5 1283.25,-208.5"/>
<text text-anchor="middle" x="1222" y="-185.82" font-family="Tahoma" font-size="14.00">[spotify / dbeam]</text>
</g>
<!-- [spotify / magnolify]&#45;&#45;[spotify / dbeam] -->
<g id="edge5" class="edge">
<title>[spotify / magnolify]&#45;&#45;[spotify / dbeam]</title>
<path fill="none" stroke="#00688b" stroke-width="4" stroke-opacity="0.576471" d="M1068.08,-785.28C1180.83,-771.5 1390,-741.54 1390,-709 1390,-709 1390,-709 1390,-275.75 1390,-226.48 1331.55,-206.02 1283.6,-197.53"/>
<text text-anchor="middle" x="1396.38" y="-488.1" font-family="Arial" font-size="12.00"> 4 </text>
</g>
<!-- [spotify / scio&#45;idea&#45;plugin] -->
<g id="node9" class="node">
<title>[spotify / scio&#45;idea&#45;plugin]</title>
<polygon fill="#00b2ee" stroke="white" points="1222.88,-467.25 1047.12,-467.25 1047.12,-431.25 1222.88,-431.25 1222.88,-467.25"/>
<text text-anchor="middle" x="1135" y="-444.57" font-family="Tahoma" font-size="14.00">[spotify / scio&#45;idea&#45;plugin]</text>
</g>
<!-- [spotify / magnolify]&#45;&#45;[spotify / scio&#45;idea&#45;plugin] -->
<g id="edge19" class="edge">
<title>[spotify / magnolify]&#45;&#45;[spotify / scio&#45;idea&#45;plugin]</title>
<path fill="none" stroke="#00688b" stroke-width="2" stroke-opacity="0.439216" d="M969.64,-775.86C953.26,-764.06 934.13,-746.83 925,-726 899.51,-667.86 930,-625.98 980,-517.5 987.06,-502.18 986.42,-495.25 1000,-485.25 1013.75,-475.13 1030.16,-467.93 1046.73,-462.81"/>
<text text-anchor="middle" x="945.21" y="-617.48" font-family="Arial" font-size="12.00"> 2 </text>
</g>
<!-- [spotify / scio] -->
<g id="node11" class="node">
<title>[spotify / scio]</title>
<polygon fill="#00b2ee" stroke="white" points="961.88,-294.75 858.12,-294.75 858.12,-258.75 961.88,-258.75 961.88,-294.75"/>
<text text-anchor="middle" x="910" y="-272.07" font-family="Tahoma" font-size="14.00">[spotify / scio]</text>
</g>
<!-- [spotify / magnolify]&#45;&#45;[spotify / scio] -->
<g id="edge2" class="edge">
<title>[spotify / magnolify]&#45;&#45;[spotify / scio]</title>
<path fill="none" stroke="#00688b" stroke-width="8" stroke-opacity="0.858824" d="M927.65,-784.01C852.17,-772.07 743,-748.05 743,-709 743,-709 743,-709 743,-362 743,-309.72 809.05,-289.87 858.08,-282.35"/>
<text text-anchor="middle" x="749.38" y="-531.23" font-family="Arial" font-size="12.00"> 8 </text>
</g>
<!-- [spotify / gcs&#45;tools] -->
<g id="node14" class="node">
<title>[spotify / gcs&#45;tools]</title>
<polygon fill="#00b2ee" stroke="white" points="1289.25,-122.25 1154.75,-122.25 1154.75,-86.25 1289.25,-86.25 1289.25,-122.25"/>
<text text-anchor="middle" x="1222" y="-99.58" font-family="Tahoma" font-size="14.00">[spotify / gcs&#45;tools]</text>
</g>
<!-- [spotify / magnolify]&#45;&#45;[spotify / gcs&#45;tools] -->
<g id="edge8" class="edge">
<title>[spotify / magnolify]&#45;&#45;[spotify / gcs&#45;tools]</title>
<path fill="none" stroke="#00688b" stroke-width="4" stroke-opacity="0.576471" d="M1068.07,-789.09C1129.3,-784.5 1220.29,-775.38 1298,-758.25 1361.59,-744.23 1436,-774.12 1436,-709 1436,-709 1436,-709 1436,-189.5 1436,-157.56 1352.41,-132.63 1289.71,-118.43"/>
<text text-anchor="middle" x="1442.38" y="-444.98" font-family="Arial" font-size="12.00"> 4 </text>
</g>
<!-- [spotify / elitzur] -->
<g id="node15" class="node">
<title>[spotify / elitzur]</title>
<polygon fill="#00b2ee" stroke="white" points="1055.62,-381 938.38,-381 938.38,-345 1055.62,-345 1055.62,-381"/>
<text text-anchor="middle" x="997" y="-358.32" font-family="Tahoma" font-size="14.00">[spotify / elitzur]</text>
</g>
<!-- [spotify / magnolify]&#45;&#45;[spotify / elitzur] -->
<g id="edge52" class="edge">
<title>[spotify / magnolify]&#45;&#45;[spotify / elitzur]</title>
<path fill="none" stroke="#00688b" stroke-width="2" stroke-opacity="0.439216" d="M927.68,-787.22C878.66,-778.7 822,-758.2 822,-709 822,-709 822,-709 822,-448.25 822,-395.48 887.4,-375.74 938.24,-368.37"/>
<text text-anchor="middle" x="828.38" y="-574.35" font-family="Arial" font-size="12.00"> 2 </text>
</g>
<!-- [spotify / magnolify]&#45;&#45;[spotify / scio.g8] -->
<g id="edge14" class="edge">
<title>[spotify / magnolify]&#45;&#45;[spotify / scio.g8]</title>
<path fill="none" stroke="#00688b" stroke-width="2" stroke-opacity="0.439216" d="M1022.72,-775.91C1038.43,-763.66 1058,-745.93 1070,-726 1086.48,-698.64 1093.46,-661.43 1096.26,-639.97"/>
<text text-anchor="middle" x="1091.84" y="-703.73" font-family="Arial" font-size="12.00"> 2 </text>
</g>
<!-- [spotify / dbeam]&#45;&#45;[spotify / gcs&#45;tools] -->
<g id="edge41" class="edge">
<title>[spotify / dbeam]&#45;&#45;[spotify / gcs&#45;tools]</title>
<path fill="none" stroke="#00688b" stroke-width="2" stroke-opacity="0.439216" d="M1222,-172.04C1222,-157.58 1222,-137.14 1222,-122.68"/>
<text text-anchor="middle" x="1228.38" y="-143.1" font-family="Arial" font-size="12.00"> 2 </text>
</g>
<!-- [spotify / scio&#45;idea&#45;plugin]&#45;&#45;[spotify / ratatool] -->
<g id="edge17" class="edge">
<title>[spotify / scio&#45;idea&#45;plugin]&#45;&#45;[spotify / ratatool]</title>
<path fill="none" stroke="#00688b" stroke-width="2" stroke-opacity="0.439216" d="M1046.71,-461.39C1033.73,-466.73 1021.79,-474.37 1013,-485.25 964.02,-545.88 983,-648.9 993.18,-689.66"/>
<text text-anchor="middle" x="988.31" y="-574.35" font-family="Arial" font-size="12.00"> 2 </text>
</g>
<!-- [spotify / scio&#45;idea&#45;plugin]&#45;&#45;[spotify / scio] -->
<g id="edge22" class="edge">
<title>[spotify / scio&#45;idea&#45;plugin]&#45;&#45;[spotify / scio]</title>
<path fill="none" stroke="#00688b" stroke-width="2" stroke-opacity="0.439216" d="M1127.17,-431.05C1116.17,-408.56 1094.18,-369.19 1065,-345 1034.97,-320.1 994.3,-302.92 962.16,-292.16"/>
<text text-anchor="middle" x="1103.13" y="-358.73" font-family="Arial" font-size="12.00"> 2 </text>
</g>
<!-- [spotify / scio&#45;idea&#45;plugin]&#45;&#45;[spotify / elitzur] -->
<g id="edge35" class="edge">
<title>[spotify / scio&#45;idea&#45;plugin]&#45;&#45;[spotify / elitzur]</title>
<path fill="none" stroke="#00688b" stroke-width="2" stroke-opacity="0.439216" d="M1097.48,-430.8C1086.87,-425.5 1075.44,-419.43 1065.25,-413.25 1049.26,-403.55 1032.19,-391.24 1019.13,-381.35"/>
<text text-anchor="middle" x="1071.62" y="-401.85" font-family="Arial" font-size="12.00"> 2 </text>
</g>
<!-- [spotify / scio&#45;idea&#45;plugin]&#45;&#45;[spotify / scio.g8] -->
<g id="edge4" class="edge">
<title>[spotify / scio&#45;idea&#45;plugin]&#45;&#45;[spotify / scio.g8]</title>
<path fill="none" stroke="#00688b" stroke-width="4" stroke-opacity="0.576471" d="M1178.99,-467.64C1219.12,-486.22 1268.94,-517.88 1246,-553.5 1226.98,-583.04 1191.45,-599.75 1159.97,-609.13"/>
<text text-anchor="middle" x="1258.18" y="-531.23" font-family="Arial" font-size="12.00"> 4 </text>
</g>
<!-- [spotify / Mobius.swift] -->
<g id="node10" class="node">
<title>[spotify / Mobius.swift]</title>
<polygon fill="#00b2ee" stroke="white" points="1629.75,-812.25 1474.25,-812.25 1474.25,-776.25 1629.75,-776.25 1629.75,-812.25"/>
<text text-anchor="middle" x="1552" y="-789.58" font-family="Tahoma" font-size="14.00">[spotify / Mobius.swift]</text>
</g>
<!-- [spotify / SPTDataLoader] -->
<g id="node16" class="node">
<title>[spotify / SPTDataLoader]</title>
<polygon fill="#00b2ee" stroke="white" points="1639.5,-726 1464.5,-726 1464.5,-690 1639.5,-690 1639.5,-726"/>
<text text-anchor="middle" x="1552" y="-703.33" font-family="Tahoma" font-size="14.00">[spotify / SPTDataLoader]</text>
</g>
<!-- [spotify / Mobius.swift]&#45;&#45;[spotify / SPTDataLoader] -->
<g id="edge15" class="edge">
<title>[spotify / Mobius.swift]&#45;&#45;[spotify / SPTDataLoader]</title>
<path fill="none" stroke="#00688b" stroke-width="2" stroke-opacity="0.439216" d="M1552,-775.79C1552,-761.33 1552,-740.89 1552,-726.43"/>
<text text-anchor="middle" x="1558.38" y="-746.85" font-family="Arial" font-size="12.00"> 2 </text>
</g>
<!-- [spotify / scio]&#45;&#45;[spotify / ratatool] -->
<g id="edge28" class="edge">
<title>[spotify / scio]&#45;&#45;[spotify / ratatool]</title>
<path fill="none" stroke="#00688b" stroke-width="2" stroke-opacity="0.439216" d="M857.66,-290.63C823.04,-302.64 784,-324.5 784,-362 784,-493.38 784,-493.38 784,-493.38 784,-535.04 776.6,-551.28 800,-585.75 835.21,-637.61 900.7,-671.2 946.69,-689.59"/>
<text text-anchor="middle" x="790.38" y="-488.1" font-family="Arial" font-size="12.00"> 2 </text>
</g>
<!-- [spotify / scio]&#45;&#45;[spotify / voyager] -->
<g id="edge36" class="edge">
<title>[spotify / scio]&#45;&#45;[spotify / voyager]</title>
<path fill="none" stroke="#00688b" stroke-width="2" stroke-opacity="0.439216" d="M857.85,-273.05C812.44,-267.67 748.77,-252.21 715.25,-208.5 696.22,-183.69 699.71,-144.91 703.9,-122.61"/>
<text text-anchor="middle" x="721.62" y="-186.22" font-family="Arial" font-size="12.00"> 2 </text>
</g>
<!-- [spotify / scio]&#45;&#45;[spotify / dbeam] -->
<g id="edge6" class="edge">
<title>[spotify / scio]&#45;&#45;[spotify / dbeam]</title>
<path fill="none" stroke="#00688b" stroke-width="4" stroke-opacity="0.576471" d="M962.26,-265.31C992.93,-258.88 1032.35,-250.1 1067,-240.75 1102.03,-231.3 1140.95,-218.93 1171.02,-208.95"/>
<text text-anchor="middle" x="1120.6" y="-229.35" font-family="Arial" font-size="12.00"> 4 </text>
</g>
<!-- [spotify / scio]&#45;&#45;[spotify / scio.g8] -->
<g id="edge23" class="edge">
<title>[spotify / scio]&#45;&#45;[spotify / scio.g8]</title>
<path fill="none" stroke="#00688b" stroke-width="2" stroke-opacity="0.439216" d="M908.11,-295.19C903.53,-347.08 897.47,-502.04 977,-585.75 992.36,-601.92 1014.69,-610.76 1036,-615.55"/>
<text text-anchor="middle" x="924.58" y="-444.98" font-family="Arial" font-size="12.00"> 2 </text>
</g>
<!-- [spotify / scio]&#45;&#45;[spotify / realbook] -->
<g id="edge26" class="edge">
<title>[spotify / scio]&#45;&#45;[spotify / realbook]</title>
<path fill="none" stroke="#00688b" stroke-width="2" stroke-opacity="0.439216" d="M909.05,-258.3C907.4,-237.24 902.93,-201.09 891,-172.5 868.23,-117.94 823.75,-63.37 799.95,-36.39"/>
<text text-anchor="middle" x="888.39" y="-143.1" font-family="Arial" font-size="12.00"> 2 </text>
</g>
<!-- [spotify / basic&#45;pitch] -->
<g id="node33" class="node">
<title>[spotify / basic&#45;pitch]</title>
<polygon fill="#00b2ee" stroke="white" points="882.5,-208.5 737.5,-208.5 737.5,-172.5 882.5,-172.5 882.5,-208.5"/>
<text text-anchor="middle" x="810" y="-185.82" font-family="Tahoma" font-size="14.00">[spotify / basic&#45;pitch]</text>
</g>
<!-- [spotify / scio]&#45;&#45;[spotify / basic&#45;pitch] -->
<g id="edge48" class="edge">
<title>[spotify / scio]&#45;&#45;[spotify / basic&#45;pitch]</title>
<path fill="none" stroke="#00688b" stroke-width="2" stroke-opacity="0.439216" d="M889.28,-258.29C872.12,-243.83 847.85,-223.39 830.69,-208.93"/>
<text text-anchor="middle" x="872.36" y="-229.35" font-family="Arial" font-size="12.00"> 2 </text>
</g>
<!-- [spotify / ruler] -->
<g id="node12" class="node">
<title>[spotify / ruler]</title>
<polygon fill="#00b2ee" stroke="white" points="1756.5,-812.25 1647.5,-812.25 1647.5,-776.25 1756.5,-776.25 1756.5,-812.25"/>
<text text-anchor="middle" x="1702" y="-789.58" font-family="Tahoma" font-size="14.00">[spotify / ruler]</text>
</g>
<!-- [spotify / spotify.github.io] -->
<g id="node13" class="node">
<title>[spotify / spotify.github.io]</title>
<polygon fill="#00b2ee" stroke="white" points="1951.25,-812.25 1774.75,-812.25 1774.75,-776.25 1951.25,-776.25 1951.25,-812.25"/>
<text text-anchor="middle" x="1863" y="-789.58" font-family="Tahoma" font-size="14.00">[spotify / spotify.github.io]</text>
</g>
<!-- [spotify / github&#45;java&#45;client] -->
<g id="node35" class="node">
<title>[spotify / github&#45;java&#45;client]</title>
<polygon fill="#00b2ee" stroke="white" points="1956.12,-726 1769.88,-726 1769.88,-690 1956.12,-690 1956.12,-726"/>
<text text-anchor="middle" x="1863" y="-703.33" font-family="Tahoma" font-size="14.00">[spotify / github&#45;java&#45;client]</text>
</g>
<!-- [spotify / spotify.github.io]&#45;&#45;[spotify / github&#45;java&#45;client] -->
<g id="edge56" class="edge">
<title>[spotify / spotify.github.io]&#45;&#45;[spotify / github&#45;java&#45;client]</title>
<path fill="none" stroke="#00688b" stroke-width="2" stroke-opacity="0.439216" d="M1863,-775.79C1863,-761.33 1863,-740.89 1863,-726.43"/>
<text text-anchor="middle" x="1869.38" y="-746.85" font-family="Arial" font-size="12.00"> 2 </text>
</g>
<!-- [spotify / gcs&#45;tools]&#45;&#45;[spotify / ratatool] -->
<g id="edge31" class="edge">
<title>[spotify / gcs&#45;tools]&#45;&#45;[spotify / ratatool]</title>
<path fill="none" stroke="#00688b" stroke-width="2" stroke-opacity="0.439216" d="M1289.67,-122.6C1321.25,-135.17 1352,-156.02 1352,-189.5 1352,-622.75 1352,-622.75 1352,-622.75 1352,-688.04 1129.45,-674.61 1066,-690 1064.58,-690.34 1063.15,-690.69 1061.7,-691.05"/>
<text text-anchor="middle" x="1358.38" y="-401.85" font-family="Arial" font-size="12.00"> 2 </text>
</g>
<!-- [spotify / gcs&#45;tools]&#45;&#45;[spotify / scio&#45;idea&#45;plugin] -->
<g id="edge51" class="edge">
<title>[spotify / gcs&#45;tools]&#45;&#45;[spotify / scio&#45;idea&#45;plugin]</title>
<path fill="none" stroke="#00688b" stroke-width="2" stroke-opacity="0.439216" d="M1184.51,-122.67C1160.19,-136.83 1133,-159.39 1133,-189.5 1133,-364 1133,-364 1133,-364 1133,-387.12 1133.76,-413.79 1134.35,-430.83"/>
<text text-anchor="middle" x="1139.38" y="-272.48" font-family="Arial" font-size="12.00"> 2 </text>
</g>
<!-- [spotify / gcs&#45;tools]&#45;&#45;[spotify / scio] -->
<g id="edge10" class="edge">
<title>[spotify / gcs&#45;tools]&#45;&#45;[spotify / scio]</title>
<path fill="none" stroke="#00688b" stroke-width="4" stroke-opacity="0.576471" d="M1154.43,-107.74C1117.52,-111.54 1072.11,-120.34 1036,-140.25 983.11,-169.41 939.95,-228.82 920.75,-258.32"/>
<text text-anchor="middle" x="997.43" y="-186.22" font-family="Arial" font-size="12.00"> 4 </text>
</g>
<!-- [spotify / gcs&#45;tools]&#45;&#45;[spotify / elitzur] -->
<g id="edge34" class="edge">
<title>[spotify / gcs&#45;tools]&#45;&#45;[spotify / elitzur]</title>
<path fill="none" stroke="#00688b" stroke-width="2" stroke-opacity="0.439216" d="M1154.48,-122C1142.06,-126.76 1129.66,-132.76 1119,-140.25 1045.67,-191.8 1011.74,-302 1000.98,-344.65"/>
<text text-anchor="middle" x="1052.02" y="-229.35" font-family="Arial" font-size="12.00"> 2 </text>
</g>
<!-- [spotify / gcs&#45;tools]&#45;&#45;[spotify / scio.g8] -->
<g id="edge42" class="edge">
<title>[spotify / gcs&#45;tools]&#45;&#45;[spotify / scio.g8]</title>
<path fill="none" stroke="#00688b" stroke-width="2" stroke-opacity="0.439216" d="M1259.49,-122.67C1283.81,-136.83 1311,-159.39 1311,-189.5 1311,-320.88 1311,-320.88 1311,-320.88 1311,-425.94 1318.24,-460.69 1269,-553.5 1248.29,-592.53 1199.94,-609.01 1159.92,-615.92"/>
<text text-anchor="middle" x="1317.74" y="-358.73" font-family="Arial" font-size="12.00"> 2 </text>
</g>
<!-- [spotify / elitzur]&#45;&#45;[spotify / ratatool] -->
<g id="edge1" class="edge">
<title>[spotify / elitzur]&#45;&#45;[spotify / ratatool]</title>
<path fill="none" stroke="#00688b" stroke-width="8" stroke-opacity="0.858824" d="M949.06,-381.42C926.58,-392.19 901.77,-408.4 888,-431.25 883.56,-438.63 876.76,-524.7 882.25,-553.5 885.13,-568.64 885.21,-573.84 895,-585.75 904.39,-597.18 912.25,-593.59 923,-603.75 950.86,-630.07 975.32,-667.97 988.25,-689.78"/>
<text text-anchor="middle" x="888.62" y="-531.23" font-family="Arial" font-size="12.00"> 8 </text>
</g>
<!-- [spotify / elitzur]&#45;&#45;[spotify / scio] -->
<g id="edge58" class="edge">
<title>[spotify / elitzur]&#45;&#45;[spotify / scio]</title>
<path fill="none" stroke="#00688b" stroke-width="2" stroke-opacity="0.439216" d="M978.97,-344.54C964.04,-330.08 942.93,-309.64 928,-295.18"/>
<text text-anchor="middle" x="965.08" y="-315.6" font-family="Arial" font-size="12.00"> 2 </text>
</g>
<!-- [spotify / elitzur]&#45;&#45;[spotify / scio.g8] -->
<g id="edge16" class="edge">
<title>[spotify / elitzur]&#45;&#45;[spotify / scio.g8]</title>
<path fill="none" stroke="#00688b" stroke-width="2" stroke-opacity="0.439216" d="M998.45,-381.37C1001.89,-415.85 1012.58,-494.68 1042,-553.5 1051.45,-572.39 1067.14,-590.59 1079.52,-603.28"/>
<text text-anchor="middle" x="1027.01" y="-488.1" font-family="Arial" font-size="12.00"> 2 </text>
</g>
<!-- [spotify / flink&#45;on&#45;k8s&#45;operator] -->
<g id="node17" class="node">
<title>[spotify / flink&#45;on&#45;k8s&#45;operator]</title>
<polygon fill="#00b2ee" stroke="white" points="2176.62,-812.25 1969.38,-812.25 1969.38,-776.25 2176.62,-776.25 2176.62,-812.25"/>
<text text-anchor="middle" x="2073" y="-789.58" font-family="Tahoma" font-size="14.00">[spotify / flink&#45;on&#45;k8s&#45;operator]</text>
</g>
<!-- [spotify / chartify] -->
<g id="node18" class="node">
<title>[spotify / chartify]</title>
<polygon fill="#00b2ee" stroke="white" points="2321.12,-812.25 2194.88,-812.25 2194.88,-776.25 2321.12,-776.25 2321.12,-812.25"/>
<text text-anchor="middle" x="2258" y="-789.58" font-family="Tahoma" font-size="14.00">[spotify / chartify]</text>
</g>
<!-- [spotify / confidence] -->
<g id="node19" class="node">
<title>[spotify / confidence]</title>
<polygon fill="#00b2ee" stroke="white" points="2331.25,-726 2184.75,-726 2184.75,-690 2331.25,-690 2331.25,-726"/>
<text text-anchor="middle" x="2258" y="-703.33" font-family="Tahoma" font-size="14.00">[spotify / confidence]</text>
</g>
<!-- [spotify / chartify]&#45;&#45;[spotify / confidence] -->
<g id="edge3" class="edge">
<title>[spotify / chartify]&#45;&#45;[spotify / confidence]</title>
<path fill="none" stroke="#00688b" stroke-width="6" stroke-opacity="0.717647" d="M2258,-775.79C2258,-761.33 2258,-740.89 2258,-726.43"/>
<text text-anchor="middle" x="2264.38" y="-746.85" font-family="Arial" font-size="12.00"> 6 </text>
</g>
<!-- [spotify / homebrew&#45;public] -->
<g id="node30" class="node">
<title>[spotify / homebrew&#45;public]</title>
<polygon fill="#00b2ee" stroke="white" points="1237.12,-553.5 1050.88,-553.5 1050.88,-517.5 1237.12,-517.5 1237.12,-553.5"/>
<text text-anchor="middle" x="1144" y="-530.83" font-family="Tahoma" font-size="14.00">[spotify / homebrew&#45;public]</text>
</g>
<!-- [spotify / scio.g8]&#45;&#45;[spotify / homebrew&#45;public] -->
<g id="edge27" class="edge">
<title>[spotify / scio.g8]&#45;&#45;[spotify / homebrew&#45;public]</title>
<path fill="none" stroke="#00688b" stroke-width="2" stroke-opacity="0.439216" d="M1107.53,-603.29C1115.43,-588.83 1126.59,-568.39 1134.48,-553.93"/>
<text text-anchor="middle" x="1130.13" y="-574.35" font-family="Arial" font-size="12.00"> 2 </text>
</g>
<!-- [spotify / ios&#45;sdk] -->
<g id="node21" class="node">
<title>[spotify / ios&#45;sdk]</title>
<polygon fill="#00b2ee" stroke="white" points="2475.25,-812.25 2352.75,-812.25 2352.75,-776.25 2475.25,-776.25 2475.25,-812.25"/>
<text text-anchor="middle" x="2414" y="-789.58" font-family="Tahoma" font-size="14.00">[spotify / ios&#45;sdk]</text>
</g>
<!-- [spotify / ios&#45;auth] -->
<g id="node22" class="node">
<title>[spotify / ios&#45;auth]</title>
<polygon fill="#00b2ee" stroke="white" points="2478.62,-726 2349.38,-726 2349.38,-690 2478.62,-690 2478.62,-726"/>
<text text-anchor="middle" x="2414" y="-703.33" font-family="Tahoma" font-size="14.00">[spotify / ios&#45;auth]</text>
</g>
<!-- [spotify / ios&#45;sdk]&#45;&#45;[spotify / ios&#45;auth] -->
<g id="edge7" class="edge">
<title>[spotify / ios&#45;sdk]&#45;&#45;[spotify / ios&#45;auth]</title>
<path fill="none" stroke="#00688b" stroke-width="4" stroke-opacity="0.576471" d="M2414,-775.79C2414,-761.33 2414,-740.89 2414,-726.43"/>
<text text-anchor="middle" x="2420.38" y="-746.85" font-family="Arial" font-size="12.00"> 4 </text>
</g>
<!-- [spotify / confidence&#45;sdk&#45;java]&#45;&#45;[spotify / confidence&#45;sdk&#45;android] -->
<g id="edge9" class="edge">
<title>[spotify / confidence&#45;sdk&#45;java]&#45;&#45;[spotify / confidence&#45;sdk&#45;android]</title>
<path fill="none" stroke="#00688b" stroke-width="4" stroke-opacity="0.576471" d="M370.85,-603.33C344.5,-591.16 311.36,-576.26 297,-571.5 276.57,-564.73 254.2,-558.84 232.97,-553.92"/>
<text text-anchor="middle" x="335.76" y="-574.35" font-family="Arial" font-size="12.00"> 4 </text>
</g>
<!-- [spotify / confidence&#45;sdk&#45;java]&#45;&#45;[spotify / confidence&#45;sdk&#45;go] -->
<g id="edge57" class="edge">
<title>[spotify / confidence&#45;sdk&#45;java]&#45;&#45;[spotify / confidence&#45;sdk&#45;go]</title>
<path fill="none" stroke="#00688b" stroke-width="2" stroke-opacity="0.439216" d="M424.09,-603.51C437.35,-587.44 454,-562.16 454,-536.5 454,-536.5 454,-536.5 454,-362 454,-331.97 426.92,-309.33 402.81,-295.12"/>
<text text-anchor="middle" x="460.38" y="-444.98" font-family="Arial" font-size="12.00"> 2 </text>
</g>
<!-- [spotify / confidence&#45;sdk&#45;swift] -->
<g id="node27" class="node">
<title>[spotify / confidence&#45;sdk&#45;swift]</title>
<polygon fill="#00b2ee" stroke="white" points="379.5,-467.25 174.5,-467.25 174.5,-431.25 379.5,-431.25 379.5,-467.25"/>
<text text-anchor="middle" x="277" y="-444.57" font-family="Tahoma" font-size="14.00">[spotify / confidence&#45;sdk&#45;swift]</text>
</g>
<!-- [spotify / confidence&#45;sdk&#45;android]&#45;&#45;[spotify / confidence&#45;sdk&#45;swift] -->
<g id="edge55" class="edge">
<title>[spotify / confidence&#45;sdk&#45;android]&#45;&#45;[spotify / confidence&#45;sdk&#45;swift]</title>
<path fill="none" stroke="#00688b" stroke-width="2" stroke-opacity="0.439216" d="M169.97,-517.04C193.14,-502.58 225.9,-482.14 249.06,-467.68"/>
<text text-anchor="middle" x="223.96" y="-488.1" font-family="Arial" font-size="12.00"> 2 </text>
</g>
<!-- [spotify / confidence&#45;sdk&#45;python]&#45;&#45;[spotify / confidence&#45;sdk&#45;java] -->
<g id="edge50" class="edge">
<title>[spotify / confidence&#45;sdk&#45;python]&#45;&#45;[spotify / confidence&#45;sdk&#45;java]</title>
<path fill="none" stroke="#00688b" stroke-width="2" stroke-opacity="0.439216" d="M305.73,-689.54C327.87,-675.08 359.18,-654.64 381.31,-640.18"/>
<text text-anchor="middle" x="357.6" y="-660.6" font-family="Arial" font-size="12.00"> 2 </text>
</g>
<!-- [spotify / confidence&#45;sdk&#45;python]&#45;&#45;[spotify / confidence&#45;sdk&#45;android] -->
<g id="edge39" class="edge">
<title>[spotify / confidence&#45;sdk&#45;python]&#45;&#45;[spotify / confidence&#45;sdk&#45;android]</title>
<path fill="none" stroke="#00688b" stroke-width="2" stroke-opacity="0.439216" d="M265.11,-689.71C238.85,-657.03 182.21,-586.55 155.93,-553.83"/>
<text text-anchor="middle" x="230.49" y="-617.48" font-family="Arial" font-size="12.00"> 2 </text>
</g>
<!-- [spotify / confidence&#45;sdk&#45;python]&#45;&#45;[spotify / confidence&#45;sdk&#45;go] -->
<g id="edge11" class="edge">
<title>[spotify / confidence&#45;sdk&#45;python]&#45;&#45;[spotify / confidence&#45;sdk&#45;go]</title>
<path fill="none" stroke="#00688b" stroke-width="4" stroke-opacity="0.576471" d="M388.04,-691.45C458.46,-678.23 537,-656.03 537,-622.75 537,-622.75 537,-622.75 537,-362 537,-323.11 500.98,-302.17 462,-290.9"/>
<text text-anchor="middle" x="543.38" y="-488.1" font-family="Arial" font-size="12.00"> 4 </text>
</g>
<!-- [spotify / confidence&#45;sdk&#45;go]&#45;&#45;[spotify / confidence&#45;sdk&#45;android] -->
<g id="edge44" class="edge">
<title>[spotify / confidence&#45;sdk&#45;go]&#45;&#45;[spotify / confidence&#45;sdk&#45;android]</title>
<path fill="none" stroke="#00688b" stroke-width="2" stroke-opacity="0.439216" d="M270.06,-293.76C214.3,-305.24 151.8,-322.62 135,-345 96.07,-396.87 121.2,-481.13 134.85,-517.21"/>
<text text-anchor="middle" x="121.39" y="-401.85" font-family="Arial" font-size="12.00"> 2 </text>
</g>
<!-- [spotify / confidence&#45;sdk&#45;swift]&#45;&#45;[spotify / confidence&#45;sdk&#45;js] -->
<g id="edge25" class="edge">
<title>[spotify / confidence&#45;sdk&#45;swift]&#45;&#45;[spotify / confidence&#45;sdk&#45;js]</title>
<path fill="none" stroke="#00688b" stroke-width="2" stroke-opacity="0.439216" d="M268.71,-430.79C261.85,-416.33 252.14,-395.89 245.28,-381.43"/>
<text text-anchor="middle" x="265.77" y="-401.85" font-family="Arial" font-size="12.00"> 2 </text>
</g>
<!-- [spotify / confidence&#45;sdk&#45;swift]&#45;&#45;[spotify / confidence&#45;sdk&#45;java] -->
<g id="edge18" class="edge">
<title>[spotify / confidence&#45;sdk&#45;swift]&#45;&#45;[spotify / confidence&#45;sdk&#45;java]</title>
<path fill="none" stroke="#00688b" stroke-width="2" stroke-opacity="0.439216" d="M290.32,-467.58C315.45,-500.3 369.61,-570.78 394.72,-603.46"/>
<text text-anchor="middle" x="361.9" y="-531.23" font-family="Arial" font-size="12.00"> 2 </text>
</g>
<!-- [spotify / confidence&#45;sdk&#45;swift]&#45;&#45;[spotify / confidence&#45;sdk&#45;python] -->
<g id="edge24" class="edge">
<title>[spotify / confidence&#45;sdk&#45;swift]&#45;&#45;[spotify / confidence&#45;sdk&#45;python]</title>
<path fill="none" stroke="#00688b" stroke-width="2" stroke-opacity="0.439216" d="M277.13,-467.42C277.5,-514.1 278.5,-642.98 278.87,-689.76"/>
<text text-anchor="middle" x="284.42" y="-574.35" font-family="Arial" font-size="12.00"> 2 </text>
</g>
<!-- [spotify / confidence&#45;sdk&#45;swift]&#45;&#45;[spotify / confidence&#45;sdk&#45;go] -->
<g id="edge47" class="edge">
<title>[spotify / confidence&#45;sdk&#45;swift]&#45;&#45;[spotify / confidence&#45;sdk&#45;go]</title>
<path fill="none" stroke="#00688b" stroke-width="2" stroke-opacity="0.439216" d="M297.67,-430.81C311.29,-418.27 328.49,-400.23 339,-381 354.2,-353.2 361.14,-316.47 364.07,-295.14"/>
<text text-anchor="middle" x="359.43" y="-358.73" font-family="Arial" font-size="12.00"> 2 </text>
</g>
<!-- [spotify / pedalboard] -->
<g id="node28" class="node">
<title>[spotify / pedalboard]</title>
<polygon fill="#00b2ee" stroke="white" points="713.38,-381 564.62,-381 564.62,-345 713.38,-345 713.38,-381"/>
<text text-anchor="middle" x="639" y="-358.32" font-family="Tahoma" font-size="14.00">[spotify / pedalboard]</text>
</g>
<!-- [spotify / pedalboard]&#45;&#45;[spotify / voyager] -->
<g id="edge37" class="edge">
<title>[spotify / pedalboard]&#45;&#45;[spotify / voyager]</title>
<path fill="none" stroke="#00688b" stroke-width="2" stroke-opacity="0.439216" d="M643.23,-344.67C652.43,-307.21 675.21,-215.97 697,-140.25 698.66,-134.5 700.58,-128.25 702.35,-122.65"/>
<text text-anchor="middle" x="679.65" y="-229.35" font-family="Arial" font-size="12.00"> 2 </text>
</g>
<!-- [spotify / pedalboard]&#45;&#45;[spotify / scio] -->
<g id="edge33" class="edge">
<title>[spotify / pedalboard]&#45;&#45;[spotify / scio]</title>
<path fill="none" stroke="#00688b" stroke-width="2" stroke-opacity="0.439216" d="M665.5,-344.77C686.73,-331.01 713.44,-313.85 716.25,-312.75 762.24,-294.74 818.04,-285.91 857.93,-281.64"/>
<text text-anchor="middle" x="722.62" y="-315.6" font-family="Arial" font-size="12.00"> 2 </text>
</g>
<!-- [spotify / pedalboard]&#45;&#45;[spotify / realbook] -->
<g id="edge21" class="edge">
<title>[spotify / pedalboard]&#45;&#45;[spotify / realbook]</title>
<path fill="none" stroke="#00688b" stroke-width="2" stroke-opacity="0.439216" d="M623.61,-344.64C610.92,-328.49 595,-303.16 595,-277.75 595,-277.75 595,-277.75 595,-103.25 595,-48.2 662.73,-28.86 717.1,-22.21"/>
<text text-anchor="middle" x="601.38" y="-186.22" font-family="Arial" font-size="12.00"> 2 </text>
</g>
<!-- [spotify / pedalboard]&#45;&#45;[spotify / basic&#45;pitch] -->
<g id="edge38" class="edge">
<title>[spotify / pedalboard]&#45;&#45;[spotify / basic&#45;pitch]</title>
<path fill="none" stroke="#00688b" stroke-width="2" stroke-opacity="0.439216" d="M656.34,-344.71C689.11,-312.03 759.81,-241.55 792.62,-208.83"/>
<text text-anchor="middle" x="747.87" y="-272.48" font-family="Arial" font-size="12.00"> 2 </text>
</g>
<!-- [spotify / homebrew&#45;public]&#45;&#45;[spotify / scio&#45;idea&#45;plugin] -->
<g id="edge54" class="edge">
<title>[spotify / homebrew&#45;public]&#45;&#45;[spotify / scio&#45;idea&#45;plugin]</title>
<path fill="none" stroke="#00688b" stroke-width="2" stroke-opacity="0.439216" d="M1142.14,-517.04C1140.59,-502.58 1138.41,-482.14 1136.86,-467.68"/>
<text text-anchor="middle" x="1146.41" y="-488.1" font-family="Arial" font-size="12.00"> 2 </text>
</g>
<!-- [spotify / missinglink] -->
<g id="node31" class="node">
<title>[spotify / missinglink]</title>
<polygon fill="#00b2ee" stroke="white" points="2753.88,-812.25 2608.12,-812.25 2608.12,-776.25 2753.88,-776.25 2753.88,-812.25"/>
<text text-anchor="middle" x="2681" y="-789.58" font-family="Tahoma" font-size="14.00">[spotify / missinglink]</text>
</g>
<!-- [spotify / futuristic&#45;feline] -->
<g id="node32" class="node">
<title>[spotify / futuristic&#45;feline]</title>
<polygon fill="#00b2ee" stroke="white" points="2667.25,-726 2496.75,-726 2496.75,-690 2667.25,-690 2667.25,-726"/>
<text text-anchor="middle" x="2582" y="-703.33" font-family="Tahoma" font-size="14.00">[spotify / futuristic&#45;feline]</text>
</g>
<!-- [spotify / missinglink]&#45;&#45;[spotify / futuristic&#45;feline] -->
<g id="edge29" class="edge">
<title>[spotify / missinglink]&#45;&#45;[spotify / futuristic&#45;feline]</title>
<path fill="none" stroke="#00688b" stroke-width="2" stroke-opacity="0.439216" d="M2660.49,-775.79C2643.5,-761.33 2619.47,-740.89 2602.49,-726.43"/>
<text text-anchor="middle" x="2643.8" y="-746.85" font-family="Arial" font-size="12.00"> 2 </text>
</g>
<!-- [spotify / fmt&#45;maven&#45;plugin] -->
<g id="node34" class="node">
<title>[spotify / fmt&#45;maven&#45;plugin]</title>
<polygon fill="#00b2ee" stroke="white" points="2874.62,-726 2685.38,-726 2685.38,-690 2874.62,-690 2874.62,-726"/>
<text text-anchor="middle" x="2780" y="-703.33" font-family="Tahoma" font-size="14.00">[spotify / fmt&#45;maven&#45;plugin]</text>
</g>
<!-- [spotify / missinglink]&#45;&#45;[spotify / fmt&#45;maven&#45;plugin] -->
<g id="edge45" class="edge">
<title>[spotify / missinglink]&#45;&#45;[spotify / fmt&#45;maven&#45;plugin]</title>
<path fill="none" stroke="#00688b" stroke-width="2" stroke-opacity="0.439216" d="M2701.51,-775.79C2718.5,-761.33 2742.53,-740.89 2759.51,-726.43"/>
<text text-anchor="middle" x="2742.8" y="-746.85" font-family="Arial" font-size="12.00"> 2 </text>
</g>
<!-- [spotify / basic&#45;pitch]&#45;&#45;[spotify / voyager] -->
<g id="edge49" class="edge">
<title>[spotify / basic&#45;pitch]&#45;&#45;[spotify / voyager]</title>
<path fill="none" stroke="#00688b" stroke-width="2" stroke-opacity="0.439216" d="M788.87,-172.04C771.36,-157.58 746.61,-137.14 729.11,-122.68"/>
<text text-anchor="middle" x="771.48" y="-143.1" font-family="Arial" font-size="12.00"> 2 </text>
</g>
<!-- [spotify / basic&#45;pitch]&#45;&#45;[spotify / realbook] -->
<g id="edge30" class="edge">
<title>[spotify / basic&#45;pitch]&#45;&#45;[spotify / realbook]</title>
<path fill="none" stroke="#00688b" stroke-width="2" stroke-opacity="0.439216" d="M807.36,-172.21C802.38,-139.53 791.63,-69.05 786.64,-36.33"/>
<text text-anchor="middle" x="805.96" y="-99.97" font-family="Arial" font-size="12.00"> 2 </text>
</g>
</g>
</svg>
