<svg width="2155pt" height="475pt"
 viewBox="0.00 0.00 2154.88 475.25" xmlns="http://www.w3.org/2000/svg" xmlns:xlink="http://www.w3.org/1999/xlink">
<g id="graph0" class="graph" transform="scale(1 1) rotate(0) translate(4 471.25)">
<title>G</title>
<polygon fill="white" stroke="none" points="-4,4 -4,-471.25 2150.88,-471.25 2150.88,4 -4,4"/>
<!-- [spotify / java&#45;locales] -->
<g id="node1" class="node">
<title>[spotify / java&#45;locales]</title>
<polygon fill="#00b2ee" stroke="white" points="152.5,-467.25 0,-467.25 0,-431.25 152.5,-431.25 152.5,-467.25"/>
<text text-anchor="middle" x="76.25" y="-444.57" font-family="Tahoma" font-size="14.00">[spotify / java&#45;locales]</text>
</g>
<!-- [spotify / confidence&#45;sdk&#45;flutter] -->
<g id="node2" class="node">
<title>[spotify / confidence&#45;sdk&#45;flutter]</title>
<polygon fill="#00b2ee" stroke="white" points="383.88,-467.25 170.62,-467.25 170.62,-431.25 383.88,-431.25 383.88,-467.25"/>
<text text-anchor="middle" x="277.25" y="-444.57" font-family="Tahoma" font-size="14.00">[spotify / confidence&#45;sdk&#45;flutter]</text>
</g>
<!-- [spotify / ratatool] -->
<g id="node3" class="node">
<title>[spotify / ratatool]</title>
<polygon fill="#00b2ee" stroke="white" points="375.75,-36 248.75,-36 248.75,0 375.75,0 375.75,-36"/>
<text text-anchor="middle" x="312.25" y="-13.32" font-family="Tahoma" font-size="14.00">[spotify / ratatool]</text>
</g>
<!-- [spotify / confidence&#45;sdk&#45;js] -->
<g id="node4" class="node">
<title>[spotify / confidence&#45;sdk&#45;js]</title>
<polygon fill="#00b2ee" stroke="white" points="964.38,-467.25 778.12,-467.25 778.12,-431.25 964.38,-431.25 964.38,-467.25"/>
<text text-anchor="middle" x="871.25" y="-444.57" font-family="Tahoma" font-size="14.00">[spotify / confidence&#45;sdk&#45;js]</text>
</g>
<!-- [spotify / confidence&#45;sdk&#45;java] -->
<g id="node18" class="node">
<title>[spotify / confidence&#45;sdk&#45;java]</title>
<polygon fill="#00b2ee" stroke="white" points="1185.25,-381 983.25,-381 983.25,-345 1185.25,-345 1185.25,-381"/>
<text text-anchor="middle" x="1084.25" y="-358.32" font-family="Tahoma" font-size="14.00">[spotify / confidence&#45;sdk&#45;java]</text>
</g>
<!-- [spotify / confidence&#45;sdk&#45;js]&#45;&#45;[spotify / confidence&#45;sdk&#45;java] -->
<g id="edge6" class="edge">
<title>[spotify / confidence&#45;sdk&#45;js]&#45;&#45;[spotify / confidence&#45;sdk&#45;java]</title>
<path fill="none" stroke="#00688b" stroke-width="4" stroke-opacity="0.576471" d="M915.38,-430.79C951.94,-416.33 1003.63,-395.89 1040.17,-381.43"/>
<text text-anchor="middle" x="996.88" y="-401.85" font-family="Arial" font-size="12.00"> 4 </text>
</g>
<!-- [spotify / confidence&#45;sdk&#45;android] -->
<g id="node19" class="node">
<title>[spotify / confidence&#45;sdk&#45;android]</title>
<polygon fill="#00b2ee" stroke="white" points="1195.38,-294.75 973.12,-294.75 973.12,-258.75 1195.38,-258.75 1195.38,-294.75"/>
<text text-anchor="middle" x="1084.25" y="-272.07" font-family="Tahoma" font-size="14.00">[spotify / confidence&#45;sdk&#45;android]</text>
</g>
<!-- [spotify / confidence&#45;sdk&#45;js]&#45;&#45;[spotify / confidence&#45;sdk&#45;android] -->
<g id="edge3" class="edge">
<title>[spotify / confidence&#45;sdk&#45;js]&#45;&#45;[spotify / confidence&#45;sdk&#45;android]</title>
<path fill="none" stroke="#00688b" stroke-width="4" stroke-opacity="0.576471" d="M883.43,-430.86C899.46,-408.88 929.39,-370.8 961.5,-345 986.88,-324.61 1019.33,-307.14 1044.48,-295.12"/>
<text text-anchor="middle" x="967.88" y="-358.73" font-family="Arial" font-size="12.00"> 4 </text>
</g>
<!-- [spotify / confidence&#45;sdk&#45;python] -->
<g id="node22" class="node">
<title>[spotify / confidence&#45;sdk&#45;python]</title>
<polygon fill="#00b2ee" stroke="white" points="1113.12,-122.25 895.38,-122.25 895.38,-86.25 1113.12,-86.25 1113.12,-122.25"/>
<text text-anchor="middle" x="1004.25" y="-99.58" font-family="Tahoma" font-size="14.00">[spotify / confidence&#45;sdk&#45;python]</text>
</g>
<!-- [spotify / confidence&#45;sdk&#45;js]&#45;&#45;[spotify / confidence&#45;sdk&#45;python] -->
<g id="edge27" class="edge">
<title>[spotify / confidence&#45;sdk&#45;js]&#45;&#45;[spotify / confidence&#45;sdk&#45;python]</title>
<path fill="none" stroke="#00688b" stroke-width="2" stroke-opacity="0.439216" d="M857.14,-431.03C845.28,-414.78 830.25,-389.21 830.25,-364 830.25,-364 830.25,-364 830.25,-189.5 830.25,-153.92 860.08,-133.36 895.04,-121.49"/>
<text text-anchor="middle" x="836.62" y="-272.48" font-family="Arial" font-size="12.00"> 2 </text>
</g>
<!-- [spotify / confidence&#45;sdk&#45;go] -->
<g id="node23" class="node">
<title>[spotify / confidence&#45;sdk&#45;go]</title>
<polygon fill="#00b2ee" stroke="white" points="1196,-36 1004.5,-36 1004.5,0 1196,0 1196,-36"/>
<text text-anchor="middle" x="1100.25" y="-13.32" font-family="Tahoma" font-size="14.00">[spotify / confidence&#45;sdk&#45;go]</text>
</g>
<!-- [spotify / confidence&#45;sdk&#45;js]&#45;&#45;[spotify / confidence&#45;sdk&#45;go] -->
<g id="edge13" class="edge">
<title>[spotify / confidence&#45;sdk&#45;js]&#45;&#45;[spotify / confidence&#45;sdk&#45;go]</title>
<path fill="none" stroke="#00688b" stroke-width="2" stroke-opacity="0.439216" d="M834.86,-430.77C811.02,-416.51 784.25,-393.86 784.25,-364 784.25,-364 784.25,-364 784.25,-103.25 784.25,-57.19 911.18,-35.67 1004.15,-26.09"/>
<text text-anchor="middle" x="790.62" y="-229.35" font-family="Arial" font-size="12.00"> 2 </text>
</g>
<!-- [spotify / luigi] -->
<g id="node5" class="node">
<title>[spotify / luigi]</title>
<polygon fill="#00b2ee" stroke="white" points="1086.5,-467.25 982,-467.25 982,-431.25 1086.5,-431.25 1086.5,-467.25"/>
<text text-anchor="middle" x="1034.25" y="-444.57" font-family="Tahoma" font-size="14.00">[spotify / luigi]</text>
</g>
<!-- [spotify / voyager] -->
<g id="node6" class="node">
<title>[spotify / voyager]</title>
<polygon fill="#00b2ee" stroke="white" points="1233.88,-467.25 1104.62,-467.25 1104.62,-431.25 1233.88,-431.25 1233.88,-467.25"/>
<text text-anchor="middle" x="1169.25" y="-444.57" font-family="Tahoma" font-size="14.00">[spotify / voyager]</text>
</g>
<!-- [spotify / magnolify] -->
<g id="node7" class="node">
<title>[spotify / magnolify]</title>
<polygon fill="#00b2ee" stroke="white" points="542.12,-467.25 402.38,-467.25 402.38,-431.25 542.12,-431.25 542.12,-467.25"/>
<text text-anchor="middle" x="472.25" y="-444.57" font-family="Tahoma" font-size="14.00">[spotify / magnolify]</text>
</g>
<!-- [spotify / magnolify]&#45;&#45;[spotify / ratatool] -->
<g id="edge18" class="edge">
<title>[spotify / magnolify]&#45;&#45;[spotify / ratatool]</title>
<path fill="none" stroke="#00688b" stroke-width="2" stroke-opacity="0.439216" d="M402.07,-432.88C376.27,-427.02 346.87,-420.1 320.25,-413.25 242.83,-393.33 147.25,-443.94 147.25,-364 147.25,-364 147.25,-364 147.25,-103.25 147.25,-55.81 202.03,-35.07 248.46,-26.01"/>
<text text-anchor="middle" x="153.62" y="-229.35" font-family="Arial" font-size="12.00"> 2 </text>
</g>
<!-- [spotify / dbeam] -->
<g id="node8" class="node">
<title>[spotify / dbeam]</title>
<polygon fill="#00b2ee" stroke="white" points="781.5,-36 659,-36 659,0 781.5,0 781.5,-36"/>
<text text-anchor="middle" x="720.25" y="-13.32" font-family="Tahoma" font-size="14.00">[spotify / dbeam]</text>
</g>
<!-- [spotify / magnolify]&#45;&#45;[spotify / dbeam] -->
<g id="edge22" class="edge">
<title>[spotify / magnolify]&#45;&#45;[spotify / dbeam]</title>
<path fill="none" stroke="#00688b" stroke-width="2" stroke-opacity="0.439216" d="M542.46,-440.67C623.64,-429.92 746.25,-406.61 746.25,-364 746.25,-364 746.25,-364 746.25,-103.25 746.25,-79.22 736.47,-52.97 728.91,-36.27"/>
<text text-anchor="middle" x="752.62" y="-229.35" font-family="Arial" font-size="12.00"> 2 </text>
</g>
<!-- [spotify / scio&#45;idea&#45;plugin] -->
<g id="node9" class="node">
<title>[spotify / scio&#45;idea&#45;plugin]</title>
<polygon fill="#00b2ee" stroke="white" points="476.12,-294.75 300.38,-294.75 300.38,-258.75 476.12,-258.75 476.12,-294.75"/>
<text text-anchor="middle" x="388.25" y="-272.07" font-family="Tahoma" font-size="14.00">[spotify / scio&#45;idea&#45;plugin]</text>
</g>
<!-- [spotify / magnolify]&#45;&#45;[spotify / scio&#45;idea&#45;plugin] -->
<g id="edge16" class="edge">
<title>[spotify / magnolify]&#45;&#45;[spotify / scio&#45;idea&#45;plugin]</title>
<path fill="none" stroke="#00688b" stroke-width="2" stroke-opacity="0.439216" d="M474.72,-430.76C476.92,-409.35 477.95,-372.52 464.25,-345 453.89,-324.18 434,-306.95 417.17,-295.15"/>
<text text-anchor="middle" x="480.85" y="-358.73" font-family="Arial" font-size="12.00"> 2 </text>
</g>
<!-- [spotify / scio] -->
<g id="node11" class="node">
<title>[spotify / scio]</title>
<polygon fill="#00b2ee" stroke="white" points="584.12,-122.25 480.38,-122.25 480.38,-86.25 584.12,-86.25 584.12,-122.25"/>
<text text-anchor="middle" x="532.25" y="-99.58" font-family="Tahoma" font-size="14.00">[spotify / scio]</text>
</g>
<!-- [spotify / magnolify]&#45;&#45;[spotify / scio] -->
<g id="edge4" class="edge">
<title>[spotify / magnolify]&#45;&#45;[spotify / scio]</title>
<path fill="none" stroke="#00688b" stroke-width="4" stroke-opacity="0.576471" d="M482.38,-430.86C485.26,-425.37 488.17,-419.18 490.25,-413.25 520.91,-325.92 522.17,-300.85 528.25,-208.5 530.24,-178.25 531.35,-142.94 531.87,-122.44"/>
<text text-anchor="middle" x="531.09" y="-272.48" font-family="Arial" font-size="12.00"> 4 </text>
</g>
<!-- [spotify / gcs&#45;tools] -->
<g id="node14" class="node">
<title>[spotify / gcs&#45;tools]</title>
<polygon fill="#00b2ee" stroke="white" points="455.5,-381 321,-381 321,-345 455.5,-345 455.5,-381"/>
<text text-anchor="middle" x="388.25" y="-358.32" font-family="Tahoma" font-size="14.00">[spotify / gcs&#45;tools]</text>
</g>
<!-- [spotify / magnolify]&#45;&#45;[spotify / gcs&#45;tools] -->
<g id="edge32" class="edge">
<title>[spotify / magnolify]&#45;&#45;[spotify / gcs&#45;tools]</title>
<path fill="none" stroke="#00688b" stroke-width="2" stroke-opacity="0.439216" d="M454.85,-430.79C440.43,-416.33 420.04,-395.89 405.63,-381.43"/>
<text text-anchor="middle" x="441.65" y="-401.85" font-family="Arial" font-size="12.00"> 2 </text>
</g>
<!-- [spotify / elitzur] -->
<g id="node15" class="node">
<title>[spotify / elitzur]</title>
<polygon fill="#00b2ee" stroke="white" points="370.88,-208.5 253.62,-208.5 253.62,-172.5 370.88,-172.5 370.88,-208.5"/>
<text text-anchor="middle" x="312.25" y="-185.82" font-family="Tahoma" font-size="14.00">[spotify / elitzur]</text>
</g>
<!-- [spotify / magnolify]&#45;&#45;[spotify / elitzur] -->
<g id="edge26" class="edge">
<title>[spotify / magnolify]&#45;&#45;[spotify / elitzur]</title>
<path fill="none" stroke="#00688b" stroke-width="2" stroke-opacity="0.439216" d="M413.34,-430.81C339.89,-407.72 220.98,-365.43 196.5,-327 167,-280.68 234.05,-233.45 277.95,-208.84"/>
<text text-anchor="middle" x="202.88" y="-315.6" font-family="Arial" font-size="12.00"> 2 </text>
</g>
<!-- [spotify / scio&#45;idea&#45;plugin]&#45;&#45;[spotify / ratatool] -->
<g id="edge12" class="edge">
<title>[spotify / scio&#45;idea&#45;plugin]&#45;&#45;[spotify / ratatool]</title>
<path fill="none" stroke="#00688b" stroke-width="2" stroke-opacity="0.439216" d="M389.13,-258.64C389.97,-232.52 389.63,-181.38 377.25,-140.25 365.34,-100.68 339.84,-59.22 324.56,-36.49"/>
<text text-anchor="middle" x="387.24" y="-143.1" font-family="Arial" font-size="12.00"> 2 </text>
</g>
<!-- [spotify / scio&#45;idea&#45;plugin]&#45;&#45;[spotify / scio] -->
<g id="edge17" class="edge">
<title>[spotify / scio&#45;idea&#45;plugin]&#45;&#45;[spotify / scio]</title>
<path fill="none" stroke="#00688b" stroke-width="2" stroke-opacity="0.439216" d="M400.99,-258.37C426.07,-224.2 480.33,-150.67 490.25,-140.25 496.14,-134.06 503.08,-127.9 509.6,-122.51"/>
<text text-anchor="middle" x="470.31" y="-186.22" font-family="Arial" font-size="12.00"> 2 </text>
</g>
<!-- [spotify / scio&#45;idea&#45;plugin]&#45;&#45;[spotify / elitzur] -->
<g id="edge7" class="edge">
<title>[spotify / scio&#45;idea&#45;plugin]&#45;&#45;[spotify / elitzur]</title>
<path fill="none" stroke="#00688b" stroke-width="2" stroke-opacity="0.439216" d="M372.5,-258.29C359.46,-243.83 341.01,-223.39 327.98,-208.93"/>
<text text-anchor="middle" x="361.18" y="-229.35" font-family="Arial" font-size="12.00"> 2 </text>
</g>
<!-- [spotify / Mobius.swift] -->
<g id="node10" class="node">
<title>[spotify / Mobius.swift]</title>
<polygon fill="#00b2ee" stroke="white" points="1407,-467.25 1251.5,-467.25 1251.5,-431.25 1407,-431.25 1407,-467.25"/>
<text text-anchor="middle" x="1329.25" y="-444.57" font-family="Tahoma" font-size="14.00">[spotify / Mobius.swift]</text>
</g>
<!-- [spotify / scio]&#45;&#45;[spotify / ratatool] -->
<g id="edge24" class="edge">
<title>[spotify / scio]&#45;&#45;[spotify / ratatool]</title>
<path fill="none" stroke="#00688b" stroke-width="2" stroke-opacity="0.439216" d="M491.73,-85.79C468.83,-76.09 439.59,-64 413.25,-54 397.55,-48.04 380.33,-41.92 364.62,-36.49"/>
<text text-anchor="middle" x="452.55" y="-56.85" font-family="Arial" font-size="12.00"> 2 </text>
</g>
<!-- [spotify / scio]&#45;&#45;[spotify / dbeam] -->
<g id="edge5" class="edge">
<title>[spotify / scio]&#45;&#45;[spotify / dbeam]</title>
<path fill="none" stroke="#00688b" stroke-width="4" stroke-opacity="0.576471" d="M571.2,-85.79C603.47,-71.33 649.09,-50.89 681.35,-36.43"/>
<text text-anchor="middle" x="643.88" y="-56.85" font-family="Arial" font-size="12.00"> 4 </text>
</g>
<!-- [spotify / basic&#45;pitch] -->
<g id="node21" class="node">
<title>[spotify / basic&#45;pitch]</title>
<polygon fill="#00b2ee" stroke="white" points="627.75,-36 482.75,-36 482.75,0 627.75,0 627.75,-36"/>
<text text-anchor="middle" x="555.25" y="-13.32" font-family="Tahoma" font-size="14.00">[spotify / basic&#45;pitch]</text>
</g>
<!-- [spotify / scio]&#45;&#45;[spotify / basic&#45;pitch] -->
<g id="edge19" class="edge">
<title>[spotify / scio]&#45;&#45;[spotify / basic&#45;pitch]</title>
<path fill="none" stroke="#00688b" stroke-width="2" stroke-opacity="0.439216" d="M537.02,-85.79C540.96,-71.33 546.54,-50.89 550.49,-36.43"/>
<text text-anchor="middle" x="551.5" y="-56.85" font-family="Arial" font-size="12.00"> 2 </text>
</g>
<!-- [spotify / ruler] -->
<g id="node12" class="node">
<title>[spotify / ruler]</title>
<polygon fill="#00b2ee" stroke="white" points="1533.75,-467.25 1424.75,-467.25 1424.75,-431.25 1533.75,-431.25 1533.75,-467.25"/>
<text text-anchor="middle" x="1479.25" y="-444.57" font-family="Tahoma" font-size="14.00">[spotify / ruler]</text>
</g>
<!-- [spotify / spotify.github.io] -->
<g id="node13" class="node">
<title>[spotify / spotify.github.io]</title>
<polygon fill="#00b2ee" stroke="white" points="1728.5,-467.25 1552,-467.25 1552,-431.25 1728.5,-431.25 1728.5,-467.25"/>
<text text-anchor="middle" x="1640.25" y="-444.57" font-family="Tahoma" font-size="14.00">[spotify / spotify.github.io]</text>
</g>
<!-- [spotify / gcs&#45;tools]&#45;&#45;[spotify / ratatool] -->
<g id="edge30" class="edge">
<title>[spotify / gcs&#45;tools]&#45;&#45;[spotify / ratatool]</title>
<path fill="none" stroke="#00688b" stroke-width="2" stroke-opacity="0.439216" d="M320.66,-354.23C275.1,-344.79 223.25,-323.91 223.25,-277.75 223.25,-277.75 223.25,-277.75 223.25,-103.25 223.25,-73.14 250.44,-50.58 274.76,-36.42"/>
<text text-anchor="middle" x="229.62" y="-186.22" font-family="Arial" font-size="12.00"> 2 </text>
</g>
<!-- [spotify / gcs&#45;tools]&#45;&#45;[spotify / scio&#45;idea&#45;plugin] -->
<g id="edge25" class="edge">
<title>[spotify / gcs&#45;tools]&#45;&#45;[spotify / scio&#45;idea&#45;plugin]</title>
<path fill="none" stroke="#00688b" stroke-width="2" stroke-opacity="0.439216" d="M388.25,-344.54C388.25,-330.08 388.25,-309.64 388.25,-295.18"/>
<text text-anchor="middle" x="394.62" y="-315.6" font-family="Arial" font-size="12.00"> 2 </text>
</g>
<!-- [spotify / gcs&#45;tools]&#45;&#45;[spotify / scio] -->
<g id="edge9" class="edge">
<title>[spotify / gcs&#45;tools]&#45;&#45;[spotify / scio]</title>
<path fill="none" stroke="#00688b" stroke-width="2" stroke-opacity="0.439216" d="M425.58,-344.57C446.11,-333.15 470.36,-316.34 485.25,-294.75 504.79,-266.43 522.89,-163.87 529.55,-122.61"/>
<text text-anchor="middle" x="515.08" y="-229.35" font-family="Arial" font-size="12.00"> 2 </text>
</g>
<!-- [spotify / gcs&#45;tools]&#45;&#45;[spotify / elitzur] -->
<g id="edge34" class="edge">
<title>[spotify / gcs&#45;tools]&#45;&#45;[spotify / elitzur]</title>
<path fill="none" stroke="#00688b" stroke-width="2" stroke-opacity="0.439216" d="M338.48,-344.63C315.92,-333.98 291.44,-317.85 278.5,-294.75 262.74,-266.61 283.09,-230 298.35,-208.78"/>
<text text-anchor="middle" x="284.88" y="-272.48" font-family="Arial" font-size="12.00"> 2 </text>
</g>
<!-- [spotify / elitzur]&#45;&#45;[spotify / ratatool] -->
<g id="edge1" class="edge">
<title>[spotify / elitzur]&#45;&#45;[spotify / ratatool]</title>
<path fill="none" stroke="#00688b" stroke-width="6" stroke-opacity="0.717647" d="M312.25,-172.21C312.25,-139.53 312.25,-69.05 312.25,-36.33"/>
<text text-anchor="middle" x="318.62" y="-99.97" font-family="Arial" font-size="12.00"> 6 </text>
</g>
<!-- [spotify / elitzur]&#45;&#45;[spotify / scio] -->
<g id="edge33" class="edge">
<title>[spotify / elitzur]&#45;&#45;[spotify / scio]</title>
<path fill="none" stroke="#00688b" stroke-width="2" stroke-opacity="0.439216" d="M326.02,-172.35C335.66,-161.5 349.47,-148.09 364.5,-140.25 400.37,-121.54 445.48,-112.83 479.88,-108.78"/>
<text text-anchor="middle" x="370.88" y="-143.1" font-family="Arial" font-size="12.00"> 2 </text>
</g>
<!-- [spotify / SPTDataLoader] -->
<g id="node16" class="node">
<title>[spotify / SPTDataLoader]</title>
<polygon fill="#00b2ee" stroke="white" points="1921.75,-467.25 1746.75,-467.25 1746.75,-431.25 1921.75,-431.25 1921.75,-467.25"/>
<text text-anchor="middle" x="1834.25" y="-444.57" font-family="Tahoma" font-size="14.00">[spotify / SPTDataLoader]</text>
</g>
<!-- [spotify / flink&#45;on&#45;k8s&#45;operator] -->
<g id="node17" class="node">
<title>[spotify / flink&#45;on&#45;k8s&#45;operator]</title>
<polygon fill="#00b2ee" stroke="white" points="2146.88,-467.25 1939.62,-467.25 1939.62,-431.25 2146.88,-431.25 2146.88,-467.25"/>
<text text-anchor="middle" x="2043.25" y="-444.57" font-family="Tahoma" font-size="14.00">[spotify / flink&#45;on&#45;k8s&#45;operator]</text>
</g>
<!-- [spotify / confidence&#45;sdk&#45;java]&#45;&#45;[spotify / confidence&#45;sdk&#45;android] -->
<g id="edge2" class="edge">
<title>[spotify / confidence&#45;sdk&#45;java]&#45;&#45;[spotify / confidence&#45;sdk&#45;android]</title>
<path fill="none" stroke="#00688b" stroke-width="4" stroke-opacity="0.576471" d="M1084.25,-344.54C1084.25,-330.08 1084.25,-309.64 1084.25,-295.18"/>
<text text-anchor="middle" x="1090.62" y="-315.6" font-family="Arial" font-size="12.00"> 4 </text>
</g>
<!-- [spotify / confidence&#45;sdk&#45;java]&#45;&#45;[spotify / confidence&#45;sdk&#45;go] -->
<g id="edge29" class="edge">
<title>[spotify / confidence&#45;sdk&#45;java]&#45;&#45;[spotify / confidence&#45;sdk&#45;go]</title>
<path fill="none" stroke="#00688b" stroke-width="2" stroke-opacity="0.439216" d="M1185.68,-351.72C1228.77,-341.17 1269.25,-320.01 1269.25,-277.75 1269.25,-277.75 1269.25,-277.75 1269.25,-103.25 1269.25,-65.06 1234.25,-44.18 1196.11,-32.76"/>
<text text-anchor="middle" x="1275.62" y="-186.22" font-family="Arial" font-size="12.00"> 2 </text>
</g>
<!-- [spotify / confidence&#45;sdk&#45;swift] -->
<g id="node24" class="node">
<title>[spotify / confidence&#45;sdk&#45;swift]</title>
<polygon fill="#00b2ee" stroke="white" points="1063.75,-208.5 858.75,-208.5 858.75,-172.5 1063.75,-172.5 1063.75,-208.5"/>
<text text-anchor="middle" x="961.25" y="-185.82" font-family="Tahoma" font-size="14.00">[spotify / confidence&#45;sdk&#45;swift]</text>
</g>
<!-- [spotify / confidence&#45;sdk&#45;android]&#45;&#45;[spotify / confidence&#45;sdk&#45;swift] -->
<g id="edge28" class="edge">
<title>[spotify / confidence&#45;sdk&#45;android]&#45;&#45;[spotify / confidence&#45;sdk&#45;swift]</title>
<path fill="none" stroke="#00688b" stroke-width="2" stroke-opacity="0.439216" d="M1058.76,-258.29C1037.65,-243.83 1007.8,-223.39 986.7,-208.93"/>
<text text-anchor="middle" x="1036.49" y="-229.35" font-family="Arial" font-size="12.00"> 2 </text>
</g>
<!-- [spotify / pedalboard] -->
<g id="node20" class="node">
<title>[spotify / pedalboard]</title>
<polygon fill="#00b2ee" stroke="white" points="718.62,-208.5 569.88,-208.5 569.88,-172.5 718.62,-172.5 718.62,-208.5"/>
<text text-anchor="middle" x="644.25" y="-185.82" font-family="Tahoma" font-size="14.00">[spotify / pedalboard]</text>
</g>
<!-- [spotify / pedalboard]&#45;&#45;[spotify / scio] -->
<g id="edge31" class="edge">
<title>[spotify / pedalboard]&#45;&#45;[spotify / scio]</title>
<path fill="none" stroke="#00688b" stroke-width="2" stroke-opacity="0.439216" d="M621.04,-172.04C601.82,-157.58 574.64,-137.14 555.43,-122.68"/>
<text text-anchor="middle" x="601.33" y="-143.1" font-family="Arial" font-size="12.00"> 2 </text>
</g>
<!-- [spotify / pedalboard]&#45;&#45;[spotify / basic&#45;pitch] -->
<g id="edge8" class="edge">
<title>[spotify / pedalboard]&#45;&#45;[spotify / basic&#45;pitch]</title>
<path fill="none" stroke="#00688b" stroke-width="2" stroke-opacity="0.439216" d="M644.46,-172.36C643.96,-144.82 639.42,-90.17 613.25,-54 608.22,-47.04 601.34,-41.21 594.08,-36.42"/>
<text text-anchor="middle" x="645.82" y="-99.97" font-family="Arial" font-size="12.00"> 2 </text>
</g>
<!-- [spotify / confidence&#45;sdk&#45;python]&#45;&#45;[spotify / confidence&#45;sdk&#45;java] -->
<g id="edge23" class="edge">
<title>[spotify / confidence&#45;sdk&#45;python]&#45;&#45;[spotify / confidence&#45;sdk&#45;java]</title>
<path fill="none" stroke="#00688b" stroke-width="2" stroke-opacity="0.439216" d="M1112.95,-122.75C1123.83,-127.32 1134.19,-133.05 1143.25,-140.25 1189.64,-177.08 1190.3,-201.18 1204.25,-258.75 1208.02,-274.3 1212.34,-280.95 1204.25,-294.75 1190.49,-318.24 1165.19,-334.15 1141.35,-344.56"/>
<text text-anchor="middle" x="1206.24" y="-229.35" font-family="Arial" font-size="12.00"> 2 </text>
</g>
<!-- [spotify / confidence&#45;sdk&#45;python]&#45;&#45;[spotify / confidence&#45;sdk&#45;android] -->
<g id="edge10" class="edge">
<title>[spotify / confidence&#45;sdk&#45;python]&#45;&#45;[spotify / confidence&#45;sdk&#45;android]</title>
<path fill="none" stroke="#00688b" stroke-width="2" stroke-opacity="0.439216" d="M1029.31,-122.51C1044.73,-134.6 1063.38,-152.19 1073.25,-172.5 1086.72,-200.23 1087.1,-236.98 1085.87,-258.33"/>
<text text-anchor="middle" x="1090.23" y="-186.22" font-family="Arial" font-size="12.00"> 2 </text>
</g>
<!-- [spotify / confidence&#45;sdk&#45;python]&#45;&#45;[spotify / confidence&#45;sdk&#45;go] -->
<g id="edge11" class="edge">
<title>[spotify / confidence&#45;sdk&#45;python]&#45;&#45;[spotify / confidence&#45;sdk&#45;go]</title>
<path fill="none" stroke="#00688b" stroke-width="2" stroke-opacity="0.439216" d="M1024.14,-85.79C1040.62,-71.33 1063.92,-50.89 1080.38,-36.43"/>
<text text-anchor="middle" x="1064.37" y="-56.85" font-family="Arial" font-size="12.00"> 2 </text>
</g>
<!-- [spotify / confidence&#45;sdk&#45;go]&#45;&#45;[spotify / confidence&#45;sdk&#45;android] -->
<g id="edge14" class="edge">
<title>[spotify / confidence&#45;sdk&#45;go]&#45;&#45;[spotify / confidence&#45;sdk&#45;android]</title>
<path fill="none" stroke="#00688b" stroke-width="2" stroke-opacity="0.439216" d="M1107.6,-36.32C1112.85,-49.69 1119.47,-68.78 1122.25,-86.25 1133.17,-154.74 1121.16,-174.62 1100.25,-240.75 1098.4,-246.61 1095.81,-252.78 1093.25,-258.28"/>
<text text-anchor="middle" x="1132.5" y="-143.1" font-family="Arial" font-size="12.00"> 2 </text>
</g>
<!-- [spotify / confidence&#45;sdk&#45;swift]&#45;&#45;[spotify / confidence&#45;sdk&#45;js] -->
<g id="edge21" class="edge">
<title>[spotify / confidence&#45;sdk&#45;swift]&#45;&#45;[spotify / confidence&#45;sdk&#45;js]</title>
<path fill="none" stroke="#00688b" stroke-width="2" stroke-opacity="0.439216" d="M950.32,-208.93C947.14,-214.42 943.83,-220.6 941.25,-226.5 909.13,-299.92 884.73,-392.8 875.4,-430.83"/>
<text text-anchor="middle" x="914.98" y="-315.6" font-family="Arial" font-size="12.00"> 2 </text>
</g>
<!-- [spotify / confidence&#45;sdk&#45;swift]&#45;&#45;[spotify / confidence&#45;sdk&#45;java] -->
<g id="edge15" class="edge">
<title>[spotify / confidence&#45;sdk&#45;swift]&#45;&#45;[spotify / confidence&#45;sdk&#45;java]</title>
<path fill="none" stroke="#00688b" stroke-width="2" stroke-opacity="0.439216" d="M953.7,-208.65C945.38,-230.39 935.19,-268.21 951.5,-294.75 966.17,-318.63 992.26,-334.35 1017.44,-344.54"/>
<text text-anchor="middle" x="957.88" y="-272.48" font-family="Arial" font-size="12.00"> 2 </text>
</g>
<!-- [spotify / confidence&#45;sdk&#45;swift]&#45;&#45;[spotify / confidence&#45;sdk&#45;python] -->
<g id="edge20" class="edge">
<title>[spotify / confidence&#45;sdk&#45;swift]&#45;&#45;[spotify / confidence&#45;sdk&#45;python]</title>
<path fill="none" stroke="#00688b" stroke-width="2" stroke-opacity="0.439216" d="M970.16,-172.04C977.54,-157.58 987.98,-137.14 995.35,-122.68"/>
<text text-anchor="middle" x="991.7" y="-143.1" font-family="Arial" font-size="12.00"> 2 </text>
</g>
</g>
</svg>
