<svg width="473pt" height="882pt"
 viewBox="0.00 0.00 472.75 882.00" xmlns="http://www.w3.org/2000/svg" xmlns:xlink="http://www.w3.org/1999/xlink">
<g id="graph0" class="graph" transform="scale(1 1) rotate(0) translate(4 878)">
<title>G</title>
<polygon fill="white" stroke="none" points="-4,4 -4,-878 468.75,-878 468.75,4 -4,4"/>
<!-- build and dependencies management tools / npm -->
<g id="node1" class="node">
<title>build and dependencies management tools / npm</title>
<polygon fill="#00b2ee" stroke="white" points="451.25,-36 132.25,-36 132.25,0 451.25,0 451.25,-36"/>
<text text-anchor="middle" x="291.75" y="-13.32" font-family="Tahoma" font-size="14.00">build and dependencies management tools / npm</text>
</g>
<!-- build and dependencies management tools / gradle -->
<g id="node2" class="node">
<title>build and dependencies management tools / gradle</title>
<polygon fill="#00b2ee" stroke="white" points="456.5,-90 127,-90 127,-54 456.5,-54 456.5,-90"/>
<text text-anchor="middle" x="291.75" y="-67.33" font-family="Tahoma" font-size="14.00">build and dependencies management tools / gradle</text>
</g>
<!-- build and dependencies management tools / renovate -->
<g id="node3" class="node">
<title>build and dependencies management tools / renovate</title>
<polygon fill="#00b2ee" stroke="white" points="464.75,-144 118.75,-144 118.75,-108 464.75,-108 464.75,-144"/>
<text text-anchor="middle" x="291.75" y="-121.33" font-family="Tahoma" font-size="14.00">build and dependencies management tools / renovate</text>
</g>
<!-- [DeloitteAU / react&#45;habitat&#45;redux] -->
<g id="node4" class="node">
<title>[DeloitteAU / react&#45;habitat&#45;redux]</title>
<polygon fill="grey" stroke="white" points="403.62,-792 179.88,-792 179.88,-756 403.62,-756 403.62,-792"/>
<text text-anchor="middle" x="291.75" y="-769.33" font-family="Tahoma" font-size="14.00">[DeloitteAU / react&#45;habitat&#45;redux]</text>
</g>
<!-- npm -->
<g id="node5" class="node">
<title>npm</title>
<polygon fill="grey" stroke="white" points="62,-495 8,-495 8,-459 62,-459 62,-495"/>
<text text-anchor="middle" x="35" y="-472.32" font-family="Tahoma" font-size="14.00">npm</text>
</g>
<!-- [DeloitteAU / react&#45;habitat&#45;redux]&#45;&#45;npm -->
<g id="edge1" class="edge">
<title>[DeloitteAU / react&#45;habitat&#45;redux]&#45;&#45;npm</title>
<path fill="none" stroke="#00688b" stroke-opacity="0.368627" d="M179.45,-770.93C158.02,-766.49 136.68,-759.06 118.75,-747 75.52,-717.93 47.04,-551.08 38.61,-495.22"/>
<text text-anchor="middle" x="94.38" y="-724.58" font-family="Arial" font-size="12.00"> 1 </text>
</g>
<!-- [DeloitteAU / ripple&#45;social&#45;channels] -->
<g id="node6" class="node">
<title>[DeloitteAU / ripple&#45;social&#45;channels]</title>
<polygon fill="grey" stroke="white" points="410,-738 173.5,-738 173.5,-702 410,-702 410,-738"/>
<text text-anchor="middle" x="291.75" y="-715.33" font-family="Tahoma" font-size="14.00">[DeloitteAU / ripple&#45;social&#45;channels]</text>
</g>
<!-- [DeloitteAU / ripple&#45;social&#45;channels]&#45;&#45;npm -->
<g id="edge2" class="edge">
<title>[DeloitteAU / ripple&#45;social&#45;channels]&#45;&#45;npm</title>
<path fill="none" stroke="#00688b" stroke-opacity="0.368627" d="M173.16,-715.54C153.87,-710.99 134.93,-703.88 118.75,-693 51.27,-647.62 38.77,-538.88 36.49,-495.41"/>
<text text-anchor="middle" x="94.38" y="-680.27" font-family="Arial" font-size="12.00"> 1 </text>
</g>
<!-- [DeloitteAU / eslint&#45;config&#45;deloitte] -->
<g id="node7" class="node">
<title>[DeloitteAU / eslint&#45;config&#45;deloitte]</title>
<polygon fill="grey" stroke="white" points="406.25,-522 177.25,-522 177.25,-486 406.25,-486 406.25,-522"/>
<text text-anchor="middle" x="291.75" y="-499.32" font-family="Tahoma" font-size="14.00">[DeloitteAU / eslint&#45;config&#45;deloitte]</text>
</g>
<!-- [DeloitteAU / eslint&#45;config&#45;deloitte]&#45;&#45;npm -->
<g id="edge3" class="edge">
<title>[DeloitteAU / eslint&#45;config&#45;deloitte]&#45;&#45;npm</title>
<path fill="none" stroke="#00688b" stroke-opacity="0.368627" d="M176.79,-491.92C134.26,-487.41 89.72,-482.69 62.41,-479.8"/>
<text text-anchor="middle" x="94.38" y="-486.37" font-family="Arial" font-size="12.00"> 1 </text>
</g>
<!-- [DeloitteAU / react&#45;habitat] -->
<g id="node8" class="node">
<title>[DeloitteAU / react&#45;habitat]</title>
<polygon fill="grey" stroke="white" points="383.75,-414 199.75,-414 199.75,-378 383.75,-378 383.75,-414"/>
<text text-anchor="middle" x="291.75" y="-391.32" font-family="Tahoma" font-size="14.00">[DeloitteAU / react&#45;habitat]</text>
</g>
<!-- [DeloitteAU / react&#45;habitat]&#45;&#45;npm -->
<g id="edge4" class="edge">
<title>[DeloitteAU / react&#45;habitat]&#45;&#45;npm</title>
<path fill="none" stroke="#00688b" stroke-opacity="0.368627" d="M199.61,-403.02C172.94,-407.01 144.14,-413.24 118.75,-423 96.65,-431.49 74.33,-446.52 58.45,-458.57"/>
<text text-anchor="middle" x="94.38" y="-440.24" font-family="Arial" font-size="12.00"> 1 </text>
</g>
<!-- [DeloitteAU / webpack&#45;config] -->
<g id="node9" class="node">
<title>[DeloitteAU / webpack&#45;config]</title>
<polygon fill="grey" stroke="white" points="392,-684 191.5,-684 191.5,-648 392,-648 392,-684"/>
<text text-anchor="middle" x="291.75" y="-661.33" font-family="Tahoma" font-size="14.00">[DeloitteAU / webpack&#45;config]</text>
</g>
<!-- [DeloitteAU / webpack&#45;config]&#45;&#45;npm -->
<g id="edge5" class="edge">
<title>[DeloitteAU / webpack&#45;config]&#45;&#45;npm</title>
<path fill="none" stroke="#00688b" stroke-opacity="0.368627" d="M191.14,-665.07C165.89,-661.04 139.95,-653.25 118.75,-639 68.17,-604.99 46.82,-530.18 39.38,-495.42"/>
<text text-anchor="middle" x="94.38" y="-626.35" font-family="Arial" font-size="12.00"> 1 </text>
</g>
<!-- renovate -->
<g id="node19" class="node">
<title>renovate</title>
<polygon fill="grey" stroke="white" points="70,-820 0,-820 0,-784 70,-784 70,-820"/>
<text text-anchor="middle" x="35" y="-797.33" font-family="Tahoma" font-size="14.00">renovate</text>
</g>
<!-- [DeloitteAU / webpack&#45;config]&#45;&#45;renovate -->
<g id="edge14" class="edge">
<title>[DeloitteAU / webpack&#45;config]&#45;&#45;renovate</title>
<path fill="none" stroke="#00688b" stroke-opacity="0.368627" d="M191.08,-661.85C164.65,-665.63 138.12,-674.55 118.75,-693 90.16,-720.24 126.89,-750.41 100.75,-780 92.97,-788.81 81.52,-794.09 70.41,-797.26"/>
<text text-anchor="middle" x="94.38" y="-792.07" font-family="Arial" font-size="12.00"> 1 </text>
</g>
<!-- [DeloitteAU / htl&#45;parser] -->
<g id="node10" class="node">
<title>[DeloitteAU / htl&#45;parser]</title>
<polygon fill="grey" stroke="white" points="374,-306 209.5,-306 209.5,-270 374,-270 374,-306"/>
<text text-anchor="middle" x="291.75" y="-283.32" font-family="Tahoma" font-size="14.00">[DeloitteAU / htl&#45;parser]</text>
</g>
<!-- [DeloitteAU / htl&#45;parser]&#45;&#45;npm -->
<g id="edge6" class="edge">
<title>[DeloitteAU / htl&#45;parser]&#45;&#45;npm</title>
<path fill="none" stroke="#00688b" stroke-opacity="0.368627" d="M209.33,-286.65C178.78,-289.6 145.11,-297.32 118.75,-315 68.13,-348.96 46.8,-423.79 39.37,-458.57"/>
<text text-anchor="middle" x="94.38" y="-344.22" font-family="Arial" font-size="12.00"> 1 </text>
</g>
<!-- [DeloitteAU / rhythm&#45;ui] -->
<g id="node11" class="node">
<title>[DeloitteAU / rhythm&#45;ui]</title>
<polygon fill="grey" stroke="white" points="374,-252 209.5,-252 209.5,-216 374,-216 374,-252"/>
<text text-anchor="middle" x="291.75" y="-229.32" font-family="Tahoma" font-size="14.00">[DeloitteAU / rhythm&#45;ui]</text>
</g>
<!-- [DeloitteAU / rhythm&#45;ui]&#45;&#45;npm -->
<g id="edge7" class="edge">
<title>[DeloitteAU / rhythm&#45;ui]&#45;&#45;npm</title>
<path fill="none" stroke="#00688b" stroke-opacity="0.368627" d="M209.33,-232.65C178.78,-235.6 145.11,-243.32 118.75,-261 51.22,-306.3 38.75,-415.09 36.48,-458.58"/>
<text text-anchor="middle" x="94.38" y="-288.4" font-family="Arial" font-size="12.00"> 1 </text>
</g>
<!-- [DeloitteAU / stylelint&#45;config&#45;deloitte] -->
<g id="node12" class="node">
<title>[DeloitteAU / stylelint&#45;config&#45;deloitte]</title>
<polygon fill="grey" stroke="white" points="413.38,-198 170.12,-198 170.12,-162 413.38,-162 413.38,-198"/>
<text text-anchor="middle" x="291.75" y="-175.32" font-family="Tahoma" font-size="14.00">[DeloitteAU / stylelint&#45;config&#45;deloitte]</text>
</g>
<!-- [DeloitteAU / stylelint&#45;config&#45;deloitte]&#45;&#45;npm -->
<g id="edge8" class="edge">
<title>[DeloitteAU / stylelint&#45;config&#45;deloitte]&#45;&#45;npm</title>
<path fill="none" stroke="#00688b" stroke-opacity="0.368627" d="M169.97,-185.14C151.78,-189.72 134.02,-196.66 118.75,-207 75.62,-236.21 47.07,-402.96 38.62,-458.79"/>
<text text-anchor="middle" x="94.38" y="-251.44" font-family="Arial" font-size="12.00"> 1 </text>
</g>
<!-- [DeloitteAU / DecimalFormat] -->
<g id="node13" class="node">
<title>[DeloitteAU / DecimalFormat]</title>
<polygon fill="grey" stroke="white" points="390.88,-630 192.62,-630 192.62,-594 390.88,-594 390.88,-630"/>
<text text-anchor="middle" x="291.75" y="-607.33" font-family="Tahoma" font-size="14.00">[DeloitteAU / DecimalFormat]</text>
</g>
<!-- [DeloitteAU / DecimalFormat]&#45;&#45;npm -->
<g id="edge9" class="edge">
<title>[DeloitteAU / DecimalFormat]&#45;&#45;npm</title>
<path fill="none" stroke="#00688b" stroke-opacity="0.368627" d="M192.16,-609.46C166.91,-605.43 140.7,-598.05 118.75,-585 82.81,-563.64 57.01,-520.19 44.51,-495.4"/>
<text text-anchor="middle" x="94.38" y="-572.49" font-family="Arial" font-size="12.00"> 1 </text>
</g>
<!-- [DeloitteAU / dd&#45;breakpoint&#45;container] -->
<g id="node14" class="node">
<title>[DeloitteAU / dd&#45;breakpoint&#45;container]</title>
<polygon fill="grey" stroke="white" points="417.88,-576 165.62,-576 165.62,-540 417.88,-540 417.88,-576"/>
<text text-anchor="middle" x="291.75" y="-553.33" font-family="Tahoma" font-size="14.00">[DeloitteAU / dd&#45;breakpoint&#45;container]</text>
</g>
<!-- [DeloitteAU / dd&#45;breakpoint&#45;container]&#45;&#45;npm -->
<g id="edge10" class="edge">
<title>[DeloitteAU / dd&#45;breakpoint&#45;container]&#45;&#45;npm</title>
<path fill="none" stroke="#00688b" stroke-opacity="0.368627" d="M165.56,-544.73C149.53,-541.19 133.56,-536.69 118.75,-531 96.65,-522.51 74.33,-507.48 58.45,-495.43"/>
<text text-anchor="middle" x="94.38" y="-524.81" font-family="Arial" font-size="12.00"> 1 </text>
</g>
<!-- [DeloitteAU / schematik&#45;forms] -->
<g id="node15" class="node">
<title>[DeloitteAU / schematik&#45;forms]</title>
<polygon fill="grey" stroke="white" points="395,-468 188.5,-468 188.5,-432 395,-432 395,-468"/>
<text text-anchor="middle" x="291.75" y="-445.32" font-family="Tahoma" font-size="14.00">[DeloitteAU / schematik&#45;forms]</text>
</g>
<!-- [DeloitteAU / schematik&#45;forms]&#45;&#45;npm -->
<g id="edge11" class="edge">
<title>[DeloitteAU / schematik&#45;forms]&#45;&#45;npm</title>
<path fill="none" stroke="#00688b" stroke-opacity="0.368627" d="M188.03,-454.3C155.88,-456.49 120.36,-459.79 88,-464.75 79.57,-466.04 70.48,-467.99 62.29,-469.95"/>
<text text-anchor="middle" x="94.38" y="-467.6" font-family="Arial" font-size="12.00"> 1 </text>
</g>
<!-- [DeloitteAU / DDBreakpoints] -->
<g id="node16" class="node">
<title>[DeloitteAU / DDBreakpoints]</title>
<polygon fill="grey" stroke="white" points="389.75,-360 193.75,-360 193.75,-324 389.75,-324 389.75,-360"/>
<text text-anchor="middle" x="291.75" y="-337.32" font-family="Tahoma" font-size="14.00">[DeloitteAU / DDBreakpoints]</text>
</g>
<!-- [DeloitteAU / DDBreakpoints]&#45;&#45;npm -->
<g id="edge12" class="edge">
<title>[DeloitteAU / DDBreakpoints]&#45;&#45;npm</title>
<path fill="none" stroke="#00688b" stroke-opacity="0.368627" d="M193.5,-344.33C167.84,-348.31 141.09,-355.72 118.75,-369 82.81,-390.36 57.01,-433.81 44.51,-458.6"/>
<text text-anchor="middle" x="94.38" y="-394.95" font-family="Arial" font-size="12.00"> 1 </text>
</g>
<!-- [DeloitteAU / ddmock&#45;android] -->
<g id="node17" class="node">
<title>[DeloitteAU / ddmock&#45;android]</title>
<polygon fill="grey" stroke="white" points="393.5,-874 190,-874 190,-838 393.5,-838 393.5,-874"/>
<text text-anchor="middle" x="291.75" y="-851.33" font-family="Tahoma" font-size="14.00">[DeloitteAU / ddmock&#45;android]</text>
</g>
<!-- gradle -->
<g id="node18" class="node">
<title>gradle</title>
<polygon fill="grey" stroke="white" points="62,-874 8,-874 8,-838 62,-838 62,-874"/>
<text text-anchor="middle" x="35" y="-851.33" font-family="Tahoma" font-size="14.00">gradle</text>
</g>
<!-- [DeloitteAU / ddmock&#45;android]&#45;&#45;gradle -->
<g id="edge13" class="edge">
<title>[DeloitteAU / ddmock&#45;android]&#45;&#45;gradle</title>
<path fill="none" stroke="#00688b" stroke-opacity="0.368627" d="M189.7,-856C143.44,-856 92.34,-856 62.26,-856"/>
<text text-anchor="middle" x="94.38" y="-858.85" font-family="Arial" font-size="12.00"> 1 </text>
</g>
</g>
</svg>
