<svg width="188pt" height="1880pt"
 viewBox="0.00 0.00 187.50 1880.00" xmlns="http://www.w3.org/2000/svg" xmlns:xlink="http://www.w3.org/1999/xlink">
<g id="graph0" class="graph" transform="scale(1 1) rotate(0) translate(4 1876)">
<title>G</title>
<polygon fill="white" stroke="none" points="-4,4 -4,-1876 183.5,-1876 183.5,4 -4,4"/>
<!-- all file extensions / xml -->
<g id="node1" class="node">
<title>all file extensions / xml</title>
<polygon fill="#00b2ee" stroke="white" points="167.88,-36 11.62,-36 11.62,0 167.88,0 167.88,-36"/>
<text text-anchor="middle" x="89.75" y="-13.32" font-family="Tahoma" font-size="14.00">all file extensions / xml</text>
</g>
<!-- main file extensions / cs -->
<g id="node2" class="node">
<title>main file extensions / cs</title>
<polygon fill="#00b2ee" stroke="white" points="171.62,-90 7.88,-90 7.88,-54 171.62,-54 171.62,-90"/>
<text text-anchor="middle" x="89.75" y="-67.33" font-family="Tahoma" font-size="14.00">main file extensions / cs</text>
</g>
<!-- main file extensions / ts -->
<g id="node3" class="node">
<title>main file extensions / ts</title>
<polygon fill="#00b2ee" stroke="white" points="170.5,-144 9,-144 9,-108 170.5,-108 170.5,-144"/>
<text text-anchor="middle" x="89.75" y="-121.33" font-family="Tahoma" font-size="14.00">main file extensions / ts</text>
</g>
<!-- all file extensions / py -->
<g id="node4" class="node">
<title>all file extensions / py</title>
<polygon fill="#00b2ee" stroke="white" points="164.12,-198 15.38,-198 15.38,-162 164.12,-162 164.12,-198"/>
<text text-anchor="middle" x="89.75" y="-175.32" font-family="Tahoma" font-size="14.00">all file extensions / py</text>
</g>
<!-- all file extensions / js -->
<g id="node5" class="node">
<title>all file extensions / js</title>
<polygon fill="#00b2ee" stroke="white" points="161.88,-252 17.62,-252 17.62,-216 161.88,-216 161.88,-252"/>
<text text-anchor="middle" x="89.75" y="-229.32" font-family="Tahoma" font-size="14.00">all file extensions / js</text>
</g>
<!-- all file extensions / ps1 -->
<g id="node6" class="node">
<title>all file extensions / ps1</title>
<polygon fill="#00b2ee" stroke="white" points="167.5,-306 12,-306 12,-270 167.5,-270 167.5,-306"/>
<text text-anchor="middle" x="89.75" y="-283.32" font-family="Tahoma" font-size="14.00">all file extensions / ps1</text>
</g>
<!-- all file extensions / sql -->
<g id="node7" class="node">
<title>all file extensions / sql</title>
<polygon fill="#00b2ee" stroke="white" points="165.25,-360 14.25,-360 14.25,-324 165.25,-324 165.25,-360"/>
<text text-anchor="middle" x="89.75" y="-337.32" font-family="Tahoma" font-size="14.00">all file extensions / sql</text>
</g>
<!-- all file extensions / jsx -->
<g id="node8" class="node">
<title>all file extensions / jsx</title>
<polygon fill="#00b2ee" stroke="white" points="165.25,-414 14.25,-414 14.25,-378 165.25,-378 165.25,-414"/>
<text text-anchor="middle" x="89.75" y="-391.32" font-family="Tahoma" font-size="14.00">all file extensions / jsx</text>
</g>
<!-- all file extensions / in -->
<g id="node9" class="node">
<title>all file extensions / in</title>
<polygon fill="#00b2ee" stroke="white" points="162.25,-468 17.25,-468 17.25,-432 162.25,-432 162.25,-468"/>
<text text-anchor="middle" x="89.75" y="-445.32" font-family="Tahoma" font-size="14.00">all file extensions / in</text>
</g>
<!-- all file extensions / css -->
<g id="node10" class="node">
<title>all file extensions / css</title>
<polygon fill="#00b2ee" stroke="white" points="166.38,-522 13.12,-522 13.12,-486 166.38,-486 166.38,-522"/>
<text text-anchor="middle" x="89.75" y="-499.32" font-family="Tahoma" font-size="14.00">all file extensions / css</text>
</g>
<!-- all file extensions / less -->
<g id="node11" class="node">
<title>all file extensions / less</title>
<polygon fill="#00b2ee" stroke="white" points="168.25,-576 11.25,-576 11.25,-540 168.25,-540 168.25,-576"/>
<text text-anchor="middle" x="89.75" y="-553.33" font-family="Tahoma" font-size="14.00">all file extensions / less</text>
</g>
<!-- all file extensions / vue -->
<g id="node12" class="node">
<title>all file extensions / vue</title>
<polygon fill="#00b2ee" stroke="white" points="167.88,-630 11.62,-630 11.62,-594 167.88,-594 167.88,-630"/>
<text text-anchor="middle" x="89.75" y="-607.33" font-family="Tahoma" font-size="14.00">all file extensions / vue</text>
</g>
<!-- all file extensions / m -->
<g id="node13" class="node">
<title>all file extensions / m</title>
<polygon fill="#00b2ee" stroke="white" points="163,-684 16.5,-684 16.5,-648 163,-648 163,-684"/>
<text text-anchor="middle" x="89.75" y="-661.33" font-family="Tahoma" font-size="14.00">all file extensions / m</text>
</g>
<!-- main file extensions / php -->
<g id="node14" class="node">
<title>main file extensions / php</title>
<polygon fill="#00b2ee" stroke="white" points="176.5,-738 3,-738 3,-702 176.5,-702 176.5,-738"/>
<text text-anchor="middle" x="89.75" y="-715.33" font-family="Tahoma" font-size="14.00">main file extensions / php</text>
</g>
<!-- all file extensions / hbs -->
<g id="node15" class="node">
<title>all file extensions / hbs</title>
<polygon fill="#00b2ee" stroke="white" points="167.5,-792 12,-792 12,-756 167.5,-756 167.5,-792"/>
<text text-anchor="middle" x="89.75" y="-769.33" font-family="Tahoma" font-size="14.00">all file extensions / hbs</text>
</g>
<!-- all file extensions / php -->
<g id="node16" class="node">
<title>all file extensions / php</title>
<polygon fill="#00b2ee" stroke="white" points="168.25,-846 11.25,-846 11.25,-810 168.25,-810 168.25,-846"/>
<text text-anchor="middle" x="89.75" y="-823.33" font-family="Tahoma" font-size="14.00">all file extensions / php</text>
</g>
<!-- all file extensions / swift -->
<g id="node17" class="node">
<title>all file extensions / swift</title>
<polygon fill="#00b2ee" stroke="white" points="171.25,-900 8.25,-900 8.25,-864 171.25,-864 171.25,-900"/>
<text text-anchor="middle" x="89.75" y="-877.33" font-family="Tahoma" font-size="14.00">all file extensions / swift</text>
</g>
<!-- all file extensions / h -->
<g id="node18" class="node">
<title>all file extensions / h</title>
<polygon fill="#00b2ee" stroke="white" points="160.75,-954 18.75,-954 18.75,-918 160.75,-918 160.75,-954"/>
<text text-anchor="middle" x="89.75" y="-931.33" font-family="Tahoma" font-size="14.00">all file extensions / h</text>
</g>
<!-- main file extensions / kt -->
<g id="node19" class="node">
<title>main file extensions / kt</title>
<polygon fill="#00b2ee" stroke="white" points="170.88,-1008 8.62,-1008 8.62,-972 170.88,-972 170.88,-1008"/>
<text text-anchor="middle" x="89.75" y="-985.33" font-family="Tahoma" font-size="14.00">main file extensions / kt</text>
</g>
<!-- all file extensions / java -->
<g id="node20" class="node">
<title>all file extensions / java</title>
<polygon fill="#00b2ee" stroke="white" points="169.75,-1062 9.75,-1062 9.75,-1026 169.75,-1026 169.75,-1062"/>
<text text-anchor="middle" x="89.75" y="-1039.33" font-family="Tahoma" font-size="14.00">all file extensions / java</text>
</g>
<!-- all file extensions / html -->
<g id="node21" class="node">
<title>all file extensions / html</title>
<polygon fill="#00b2ee" stroke="white" points="170.5,-1116 9,-1116 9,-1080 170.5,-1080 170.5,-1116"/>
<text text-anchor="middle" x="89.75" y="-1093.33" font-family="Tahoma" font-size="14.00">all file extensions / html</text>
</g>
<!-- all file extensions / scss -->
<g id="node22" class="node">
<title>all file extensions / scss</title>
<polygon fill="#00b2ee" stroke="white" points="169.38,-1170 10.12,-1170 10.12,-1134 169.38,-1134 169.38,-1170"/>
<text text-anchor="middle" x="89.75" y="-1147.33" font-family="Tahoma" font-size="14.00">all file extensions / scss</text>
</g>
<!-- all file extensions / cs -->
<g id="node23" class="node">
<title>all file extensions / cs</title>
<polygon fill="#00b2ee" stroke="white" points="163.38,-1224 16.12,-1224 16.12,-1188 163.38,-1188 163.38,-1224"/>
<text text-anchor="middle" x="89.75" y="-1201.33" font-family="Tahoma" font-size="14.00">all file extensions / cs</text>
</g>
<!-- all file extensions / kts -->
<g id="node24" class="node">
<title>all file extensions / kts</title>
<polygon fill="#00b2ee" stroke="white" points="165.62,-1278 13.88,-1278 13.88,-1242 165.62,-1242 165.62,-1278"/>
<text text-anchor="middle" x="89.75" y="-1255.33" font-family="Tahoma" font-size="14.00">all file extensions / kts</text>
</g>
<!-- all file extensions / kt -->
<g id="node25" class="node">
<title>all file extensions / kt</title>
<polygon fill="#00b2ee" stroke="white" points="162.62,-1332 16.88,-1332 16.88,-1296 162.62,-1296 162.62,-1332"/>
<text text-anchor="middle" x="89.75" y="-1309.33" font-family="Tahoma" font-size="14.00">all file extensions / kt</text>
</g>
<!-- all file extensions / ejs -->
<g id="node26" class="node">
<title>all file extensions / ejs</title>
<polygon fill="#00b2ee" stroke="white" points="165.62,-1386 13.88,-1386 13.88,-1350 165.62,-1350 165.62,-1386"/>
<text text-anchor="middle" x="89.75" y="-1363.33" font-family="Tahoma" font-size="14.00">all file extensions / ejs</text>
</g>
<!-- main file extensions / swift -->
<g id="node27" class="node">
<title>main file extensions / swift</title>
<polygon fill="#00b2ee" stroke="white" points="179.5,-1440 0,-1440 0,-1404 179.5,-1404 179.5,-1440"/>
<text text-anchor="middle" x="89.75" y="-1417.33" font-family="Tahoma" font-size="14.00">main file extensions / swift</text>
</g>
<!-- main file extensions / xml -->
<g id="node28" class="node">
<title>main file extensions / xml</title>
<polygon fill="#00b2ee" stroke="white" points="176.12,-1494 3.38,-1494 3.38,-1458 176.12,-1458 176.12,-1494"/>
<text text-anchor="middle" x="89.75" y="-1471.33" font-family="Tahoma" font-size="14.00">main file extensions / xml</text>
</g>
<!-- all file extensions / cshtml -->
<g id="node29" class="node">
<title>all file extensions / cshtml</title>
<polygon fill="#00b2ee" stroke="white" points="176.88,-1548 2.62,-1548 2.62,-1512 176.88,-1512 176.88,-1548"/>
<text text-anchor="middle" x="89.75" y="-1525.33" font-family="Tahoma" font-size="14.00">all file extensions / cshtml</text>
</g>
<!-- all file extensions / cfg -->
<g id="node30" class="node">
<title>all file extensions / cfg</title>
<polygon fill="#00b2ee" stroke="white" points="166.38,-1602 13.12,-1602 13.12,-1566 166.38,-1566 166.38,-1602"/>
<text text-anchor="middle" x="89.75" y="-1579.33" font-family="Tahoma" font-size="14.00">all file extensions / cfg</text>
</g>
<!-- all file extensions / ts -->
<g id="node31" class="node">
<title>all file extensions / ts</title>
<polygon fill="#00b2ee" stroke="white" points="162.25,-1656 17.25,-1656 17.25,-1620 162.25,-1620 162.25,-1656"/>
<text text-anchor="middle" x="89.75" y="-1633.33" font-family="Tahoma" font-size="14.00">all file extensions / ts</text>
</g>
<!-- all file extensions / tsx -->
<g id="node32" class="node">
<title>all file extensions / tsx</title>
<polygon fill="#00b2ee" stroke="white" points="165.62,-1710 13.88,-1710 13.88,-1674 165.62,-1674 165.62,-1710"/>
<text text-anchor="middle" x="89.75" y="-1687.33" font-family="Tahoma" font-size="14.00">all file extensions / tsx</text>
</g>
<!-- main file extensions / tsx -->
<g id="node33" class="node">
<title>main file extensions / tsx</title>
<polygon fill="#00b2ee" stroke="white" points="173.88,-1764 5.62,-1764 5.62,-1728 173.88,-1728 173.88,-1764"/>
<text text-anchor="middle" x="89.75" y="-1741.33" font-family="Tahoma" font-size="14.00">main file extensions / tsx</text>
</g>
<!-- main file extensions / js -->
<g id="node34" class="node">
<title>main file extensions / js</title>
<polygon fill="#00b2ee" stroke="white" points="170.12,-1818 9.38,-1818 9.38,-1782 170.12,-1782 170.12,-1818"/>
<text text-anchor="middle" x="89.75" y="-1795.33" font-family="Tahoma" font-size="14.00">main file extensions / js</text>
</g>
<!-- main file extensions / py -->
<g id="node35" class="node">
<title>main file extensions / py</title>
<polygon fill="#00b2ee" stroke="white" points="172.38,-1872 7.12,-1872 7.12,-1836 172.38,-1836 172.38,-1872"/>
<text text-anchor="middle" x="89.75" y="-1849.33" font-family="Tahoma" font-size="14.00">main file extensions / py</text>
</g>
</g>
</svg>
