<svg width="363pt" height="3135pt"
 viewBox="0.00 0.00 363.00 3135.00" xmlns="http://www.w3.org/2000/svg" xmlns:xlink="http://www.w3.org/1999/xlink">
<g id="graph0" class="graph" transform="scale(1 1) rotate(0) translate(4 3131)">
<title>G</title>
<polygon fill="white" stroke="none" points="-4,4 -4,-3131 359,-3131 359,4 -4,4"/>
<!-- all file extensions / xml -->
<g id="node1" class="node">
<title>all file extensions / xml</title>
<polygon fill="#00b2ee" stroke="white" points="307,-36 150.75,-36 150.75,0 307,0 307,-36"/>
<text text-anchor="middle" x="228.88" y="-13.32" font-family="Tahoma" font-size="14.00">all file extensions / xml</text>
</g>
<!-- main file extensions / cs -->
<g id="node2" class="node">
<title>main file extensions / cs</title>
<polygon fill="#00b2ee" stroke="white" points="310.75,-90 147,-90 147,-54 310.75,-54 310.75,-90"/>
<text text-anchor="middle" x="228.88" y="-67.33" font-family="Tahoma" font-size="14.00">main file extensions / cs</text>
</g>
<!-- main file extensions / ts -->
<g id="node3" class="node">
<title>main file extensions / ts</title>
<polygon fill="#00b2ee" stroke="white" points="309.62,-144 148.12,-144 148.12,-108 309.62,-108 309.62,-144"/>
<text text-anchor="middle" x="228.88" y="-121.33" font-family="Tahoma" font-size="14.00">main file extensions / ts</text>
</g>
<!-- all file extensions / py -->
<g id="node4" class="node">
<title>all file extensions / py</title>
<polygon fill="#00b2ee" stroke="white" points="303.25,-198 154.5,-198 154.5,-162 303.25,-162 303.25,-198"/>
<text text-anchor="middle" x="228.88" y="-175.32" font-family="Tahoma" font-size="14.00">all file extensions / py</text>
</g>
<!-- all file extensions / js -->
<g id="node5" class="node">
<title>all file extensions / js</title>
<polygon fill="#00b2ee" stroke="white" points="301,-252 156.75,-252 156.75,-216 301,-216 301,-252"/>
<text text-anchor="middle" x="228.88" y="-229.32" font-family="Tahoma" font-size="14.00">all file extensions / js</text>
</g>
<!-- all file extensions / ps1 -->
<g id="node6" class="node">
<title>all file extensions / ps1</title>
<polygon fill="#00b2ee" stroke="white" points="306.62,-306 151.12,-306 151.12,-270 306.62,-270 306.62,-306"/>
<text text-anchor="middle" x="228.88" y="-283.32" font-family="Tahoma" font-size="14.00">all file extensions / ps1</text>
</g>
<!-- all file extensions / sql -->
<g id="node7" class="node">
<title>all file extensions / sql</title>
<polygon fill="#00b2ee" stroke="white" points="304.38,-360 153.38,-360 153.38,-324 304.38,-324 304.38,-360"/>
<text text-anchor="middle" x="228.88" y="-337.32" font-family="Tahoma" font-size="14.00">all file extensions / sql</text>
</g>
<!-- all file extensions / jsx -->
<g id="node8" class="node">
<title>all file extensions / jsx</title>
<polygon fill="#00b2ee" stroke="white" points="304.38,-414 153.38,-414 153.38,-378 304.38,-378 304.38,-414"/>
<text text-anchor="middle" x="228.88" y="-391.32" font-family="Tahoma" font-size="14.00">all file extensions / jsx</text>
</g>
<!-- all file extensions / in -->
<g id="node9" class="node">
<title>all file extensions / in</title>
<polygon fill="#00b2ee" stroke="white" points="301.38,-468 156.38,-468 156.38,-432 301.38,-432 301.38,-468"/>
<text text-anchor="middle" x="228.88" y="-445.32" font-family="Tahoma" font-size="14.00">all file extensions / in</text>
</g>
<!-- all file extensions / css -->
<g id="node10" class="node">
<title>all file extensions / css</title>
<polygon fill="#00b2ee" stroke="white" points="305.5,-522 152.25,-522 152.25,-486 305.5,-486 305.5,-522"/>
<text text-anchor="middle" x="228.88" y="-499.32" font-family="Tahoma" font-size="14.00">all file extensions / css</text>
</g>
<!-- all file extensions / less -->
<g id="node11" class="node">
<title>all file extensions / less</title>
<polygon fill="#00b2ee" stroke="white" points="307.38,-576 150.38,-576 150.38,-540 307.38,-540 307.38,-576"/>
<text text-anchor="middle" x="228.88" y="-553.33" font-family="Tahoma" font-size="14.00">all file extensions / less</text>
</g>
<!-- all file extensions / vue -->
<g id="node12" class="node">
<title>all file extensions / vue</title>
<polygon fill="#00b2ee" stroke="white" points="307,-630 150.75,-630 150.75,-594 307,-594 307,-630"/>
<text text-anchor="middle" x="228.88" y="-607.33" font-family="Tahoma" font-size="14.00">all file extensions / vue</text>
</g>
<!-- all file extensions / m -->
<g id="node13" class="node">
<title>all file extensions / m</title>
<polygon fill="#00b2ee" stroke="white" points="302.12,-684 155.62,-684 155.62,-648 302.12,-648 302.12,-684"/>
<text text-anchor="middle" x="228.88" y="-661.33" font-family="Tahoma" font-size="14.00">all file extensions / m</text>
</g>
<!-- main file extensions / php -->
<g id="node14" class="node">
<title>main file extensions / php</title>
<polygon fill="#00b2ee" stroke="white" points="315.62,-738 142.12,-738 142.12,-702 315.62,-702 315.62,-738"/>
<text text-anchor="middle" x="228.88" y="-715.33" font-family="Tahoma" font-size="14.00">main file extensions / php</text>
</g>
<!-- all file extensions / hbs -->
<g id="node15" class="node">
<title>all file extensions / hbs</title>
<polygon fill="#00b2ee" stroke="white" points="306.62,-792 151.12,-792 151.12,-756 306.62,-756 306.62,-792"/>
<text text-anchor="middle" x="228.88" y="-769.33" font-family="Tahoma" font-size="14.00">all file extensions / hbs</text>
</g>
<!-- all file extensions / php -->
<g id="node16" class="node">
<title>all file extensions / php</title>
<polygon fill="#00b2ee" stroke="white" points="307.38,-846 150.38,-846 150.38,-810 307.38,-810 307.38,-846"/>
<text text-anchor="middle" x="228.88" y="-823.33" font-family="Tahoma" font-size="14.00">all file extensions / php</text>
</g>
<!-- all file extensions / swift -->
<g id="node17" class="node">
<title>all file extensions / swift</title>
<polygon fill="#00b2ee" stroke="white" points="310.38,-900 147.38,-900 147.38,-864 310.38,-864 310.38,-900"/>
<text text-anchor="middle" x="228.88" y="-877.33" font-family="Tahoma" font-size="14.00">all file extensions / swift</text>
</g>
<!-- all file extensions / h -->
<g id="node18" class="node">
<title>all file extensions / h</title>
<polygon fill="#00b2ee" stroke="white" points="299.88,-954 157.88,-954 157.88,-918 299.88,-918 299.88,-954"/>
<text text-anchor="middle" x="228.88" y="-931.33" font-family="Tahoma" font-size="14.00">all file extensions / h</text>
</g>
<!-- main file extensions / kt -->
<g id="node19" class="node">
<title>main file extensions / kt</title>
<polygon fill="#00b2ee" stroke="white" points="310,-1008 147.75,-1008 147.75,-972 310,-972 310,-1008"/>
<text text-anchor="middle" x="228.88" y="-985.33" font-family="Tahoma" font-size="14.00">main file extensions / kt</text>
</g>
<!-- all file extensions / java -->
<g id="node20" class="node">
<title>all file extensions / java</title>
<polygon fill="#00b2ee" stroke="white" points="308.88,-1062 148.88,-1062 148.88,-1026 308.88,-1026 308.88,-1062"/>
<text text-anchor="middle" x="228.88" y="-1039.33" font-family="Tahoma" font-size="14.00">all file extensions / java</text>
</g>
<!-- all file extensions / html -->
<g id="node21" class="node">
<title>all file extensions / html</title>
<polygon fill="#00b2ee" stroke="white" points="309.62,-1116 148.12,-1116 148.12,-1080 309.62,-1080 309.62,-1116"/>
<text text-anchor="middle" x="228.88" y="-1093.33" font-family="Tahoma" font-size="14.00">all file extensions / html</text>
</g>
<!-- all file extensions / scss -->
<g id="node22" class="node">
<title>all file extensions / scss</title>
<polygon fill="#00b2ee" stroke="white" points="308.5,-1170 149.25,-1170 149.25,-1134 308.5,-1134 308.5,-1170"/>
<text text-anchor="middle" x="228.88" y="-1147.33" font-family="Tahoma" font-size="14.00">all file extensions / scss</text>
</g>
<!-- all file extensions / cs -->
<g id="node23" class="node">
<title>all file extensions / cs</title>
<polygon fill="#00b2ee" stroke="white" points="302.5,-1224 155.25,-1224 155.25,-1188 302.5,-1188 302.5,-1224"/>
<text text-anchor="middle" x="228.88" y="-1201.33" font-family="Tahoma" font-size="14.00">all file extensions / cs</text>
</g>
<!-- all file extensions / kts -->
<g id="node24" class="node">
<title>all file extensions / kts</title>
<polygon fill="#00b2ee" stroke="white" points="304.75,-1278 153,-1278 153,-1242 304.75,-1242 304.75,-1278"/>
<text text-anchor="middle" x="228.88" y="-1255.33" font-family="Tahoma" font-size="14.00">all file extensions / kts</text>
</g>
<!-- all file extensions / kt -->
<g id="node25" class="node">
<title>all file extensions / kt</title>
<polygon fill="#00b2ee" stroke="white" points="301.75,-1332 156,-1332 156,-1296 301.75,-1296 301.75,-1332"/>
<text text-anchor="middle" x="228.88" y="-1309.33" font-family="Tahoma" font-size="14.00">all file extensions / kt</text>
</g>
<!-- all file extensions / ejs -->
<g id="node26" class="node">
<title>all file extensions / ejs</title>
<polygon fill="#00b2ee" stroke="white" points="304.75,-1386 153,-1386 153,-1350 304.75,-1350 304.75,-1386"/>
<text text-anchor="middle" x="228.88" y="-1363.33" font-family="Tahoma" font-size="14.00">all file extensions / ejs</text>
</g>
<!-- main file extensions / swift -->
<g id="node27" class="node">
<title>main file extensions / swift</title>
<polygon fill="#00b2ee" stroke="white" points="318.62,-1440 139.12,-1440 139.12,-1404 318.62,-1404 318.62,-1440"/>
<text text-anchor="middle" x="228.88" y="-1417.33" font-family="Tahoma" font-size="14.00">main file extensions / swift</text>
</g>
<!-- main file extensions / xml -->
<g id="node28" class="node">
<title>main file extensions / xml</title>
<polygon fill="#00b2ee" stroke="white" points="315.25,-1494 142.5,-1494 142.5,-1458 315.25,-1458 315.25,-1494"/>
<text text-anchor="middle" x="228.88" y="-1471.33" font-family="Tahoma" font-size="14.00">main file extensions / xml</text>
</g>
<!-- all file extensions / cshtml -->
<g id="node29" class="node">
<title>all file extensions / cshtml</title>
<polygon fill="#00b2ee" stroke="white" points="316,-1548 141.75,-1548 141.75,-1512 316,-1512 316,-1548"/>
<text text-anchor="middle" x="228.88" y="-1525.33" font-family="Tahoma" font-size="14.00">all file extensions / cshtml</text>
</g>
<!-- all file extensions / cfg -->
<g id="node30" class="node">
<title>all file extensions / cfg</title>
<polygon fill="#00b2ee" stroke="white" points="305.5,-1602 152.25,-1602 152.25,-1566 305.5,-1566 305.5,-1602"/>
<text text-anchor="middle" x="228.88" y="-1579.33" font-family="Tahoma" font-size="14.00">all file extensions / cfg</text>
</g>
<!-- all file extensions / ts -->
<g id="node31" class="node">
<title>all file extensions / ts</title>
<polygon fill="#00b2ee" stroke="white" points="301.38,-1656 156.38,-1656 156.38,-1620 301.38,-1620 301.38,-1656"/>
<text text-anchor="middle" x="228.88" y="-1633.33" font-family="Tahoma" font-size="14.00">all file extensions / ts</text>
</g>
<!-- all file extensions / tsx -->
<g id="node32" class="node">
<title>all file extensions / tsx</title>
<polygon fill="#00b2ee" stroke="white" points="304.75,-1710 153,-1710 153,-1674 304.75,-1674 304.75,-1710"/>
<text text-anchor="middle" x="228.88" y="-1687.33" font-family="Tahoma" font-size="14.00">all file extensions / tsx</text>
</g>
<!-- main file extensions / tsx -->
<g id="node33" class="node">
<title>main file extensions / tsx</title>
<polygon fill="#00b2ee" stroke="white" points="313,-1764 144.75,-1764 144.75,-1728 313,-1728 313,-1764"/>
<text text-anchor="middle" x="228.88" y="-1741.33" font-family="Tahoma" font-size="14.00">main file extensions / tsx</text>
</g>
<!-- main file extensions / js -->
<g id="node34" class="node">
<title>main file extensions / js</title>
<polygon fill="#00b2ee" stroke="white" points="309.25,-1818 148.5,-1818 148.5,-1782 309.25,-1782 309.25,-1818"/>
<text text-anchor="middle" x="228.88" y="-1795.33" font-family="Tahoma" font-size="14.00">main file extensions / js</text>
</g>
<!-- main file extensions / py -->
<g id="node35" class="node">
<title>main file extensions / py</title>
<polygon fill="#00b2ee" stroke="white" points="311.5,-1872 146.25,-1872 146.25,-1836 311.5,-1836 311.5,-1872"/>
<text text-anchor="middle" x="228.88" y="-1849.33" font-family="Tahoma" font-size="14.00">main file extensions / py</text>
</g>
<!-- [DeloitteAU / ddmock&#45;ios] -->
<g id="node36" class="node">
<title>[DeloitteAU / ddmock&#45;ios]</title>
<polygon fill="grey" stroke="white" points="316,-2088 141.75,-2088 141.75,-2052 316,-2052 316,-2088"/>
<text text-anchor="middle" x="228.88" y="-2065.32" font-family="Tahoma" font-size="14.00">[DeloitteAU / ddmock&#45;ios]</text>
</g>
<!-- swift -->
<g id="node37" class="node">
<title>swift</title>
<polygon fill="grey" stroke="white" points="54,-2007 0,-2007 0,-1971 54,-1971 54,-2007"/>
<text text-anchor="middle" x="27" y="-1984.33" font-family="Tahoma" font-size="14.00">swift</text>
</g>
<!-- [DeloitteAU / ddmock&#45;ios]&#45;&#45;swift -->
<g id="edge1" class="edge">
<title>[DeloitteAU / ddmock&#45;ios]&#45;&#45;swift</title>
<path fill="none" stroke="#00688b" stroke-opacity="0.368627" d="M141.57,-2056.3C128.27,-2052.79 114.93,-2048.43 102.75,-2043 82.71,-2034.08 62.72,-2019.24 48.45,-2007.37"/>
<text text-anchor="middle" x="78.38" y="-2035.18" font-family="Arial" font-size="12.00"> 1 </text>
</g>
<!-- [DeloitteAU / ddrouter] -->
<g id="node38" class="node">
<title>[DeloitteAU / ddrouter]</title>
<polygon fill="grey" stroke="white" points="307.75,-2034 150,-2034 150,-1998 307.75,-1998 307.75,-2034"/>
<text text-anchor="middle" x="228.88" y="-2011.33" font-family="Tahoma" font-size="14.00">[DeloitteAU / ddrouter]</text>
</g>
<!-- [DeloitteAU / ddrouter]&#45;&#45;swift -->
<g id="edge2" class="edge">
<title>[DeloitteAU / ddrouter]&#45;&#45;swift</title>
<path fill="none" stroke="#00688b" stroke-opacity="0.368627" d="M149.74,-2005.45C115.8,-2000.86 78.33,-1995.8 54.05,-1992.52"/>
<text text-anchor="middle" x="78.38" y="-1999.09" font-family="Arial" font-size="12.00"> 1 </text>
</g>
<!-- [DeloitteAU / Charts] -->
<g id="node39" class="node">
<title>[DeloitteAU / Charts]</title>
<polygon fill="grey" stroke="white" points="301,-1980 156.75,-1980 156.75,-1944 301,-1944 301,-1980"/>
<text text-anchor="middle" x="228.88" y="-1957.33" font-family="Tahoma" font-size="14.00">[DeloitteAU / Charts]</text>
</g>
<!-- [DeloitteAU / Charts]&#45;&#45;swift -->
<g id="edge3" class="edge">
<title>[DeloitteAU / Charts]&#45;&#45;swift</title>
<path fill="none" stroke="#00688b" stroke-opacity="0.368627" d="M156.56,-1966.95C129.91,-1969.39 99.45,-1972.88 72,-1977.75 66.26,-1978.77 60.15,-1980.14 54.38,-1981.57"/>
<text text-anchor="middle" x="78.38" y="-1980.6" font-family="Arial" font-size="12.00"> 1 </text>
</g>
<!-- [DeloitteAU / dd&#45;swiftlint&#45;rules] -->
<g id="node40" class="node">
<title>[DeloitteAU / dd&#45;swiftlint&#45;rules]</title>
<polygon fill="grey" stroke="white" points="332.12,-1926 125.62,-1926 125.62,-1890 332.12,-1890 332.12,-1926"/>
<text text-anchor="middle" x="228.88" y="-1903.33" font-family="Tahoma" font-size="14.00">[DeloitteAU / dd&#45;swiftlint&#45;rules]</text>
</g>
<!-- [DeloitteAU / dd&#45;swiftlint&#45;rules]&#45;&#45;swift -->
<g id="edge4" class="edge">
<title>[DeloitteAU / dd&#45;swiftlint&#45;rules]&#45;&#45;swift</title>
<path fill="none" stroke="#00688b" stroke-opacity="0.368627" d="M125.34,-1926.44C117.57,-1928.95 109.96,-1931.79 102.75,-1935 82.71,-1943.92 62.72,-1958.76 48.45,-1970.63"/>
<text text-anchor="middle" x="78.38" y="-1955.44" font-family="Arial" font-size="12.00"> 1 </text>
</g>
<!-- [DeloitteAU / react&#45;habitat&#45;redux] -->
<g id="node41" class="node">
<title>[DeloitteAU / react&#45;habitat&#45;redux]</title>
<polygon fill="grey" stroke="white" points="340.75,-2628 117,-2628 117,-2592 340.75,-2592 340.75,-2628"/>
<text text-anchor="middle" x="228.88" y="-2605.32" font-family="Tahoma" font-size="14.00">[DeloitteAU / react&#45;habitat&#45;redux]</text>
</g>
<!-- js -->
<g id="node42" class="node">
<title>js</title>
<polygon fill="grey" stroke="white" points="54,-2385 0,-2385 0,-2349 54,-2349 54,-2385"/>
<text text-anchor="middle" x="27" y="-2362.32" font-family="Tahoma" font-size="14.00">js</text>
</g>
<!-- [DeloitteAU / react&#45;habitat&#45;redux]&#45;&#45;js -->
<g id="edge5" class="edge">
<title>[DeloitteAU / react&#45;habitat&#45;redux]&#45;&#45;js</title>
<path fill="none" stroke="#00688b" stroke-opacity="0.368627" d="M116.71,-2591.64C111.81,-2589.1 107.13,-2586.24 102.75,-2583 38.3,-2535.34 29.02,-2428.41 27.97,-2385.42"/>
<text text-anchor="middle" x="78.38" y="-2565.12" font-family="Arial" font-size="12.00"> 1 </text>
</g>
<!-- [DeloitteAU / ripple&#45;social&#45;channels] -->
<g id="node43" class="node">
<title>[DeloitteAU / ripple&#45;social&#45;channels]</title>
<polygon fill="grey" stroke="white" points="347.12,-2574 110.62,-2574 110.62,-2538 347.12,-2538 347.12,-2574"/>
<text text-anchor="middle" x="228.88" y="-2551.32" font-family="Tahoma" font-size="14.00">[DeloitteAU / ripple&#45;social&#45;channels]</text>
</g>
<!-- [DeloitteAU / ripple&#45;social&#45;channels]&#45;&#45;js -->
<g id="edge6" class="edge">
<title>[DeloitteAU / ripple&#45;social&#45;channels]&#45;&#45;js</title>
<path fill="none" stroke="#00688b" stroke-opacity="0.368627" d="M116.8,-2537.51C111.88,-2535.01 107.17,-2532.18 102.75,-2529 54.26,-2494.04 36.4,-2419.72 30.54,-2385.25"/>
<text text-anchor="middle" x="78.38" y="-2512.48" font-family="Arial" font-size="12.00"> 1 </text>
</g>
<!-- [DeloitteAU / eslint&#45;config&#45;deloitte] -->
<g id="node44" class="node">
<title>[DeloitteAU / eslint&#45;config&#45;deloitte]</title>
<polygon fill="grey" stroke="white" points="343.38,-2520 114.38,-2520 114.38,-2484 343.38,-2484 343.38,-2520"/>
<text text-anchor="middle" x="228.88" y="-2497.32" font-family="Tahoma" font-size="14.00">[DeloitteAU / eslint&#45;config&#45;deloitte]</text>
</g>
<!-- [DeloitteAU / eslint&#45;config&#45;deloitte]&#45;&#45;js -->
<g id="edge7" class="edge">
<title>[DeloitteAU / eslint&#45;config&#45;deloitte]&#45;&#45;js</title>
<path fill="none" stroke="#00688b" stroke-opacity="0.368627" d="M117.99,-2483.55C112.67,-2481.05 107.55,-2478.21 102.75,-2475 69.19,-2452.58 46.3,-2409.53 35.37,-2385.1"/>
<text text-anchor="middle" x="78.38" y="-2462.02" font-family="Arial" font-size="12.00"> 1 </text>
</g>
<!-- [DeloitteAU / react&#45;habitat] -->
<g id="node45" class="node">
<title>[DeloitteAU / react&#45;habitat]</title>
<polygon fill="grey" stroke="white" points="320.88,-2466 136.88,-2466 136.88,-2430 320.88,-2430 320.88,-2466"/>
<text text-anchor="middle" x="228.88" y="-2443.32" font-family="Tahoma" font-size="14.00">[DeloitteAU / react&#45;habitat]</text>
</g>
<!-- [DeloitteAU / react&#45;habitat]&#45;&#45;js -->
<g id="edge8" class="edge">
<title>[DeloitteAU / react&#45;habitat]&#45;&#45;js</title>
<path fill="none" stroke="#00688b" stroke-opacity="0.368627" d="M136.58,-2432.94C124.96,-2429.68 113.41,-2425.75 102.75,-2421 82.71,-2412.08 62.72,-2397.24 48.45,-2385.37"/>
<text text-anchor="middle" x="78.38" y="-2413.18" font-family="Arial" font-size="12.00"> 1 </text>
</g>
<!-- [DeloitteAU / webpack&#45;config] -->
<g id="node46" class="node">
<title>[DeloitteAU / webpack&#45;config]</title>
<polygon fill="grey" stroke="white" points="329.12,-2412 128.62,-2412 128.62,-2376 329.12,-2376 329.12,-2412"/>
<text text-anchor="middle" x="228.88" y="-2389.32" font-family="Tahoma" font-size="14.00">[DeloitteAU / webpack&#45;config]</text>
</g>
<!-- [DeloitteAU / webpack&#45;config]&#45;&#45;js -->
<g id="edge9" class="edge">
<title>[DeloitteAU / webpack&#45;config]&#45;&#45;js</title>
<path fill="none" stroke="#00688b" stroke-opacity="0.368627" d="M128.23,-2380.54C100.85,-2376.84 73.44,-2373.14 54.22,-2370.54"/>
<text text-anchor="middle" x="78.38" y="-2377.09" font-family="Arial" font-size="12.00"> 1 </text>
</g>
<!-- [DeloitteAU / htl&#45;parser] -->
<g id="node47" class="node">
<title>[DeloitteAU / htl&#45;parser]</title>
<polygon fill="grey" stroke="white" points="311.12,-2358 146.62,-2358 146.62,-2322 311.12,-2322 311.12,-2358"/>
<text text-anchor="middle" x="228.88" y="-2335.32" font-family="Tahoma" font-size="14.00">[DeloitteAU / htl&#45;parser]</text>
</g>
<!-- [DeloitteAU / htl&#45;parser]&#45;&#45;js -->
<g id="edge10" class="edge">
<title>[DeloitteAU / htl&#45;parser]&#45;&#45;js</title>
<path fill="none" stroke="#00688b" stroke-opacity="0.368627" d="M146.25,-2345.93C122.23,-2348.3 95.97,-2351.5 72,-2355.75 66.26,-2356.77 60.15,-2358.14 54.38,-2359.57"/>
<text text-anchor="middle" x="78.38" y="-2358.6" font-family="Arial" font-size="12.00"> 1 </text>
</g>
<!-- [DeloitteAU / stylelint&#45;config&#45;deloitte] -->
<g id="node48" class="node">
<title>[DeloitteAU / stylelint&#45;config&#45;deloitte]</title>
<polygon fill="grey" stroke="white" points="350.5,-2304 107.25,-2304 107.25,-2268 350.5,-2268 350.5,-2304"/>
<text text-anchor="middle" x="228.88" y="-2281.32" font-family="Tahoma" font-size="14.00">[DeloitteAU / stylelint&#45;config&#45;deloitte]</text>
</g>
<!-- [DeloitteAU / stylelint&#45;config&#45;deloitte]&#45;&#45;js -->
<g id="edge11" class="edge">
<title>[DeloitteAU / stylelint&#45;config&#45;deloitte]&#45;&#45;js</title>
<path fill="none" stroke="#00688b" stroke-opacity="0.368627" d="M125.34,-2304.44C117.57,-2306.95 109.96,-2309.79 102.75,-2313 82.71,-2321.92 62.72,-2336.76 48.45,-2348.63"/>
<text text-anchor="middle" x="78.38" y="-2333.44" font-family="Arial" font-size="12.00"> 1 </text>
</g>
<!-- [DeloitteAU / DecimalFormat] -->
<g id="node49" class="node">
<title>[DeloitteAU / DecimalFormat]</title>
<polygon fill="grey" stroke="white" points="328,-2250 129.75,-2250 129.75,-2214 328,-2214 328,-2250"/>
<text text-anchor="middle" x="228.88" y="-2227.32" font-family="Tahoma" font-size="14.00">[DeloitteAU / DecimalFormat]</text>
</g>
<!-- [DeloitteAU / DecimalFormat]&#45;&#45;js -->
<g id="edge12" class="edge">
<title>[DeloitteAU / DecimalFormat]&#45;&#45;js</title>
<path fill="none" stroke="#00688b" stroke-opacity="0.368627" d="M129.3,-2245.71C119.91,-2249.21 110.88,-2253.57 102.75,-2259 69.19,-2281.42 46.3,-2324.47 35.37,-2348.9"/>
<text text-anchor="middle" x="78.38" y="-2288.25" font-family="Arial" font-size="12.00"> 1 </text>
</g>
<!-- [DeloitteAU / schematik&#45;forms] -->
<g id="node50" class="node">
<title>[DeloitteAU / schematik&#45;forms]</title>
<polygon fill="grey" stroke="white" points="332.12,-2196 125.62,-2196 125.62,-2160 332.12,-2160 332.12,-2196"/>
<text text-anchor="middle" x="228.88" y="-2173.32" font-family="Tahoma" font-size="14.00">[DeloitteAU / schematik&#45;forms]</text>
</g>
<!-- [DeloitteAU / schematik&#45;forms]&#45;&#45;js -->
<g id="edge13" class="edge">
<title>[DeloitteAU / schematik&#45;forms]&#45;&#45;js</title>
<path fill="none" stroke="#00688b" stroke-opacity="0.368627" d="M125.43,-2192.53C117.38,-2195.9 109.7,-2200 102.75,-2205 54.22,-2239.91 36.38,-2314.26 30.54,-2348.74"/>
<text text-anchor="middle" x="78.38" y="-2238.52" font-family="Arial" font-size="12.00"> 1 </text>
</g>
<!-- [DeloitteAU / DDBreakpoints] -->
<g id="node51" class="node">
<title>[DeloitteAU / DDBreakpoints]</title>
<polygon fill="grey" stroke="white" points="326.88,-2142 130.88,-2142 130.88,-2106 326.88,-2106 326.88,-2142"/>
<text text-anchor="middle" x="228.88" y="-2119.32" font-family="Tahoma" font-size="14.00">[DeloitteAU / DDBreakpoints]</text>
</g>
<!-- [DeloitteAU / DDBreakpoints]&#45;&#45;js -->
<g id="edge14" class="edge">
<title>[DeloitteAU / DDBreakpoints]&#45;&#45;js</title>
<path fill="none" stroke="#00688b" stroke-opacity="0.368627" d="M130.66,-2136.2C120.69,-2139.96 111.15,-2144.8 102.75,-2151 38.25,-2198.6 29,-2305.57 27.97,-2348.58"/>
<text text-anchor="middle" x="78.38" y="-2184.1" font-family="Arial" font-size="12.00"> 1 </text>
</g>
<!-- [DeloitteAU / Dimmy.Sitecore.Plugin] -->
<g id="node52" class="node">
<title>[DeloitteAU / Dimmy.Sitecore.Plugin]</title>
<polygon fill="grey" stroke="white" points="350.12,-2736 107.62,-2736 107.62,-2700 350.12,-2700 350.12,-2736"/>
<text text-anchor="middle" x="228.88" y="-2713.32" font-family="Tahoma" font-size="14.00">[DeloitteAU / Dimmy.Sitecore.Plugin]</text>
</g>
<!-- cs -->
<g id="node53" class="node">
<title>cs</title>
<polygon fill="grey" stroke="white" points="54,-2709 0,-2709 0,-2673 54,-2673 54,-2709"/>
<text text-anchor="middle" x="27" y="-2686.32" font-family="Tahoma" font-size="14.00">cs</text>
</g>
<!-- [DeloitteAU / Dimmy.Sitecore.Plugin]&#45;&#45;cs -->
<g id="edge15" class="edge">
<title>[DeloitteAU / Dimmy.Sitecore.Plugin]&#45;&#45;cs</title>
<path fill="none" stroke="#00688b" stroke-opacity="0.368627" d="M107.28,-2701.71C87.33,-2699.01 68.53,-2696.47 54.24,-2694.55"/>
<text text-anchor="middle" x="78.38" y="-2701.09" font-family="Arial" font-size="12.00"> 1 </text>
</g>
<!-- [DeloitteAU / Atlas] -->
<g id="node54" class="node">
<title>[DeloitteAU / Atlas]</title>
<polygon fill="grey" stroke="white" points="296.12,-2682 161.62,-2682 161.62,-2646 296.12,-2646 296.12,-2682"/>
<text text-anchor="middle" x="228.88" y="-2659.32" font-family="Tahoma" font-size="14.00">[DeloitteAU / Atlas]</text>
</g>
<!-- [DeloitteAU / Atlas]&#45;&#45;cs -->
<g id="edge16" class="edge">
<title>[DeloitteAU / Atlas]&#45;&#45;cs</title>
<path fill="none" stroke="#00688b" stroke-opacity="0.368627" d="M161.2,-2668.53C133.48,-2670.98 101.06,-2674.6 72,-2679.75 66.26,-2680.77 60.15,-2682.14 54.38,-2683.57"/>
<text text-anchor="middle" x="78.38" y="-2682.6" font-family="Arial" font-size="12.00"> 1 </text>
</g>
<!-- [DeloitteAU / rhythm&#45;ui] -->
<g id="node55" class="node">
<title>[DeloitteAU / rhythm&#45;ui]</title>
<polygon fill="grey" stroke="white" points="311.12,-2790 146.62,-2790 146.62,-2754 311.12,-2754 311.12,-2790"/>
<text text-anchor="middle" x="228.88" y="-2767.32" font-family="Tahoma" font-size="14.00">[DeloitteAU / rhythm&#45;ui]</text>
</g>
<!-- ts -->
<g id="node56" class="node">
<title>ts</title>
<polygon fill="grey" stroke="white" points="54,-2790 0,-2790 0,-2754 54,-2754 54,-2790"/>
<text text-anchor="middle" x="27" y="-2767.32" font-family="Tahoma" font-size="14.00">ts</text>
</g>
<!-- [DeloitteAU / rhythm&#45;ui]&#45;&#45;ts -->
<g id="edge17" class="edge">
<title>[DeloitteAU / rhythm&#45;ui]&#45;&#45;ts</title>
<path fill="none" stroke="#00688b" stroke-opacity="0.368627" d="M146.29,-2772C113.47,-2772 77.93,-2772 54.46,-2772"/>
<text text-anchor="middle" x="78.38" y="-2774.85" font-family="Arial" font-size="12.00"> 1 </text>
</g>
<!-- [DeloitteAU / dd&#45;breakpoint&#45;container] -->
<g id="node57" class="node">
<title>[DeloitteAU / dd&#45;breakpoint&#45;container]</title>
<polygon fill="grey" stroke="white" points="355,-2844 102.75,-2844 102.75,-2808 355,-2808 355,-2844"/>
<text text-anchor="middle" x="228.88" y="-2821.32" font-family="Tahoma" font-size="14.00">[DeloitteAU / dd&#45;breakpoint&#45;container]</text>
</g>
<!-- tsx -->
<g id="node58" class="node">
<title>tsx</title>
<polygon fill="grey" stroke="white" points="54,-2844 0,-2844 0,-2808 54,-2808 54,-2844"/>
<text text-anchor="middle" x="27" y="-2821.32" font-family="Tahoma" font-size="14.00">tsx</text>
</g>
<!-- [DeloitteAU / dd&#45;breakpoint&#45;container]&#45;&#45;tsx -->
<g id="edge18" class="edge">
<title>[DeloitteAU / dd&#45;breakpoint&#45;container]&#45;&#45;tsx</title>
<path fill="none" stroke="#00688b" stroke-opacity="0.368627" d="M102.43,-2826C84.39,-2826 67.54,-2826 54.45,-2826"/>
<text text-anchor="middle" x="78.38" y="-2828.85" font-family="Arial" font-size="12.00"> 1 </text>
</g>
<!-- [DeloitteAU / dd&#45;detekt&#45;rules] -->
<g id="node59" class="node">
<title>[DeloitteAU / dd&#45;detekt&#45;rules]</title>
<polygon fill="grey" stroke="white" points="328,-2898 129.75,-2898 129.75,-2862 328,-2862 328,-2898"/>
<text text-anchor="middle" x="228.88" y="-2875.32" font-family="Tahoma" font-size="14.00">[DeloitteAU / dd&#45;detekt&#45;rules]</text>
</g>
<!-- kt -->
<g id="node60" class="node">
<title>kt</title>
<polygon fill="grey" stroke="white" points="54,-2898 0,-2898 0,-2862 54,-2862 54,-2898"/>
<text text-anchor="middle" x="27" y="-2875.32" font-family="Tahoma" font-size="14.00">kt</text>
</g>
<!-- [DeloitteAU / dd&#45;detekt&#45;rules]&#45;&#45;kt -->
<g id="edge19" class="edge">
<title>[DeloitteAU / dd&#45;detekt&#45;rules]&#45;&#45;kt</title>
<path fill="none" stroke="#00688b" stroke-opacity="0.368627" d="M129.4,-2880C101.61,-2880 73.67,-2880 54.18,-2880"/>
<text text-anchor="middle" x="78.38" y="-2882.85" font-family="Arial" font-size="12.00"> 1 </text>
</g>
<!-- [DeloitteAU / ddmock&#45;android] -->
<g id="node61" class="node">
<title>[DeloitteAU / ddmock&#45;android]</title>
<polygon fill="grey" stroke="white" points="330.62,-2952 127.13,-2952 127.13,-2916 330.62,-2916 330.62,-2952"/>
<text text-anchor="middle" x="228.88" y="-2929.32" font-family="Tahoma" font-size="14.00">[DeloitteAU / ddmock&#45;android]</text>
</g>
<!-- xml -->
<g id="node62" class="node">
<title>xml</title>
<polygon fill="grey" stroke="white" points="54,-2952 0,-2952 0,-2916 54,-2916 54,-2952"/>
<text text-anchor="middle" x="27" y="-2929.32" font-family="Tahoma" font-size="14.00">xml</text>
</g>
<!-- [DeloitteAU / ddmock&#45;android]&#45;&#45;xml -->
<g id="edge20" class="edge">
<title>[DeloitteAU / ddmock&#45;android]&#45;&#45;xml</title>
<path fill="none" stroke="#00688b" stroke-opacity="0.368627" d="M126.77,-2934C99.85,-2934 73.04,-2934 54.17,-2934"/>
<text text-anchor="middle" x="78.38" y="-2936.85" font-family="Arial" font-size="12.00"> 1 </text>
</g>
<!-- [DeloitteAU / thephuong&#45;flask] -->
<g id="node63" class="node">
<title>[DeloitteAU / thephuong&#45;flask]</title>
<polygon fill="grey" stroke="white" points="330.25,-3060 127.5,-3060 127.5,-3024 330.25,-3024 330.25,-3060"/>
<text text-anchor="middle" x="228.88" y="-3037.32" font-family="Tahoma" font-size="14.00">[DeloitteAU / thephuong&#45;flask]</text>
</g>
<!-- py -->
<g id="node64" class="node">
<title>py</title>
<polygon fill="grey" stroke="white" points="54,-3046 0,-3046 0,-3010 54,-3010 54,-3046"/>
<text text-anchor="middle" x="27" y="-3023.32" font-family="Tahoma" font-size="14.00">py</text>
</g>
<!-- [DeloitteAU / thephuong&#45;flask]&#45;&#45;py -->
<g id="edge21" class="edge">
<title>[DeloitteAU / thephuong&#45;flask]&#45;&#45;py</title>
<path fill="none" stroke="#00688b" stroke-opacity="0.368627" d="M127.06,-3034.94C100.09,-3033.05 73.2,-3031.17 54.26,-3029.84"/>
<text text-anchor="middle" x="78.38" y="-3034.6" font-family="Arial" font-size="12.00"> 1 </text>
</g>
<!-- [DeloitteAU / SSReader] -->
<g id="node65" class="node">
<title>[DeloitteAU / SSReader]</title>
<polygon fill="grey" stroke="white" points="310.75,-3006 147,-3006 147,-2970 310.75,-2970 310.75,-3006"/>
<text text-anchor="middle" x="228.88" y="-2983.32" font-family="Tahoma" font-size="14.00">[DeloitteAU / SSReader]</text>
</g>
<!-- [DeloitteAU / SSReader]&#45;&#45;py -->
<g id="edge22" class="edge">
<title>[DeloitteAU / SSReader]&#45;&#45;py</title>
<path fill="none" stroke="#00688b" stroke-opacity="0.368627" d="M146.83,-2998.1C122.58,-3001.86 96.05,-3006.72 72,-3012.75 66.2,-3014.2 60.07,-3016.09 54.3,-3018.04"/>
<text text-anchor="middle" x="78.38" y="-3015.6" font-family="Arial" font-size="12.00"> 1 </text>
</g>
<!-- [DeloitteAU / qd&#45;satis] -->
<g id="node66" class="node">
<title>[DeloitteAU / qd&#45;satis]</title>
<polygon fill="grey" stroke="white" points="305.12,-3127 152.62,-3127 152.62,-3091 305.12,-3091 305.12,-3127"/>
<text text-anchor="middle" x="228.88" y="-3104.32" font-family="Tahoma" font-size="14.00">[DeloitteAU / qd&#45;satis]</text>
</g>
<!-- php -->
<g id="node67" class="node">
<title>php</title>
<polygon fill="grey" stroke="white" points="54,-3127 0,-3127 0,-3091 54,-3091 54,-3127"/>
<text text-anchor="middle" x="27" y="-3104.32" font-family="Tahoma" font-size="14.00">php</text>
</g>
<!-- [DeloitteAU / qd&#45;satis]&#45;&#45;php -->
<g id="edge23" class="edge">
<title>[DeloitteAU / qd&#45;satis]&#45;&#45;php</title>
<path fill="none" stroke="#00688b" stroke-opacity="0.368627" d="M152.31,-3109C117.82,-3109 79.2,-3109 54.3,-3109"/>
<text text-anchor="middle" x="78.38" y="-3111.85" font-family="Arial" font-size="12.00"> 1 </text>
</g>
</g>
</svg>
