<svg width="719pt" height="303pt"
 viewBox="0.00 0.00 718.88 302.75" xmlns="http://www.w3.org/2000/svg" xmlns:xlink="http://www.w3.org/1999/xlink">
<g id="graph0" class="graph" transform="scale(1 1) rotate(0) translate(4 298.75)">
<title>G</title>
<polygon fill="white" stroke="none" points="-4,4 -4,-298.75 714.88,-298.75 714.88,4 -4,4"/>
<!-- pierremarcairoldi@gmail.com -->
<g id="node1" class="node">
<title>pierremarcairoldi@gmail.com</title>
<polygon fill="#00b2ee" stroke="white" points="441.88,-294.75 245.12,-294.75 245.12,-258.75 441.88,-258.75 441.88,-294.75"/>
<text text-anchor="middle" x="343.5" y="-272.07" font-family="Tahoma" font-size="14.00">pierremarcairoldi@gmail.com</text>
</g>
<!-- 101617755+jinxitian@users.noreply.github.com -->
<g id="node2" class="node">
<title>101617755+jinxitian@users.noreply.github.com</title>
<polygon fill="#00b2ee" stroke="white" points="307,-208.5 0,-208.5 0,-172.5 307,-172.5 307,-208.5"/>
<text text-anchor="middle" x="153.5" y="-185.82" font-family="Tahoma" font-size="14.00">101617755+jinxitian@users.noreply.github.com</text>
</g>
<!-- pierremarcairoldi@gmail.com&#45;&#45;101617755+jinxitian@users.noreply.github.com -->
<g id="edge1" class="edge">
<title>pierremarcairoldi@gmail.com&#45;&#45;101617755+jinxitian@users.noreply.github.com</title>
<path fill="none" stroke="#00688b" stroke-opacity="0.368627" d="M304.13,-258.29C271.52,-243.83 225.41,-223.39 192.82,-208.93"/>
<text text-anchor="middle" x="266.25" y="-229.35" font-family="Arial" font-size="12.00"> 1 </text>
</g>
<!-- erkanyildiz@me.com -->
<g id="node3" class="node">
<title>erkanyildiz@me.com</title>
<polygon fill="#00b2ee" stroke="white" points="349.88,-122.25 207.12,-122.25 207.12,-86.25 349.88,-86.25 349.88,-122.25"/>
<text text-anchor="middle" x="278.5" y="-99.58" font-family="Tahoma" font-size="14.00">erkanyildiz@me.com</text>
</g>
<!-- pierremarcairoldi@gmail.com&#45;&#45;erkanyildiz@me.com -->
<g id="edge2" class="edge">
<title>pierremarcairoldi@gmail.com&#45;&#45;erkanyildiz@me.com</title>
<path fill="none" stroke="#00688b" stroke-opacity="0.368627" d="M340.15,-258.53C335.79,-237.7 327.33,-201.78 315.5,-172.5 308.36,-154.83 297.65,-135.92 289.59,-122.66"/>
<text text-anchor="middle" x="333.99" y="-186.22" font-family="Arial" font-size="12.00"> 1 </text>
</g>
<!-- magnificentbluez@hotmail.com -->
<g id="node4" class="node">
<title>magnificentbluez@hotmail.com</title>
<polygon fill="#00b2ee" stroke="white" points="382.12,-36 174.88,-36 174.88,0 382.12,0 382.12,-36"/>
<text text-anchor="middle" x="278.5" y="-13.32" font-family="Tahoma" font-size="14.00">magnificentbluez@hotmail.com</text>
</g>
<!-- pierremarcairoldi@gmail.com&#45;&#45;magnificentbluez@hotmail.com -->
<g id="edge3" class="edge">
<title>pierremarcairoldi@gmail.com&#45;&#45;magnificentbluez@hotmail.com</title>
<path fill="none" stroke="#00688b" stroke-opacity="0.368627" d="M350.37,-258.27C362.86,-223.59 385.6,-144.44 358.5,-86.25 348.54,-64.87 328.07,-47.86 310.32,-36.3"/>
<text text-anchor="middle" x="377.6" y="-143.1" font-family="Arial" font-size="12.00"> 1 </text>
</g>
<!-- 101617755+jinxitian@users.noreply.github.com&#45;&#45;erkanyildiz@me.com -->
<g id="edge4" class="edge">
<title>101617755+jinxitian@users.noreply.github.com&#45;&#45;erkanyildiz@me.com</title>
<path fill="none" stroke="#00688b" stroke-opacity="0.368627" d="M179.4,-172.04C200.85,-157.58 231.19,-137.14 252.63,-122.68"/>
<text text-anchor="middle" x="229.86" y="-143.1" font-family="Arial" font-size="12.00"> 1 </text>
</g>
<!-- 101617755+jinxitian@users.noreply.github.com&#45;&#45;magnificentbluez@hotmail.com -->
<g id="edge5" class="edge">
<title>101617755+jinxitian@users.noreply.github.com&#45;&#45;magnificentbluez@hotmail.com</title>
<path fill="none" stroke="#00688b" stroke-opacity="0.368627" d="M155.49,-172.3C158.73,-150.51 166.79,-112.63 185.75,-86.25 200.95,-65.09 224.89,-47.98 244.63,-36.31"/>
<text text-anchor="middle" x="192.12" y="-99.97" font-family="Arial" font-size="12.00"> 1 </text>
</g>
<!-- erkanyildiz@me.com&#45;&#45;magnificentbluez@hotmail.com -->
<g id="edge6" class="edge">
<title>erkanyildiz@me.com&#45;&#45;magnificentbluez@hotmail.com</title>
<path fill="none" stroke="#00688b" stroke-opacity="0.368627" d="M278.5,-85.79C278.5,-71.33 278.5,-50.89 278.5,-36.43"/>
<text text-anchor="middle" x="284.88" y="-56.85" font-family="Arial" font-size="12.00"> 1 </text>
</g>
<!-- tplester@deloitte.com.au -->
<g id="node5" class="node">
<title>tplester@deloitte.com.au</title>
<polygon fill="#00b2ee" stroke="white" points="646.38,-294.75 476.62,-294.75 476.62,-258.75 646.38,-258.75 646.38,-294.75"/>
<text text-anchor="middle" x="561.5" y="-272.07" font-family="Tahoma" font-size="14.00">tplester@deloitte.com.au</text>
</g>
<!-- 36178559+tplester@users.noreply.github.com -->
<g id="node6" class="node">
<title>36178559+tplester@users.noreply.github.com</title>
<polygon fill="#00b2ee" stroke="white" points="710.88,-208.5 412.12,-208.5 412.12,-172.5 710.88,-172.5 710.88,-208.5"/>
<text text-anchor="middle" x="561.5" y="-185.82" font-family="Tahoma" font-size="14.00">36178559+tplester@users.noreply.github.com</text>
</g>
<!-- tplester@deloitte.com.au&#45;&#45;36178559+tplester@users.noreply.github.com -->
<g id="edge7" class="edge">
<title>tplester@deloitte.com.au&#45;&#45;36178559+tplester@users.noreply.github.com</title>
<path fill="none" stroke="#00688b" stroke-opacity="0.368627" d="M561.5,-258.29C561.5,-243.83 561.5,-223.39 561.5,-208.93"/>
<text text-anchor="middle" x="567.88" y="-229.35" font-family="Arial" font-size="12.00"> 1 </text>
</g>
</g>
</svg>
