<svg width="561pt" height="98pt"
 viewBox="0.00 0.00 560.50 98.00" xmlns="http://www.w3.org/2000/svg" xmlns:xlink="http://www.w3.org/1999/xlink">
<g id="graph0" class="graph" transform="scale(1 1) rotate(0) translate(4 94)">
<title>G</title>
<polygon fill="white" stroke="none" points="-4,4 -4,-94 556.5,-94 556.5,4 -4,4"/>
<!-- 101617755+jinxitian@users.noreply.github.com -->
<g id="node1" class="node">
<title>101617755+jinxitian@users.noreply.github.com</title>
<polygon fill="#00b2ee" stroke="white" points="333.25,-36 26.25,-36 26.25,0 333.25,0 333.25,-36"/>
<text text-anchor="middle" x="179.75" y="-13.32" font-family="Tahoma" font-size="14.00">101617755+jinxitian@users.noreply.github.com</text>
</g>
<!-- [DeloitteAU / Charts] -->
<g id="node2" class="node">
<title>[DeloitteAU / Charts]</title>
<polygon fill="#00b2ee" stroke="white" points="552.5,-36 408.25,-36 408.25,0 552.5,0 552.5,-36"/>
<text text-anchor="middle" x="480.38" y="-13.32" font-family="Tahoma" font-size="14.00">[DeloitteAU / Charts]</text>
</g>
<!-- 101617755+jinxitian@users.noreply.github.com&#45;&#45;[DeloitteAU / Charts] -->
<g id="edge1" class="edge">
<title>101617755+jinxitian@users.noreply.github.com&#45;&#45;[DeloitteAU / Charts]</title>
<path fill="none" stroke="#00688b" stroke-opacity="0.368627" d="M333.56,-18C359.54,-18 385.37,-18 407.91,-18"/>
<text text-anchor="middle" x="383.88" y="-20.85" font-family="Arial" font-size="12.00"> 1 </text>
</g>
<!-- 40154418+hollywoodinvegas@users.noreply.github.com -->
<g id="node3" class="node">
<title>40154418+hollywoodinvegas@users.noreply.github.com</title>
<polygon fill="#00b2ee" stroke="white" points="359.5,-90 0,-90 0,-54 359.5,-54 359.5,-90"/>
<text text-anchor="middle" x="179.75" y="-67.33" font-family="Tahoma" font-size="14.00">40154418+hollywoodinvegas@users.noreply.github.com</text>
</g>
<!-- [DeloitteAU / Atlas] -->
<g id="node4" class="node">
<title>[DeloitteAU / Atlas]</title>
<polygon fill="#00b2ee" stroke="white" points="547.62,-90 413.12,-90 413.12,-54 547.62,-54 547.62,-90"/>
<text text-anchor="middle" x="480.38" y="-67.33" font-family="Tahoma" font-size="14.00">[DeloitteAU / Atlas]</text>
</g>
<!-- 40154418+hollywoodinvegas@users.noreply.github.com&#45;&#45;[DeloitteAU / Atlas] -->
<g id="edge2" class="edge">
<title>40154418+hollywoodinvegas@users.noreply.github.com&#45;&#45;[DeloitteAU / Atlas]</title>
<path fill="none" stroke="#00688b" stroke-opacity="0.368627" d="M359.63,-72C378.39,-72 396.5,-72 412.71,-72"/>
<text text-anchor="middle" x="383.88" y="-74.85" font-family="Arial" font-size="12.00"> 1 </text>
</g>
</g>
</svg>
