<svg width="1577pt" height="191pt"
 viewBox="0.00 0.00 1576.50 190.53" xmlns="http://www.w3.org/2000/svg" xmlns:xlink="http://www.w3.org/1999/xlink">
<g id="graph0" class="graph" transform="scale(1 1) rotate(0) translate(4 186.53)">
<title>G</title>
<polygon fill="white" stroke="none" points="-4,4 -4,-186.53 1572.5,-186.53 1572.5,4 -4,4"/>
<!-- build and dependencies management tools / npm (62) -->
<g id="node1" class="node">
<title>build and dependencies management tools / npm (62)</title>
<polygon fill="grey" stroke="white" points="1568.5,-115 1219.5,-115 1219.5,-79 1568.5,-79 1568.5,-115"/>
<text text-anchor="middle" x="1394" y="-92.33" font-family="Tahoma" font-size="14.00">build and dependencies management tools / npm (62)</text>
</g>
<!-- build and dependencies management tools / jest (14) -->
<g id="node2" class="node">
<title>build and dependencies management tools / jest (14)</title>
<polygon fill="grey" stroke="white" points="343.75,-152 0,-152 0,-116 343.75,-116 343.75,-152"/>
<text text-anchor="middle" x="171.88" y="-129.32" font-family="Tahoma" font-size="14.00">build and dependencies management tools / jest (14)</text>
</g>
<!-- build and dependencies management tools / npm (62)&#45;&#45;build and dependencies management tools / jest (14) -->
<g id="edge1" class="edge">
<title>build and dependencies management tools / npm (62)&#45;&#45;build and dependencies management tools / jest (14)</title>
<path fill="none" stroke="#00688b" stroke-width="10" d="M1331.4,-115.44C1287.16,-127.68 1225.86,-142.64 1170.75,-149 882.02,-182.33 543.21,-165.54 343.93,-150"/>
<text text-anchor="middle" x="783.5" y="-171.13" font-family="Arial" font-size="12.00"> 14 </text>
</g>
<!-- build and dependencies management tools / gradle (51) -->
<g id="node3" class="node">
<title>build and dependencies management tools / gradle (51)</title>
<polygon fill="grey" stroke="white" points="1170.75,-140 811.25,-140 811.25,-104 1170.75,-104 1170.75,-140"/>
<text text-anchor="middle" x="991" y="-117.33" font-family="Tahoma" font-size="14.00">build and dependencies management tools / gradle (51)</text>
</g>
<!-- build and dependencies management tools / npm (62)&#45;&#45;build and dependencies management tools / gradle (51) -->
<g id="edge2" class="edge">
<title>build and dependencies management tools / npm (62)&#45;&#45;build and dependencies management tools / gradle (51)</title>
<path fill="none" stroke="#00688b" stroke-width="5" stroke-opacity="0.647059" d="M1219.16,-107.84C1203.19,-108.83 1186.99,-109.84 1170.97,-110.84"/>
<text text-anchor="middle" x="1195.12" y="-112.35" font-family="Arial" font-size="12.00"> 8 </text>
</g>
<!-- build and dependencies management tools / maven (87) -->
<g id="node4" class="node">
<title>build and dependencies management tools / maven (87)</title>
<polygon fill="grey" stroke="white" points="755.75,-98 392.5,-98 392.5,-62 755.75,-62 755.75,-98"/>
<text text-anchor="middle" x="574.12" y="-75.33" font-family="Tahoma" font-size="14.00">build and dependencies management tools / maven (87)</text>
</g>
<!-- build and dependencies management tools / npm (62)&#45;&#45;build and dependencies management tools / maven (87) -->
<g id="edge3" class="edge">
<title>build and dependencies management tools / npm (62)&#45;&#45;build and dependencies management tools / maven (87)</title>
<path fill="none" stroke="#00688b" stroke-width="5" stroke-opacity="0.647059" d="M1219.27,-83.1C1202.87,-82.15 1186.5,-81.34 1170.75,-80.75 1031.63,-75.58 874.12,-75.64 756.02,-76.86"/>
<text text-anchor="middle" x="991" y="-83.6" font-family="Arial" font-size="12.00"> 8 </text>
</g>
<!-- build and dependencies management tools / sbt (1) -->
<g id="node5" class="node">
<title>build and dependencies management tools / sbt (1)</title>
<polygon fill="grey" stroke="white" points="1157.25,-36 824.75,-36 824.75,0 1157.25,0 1157.25,-36"/>
<text text-anchor="middle" x="991" y="-13.32" font-family="Tahoma" font-size="14.00">build and dependencies management tools / sbt (1)</text>
</g>
<!-- build and dependencies management tools / npm (62)&#45;&#45;build and dependencies management tools / sbt (1) -->
<g id="edge7" class="edge">
<title>build and dependencies management tools / npm (62)&#45;&#45;build and dependencies management tools / sbt (1)</title>
<path fill="none" stroke="#00688b" stroke-opacity="0.298039" d="M1335.3,-78.53C1297.57,-67.06 1247.02,-52.82 1201.5,-43.75 1187.3,-40.92 1172.5,-38.35 1157.62,-36.03"/>
<text text-anchor="middle" x="1195.12" y="-46.6" font-family="Arial" font-size="12.00"> 1 </text>
</g>
<!-- build and dependencies management tools / gradle (51)&#45;&#45;build and dependencies management tools / jest (14) -->
<g id="edge5" class="edge">
<title>build and dependencies management tools / gradle (51)&#45;&#45;build and dependencies management tools / jest (14)</title>
<path fill="none" stroke="#00688b" stroke-width="2" stroke-opacity="0.439216" d="M810.93,-124.63C672.12,-126.67 481,-129.47 344.19,-131.48"/>
<text text-anchor="middle" x="574.12" y="-133.56" font-family="Arial" font-size="12.00"> 3 </text>
</g>
<!-- build and dependencies management tools / gradle (51)&#45;&#45;build and dependencies management tools / maven (87) -->
<g id="edge4" class="edge">
<title>build and dependencies management tools / gradle (51)&#45;&#45;build and dependencies management tools / maven (87)</title>
<path fill="none" stroke="#00688b" stroke-width="2" stroke-opacity="0.439216" d="M811.05,-103.88C792.84,-102.04 774.34,-100.17 756.12,-98.32"/>
<text text-anchor="middle" x="783.5" y="-103.85" font-family="Arial" font-size="12.00"> 3 </text>
</g>
<!-- build and dependencies management tools / maven (87)&#45;&#45;build and dependencies management tools / jest (14) -->
<g id="edge6" class="edge">
<title>build and dependencies management tools / maven (87)&#45;&#45;build and dependencies management tools / jest (14)</title>
<path fill="none" stroke="#00688b" stroke-opacity="0.368627" d="M417.51,-98.47C398.71,-100.84 379.79,-103.3 361.75,-105.75 339.57,-108.76 315.96,-112.14 293.21,-115.5"/>
<text text-anchor="middle" x="368.12" y="-108.6" font-family="Arial" font-size="12.00"> 2 </text>
</g>
</g>
</svg>
