<svg width="444pt" height="908pt"
 viewBox="0.00 0.00 444.00 908.00" xmlns="http://www.w3.org/2000/svg" xmlns:xlink="http://www.w3.org/1999/xlink">
<g id="graph0" class="graph" transform="scale(1 1) rotate(0) translate(4 904)">
<title>G</title>
<polygon fill="white" stroke="none" points="-4,4 -4,-904 440,-904 440,4 -4,4"/>
<!-- build and dependencies management tools / npm -->
<g id="node1" class="node">
<title>build and dependencies management tools / npm</title>
<polygon fill="#00b2ee" stroke="white" points="428.88,-36 109.88,-36 109.88,0 428.88,0 428.88,-36"/>
<text text-anchor="middle" x="269.38" y="-13.32" font-family="Tahoma" font-size="14.00">build and dependencies management tools / npm</text>
</g>
<!-- tech / helm -->
<g id="node2" class="node">
<title>tech / helm</title>
<polygon fill="#00b2ee" stroke="white" points="312.62,-90 226.12,-90 226.12,-54 312.62,-54 312.62,-90"/>
<text text-anchor="middle" x="269.38" y="-67.33" font-family="Tahoma" font-size="14.00">tech / helm</text>
</g>
<!-- build and dependencies management tools / gradle -->
<g id="node3" class="node">
<title>build and dependencies management tools / gradle</title>
<polygon fill="#00b2ee" stroke="white" points="434.12,-144 104.62,-144 104.62,-108 434.12,-108 434.12,-144"/>
<text text-anchor="middle" x="269.38" y="-121.33" font-family="Tahoma" font-size="14.00">build and dependencies management tools / gradle</text>
</g>
<!-- build and dependencies management tools / sbt -->
<g id="node4" class="node">
<title>build and dependencies management tools / sbt</title>
<polygon fill="#00b2ee" stroke="white" points="424.38,-198 114.38,-198 114.38,-162 424.38,-162 424.38,-198"/>
<text text-anchor="middle" x="269.38" y="-175.32" font-family="Tahoma" font-size="14.00">build and dependencies management tools / sbt</text>
</g>
<!-- build and dependencies management tools / maven -->
<g id="node5" class="node">
<title>build and dependencies management tools / maven</title>
<polygon fill="#00b2ee" stroke="white" points="436,-252 102.75,-252 102.75,-216 436,-216 436,-252"/>
<text text-anchor="middle" x="269.38" y="-229.32" font-family="Tahoma" font-size="14.00">build and dependencies management tools / maven</text>
</g>
<!-- build and dependencies management tools / jest -->
<g id="node6" class="node">
<title>build and dependencies management tools / jest</title>
<polygon fill="#00b2ee" stroke="white" points="426.25,-306 112.5,-306 112.5,-270 426.25,-270 426.25,-306"/>
<text text-anchor="middle" x="269.38" y="-283.32" font-family="Tahoma" font-size="14.00">build and dependencies management tools / jest</text>
</g>
<!-- [epam / edp&#45;ddm&#45;smtp&#45;server] -->
<g id="node7" class="node">
<title>[epam / edp&#45;ddm&#45;smtp&#45;server]</title>
<polygon fill="grey" stroke="white" points="373.75,-900 165,-900 165,-864 373.75,-864 373.75,-900"/>
<text text-anchor="middle" x="269.38" y="-877.33" font-family="Tahoma" font-size="14.00">[epam / edp&#45;ddm&#45;smtp&#45;server]</text>
</g>
<!-- helm -->
<g id="node8" class="node">
<title>helm</title>
<polygon fill="grey" stroke="white" points="54,-630 0,-630 0,-594 54,-594 54,-630"/>
<text text-anchor="middle" x="27" y="-607.33" font-family="Tahoma" font-size="14.00">helm</text>
</g>
<!-- [epam / edp&#45;ddm&#45;smtp&#45;server]&#45;&#45;helm -->
<g id="edge1" class="edge">
<title>[epam / edp&#45;ddm&#45;smtp&#45;server]&#45;&#45;helm</title>
<path fill="none" stroke="#00688b" stroke-opacity="0.368627" d="M164.92,-879.36C142.99,-875.05 120.98,-867.56 102.75,-855 64.59,-828.7 38.73,-682.03 30.68,-630.17"/>
<text text-anchor="middle" x="78.38" y="-834.94" font-family="Arial" font-size="12.00"> 1 </text>
</g>
<!-- [epam / edp&#45;ddm&#45;logging] -->
<g id="node9" class="node">
<title>[epam / edp&#45;ddm&#45;logging]</title>
<polygon fill="grey" stroke="white" points="358.75,-846 180,-846 180,-810 358.75,-810 358.75,-846"/>
<text text-anchor="middle" x="269.38" y="-823.33" font-family="Tahoma" font-size="14.00">[epam / edp&#45;ddm&#45;logging]</text>
</g>
<!-- [epam / edp&#45;ddm&#45;logging]&#45;&#45;helm -->
<g id="edge2" class="edge">
<title>[epam / edp&#45;ddm&#45;logging]&#45;&#45;helm</title>
<path fill="none" stroke="#00688b" stroke-opacity="0.368627" d="M179.66,-827.69C153.1,-824.02 125.12,-816.28 102.75,-801 44.91,-761.5 31.82,-669.62 28.87,-630.34"/>
<text text-anchor="middle" x="78.38" y="-786.18" font-family="Arial" font-size="12.00"> 1 </text>
</g>
<!-- [epam / edp&#45;ddm&#45;control&#45;plane&#45;jenkins] -->
<g id="node10" class="node">
<title>[epam / edp&#45;ddm&#45;control&#45;plane&#45;jenkins]</title>
<polygon fill="grey" stroke="white" points="400.75,-792 138,-792 138,-756 400.75,-756 400.75,-792"/>
<text text-anchor="middle" x="269.38" y="-769.33" font-family="Tahoma" font-size="14.00">[epam / edp&#45;ddm&#45;control&#45;plane&#45;jenkins]</text>
</g>
<!-- [epam / edp&#45;ddm&#45;control&#45;plane&#45;jenkins]&#45;&#45;helm -->
<g id="edge3" class="edge">
<title>[epam / edp&#45;ddm&#45;control&#45;plane&#45;jenkins]&#45;&#45;helm</title>
<path fill="none" stroke="#00688b" stroke-opacity="0.368627" d="M137.72,-763.7C125.33,-759.54 113.43,-754.09 102.75,-747 61.01,-719.29 40.36,-660.03 32.27,-630.1"/>
<text text-anchor="middle" x="78.38" y="-733.91" font-family="Arial" font-size="12.00"> 1 </text>
</g>
<!-- [epam / edp&#45;ddm&#45;control&#45;plane&#45;nexus] -->
<g id="node11" class="node">
<title>[epam / edp&#45;ddm&#45;control&#45;plane&#45;nexus]</title>
<polygon fill="grey" stroke="white" points="397.38,-738 141.38,-738 141.38,-702 397.38,-702 397.38,-738"/>
<text text-anchor="middle" x="269.38" y="-715.33" font-family="Tahoma" font-size="14.00">[epam / edp&#45;ddm&#45;control&#45;plane&#45;nexus]</text>
</g>
<!-- [epam / edp&#45;ddm&#45;control&#45;plane&#45;nexus]&#45;&#45;helm -->
<g id="edge4" class="edge">
<title>[epam / edp&#45;ddm&#45;control&#45;plane&#45;nexus]&#45;&#45;helm</title>
<path fill="none" stroke="#00688b" stroke-opacity="0.368627" d="M141.13,-708.24C127.74,-704.4 114.68,-699.42 102.75,-693 75.28,-678.22 52.49,-649.43 39.55,-630.45"/>
<text text-anchor="middle" x="78.38" y="-682.43" font-family="Arial" font-size="12.00"> 1 </text>
</g>
<!-- [epam / edp&#45;ddm&#45;monitoring] -->
<g id="node12" class="node">
<title>[epam / edp&#45;ddm&#45;monitoring]</title>
<polygon fill="grey" stroke="white" points="369.62,-684 169.12,-684 169.12,-648 369.62,-648 369.62,-684"/>
<text text-anchor="middle" x="269.38" y="-661.33" font-family="Tahoma" font-size="14.00">[epam / edp&#45;ddm&#45;monitoring]</text>
</g>
<!-- [epam / edp&#45;ddm&#45;monitoring]&#45;&#45;helm -->
<g id="edge5" class="edge">
<title>[epam / edp&#45;ddm&#45;monitoring]&#45;&#45;helm</title>
<path fill="none" stroke="#00688b" stroke-opacity="0.368627" d="M168.68,-653.88C137.22,-648.43 102.67,-640.73 72,-630 66.24,-627.98 60.13,-625.63 54.35,-623.3"/>
<text text-anchor="middle" x="78.38" y="-636.26" font-family="Arial" font-size="12.00"> 1 </text>
</g>
<!-- [epam / edp&#45;ddm&#45;backup&#45;management] -->
<g id="node13" class="node">
<title>[epam / edp&#45;ddm&#45;backup&#45;management]</title>
<polygon fill="grey" stroke="white" points="401.88,-630 136.88,-630 136.88,-594 401.88,-594 401.88,-630"/>
<text text-anchor="middle" x="269.38" y="-607.33" font-family="Tahoma" font-size="14.00">[epam / edp&#45;ddm&#45;backup&#45;management]</text>
</g>
<!-- [epam / edp&#45;ddm&#45;backup&#45;management]&#45;&#45;helm -->
<g id="edge6" class="edge">
<title>[epam / edp&#45;ddm&#45;backup&#45;management]&#45;&#45;helm</title>
<path fill="none" stroke="#00688b" stroke-opacity="0.368627" d="M136.58,-612C105.09,-612 74.67,-612 54.08,-612"/>
<text text-anchor="middle" x="78.38" y="-614.85" font-family="Arial" font-size="12.00"> 1 </text>
</g>
<!-- [epam / edp&#45;install] -->
<g id="node14" class="node">
<title>[epam / edp&#45;install]</title>
<polygon fill="grey" stroke="white" points="338.12,-576 200.62,-576 200.62,-540 338.12,-540 338.12,-576"/>
<text text-anchor="middle" x="269.38" y="-553.33" font-family="Tahoma" font-size="14.00">[epam / edp&#45;install]</text>
</g>
<!-- [epam / edp&#45;install]&#45;&#45;helm -->
<g id="edge7" class="edge">
<title>[epam / edp&#45;install]&#45;&#45;helm</title>
<path fill="none" stroke="#00688b" stroke-opacity="0.368627" d="M200.24,-565.12C161.83,-570.43 113.4,-579.33 72,-593.75 66.22,-595.76 60.11,-598.14 54.33,-600.5"/>
<text text-anchor="middle" x="78.38" y="-596.6" font-family="Arial" font-size="12.00"> 1 </text>
</g>
<!-- [epam / edp&#45;ddm&#45;control&#45;plane&#45;gerrit] -->
<g id="node15" class="node">
<title>[epam / edp&#45;ddm&#45;control&#45;plane&#45;gerrit]</title>
<polygon fill="grey" stroke="white" points="396.25,-522 142.5,-522 142.5,-486 396.25,-486 396.25,-522"/>
<text text-anchor="middle" x="269.38" y="-499.32" font-family="Tahoma" font-size="14.00">[epam / edp&#45;ddm&#45;control&#45;plane&#45;gerrit]</text>
</g>
<!-- [epam / edp&#45;ddm&#45;control&#45;plane&#45;gerrit]&#45;&#45;helm -->
<g id="edge8" class="edge">
<title>[epam / edp&#45;ddm&#45;control&#45;plane&#45;gerrit]&#45;&#45;helm</title>
<path fill="none" stroke="#00688b" stroke-opacity="0.368627" d="M142.42,-515.39C128.59,-519.28 115.07,-524.37 102.75,-531 75.28,-545.78 52.49,-574.57 39.55,-593.55"/>
<text text-anchor="middle" x="78.38" y="-555.26" font-family="Arial" font-size="12.00"> 1 </text>
</g>
<!-- [epam / edp&#45;ddm&#45;redis&#45;operator] -->
<g id="node16" class="node">
<title>[epam / edp&#45;ddm&#45;redis&#45;operator]</title>
<polygon fill="grey" stroke="white" points="380.12,-468 158.62,-468 158.62,-432 380.12,-432 380.12,-468"/>
<text text-anchor="middle" x="269.38" y="-445.32" font-family="Tahoma" font-size="14.00">[epam / edp&#45;ddm&#45;redis&#45;operator]</text>
</g>
<!-- [epam / edp&#45;ddm&#45;redis&#45;operator]&#45;&#45;helm -->
<g id="edge9" class="edge">
<title>[epam / edp&#45;ddm&#45;redis&#45;operator]&#45;&#45;helm</title>
<path fill="none" stroke="#00688b" stroke-opacity="0.368627" d="M158.33,-454.6C138.7,-459.03 119.27,-466.06 102.75,-477 60.98,-504.66 40.35,-563.94 32.26,-593.89"/>
<text text-anchor="middle" x="78.38" y="-508.43" font-family="Arial" font-size="12.00"> 1 </text>
</g>
<!-- [epam / edp&#45;ddm&#45;cluster&#45;kafka&#45;operator] -->
<g id="node17" class="node">
<title>[epam / edp&#45;ddm&#45;cluster&#45;kafka&#45;operator]</title>
<polygon fill="grey" stroke="white" points="404.5,-414 134.25,-414 134.25,-378 404.5,-378 404.5,-414"/>
<text text-anchor="middle" x="269.38" y="-391.32" font-family="Tahoma" font-size="14.00">[epam / edp&#45;ddm&#45;cluster&#45;kafka&#45;operator]</text>
</g>
<!-- [epam / edp&#45;ddm&#45;cluster&#45;kafka&#45;operator]&#45;&#45;helm -->
<g id="edge10" class="edge">
<title>[epam / edp&#45;ddm&#45;cluster&#45;kafka&#45;operator]&#45;&#45;helm</title>
<path fill="none" stroke="#00688b" stroke-opacity="0.368627" d="M133.77,-407.37C122.78,-411.4 112.26,-416.52 102.75,-423 44.87,-462.44 31.81,-554.35 28.86,-593.65"/>
<text text-anchor="middle" x="78.38" y="-456.04" font-family="Arial" font-size="12.00"> 1 </text>
</g>
<!-- [epam / edp&#45;ddm&#45;user&#45;management] -->
<g id="node18" class="node">
<title>[epam / edp&#45;ddm&#45;user&#45;management]</title>
<polygon fill="grey" stroke="white" points="392.88,-360 145.88,-360 145.88,-324 392.88,-324 392.88,-360"/>
<text text-anchor="middle" x="269.38" y="-337.32" font-family="Tahoma" font-size="14.00">[epam / edp&#45;ddm&#45;user&#45;management]</text>
</g>
<!-- [epam / edp&#45;ddm&#45;user&#45;management]&#45;&#45;helm -->
<g id="edge11" class="edge">
<title>[epam / edp&#45;ddm&#45;user&#45;management]&#45;&#45;helm</title>
<path fill="none" stroke="#00688b" stroke-opacity="0.368627" d="M145.47,-349.28C130.25,-353.77 115.56,-360.12 102.75,-369 64.67,-395.41 38.76,-542.01 30.68,-593.84"/>
<text text-anchor="middle" x="78.38" y="-420.51" font-family="Arial" font-size="12.00"> 1 </text>
</g>
</g>
</svg>
