<svg width="1254pt" height="648pt"
 viewBox="0.00 0.00 1253.75 647.75" xmlns="http://www.w3.org/2000/svg" xmlns:xlink="http://www.w3.org/1999/xlink">
<g id="graph0" class="graph" transform="scale(1 1) rotate(0) translate(4 643.75)">
<title>G</title>
<polygon fill="white" stroke="none" points="-4,4 -4,-643.75 1249.75,-643.75 1249.75,4 -4,4"/>
<!-- h (1) -->
<g id="node1" class="node">
<title>h (1)</title>
<polygon fill="#00b2ee" stroke="white" points="608,-208.5 554,-208.5 554,-172.5 608,-172.5 608,-208.5"/>
<text text-anchor="middle" x="581" y="-185.82" font-family="Tahoma" font-size="14.00">h (1)</text>
</g>
<!-- cpp (1) -->
<g id="node16" class="node">
<title>cpp (1)</title>
<polygon fill="#00b2ee" stroke="white" points="604.12,-36 543.88,-36 543.88,0 604.12,0 604.12,-36"/>
<text text-anchor="middle" x="574" y="-13.32" font-family="Tahoma" font-size="14.00">cpp (1)</text>
</g>
<!-- h (1)&#45;&#45;cpp (1) -->
<g id="edge71" class="edge">
<title>h (1)&#45;&#45;cpp (1)</title>
<path fill="none" stroke="#00688b" stroke-opacity="0.298039" d="M580.29,-172.21C578.95,-139.53 576.05,-69.05 574.71,-36.33"/>
<text text-anchor="middle" x="584.57" y="-99.97" font-family="Arial" font-size="12.00"> 1 </text>
</g>
<!-- cmake (1) -->
<g id="node25" class="node">
<title>cmake (1)</title>
<polygon fill="#00b2ee" stroke="white" points="556.5,-122.25 477.5,-122.25 477.5,-86.25 556.5,-86.25 556.5,-122.25"/>
<text text-anchor="middle" x="517" y="-99.58" font-family="Tahoma" font-size="14.00">cmake (1)</text>
</g>
<!-- h (1)&#45;&#45;cmake (1) -->
<g id="edge70" class="edge">
<title>h (1)&#45;&#45;cmake (1)</title>
<path fill="none" stroke="#00688b" stroke-opacity="0.298039" d="M567.74,-172.04C556.76,-157.58 541.22,-137.14 530.24,-122.68"/>
<text text-anchor="middle" x="559.21" y="-143.1" font-family="Arial" font-size="12.00"> 1 </text>
</g>
<!-- rdf (1) -->
<g id="node2" class="node">
<title>rdf (1)</title>
<polygon fill="#00b2ee" stroke="white" points="656.88,-553.5 601.12,-553.5 601.12,-517.5 656.88,-517.5 656.88,-553.5"/>
<text text-anchor="middle" x="629" y="-530.83" font-family="Tahoma" font-size="14.00">rdf (1)</text>
</g>
<!-- cs (1) -->
<g id="node3" class="node">
<title>cs (1)</title>
<polygon fill="#00b2ee" stroke="white" points="589,-639.75 535,-639.75 535,-603.75 589,-603.75 589,-639.75"/>
<text text-anchor="middle" x="562" y="-617.08" font-family="Tahoma" font-size="14.00">cs (1)</text>
</g>
<!-- yaml (28) -->
<g id="node4" class="node">
<title>yaml (28)</title>
<polygon fill="#00b2ee" stroke="white" points="526.62,-553.5 451.38,-553.5 451.38,-517.5 526.62,-517.5 526.62,-553.5"/>
<text text-anchor="middle" x="489" y="-530.83" font-family="Tahoma" font-size="14.00">yaml (28)</text>
</g>
<!-- tf (3) -->
<g id="node6" class="node">
<title>tf (3)</title>
<polygon fill="#00b2ee" stroke="white" points="259,-467.25 205,-467.25 205,-431.25 259,-431.25 259,-467.25"/>
<text text-anchor="middle" x="232" y="-444.57" font-family="Tahoma" font-size="14.00">tf (3)</text>
</g>
<!-- yaml (28)&#45;&#45;tf (3) -->
<g id="edge19" class="edge">
<title>yaml (28)&#45;&#45;tf (3)</title>
<path fill="none" stroke="#00688b" stroke-opacity="0.368627" d="M450.99,-530.5C390.04,-523.83 275.7,-510.09 260.25,-499.5 249.19,-491.92 241.91,-478.49 237.51,-467.57"/>
<text text-anchor="middle" x="266.62" y="-488.1" font-family="Arial" font-size="12.00"> 3 </text>
</g>
<!-- js (12) -->
<g id="node7" class="node">
<title>js (12)</title>
<polygon fill="#00b2ee" stroke="white" points="743.88,-381 688.12,-381 688.12,-345 743.88,-345 743.88,-381"/>
<text text-anchor="middle" x="716" y="-358.32" font-family="Tahoma" font-size="14.00">js (12)</text>
</g>
<!-- yaml (28)&#45;&#45;js (12) -->
<g id="edge15" class="edge">
<title>yaml (28)&#45;&#45;js (12)</title>
<path fill="none" stroke="#00688b" stroke-opacity="0.368627" d="M527.03,-525.06C560.75,-516.49 605.74,-504.44 613,-499.5 658.67,-468.39 692.58,-410.43 707.54,-381.45"/>
<text text-anchor="middle" x="684.03" y="-444.98" font-family="Arial" font-size="12.00"> 3 </text>
</g>
<!-- tsx (17) -->
<g id="node8" class="node">
<title>tsx (17)</title>
<polygon fill="#00b2ee" stroke="white" points="426.62,-467.25 363.38,-467.25 363.38,-431.25 426.62,-431.25 426.62,-467.25"/>
<text text-anchor="middle" x="395" y="-444.57" font-family="Tahoma" font-size="14.00">tsx (17)</text>
</g>
<!-- yaml (28)&#45;&#45;tsx (17) -->
<g id="edge37" class="edge">
<title>yaml (28)&#45;&#45;tsx (17)</title>
<path fill="none" stroke="#00688b" stroke-opacity="0.368627" d="M469.52,-517.04C453.39,-502.58 430.58,-482.14 414.45,-467.68"/>
<text text-anchor="middle" x="454" y="-488.1" font-family="Arial" font-size="12.00"> 2 </text>
</g>
<!-- css (6) -->
<g id="node10" class="node">
<title>css (6)</title>
<polygon fill="#00b2ee" stroke="white" points="227.62,-294.75 170.38,-294.75 170.38,-258.75 227.62,-258.75 227.62,-294.75"/>
<text text-anchor="middle" x="199" y="-272.07" font-family="Tahoma" font-size="14.00">css (6)</text>
</g>
<!-- yaml (28)&#45;&#45;css (6) -->
<g id="edge51" class="edge">
<title>yaml (28)&#45;&#45;css (6)</title>
<path fill="none" stroke="#00688b" stroke-opacity="0.298039" d="M451.15,-519.09C449.42,-518.53 447.7,-517.99 446,-517.5 405.58,-505.71 388.32,-522.41 353,-499.5 272.78,-447.46 222.62,-337.55 205.55,-295.04"/>
<text text-anchor="middle" x="273.66" y="-401.85" font-family="Arial" font-size="12.00"> 1 </text>
</g>
<!-- py (13) -->
<g id="node13" class="node">
<title>py (13)</title>
<polygon fill="#00b2ee" stroke="white" points="430.12,-381 369.88,-381 369.88,-345 430.12,-345 430.12,-381"/>
<text text-anchor="middle" x="400" y="-358.32" font-family="Tahoma" font-size="14.00">py (13)</text>
</g>
<!-- yaml (28)&#45;&#45;py (13) -->
<g id="edge2" class="edge">
<title>yaml (28)&#45;&#45;py (13)</title>
<path fill="none" stroke="#00688b" stroke-width="4" stroke-opacity="0.576471" d="M450.88,-528.87C415.66,-521.43 365.27,-504.58 341.25,-467.25 322.28,-437.77 354.41,-401.91 378.14,-381.15"/>
<text text-anchor="middle" x="347.62" y="-444.98" font-family="Arial" font-size="12.00"> 7 </text>
</g>
<!-- tfvars (2) -->
<g id="node17" class="node">
<title>tfvars (2)</title>
<polygon fill="#00b2ee" stroke="white" points="188.5,-381 115.5,-381 115.5,-345 188.5,-345 188.5,-381"/>
<text text-anchor="middle" x="152" y="-358.32" font-family="Tahoma" font-size="14.00">tfvars (2)</text>
</g>
<!-- yaml (28)&#45;&#45;tfvars (2) -->
<g id="edge35" class="edge">
<title>yaml (28)&#45;&#45;tfvars (2)</title>
<path fill="none" stroke="#00688b" stroke-opacity="0.368627" d="M451.21,-518.87C449.46,-518.37 447.72,-517.91 446,-517.5 357.86,-496.63 329.75,-525.55 243,-499.5 214.1,-490.82 202.34,-490.62 183.25,-467.25 162.64,-442.01 155.61,-403.38 153.22,-381.23"/>
<text text-anchor="middle" x="189.62" y="-444.98" font-family="Arial" font-size="12.00"> 2 </text>
</g>
<!-- go (3) -->
<g id="node20" class="node">
<title>go (3)</title>
<polygon fill="#00b2ee" stroke="white" points="499,-467.25 445,-467.25 445,-431.25 499,-431.25 499,-467.25"/>
<text text-anchor="middle" x="472" y="-444.57" font-family="Tahoma" font-size="14.00">go (3)</text>
</g>
<!-- yaml (28)&#45;&#45;go (3) -->
<g id="edge22" class="edge">
<title>yaml (28)&#45;&#45;go (3)</title>
<path fill="none" stroke="#00688b" stroke-opacity="0.368627" d="M485.48,-517.04C482.56,-502.58 478.43,-482.14 475.52,-467.68"/>
<text text-anchor="middle" x="487.89" y="-488.1" font-family="Arial" font-size="12.00"> 3 </text>
</g>
<!-- toml (7) -->
<g id="node21" class="node">
<title>toml (7)</title>
<polygon fill="#00b2ee" stroke="white" points="528.75,-294.75 463.25,-294.75 463.25,-258.75 528.75,-258.75 528.75,-294.75"/>
<text text-anchor="middle" x="496" y="-272.07" font-family="Tahoma" font-size="14.00">toml (7)</text>
</g>
<!-- yaml (28)&#45;&#45;toml (7) -->
<g id="edge9" class="edge">
<title>yaml (28)&#45;&#45;toml (7)</title>
<path fill="none" stroke="#00688b" stroke-width="2" stroke-opacity="0.439216" d="M495.35,-517.08C499.89,-503.67 505.6,-484.56 508,-467.25 510.2,-451.4 515.26,-445.51 508,-431.25 501.83,-419.13 489.42,-425.37 483.25,-413.25 463.63,-374.72 478.58,-322.03 488.69,-295.12"/>
<text text-anchor="middle" x="489.62" y="-401.85" font-family="Arial" font-size="12.00"> 4 </text>
</g>
<!-- sql (3) -->
<g id="node22" class="node">
<title>sql (3)</title>
<polygon fill="#00b2ee" stroke="white" points="786.5,-208.5 731.5,-208.5 731.5,-172.5 786.5,-172.5 786.5,-208.5"/>
<text text-anchor="middle" x="759" y="-185.82" font-family="Tahoma" font-size="14.00">sql (3)</text>
</g>
<!-- yaml (28)&#45;&#45;sql (3) -->
<g id="edge28" class="edge">
<title>yaml (28)&#45;&#45;sql (3)</title>
<path fill="none" stroke="#00688b" stroke-opacity="0.368627" d="M527.01,-528.41C557.21,-522.87 600.18,-513.42 636,-499.5 653.65,-492.64 773.71,-429.75 783,-413.25 821.09,-345.59 784.79,-247.89 767.27,-208.71"/>
<text text-anchor="middle" x="806.09" y="-358.73" font-family="Arial" font-size="12.00"> 2 </text>
</g>
<!-- in (2) -->
<g id="node23" class="node">
<title>in (2)</title>
<polygon fill="#00b2ee" stroke="white" points="786,-122.25 732,-122.25 732,-86.25 786,-86.25 786,-122.25"/>
<text text-anchor="middle" x="759" y="-99.58" font-family="Tahoma" font-size="14.00">in (2)</text>
</g>
<!-- yaml (28)&#45;&#45;in (2) -->
<g id="edge29" class="edge">
<title>yaml (28)&#45;&#45;in (2)</title>
<path fill="none" stroke="#00688b" stroke-opacity="0.368627" d="M507.95,-517.19C531.39,-494.97 571.31,-454.37 597,-413.25 614.37,-385.44 611.73,-374.98 625,-345 659.34,-267.37 666.35,-247.02 707,-172.5 715.08,-157.69 716.82,-153.7 727,-140.25 731.57,-134.21 736.99,-127.99 742.06,-122.5"/>
<text text-anchor="middle" x="645.39" y="-315.6" font-family="Arial" font-size="12.00"> 2 </text>
</g>
<!-- java (23) -->
<g id="node26" class="node">
<title>java (23)</title>
<polygon fill="#00b2ee" stroke="white" points="894.75,-467.25 823.25,-467.25 823.25,-431.25 894.75,-431.25 894.75,-467.25"/>
<text text-anchor="middle" x="859" y="-444.57" font-family="Tahoma" font-size="14.00">java (23)</text>
</g>
<!-- yaml (28)&#45;&#45;java (23) -->
<g id="edge14" class="edge">
<title>yaml (28)&#45;&#45;java (23)</title>
<path fill="none" stroke="#00688b" stroke-opacity="0.368627" d="M526.81,-528.25C587,-518.28 697.99,-499.88 699,-499.5 710.35,-495.26 711.01,-489.78 722.25,-485.25 756.75,-471.34 768.03,-476.75 804,-467.25 810.18,-465.62 816.71,-463.74 823.03,-461.84"/>
<text text-anchor="middle" x="728.62" y="-488.1" font-family="Arial" font-size="12.00"> 3 </text>
</g>
<!-- xml (8) -->
<g id="node27" class="node">
<title>xml (8)</title>
<polygon fill="#00b2ee" stroke="white" points="906.12,-294.75 845.88,-294.75 845.88,-258.75 906.12,-258.75 906.12,-294.75"/>
<text text-anchor="middle" x="876" y="-272.07" font-family="Tahoma" font-size="14.00">xml (8)</text>
</g>
<!-- yaml (28)&#45;&#45;xml (8) -->
<g id="edge27" class="edge">
<title>yaml (28)&#45;&#45;xml (8)</title>
<path fill="none" stroke="#00688b" stroke-opacity="0.368627" d="M527.1,-527.85C546.5,-524.56 570.48,-520.63 592,-517.5 655.39,-508.28 673.77,-518.31 735,-499.5 748.35,-495.4 749.66,-489.36 763,-485.25 823.37,-466.65 850.11,-500.21 904,-467.25 967.55,-428.38 1011.64,-373.84 969,-312.75 955.72,-293.73 941.71,-302.93 920,-294.75 915.56,-293.08 910.87,-291.29 906.27,-289.52"/>
<text text-anchor="middle" x="982.06" y="-401.85" font-family="Arial" font-size="12.00"> 2 </text>
</g>
<!-- less (1) -->
<g id="node5" class="node">
<title>less (1)</title>
<polygon fill="#00b2ee" stroke="white" points="516.5,-208.5 455.5,-208.5 455.5,-172.5 516.5,-172.5 516.5,-208.5"/>
<text text-anchor="middle" x="486" y="-185.82" font-family="Tahoma" font-size="14.00">less (1)</text>
</g>
<!-- tf (3)&#45;&#45;tfvars (2) -->
<g id="edge36" class="edge">
<title>tf (3)&#45;&#45;tfvars (2)</title>
<path fill="none" stroke="#00688b" stroke-opacity="0.368627" d="M215.42,-430.79C201.69,-416.33 182.28,-395.89 168.55,-381.43"/>
<text text-anchor="middle" x="203.16" y="-401.85" font-family="Arial" font-size="12.00"> 2 </text>
</g>
<!-- js (12)&#45;&#45;less (1) -->
<g id="edge55" class="edge">
<title>js (12)&#45;&#45;less (1)</title>
<path fill="none" stroke="#00688b" stroke-opacity="0.298039" d="M695,-344.68C683.32,-335.14 668.46,-323.16 655,-312.75 605.15,-274.21 544.73,-231.88 511.32,-208.82"/>
<text text-anchor="middle" x="636.32" y="-272.48" font-family="Arial" font-size="12.00"> 1 </text>
</g>
<!-- js (12)&#45;&#45;css (6) -->
<g id="edge6" class="edge">
<title>js (12)&#45;&#45;css (6)</title>
<path fill="none" stroke="#00688b" stroke-width="2" stroke-opacity="0.439216" d="M687.8,-349.72C683.24,-347.99 678.53,-346.34 674,-345 633.74,-333.07 622.04,-336.96 581.25,-327 559.53,-321.7 555.02,-316.63 533,-312.75 405.39,-290.26 368.48,-322.92 242,-294.75 237.3,-293.7 232.44,-292.21 227.75,-290.54"/>
<text text-anchor="middle" x="587.62" y="-315.6" font-family="Arial" font-size="12.00"> 5 </text>
</g>
<!-- scss (5) -->
<g id="node14" class="node">
<title>scss (5)</title>
<polygon fill="#00b2ee" stroke="white" points="1091.62,-208.5 1028.38,-208.5 1028.38,-172.5 1091.62,-172.5 1091.62,-208.5"/>
<text text-anchor="middle" x="1060" y="-185.82" font-family="Tahoma" font-size="14.00">scss (5)</text>
</g>
<!-- js (12)&#45;&#45;scss (5) -->
<g id="edge11" class="edge">
<title>js (12)&#45;&#45;scss (5)</title>
<path fill="none" stroke="#00688b" stroke-width="2" stroke-opacity="0.439216" d="M744.17,-349.62C748.74,-347.9 753.46,-346.28 758,-345 804.84,-331.79 818.84,-339.01 866,-327 887.2,-321.6 940.53,-306.46 959,-294.75 996.06,-271.25 1029.65,-231.63 1047.19,-208.91"/>
<text text-anchor="middle" x="1009.55" y="-272.48" font-family="Arial" font-size="12.00"> 4 </text>
</g>
<!-- html (2) -->
<g id="node18" class="node">
<title>html (2)</title>
<polygon fill="#00b2ee" stroke="white" points="172.75,-208.5 107.25,-208.5 107.25,-172.5 172.75,-172.5 172.75,-208.5"/>
<text text-anchor="middle" x="140" y="-185.82" font-family="Tahoma" font-size="14.00">html (2)</text>
</g>
<!-- js (12)&#45;&#45;html (2) -->
<g id="edge57" class="edge">
<title>js (12)&#45;&#45;html (2)</title>
<path fill="none" stroke="#00688b" stroke-opacity="0.298039" d="M687.72,-347C686.14,-346.3 684.56,-345.62 683,-345 656.76,-334.48 647.93,-338.26 622,-327 609.05,-321.38 577.95,-303.96 567.25,-294.75 551.62,-281.31 556.33,-268.19 538,-258.75 481.19,-229.49 313.07,-255.95 251,-240.75 222.74,-233.83 192.69,-220.06 171,-208.84"/>
<text text-anchor="middle" x="573.62" y="-272.48" font-family="Arial" font-size="12.00"> 1 </text>
</g>
<!-- js (12)&#45;&#45;sql (3) -->
<g id="edge31" class="edge">
<title>js (12)&#45;&#45;sql (3)</title>
<path fill="none" stroke="#00688b" stroke-opacity="0.368627" d="M714.66,-344.53C713.29,-317.93 713.34,-266.19 730,-226.5 732.69,-220.1 736.95,-213.96 741.4,-208.66"/>
<text text-anchor="middle" x="726.33" y="-272.48" font-family="Arial" font-size="12.00"> 2 </text>
</g>
<!-- js (12)&#45;&#45;in (2) -->
<g id="edge32" class="edge">
<title>js (12)&#45;&#45;in (2)</title>
<path fill="none" stroke="#00688b" stroke-opacity="0.368627" d="M712.49,-344.62C711.5,-339.02 710.55,-332.77 710,-327 703.46,-258.4 697.5,-236.52 723,-172.5 730.01,-154.91 740.42,-135.98 748.25,-122.71"/>
<text text-anchor="middle" x="712.92" y="-229.35" font-family="Arial" font-size="12.00"> 2 </text>
</g>
<!-- js (12)&#45;&#45;xml (8) -->
<g id="edge17" class="edge">
<title>js (12)&#45;&#45;xml (8)</title>
<path fill="none" stroke="#00688b" stroke-opacity="0.368627" d="M744.26,-349.91C748.81,-348.15 753.51,-346.45 758,-345 790.22,-334.62 802.97,-344.41 832,-327 845.37,-318.98 856.96,-305.58 864.88,-294.78"/>
<text text-anchor="middle" x="855.23" y="-315.6" font-family="Arial" font-size="12.00"> 3 </text>
</g>
<!-- tsx (17)&#45;&#45;js (12) -->
<g id="edge10" class="edge">
<title>tsx (17)&#45;&#45;js (12)</title>
<path fill="none" stroke="#00688b" stroke-width="2" stroke-opacity="0.439216" d="M426.99,-434.22C430.01,-433.13 433.04,-432.12 436,-431.25 479.33,-418.53 491.78,-422.39 536,-413.25 597.68,-400.5 613.96,-400.04 674,-381 678.5,-379.57 683.2,-377.88 687.75,-376.13"/>
<text text-anchor="middle" x="611.99" y="-401.85" font-family="Arial" font-size="12.00"> 4 </text>
</g>
<!-- ipynb (1) -->
<g id="node9" class="node">
<title>ipynb (1)</title>
<polygon fill="#00b2ee" stroke="white" points="245.38,-122.25 174.62,-122.25 174.62,-86.25 245.38,-86.25 245.38,-122.25"/>
<text text-anchor="middle" x="210" y="-99.58" font-family="Tahoma" font-size="14.00">ipynb (1)</text>
</g>
<!-- tsx (17)&#45;&#45;ipynb (1) -->
<g id="edge43" class="edge">
<title>tsx (17)&#45;&#45;ipynb (1)</title>
<path fill="none" stroke="#00688b" stroke-opacity="0.298039" d="M387.13,-431.09C376.32,-409 355.11,-370.45 328,-345 316.1,-333.83 306.69,-339.33 296,-327 281.8,-310.62 233.03,-171.89 215.96,-122.57"/>
<text text-anchor="middle" x="285.61" y="-272.48" font-family="Arial" font-size="12.00"> 1 </text>
</g>
<!-- tsx (17)&#45;&#45;css (6) -->
<g id="edge13" class="edge">
<title>tsx (17)&#45;&#45;css (6)</title>
<path fill="none" stroke="#00688b" stroke-opacity="0.368627" d="M374.08,-430.84C346.18,-407.52 295.39,-364.7 253,-327 241.24,-316.54 228.21,-304.66 217.89,-295.19"/>
<text text-anchor="middle" x="319.52" y="-358.73" font-family="Arial" font-size="12.00"> 3 </text>
</g>
<!-- mjs (1) -->
<g id="node12" class="node">
<title>mjs (1)</title>
<polygon fill="#00b2ee" stroke="white" points="1099.12,-122.25 1038.88,-122.25 1038.88,-86.25 1099.12,-86.25 1099.12,-122.25"/>
<text text-anchor="middle" x="1069" y="-99.58" font-family="Tahoma" font-size="14.00">mjs (1)</text>
</g>
<!-- tsx (17)&#45;&#45;mjs (1) -->
<g id="edge60" class="edge">
<title>tsx (17)&#45;&#45;mjs (1)</title>
<path fill="none" stroke="#00688b" stroke-opacity="0.298039" d="M426.92,-433.96C429.95,-432.93 433.01,-432 436,-431.25 516.58,-411.12 542.27,-436.49 622,-413.25 635.41,-409.34 636.63,-403.03 650,-399 717.25,-378.75 745.77,-415.41 807,-381 824.67,-371.07 819.73,-358.33 835,-345 847,-334.52 852.45,-335.38 866,-327 888.17,-313.28 896.12,-312.73 915,-294.75 919.3,-290.66 974.69,-213.43 978,-208.5 997.85,-178.93 995.69,-166.28 1020,-140.25 1025.99,-133.83 1033.33,-127.86 1040.48,-122.73"/>
<text text-anchor="middle" x="948.04" y="-272.48" font-family="Arial" font-size="12.00"> 1 </text>
</g>
<!-- tsx (17)&#45;&#45;py (13) -->
<g id="edge42" class="edge">
<title>tsx (17)&#45;&#45;py (13)</title>
<path fill="none" stroke="#00688b" stroke-opacity="0.298039" d="M396.04,-430.79C396.89,-416.33 398.11,-395.89 398.97,-381.43"/>
<text text-anchor="middle" x="404.17" y="-401.85" font-family="Arial" font-size="12.00"> 1 </text>
</g>
<!-- tsx (17)&#45;&#45;scss (5) -->
<g id="edge21" class="edge">
<title>tsx (17)&#45;&#45;scss (5)</title>
<path fill="none" stroke="#00688b" stroke-opacity="0.368627" d="M426.91,-433.92C429.95,-432.9 433.01,-431.98 436,-431.25 527.44,-408.96 553.65,-425.22 647,-413.25 731.09,-402.47 754.14,-406.47 835,-381 856.44,-374.25 1002.54,-311.07 1018,-294.75 1041.16,-270.31 1052.24,-231.39 1056.96,-208.97"/>
<text text-anchor="middle" x="994.49" y="-315.6" font-family="Arial" font-size="12.00"> 3 </text>
</g>
<!-- tsx (17)&#45;&#45;html (2) -->
<g id="edge25" class="edge">
<title>tsx (17)&#45;&#45;html (2)</title>
<path fill="none" stroke="#00688b" stroke-opacity="0.368627" d="M362.88,-431.97C295.2,-397.33 143.08,-317.67 130,-294.75 114.65,-267.85 124.44,-230.49 132.52,-208.86"/>
<text text-anchor="middle" x="176.87" y="-315.6" font-family="Arial" font-size="12.00"> 2 </text>
</g>
<!-- jsx (2) -->
<g id="node24" class="node">
<title>jsx (2)</title>
<polygon fill="#00b2ee" stroke="white" points="576.5,-381 521.5,-381 521.5,-345 576.5,-345 576.5,-381"/>
<text text-anchor="middle" x="549" y="-358.32" font-family="Tahoma" font-size="14.00">jsx (2)</text>
</g>
<!-- tsx (17)&#45;&#45;jsx (2) -->
<g id="edge62" class="edge">
<title>tsx (17)&#45;&#45;jsx (2)</title>
<path fill="none" stroke="#00688b" stroke-opacity="0.298039" d="M411.41,-430.89C421.99,-420.51 436.48,-407.68 451.25,-399 473.32,-386.03 500.98,-376.68 521.24,-370.92"/>
<text text-anchor="middle" x="457.62" y="-401.85" font-family="Arial" font-size="12.00"> 1 </text>
</g>
<!-- css (6)&#45;&#45;less (1) -->
<g id="edge56" class="edge">
<title>css (6)&#45;&#45;less (1)</title>
<path fill="none" stroke="#00688b" stroke-opacity="0.298039" d="M223.91,-258.43C240.56,-247.65 263.35,-234.39 285.25,-226.5 316.04,-215.41 407.17,-202.07 455.35,-195.52"/>
<text text-anchor="middle" x="291.62" y="-229.35" font-family="Arial" font-size="12.00"> 1 </text>
</g>
<!-- css (6)&#45;&#45;ipynb (1) -->
<g id="edge47" class="edge">
<title>css (6)&#45;&#45;ipynb (1)</title>
<path fill="none" stroke="#00688b" stroke-opacity="0.298039" d="M200.12,-258.46C202.22,-225.78 206.77,-155.3 208.88,-122.58"/>
<text text-anchor="middle" x="211.97" y="-186.22" font-family="Arial" font-size="12.00"> 1 </text>
</g>
<!-- css (6)&#45;&#45;html (2) -->
<g id="edge26" class="edge">
<title>css (6)&#45;&#45;html (2)</title>
<path fill="none" stroke="#00688b" stroke-opacity="0.368627" d="M186.64,-258.32C182.67,-252.72 178.27,-246.48 174.25,-240.75 166.84,-230.18 158.57,-218.29 152.01,-208.85"/>
<text text-anchor="middle" x="180.62" y="-229.35" font-family="Arial" font-size="12.00"> 2 </text>
</g>
<!-- kts (1) -->
<g id="node11" class="node">
<title>kts (1)</title>
<polygon fill="#00b2ee" stroke="white" points="1009.88,-122.25 954.12,-122.25 954.12,-86.25 1009.88,-86.25 1009.88,-122.25"/>
<text text-anchor="middle" x="982" y="-99.58" font-family="Tahoma" font-size="14.00">kts (1)</text>
</g>
<!-- py (13)&#45;&#45;h (1) -->
<g id="edge64" class="edge">
<title>py (13)&#45;&#45;h (1)</title>
<path fill="none" stroke="#00688b" stroke-opacity="0.298039" d="M406.19,-344.53C416.12,-316.84 435.12,-265.31 441.25,-258.75 457.47,-241.38 517.75,-216 553.63,-201.9"/>
<text text-anchor="middle" x="447.62" y="-272.48" font-family="Arial" font-size="12.00"> 1 </text>
</g>
<!-- py (13)&#45;&#45;ipynb (1) -->
<g id="edge46" class="edge">
<title>py (13)&#45;&#45;ipynb (1)</title>
<path fill="none" stroke="#00688b" stroke-opacity="0.298039" d="M379.11,-344.58C364.93,-331.91 346.55,-313.71 334,-294.75 292.49,-232.04 314.14,-197.18 265,-140.25 259.16,-133.48 251.68,-127.56 244.14,-122.6"/>
<text text-anchor="middle" x="315.07" y="-229.35" font-family="Arial" font-size="12.00"> 1 </text>
</g>
<!-- py (13)&#45;&#45;css (6) -->
<g id="edge44" class="edge">
<title>py (13)&#45;&#45;css (6)</title>
<path fill="none" stroke="#00688b" stroke-opacity="0.298039" d="M369.7,-349.2C355.41,-342.91 338.25,-334.98 323.25,-327 312.55,-321.31 311.04,-317.75 300,-312.75 275.41,-301.61 267.46,-303.72 242,-294.75 237.46,-293.15 232.68,-291.37 228.03,-289.57"/>
<text text-anchor="middle" x="329.62" y="-315.6" font-family="Arial" font-size="12.00"> 1 </text>
</g>
<!-- py (13)&#45;&#45;cpp (1) -->
<g id="edge66" class="edge">
<title>py (13)&#45;&#45;cpp (1)</title>
<path fill="none" stroke="#00688b" stroke-opacity="0.298039" d="M387.94,-344.77C372.58,-321.1 348,-276.66 348,-234.62 348,-234.62 348,-234.62 348,-103.25 348,-62 481.83,-34.35 543.52,-23.79"/>
<text text-anchor="middle" x="354.38" y="-186.22" font-family="Arial" font-size="12.00"> 1 </text>
</g>
<!-- py (13)&#45;&#45;html (2) -->
<g id="edge45" class="edge">
<title>py (13)&#45;&#45;html (2)</title>
<path fill="none" stroke="#00688b" stroke-opacity="0.298039" d="M369.4,-354.31C303.11,-337.6 151.87,-299.09 148.25,-294.75 128.1,-270.57 131.65,-231.2 135.9,-208.71"/>
<text text-anchor="middle" x="154.62" y="-272.48" font-family="Arial" font-size="12.00"> 1 </text>
</g>
<!-- py (13)&#45;&#45;toml (7) -->
<g id="edge4" class="edge">
<title>py (13)&#45;&#45;toml (7)</title>
<path fill="none" stroke="#00688b" stroke-width="2" stroke-opacity="0.439216" d="M419.89,-344.54C436.37,-330.08 459.67,-309.64 476.13,-295.18"/>
<text text-anchor="middle" x="460.12" y="-315.6" font-family="Arial" font-size="12.00"> 5 </text>
</g>
<!-- py (13)&#45;&#45;cmake (1) -->
<g id="edge65" class="edge">
<title>py (13)&#45;&#45;cmake (1)</title>
<path fill="none" stroke="#00688b" stroke-opacity="0.298039" d="M400.84,-344.72C403.24,-309.73 412.41,-229.02 447,-172.5 459.05,-152.81 478.25,-134.93 493.5,-122.57"/>
<text text-anchor="middle" x="428.47" y="-229.35" font-family="Arial" font-size="12.00"> 1 </text>
</g>
<!-- py (13)&#45;&#45;xml (8) -->
<g id="edge63" class="edge">
<title>py (13)&#45;&#45;xml (8)</title>
<path fill="none" stroke="#00688b" stroke-opacity="0.298039" d="M430.26,-346.5C454.07,-335.09 488.42,-320.29 520.25,-312.75 622.51,-288.54 651.53,-306.13 756,-294.75 786.54,-291.42 821.28,-286.36 845.49,-282.63"/>
<text text-anchor="middle" x="526.62" y="-315.6" font-family="Arial" font-size="12.00"> 1 </text>
</g>
<!-- scss (5)&#45;&#45;mjs (1) -->
<g id="edge61" class="edge">
<title>scss (5)&#45;&#45;mjs (1)</title>
<path fill="none" stroke="#00688b" stroke-opacity="0.298039" d="M1061.86,-172.04C1063.41,-157.58 1065.59,-137.14 1067.14,-122.68"/>
<text text-anchor="middle" x="1071.41" y="-143.1" font-family="Arial" font-size="12.00"> 1 </text>
</g>
<!-- kt (2) -->
<g id="node15" class="node">
<title>kt (2)</title>
<polygon fill="#00b2ee" stroke="white" points="1202,-208.5 1148,-208.5 1148,-172.5 1202,-172.5 1202,-208.5"/>
<text text-anchor="middle" x="1175" y="-185.82" font-family="Tahoma" font-size="14.00">kt (2)</text>
</g>
<!-- kt (2)&#45;&#45;kts (1) -->
<g id="edge54" class="edge">
<title>kt (2)&#45;&#45;kts (1)</title>
<path fill="none" stroke="#00688b" stroke-opacity="0.298039" d="M1147.92,-177.43C1143.32,-175.63 1138.57,-173.91 1134,-172.5 1096.37,-160.91 1083.11,-170.76 1047.25,-154.5 1029.8,-146.59 1012.61,-133.33 1000.26,-122.56"/>
<text text-anchor="middle" x="1053.62" y="-143.1" font-family="Arial" font-size="12.00"> 1 </text>
</g>
<!-- html (2)&#45;&#45;ipynb (1) -->
<g id="edge48" class="edge">
<title>html (2)&#45;&#45;ipynb (1)</title>
<path fill="none" stroke="#00688b" stroke-opacity="0.298039" d="M154.5,-172.04C166.52,-157.58 183.51,-137.14 195.51,-122.68"/>
<text text-anchor="middle" x="185.57" y="-143.1" font-family="Arial" font-size="12.00"> 1 </text>
</g>
<!-- ts (32) -->
<g id="node19" class="node">
<title>ts (32)</title>
<polygon fill="#00b2ee" stroke="white" points="517.25,-639.75 460.75,-639.75 460.75,-603.75 517.25,-603.75 517.25,-639.75"/>
<text text-anchor="middle" x="489" y="-617.08" font-family="Tahoma" font-size="14.00">ts (32)</text>
</g>
<!-- ts (32)&#45;&#45;rdf (1) -->
<g id="edge50" class="edge">
<title>ts (32)&#45;&#45;rdf (1)</title>
<path fill="none" stroke="#00688b" stroke-opacity="0.298039" d="M517.51,-607.16C520.36,-605.95 523.22,-604.79 526,-603.75 552.47,-593.82 563.29,-601.14 587,-585.75 599.63,-577.55 610.55,-564.44 618.08,-553.81"/>
<text text-anchor="middle" x="609.51" y="-574.35" font-family="Arial" font-size="12.00"> 1 </text>
</g>
<!-- ts (32)&#45;&#45;yaml (28) -->
<g id="edge23" class="edge">
<title>ts (32)&#45;&#45;yaml (28)</title>
<path fill="none" stroke="#00688b" stroke-opacity="0.368627" d="M489,-603.29C489,-588.83 489,-568.39 489,-553.93"/>
<text text-anchor="middle" x="495.38" y="-574.35" font-family="Arial" font-size="12.00"> 3 </text>
</g>
<!-- ts (32)&#45;&#45;js (12) -->
<g id="edge5" class="edge">
<title>ts (32)&#45;&#45;js (12)</title>
<path fill="none" stroke="#00688b" stroke-width="2" stroke-opacity="0.439216" d="M500.58,-603.34C517.52,-579.47 551.5,-537.27 592,-517.5 621.57,-503.06 717.19,-524.15 739,-499.5 768.41,-466.27 742.94,-409.8 726.82,-381.4"/>
<text text-anchor="middle" x="754.06" y="-488.1" font-family="Arial" font-size="12.00"> 5 </text>
</g>
<!-- ts (32)&#45;&#45;tsx (17) -->
<g id="edge1" class="edge">
<title>ts (32)&#45;&#45;tsx (17)</title>
<path fill="none" stroke="#00688b" stroke-width="10" d="M466.5,-603.32C451.94,-590.91 433.68,-573.02 422.5,-553.5 406.74,-525.97 399.76,-489.15 396.87,-467.74"/>
<text text-anchor="middle" x="432.25" y="-531.23" font-family="Arial" font-size="12.00"> 17 </text>
</g>
<!-- ts (32)&#45;&#45;ipynb (1) -->
<g id="edge41" class="edge">
<title>ts (32)&#45;&#45;ipynb (1)</title>
<path fill="none" stroke="#00688b" stroke-opacity="0.298039" d="M460.53,-620.56C377.16,-619.66 134.89,-614.57 62,-585.75 29.27,-572.81 0,-571.69 0,-536.5 0,-536.5 0,-536.5 0,-189.5 0,-115.26 114.46,-104.72 174.38,-104.29"/>
<text text-anchor="middle" x="6.38" y="-358.73" font-family="Arial" font-size="12.00"> 1 </text>
</g>
<!-- ts (32)&#45;&#45;css (6) -->
<g id="edge7" class="edge">
<title>ts (32)&#45;&#45;css (6)</title>
<path fill="none" stroke="#00688b" stroke-width="2" stroke-opacity="0.439216" d="M460.41,-620.85C368.57,-620.43 87,-612.89 87,-536.5 87,-536.5 87,-536.5 87,-405.12 87,-376.96 90.4,-367.75 107,-345 123.44,-322.46 149.68,-304.35 169.94,-292.63"/>
<text text-anchor="middle" x="93.38" y="-444.98" font-family="Arial" font-size="12.00"> 4 </text>
</g>
<!-- ts (32)&#45;&#45;mjs (1) -->
<g id="edge59" class="edge">
<title>ts (32)&#45;&#45;mjs (1)</title>
<path fill="none" stroke="#00688b" stroke-opacity="0.298039" d="M517.69,-606.25C520.45,-605.26 523.25,-604.4 526,-603.75 643.07,-576.1 947.87,-602.43 1067,-585.75 1143.21,-575.08 1233,-613.46 1233,-536.5 1233,-536.5 1233,-536.5 1233,-189.5 1233,-130.12 1146.89,-112.56 1099.46,-107.39"/>
<text text-anchor="middle" x="1239.38" y="-358.73" font-family="Arial" font-size="12.00"> 1 </text>
</g>
<!-- ts (32)&#45;&#45;py (13) -->
<g id="edge40" class="edge">
<title>ts (32)&#45;&#45;py (13)</title>
<path fill="none" stroke="#00688b" stroke-opacity="0.298039" d="M460.39,-617.48C393.7,-608.13 228.4,-574.64 160,-467.25 151.4,-453.75 149.74,-443.52 160,-431.25 174.48,-413.93 238.17,-419.01 260,-413.25 298.49,-403.09 341.51,-387.25 369.58,-376.29"/>
<text text-anchor="middle" x="191.48" y="-488.1" font-family="Arial" font-size="12.00"> 1 </text>
</g>
<!-- ts (32)&#45;&#45;scss (5) -->
<g id="edge20" class="edge">
<title>ts (32)&#45;&#45;scss (5)</title>
<path fill="none" stroke="#00688b" stroke-opacity="0.368627" d="M517.75,-606.45C520.49,-605.42 523.27,-604.49 526,-603.75 597.23,-584.34 1187,-610.32 1187,-536.5 1187,-536.5 1187,-536.5 1187,-405.12 1187,-337.19 1189.16,-308.59 1143,-258.75 1132.44,-247.34 1125.43,-250.09 1113,-240.75 1100.15,-231.09 1086.9,-218.78 1076.86,-208.88"/>
<text text-anchor="middle" x="1193.38" y="-401.85" font-family="Arial" font-size="12.00"> 3 </text>
</g>
<!-- ts (32)&#45;&#45;html (2) -->
<g id="edge24" class="edge">
<title>ts (32)&#45;&#45;html (2)</title>
<path fill="none" stroke="#00688b" stroke-opacity="0.368627" d="M460.35,-620C383.65,-617.69 175.17,-609.37 111,-585.75 75.3,-572.61 41,-574.54 41,-536.5 41,-536.5 41,-536.5 41,-275.75 41,-240.43 78,-216.81 106.76,-203.78"/>
<text text-anchor="middle" x="47.38" y="-401.85" font-family="Arial" font-size="12.00"> 2 </text>
</g>
<!-- ts (32)&#45;&#45;jsx (2) -->
<g id="edge39" class="edge">
<title>ts (32)&#45;&#45;jsx (2)</title>
<path fill="none" stroke="#00688b" stroke-opacity="0.368627" d="M517.41,-606.87C520.28,-605.72 523.17,-604.66 526,-603.75 588.96,-583.59 635.49,-612.15 666,-553.5 673.38,-539.31 671.12,-532.66 666,-517.5 646.7,-460.36 596.7,-407.68 568.71,-381.44"/>
<text text-anchor="middle" x="665.01" y="-488.1" font-family="Arial" font-size="12.00"> 2 </text>
</g>
<!-- sql (3)&#45;&#45;in (2) -->
<g id="edge34" class="edge">
<title>sql (3)&#45;&#45;in (2)</title>
<path fill="none" stroke="#00688b" stroke-opacity="0.368627" d="M759,-172.04C759,-157.58 759,-137.14 759,-122.68"/>
<text text-anchor="middle" x="765.38" y="-143.1" font-family="Arial" font-size="12.00"> 2 </text>
</g>
<!-- cmake (1)&#45;&#45;cpp (1) -->
<g id="edge72" class="edge">
<title>cmake (1)&#45;&#45;cpp (1)</title>
<path fill="none" stroke="#00688b" stroke-opacity="0.298039" d="M528.81,-85.79C538.59,-71.33 552.43,-50.89 562.2,-36.43"/>
<text text-anchor="middle" x="555.29" y="-56.85" font-family="Arial" font-size="12.00"> 1 </text>
</g>
<!-- java (23)&#45;&#45;js (12) -->
<g id="edge8" class="edge">
<title>java (23)&#45;&#45;js (12)</title>
<path fill="none" stroke="#00688b" stroke-width="2" stroke-opacity="0.439216" d="M829.37,-430.79C804.34,-416.04 768.73,-395.07 744.13,-380.57"/>
<text text-anchor="middle" x="802.44" y="-401.85" font-family="Arial" font-size="12.00"> 4 </text>
</g>
<!-- java (23)&#45;&#45;py (13) -->
<g id="edge12" class="edge">
<title>java (23)&#45;&#45;py (13)</title>
<path fill="none" stroke="#00688b" stroke-opacity="0.368627" d="M822.76,-444.19C791.15,-440.67 744.06,-435.5 703,-431.25 621.38,-422.81 595.83,-442.73 519.25,-413.25 509.32,-409.43 509.41,-403.98 500,-399 477.73,-387.21 450.66,-378.01 430.3,-372.01"/>
<text text-anchor="middle" x="525.62" y="-401.85" font-family="Arial" font-size="12.00"> 3 </text>
</g>
<!-- java (23)&#45;&#45;scss (5) -->
<g id="edge38" class="edge">
<title>java (23)&#45;&#45;scss (5)</title>
<path fill="none" stroke="#00688b" stroke-opacity="0.368627" d="M892.91,-430.93C936.33,-406.8 1010.22,-358.72 1046,-294.75 1061.19,-267.59 1062.29,-230.32 1061.37,-208.78"/>
<text text-anchor="middle" x="1040.37" y="-315.6" font-family="Arial" font-size="12.00"> 2 </text>
</g>
<!-- java (23)&#45;&#45;kt (2) -->
<g id="edge73" class="edge">
<title>java (23)&#45;&#45;kt (2)</title>
<path fill="none" stroke="#00688b" stroke-opacity="0.298039" d="M895.23,-448.25C959.83,-447.5 1091.34,-442.33 1125,-413.25 1185.93,-360.62 1181.5,-251.06 1177.19,-208.72"/>
<text text-anchor="middle" x="1180.89" y="-315.6" font-family="Arial" font-size="12.00"> 1 </text>
</g>
<!-- java (23)&#45;&#45;toml (7) -->
<g id="edge49" class="edge">
<title>java (23)&#45;&#45;toml (7)</title>
<path fill="none" stroke="#00688b" stroke-opacity="0.298039" d="M822.97,-438.91C783.32,-427.91 718.29,-407.68 666.25,-381 619.26,-356.91 614.57,-339.42 569,-312.75 556.26,-305.3 541.69,-298.07 528.94,-292.14"/>
<text text-anchor="middle" x="672.62" y="-358.73" font-family="Arial" font-size="12.00"> 1 </text>
</g>
<!-- java (23)&#45;&#45;sql (3) -->
<g id="edge16" class="edge">
<title>java (23)&#45;&#45;sql (3)</title>
<path fill="none" stroke="#00688b" stroke-opacity="0.368627" d="M852.32,-431.13C843.33,-407.79 827.1,-364.56 815.25,-327 801.33,-282.86 809.3,-267.58 788,-226.5 784.8,-220.34 780.38,-214.27 775.95,-208.97"/>
<text text-anchor="middle" x="821.62" y="-315.6" font-family="Arial" font-size="12.00"> 3 </text>
</g>
<!-- java (23)&#45;&#45;in (2) -->
<g id="edge30" class="edge">
<title>java (23)&#45;&#45;in (2)</title>
<path fill="none" stroke="#00688b" stroke-opacity="0.368627" d="M895.2,-445.62C923.72,-442.01 963.31,-433.47 992,-413.25 1088,-345.57 1175.61,-263.21 1101,-172.5 1098.46,-169.41 867.23,-125.63 786.46,-110.41"/>
<text text-anchor="middle" x="1133.8" y="-272.48" font-family="Arial" font-size="12.00"> 2 </text>
</g>
<!-- java (23)&#45;&#45;xml (8) -->
<g id="edge3" class="edge">
<title>java (23)&#45;&#45;xml (8)</title>
<path fill="none" stroke="#00688b" stroke-width="3" stroke-opacity="0.509804" d="M878.94,-430.94C902.14,-409.34 939.17,-369.97 954,-327 956.07,-321.01 957.44,-318.07 954,-312.75 951.12,-308.3 927.12,-297.9 906.49,-289.58"/>
<text text-anchor="middle" x="952.29" y="-358.73" font-family="Arial" font-size="12.00"> 6 </text>
</g>
<!-- xml (8)&#45;&#45;h (1) -->
<g id="edge67" class="edge">
<title>xml (8)&#45;&#45;h (1)</title>
<path fill="none" stroke="#00688b" stroke-opacity="0.298039" d="M845.43,-266.89C811.23,-257 754.17,-240.52 705,-226.5 671.66,-216.99 633.23,-206.17 608.1,-199.11"/>
<text text-anchor="middle" x="758.37" y="-229.35" font-family="Arial" font-size="12.00"> 1 </text>
</g>
<!-- xml (8)&#45;&#45;kts (1) -->
<g id="edge53" class="edge">
<title>xml (8)&#45;&#45;kts (1)</title>
<path fill="none" stroke="#00688b" stroke-opacity="0.298039" d="M905.08,-258.39C911.91,-253.33 918.73,-247.37 924,-240.75 953.33,-203.92 970.46,-150.03 977.78,-122.64"/>
<text text-anchor="middle" x="967.65" y="-186.22" font-family="Arial" font-size="12.00"> 1 </text>
</g>
<!-- xml (8)&#45;&#45;scss (5) -->
<g id="edge58" class="edge">
<title>xml (8)&#45;&#45;scss (5)</title>
<path fill="none" stroke="#00688b" stroke-opacity="0.298039" d="M906.38,-261.84C939.97,-246.46 993.82,-221.8 1028.03,-206.14"/>
<text text-anchor="middle" x="985.39" y="-229.35" font-family="Arial" font-size="12.00"> 1 </text>
</g>
<!-- xml (8)&#45;&#45;kt (2) -->
<g id="edge52" class="edge">
<title>xml (8)&#45;&#45;kt (2)</title>
<path fill="none" stroke="#00688b" stroke-opacity="0.298039" d="M906.58,-263.32C911.05,-261.69 915.62,-260.11 920,-258.75 953.16,-248.47 962.37,-249.36 996,-240.75 1050.02,-226.93 1112.77,-209.29 1147.79,-199.31"/>
<text text-anchor="middle" x="1051.69" y="-229.35" font-family="Arial" font-size="12.00"> 1 </text>
</g>
<!-- xml (8)&#45;&#45;cpp (1) -->
<g id="edge69" class="edge">
<title>xml (8)&#45;&#45;cpp (1)</title>
<path fill="none" stroke="#00688b" stroke-opacity="0.298039" d="M883.87,-258.29C885.97,-252.79 887.95,-246.62 889,-240.75 892.58,-220.81 887.96,-182.7 883,-172.5 859.03,-123.26 842.1,-114.19 795,-86.25 732.91,-49.42 648.88,-31.14 604.45,-23.52"/>
<text text-anchor="middle" x="879.72" y="-143.1" font-family="Arial" font-size="12.00"> 1 </text>
</g>
<!-- xml (8)&#45;&#45;sql (3) -->
<g id="edge18" class="edge">
<title>xml (8)&#45;&#45;sql (3)</title>
<path fill="none" stroke="#00688b" stroke-opacity="0.368627" d="M854.78,-258.4C842.73,-248.74 827.24,-236.65 813,-226.5 804.63,-220.53 795.3,-214.34 786.79,-208.84"/>
<text text-anchor="middle" x="837.04" y="-229.35" font-family="Arial" font-size="12.00"> 3 </text>
</g>
<!-- xml (8)&#45;&#45;in (2) -->
<g id="edge33" class="edge">
<title>xml (8)&#45;&#45;in (2)</title>
<path fill="none" stroke="#00688b" stroke-opacity="0.368627" d="M877.45,-258.51C877.73,-248.89 877.2,-236.8 874,-226.5 859.71,-180.51 815.6,-143.18 786.35,-122.62"/>
<text text-anchor="middle" x="872.93" y="-186.22" font-family="Arial" font-size="12.00"> 2 </text>
</g>
<!-- xml (8)&#45;&#45;cmake (1) -->
<g id="edge68" class="edge">
<title>xml (8)&#45;&#45;cmake (1)</title>
<path fill="none" stroke="#00688b" stroke-opacity="0.298039" d="M867.59,-258.45C862.38,-248.57 855.13,-236.26 847,-226.5 839.19,-217.12 834.81,-217.2 826.25,-208.5 811.59,-193.61 813.85,-183.37 796,-172.5 752.61,-146.09 622.11,-135.22 573,-122.25 567.79,-120.88 562.34,-119.34 556.97,-117.77"/>
<text text-anchor="middle" x="832.62" y="-186.22" font-family="Arial" font-size="12.00"> 1 </text>
</g>
</g>
</svg>
