<svg width="769pt" height="118pt"
 viewBox="0.00 0.00 769.00 118.00" xmlns="http://www.w3.org/2000/svg" xmlns:xlink="http://www.w3.org/1999/xlink">
<g id="graph0" class="graph" transform="scale(1 1) rotate(0) translate(4 114)">
<title>G</title>
<polygon fill="white" stroke="none" points="-4,4 -4,-114 765,-114 765,4 -4,4"/>
<!-- build and dependencies management tools / npm (12) -->
<g id="node1" class="node">
<title>build and dependencies management tools / npm (12)</title>
<polygon fill="grey" stroke="white" points="761,-100 412,-100 412,-64 761,-64 761,-100"/>
<text text-anchor="middle" x="586.5" y="-77.33" font-family="Tahoma" font-size="14.00">build and dependencies management tools / npm (12)</text>
</g>
<!-- build and dependencies management tools / jest (3) -->
<g id="node2" class="node">
<title>build and dependencies management tools / jest (3)</title>
<polygon fill="grey" stroke="white" points="349.75,-110 13.5,-110 13.5,-74 349.75,-74 349.75,-110"/>
<text text-anchor="middle" x="181.62" y="-87.33" font-family="Tahoma" font-size="14.00">build and dependencies management tools / jest (3)</text>
</g>
<!-- build and dependencies management tools / npm (12)&#45;&#45;build and dependencies management tools / jest (3) -->
<g id="edge1" class="edge">
<title>build and dependencies management tools / npm (12)&#45;&#45;build and dependencies management tools / jest (3)</title>
<path fill="none" stroke="#00688b" stroke-width="3" stroke-opacity="0.509804" d="M411.72,-86.31C391.28,-86.82 370.44,-87.34 350.09,-87.84"/>
<text text-anchor="middle" x="387.62" y="-89.85" font-family="Arial" font-size="12.00"> 3 </text>
</g>
<!-- build and dependencies management tools / maven (15) -->
<g id="node4" class="node">
<title>build and dependencies management tools / maven (15)</title>
<polygon fill="grey" stroke="white" points="363.25,-46 0,-46 0,-10 363.25,-10 363.25,-46"/>
<text text-anchor="middle" x="181.62" y="-23.32" font-family="Tahoma" font-size="14.00">build and dependencies management tools / maven (15)</text>
</g>
<!-- build and dependencies management tools / npm (12)&#45;&#45;build and dependencies management tools / maven (15) -->
<g id="edge3" class="edge">
<title>build and dependencies management tools / npm (12)&#45;&#45;build and dependencies management tools / maven (15)</title>
<path fill="none" stroke="#00688b" stroke-width="2" stroke-opacity="0.439216" d="M447.7,-63.53C406.57,-58.02 361.49,-51.98 320.37,-46.46"/>
<text text-anchor="middle" x="387.62" y="-57.85" font-family="Arial" font-size="12.00"> 2 </text>
</g>
<!-- build and dependencies management tools / sbt (16) -->
<g id="node3" class="node">
<title>build and dependencies management tools / sbt (16)</title>
<polygon fill="grey" stroke="white" points="756.5,-36 416.5,-36 416.5,0 756.5,0 756.5,-36"/>
<text text-anchor="middle" x="586.5" y="-13.32" font-family="Tahoma" font-size="14.00">build and dependencies management tools / sbt (16)</text>
</g>
<!-- build and dependencies management tools / sbt (16)&#45;&#45;build and dependencies management tools / maven (15) -->
<g id="edge2" class="edge">
<title>build and dependencies management tools / sbt (16)&#45;&#45;build and dependencies management tools / maven (15)</title>
<path fill="none" stroke="#00688b" stroke-width="2" stroke-opacity="0.439216" d="M416.08,-18.06C404.29,-18.24 392.59,-18.47 381.25,-18.75 375.47,-18.9 369.6,-19.06 363.66,-19.24"/>
<text text-anchor="middle" x="387.62" y="-21.6" font-family="Arial" font-size="12.00"> 2 </text>
</g>
</g>
</svg>
