<svg width="202pt" height="3824pt"
 viewBox="0.00 0.00 201.75 3824.00" xmlns="http://www.w3.org/2000/svg" xmlns:xlink="http://www.w3.org/1999/xlink">
<g id="graph0" class="graph" transform="scale(1 1) rotate(0) translate(4 3820)">
<title>G</title>
<polygon fill="white" stroke="none" points="-4,4 -4,-3820 197.75,-3820 197.75,4 -4,4"/>
<!-- all file extensions / vcxproj -->
<g id="node1" class="node">
<title>all file extensions / vcxproj</title>
<polygon fill="#00b2ee" stroke="white" points="186.25,-36 7.5,-36 7.5,0 186.25,0 186.25,-36"/>
<text text-anchor="middle" x="96.88" y="-13.32" font-family="Tahoma" font-size="14.00">all file extensions / vcxproj</text>
</g>
<!-- all file extensions / xml -->
<g id="node2" class="node">
<title>all file extensions / xml</title>
<polygon fill="#00b2ee" stroke="white" points="175,-90 18.75,-90 18.75,-54 175,-54 175,-90"/>
<text text-anchor="middle" x="96.88" y="-67.33" font-family="Tahoma" font-size="14.00">all file extensions / xml</text>
</g>
<!-- main file extensions / rb -->
<g id="node3" class="node">
<title>main file extensions / rb</title>
<polygon fill="#00b2ee" stroke="white" points="178.75,-144 15,-144 15,-108 178.75,-108 178.75,-144"/>
<text text-anchor="middle" x="96.88" y="-121.33" font-family="Tahoma" font-size="14.00">main file extensions / rb</text>
</g>
<!-- all file extensions / bzl -->
<g id="node4" class="node">
<title>all file extensions / bzl</title>
<polygon fill="#00b2ee" stroke="white" points="172.38,-198 21.38,-198 21.38,-162 172.38,-162 172.38,-198"/>
<text text-anchor="middle" x="96.88" y="-175.32" font-family="Tahoma" font-size="14.00">all file extensions / bzl</text>
</g>
<!-- all file extensions / rake -->
<g id="node5" class="node">
<title>all file extensions / rake</title>
<polygon fill="#00b2ee" stroke="white" points="177.25,-252 16.5,-252 16.5,-216 177.25,-216 177.25,-252"/>
<text text-anchor="middle" x="96.88" y="-229.32" font-family="Tahoma" font-size="14.00">all file extensions / rake</text>
</g>
<!-- all file extensions / py -->
<g id="node6" class="node">
<title>all file extensions / py</title>
<polygon fill="#00b2ee" stroke="white" points="171.25,-306 22.5,-306 22.5,-270 171.25,-270 171.25,-306"/>
<text text-anchor="middle" x="96.88" y="-283.32" font-family="Tahoma" font-size="14.00">all file extensions / py</text>
</g>
<!-- all file extensions / bash -->
<g id="node7" class="node">
<title>all file extensions / bash</title>
<polygon fill="#00b2ee" stroke="white" points="178.38,-360 15.38,-360 15.38,-324 178.38,-324 178.38,-360"/>
<text text-anchor="middle" x="96.88" y="-337.32" font-family="Tahoma" font-size="14.00">all file extensions / bash</text>
</g>
<!-- all file extensions / in -->
<g id="node8" class="node">
<title>all file extensions / in</title>
<polygon fill="#00b2ee" stroke="white" points="169.38,-414 24.38,-414 24.38,-378 169.38,-378 169.38,-414"/>
<text text-anchor="middle" x="96.88" y="-391.32" font-family="Tahoma" font-size="14.00">all file extensions / in</text>
</g>
<!-- all file extensions / css -->
<g id="node9" class="node">
<title>all file extensions / css</title>
<polygon fill="#00b2ee" stroke="white" points="173.5,-468 20.25,-468 20.25,-432 173.5,-432 173.5,-468"/>
<text text-anchor="middle" x="96.88" y="-445.32" font-family="Tahoma" font-size="14.00">all file extensions / css</text>
</g>
<!-- all file extensions / workflow -->
<g id="node10" class="node">
<title>all file extensions / workflow</title>
<polygon fill="#00b2ee" stroke="white" points="191.88,-522 1.88,-522 1.88,-486 191.88,-486 191.88,-522"/>
<text text-anchor="middle" x="96.88" y="-499.32" font-family="Tahoma" font-size="14.00">all file extensions / workflow</text>
</g>
<!-- all file extensions / vue -->
<g id="node11" class="node">
<title>all file extensions / vue</title>
<polygon fill="#00b2ee" stroke="white" points="175,-576 18.75,-576 18.75,-540 175,-540 175,-576"/>
<text text-anchor="middle" x="96.88" y="-553.33" font-family="Tahoma" font-size="14.00">all file extensions / vue</text>
</g>
<!-- all file extensions / sbt -->
<g id="node12" class="node">
<title>all file extensions / sbt</title>
<polygon fill="#00b2ee" stroke="white" points="173.12,-630 20.62,-630 20.62,-594 173.12,-594 173.12,-630"/>
<text text-anchor="middle" x="96.88" y="-607.33" font-family="Tahoma" font-size="14.00">all file extensions / sbt</text>
</g>
<!-- main file extensions / mo -->
<g id="node13" class="node">
<title>main file extensions / mo</title>
<polygon fill="#00b2ee" stroke="white" points="182.12,-684 11.62,-684 11.62,-648 182.12,-648 182.12,-684"/>
<text text-anchor="middle" x="96.88" y="-661.33" font-family="Tahoma" font-size="14.00">main file extensions / mo</text>
</g>
<!-- all file extensions / mo -->
<g id="node14" class="node">
<title>all file extensions / mo</title>
<polygon fill="#00b2ee" stroke="white" points="173.88,-738 19.88,-738 19.88,-702 173.88,-702 173.88,-738"/>
<text text-anchor="middle" x="96.88" y="-715.33" font-family="Tahoma" font-size="14.00">all file extensions / mo</text>
</g>
<!-- all file extensions / bib -->
<g id="node15" class="node">
<title>all file extensions / bib</title>
<polygon fill="#00b2ee" stroke="white" points="173.12,-792 20.62,-792 20.62,-756 173.12,-756 173.12,-792"/>
<text text-anchor="middle" x="96.88" y="-769.33" font-family="Tahoma" font-size="14.00">all file extensions / bib</text>
</g>
<!-- all file extensions / toml -->
<g id="node16" class="node">
<title>all file extensions / toml</title>
<polygon fill="#00b2ee" stroke="white" points="177.62,-846 16.12,-846 16.12,-810 177.62,-810 177.62,-846"/>
<text text-anchor="middle" x="96.88" y="-823.33" font-family="Tahoma" font-size="14.00">all file extensions / toml</text>
</g>
<!-- main file extensions / bib -->
<g id="node17" class="node">
<title>main file extensions / bib</title>
<polygon fill="#00b2ee" stroke="white" points="181.38,-900 12.38,-900 12.38,-864 181.38,-864 181.38,-900"/>
<text text-anchor="middle" x="96.88" y="-877.33" font-family="Tahoma" font-size="14.00">main file extensions / bib</text>
</g>
<!-- all file extensions / lua -->
<g id="node18" class="node">
<title>all file extensions / lua</title>
<polygon fill="#00b2ee" stroke="white" points="173.12,-954 20.62,-954 20.62,-918 173.12,-918 173.12,-954"/>
<text text-anchor="middle" x="96.88" y="-931.33" font-family="Tahoma" font-size="14.00">all file extensions / lua</text>
</g>
<!-- all file extensions / php -->
<g id="node19" class="node">
<title>all file extensions / php</title>
<polygon fill="#00b2ee" stroke="white" points="175.38,-1008 18.38,-1008 18.38,-972 175.38,-972 175.38,-1008"/>
<text text-anchor="middle" x="96.88" y="-985.33" font-family="Tahoma" font-size="14.00">all file extensions / php</text>
</g>
<!-- main file extensions / coffee -->
<g id="node20" class="node">
<title>main file extensions / coffee</title>
<polygon fill="#00b2ee" stroke="white" points="191.5,-1062 2.25,-1062 2.25,-1026 191.5,-1026 191.5,-1062"/>
<text text-anchor="middle" x="96.88" y="-1039.33" font-family="Tahoma" font-size="14.00">main file extensions / coffee</text>
</g>
<!-- all file extensions / html -->
<g id="node21" class="node">
<title>all file extensions / html</title>
<polygon fill="#00b2ee" stroke="white" points="177.62,-1116 16.12,-1116 16.12,-1080 177.62,-1080 177.62,-1116"/>
<text text-anchor="middle" x="96.88" y="-1093.33" font-family="Tahoma" font-size="14.00">all file extensions / html</text>
</g>
<!-- all file extensions / scss -->
<g id="node22" class="node">
<title>all file extensions / scss</title>
<polygon fill="#00b2ee" stroke="white" points="176.5,-1170 17.25,-1170 17.25,-1134 176.5,-1134 176.5,-1170"/>
<text text-anchor="middle" x="96.88" y="-1147.33" font-family="Tahoma" font-size="14.00">all file extensions / scss</text>
</g>
<!-- all file extensions / hpp -->
<g id="node23" class="node">
<title>all file extensions / hpp</title>
<polygon fill="#00b2ee" stroke="white" points="175.38,-1224 18.38,-1224 18.38,-1188 175.38,-1188 175.38,-1224"/>
<text text-anchor="middle" x="96.88" y="-1201.33" font-family="Tahoma" font-size="14.00">all file extensions / hpp</text>
</g>
<!-- all file extensions / proto -->
<g id="node24" class="node">
<title>all file extensions / proto</title>
<polygon fill="#00b2ee" stroke="white" points="180.25,-1278 13.5,-1278 13.5,-1242 180.25,-1242 180.25,-1278"/>
<text text-anchor="middle" x="96.88" y="-1255.33" font-family="Tahoma" font-size="14.00">all file extensions / proto</text>
</g>
<!-- all file extensions / ejs -->
<g id="node25" class="node">
<title>all file extensions / ejs</title>
<polygon fill="#00b2ee" stroke="white" points="172.75,-1332 21,-1332 21,-1296 172.75,-1296 172.75,-1332"/>
<text text-anchor="middle" x="96.88" y="-1309.33" font-family="Tahoma" font-size="14.00">all file extensions / ejs</text>
</g>
<!-- all file extensions / kt -->
<g id="node26" class="node">
<title>all file extensions / kt</title>
<polygon fill="#00b2ee" stroke="white" points="169.75,-1386 24,-1386 24,-1350 169.75,-1350 169.75,-1386"/>
<text text-anchor="middle" x="96.88" y="-1363.33" font-family="Tahoma" font-size="14.00">all file extensions / kt</text>
</g>
<!-- all file extensions / go -->
<g id="node27" class="node">
<title>all file extensions / go</title>
<polygon fill="#00b2ee" stroke="white" points="171.62,-1440 22.12,-1440 22.12,-1404 171.62,-1404 171.62,-1440"/>
<text text-anchor="middle" x="96.88" y="-1417.33" font-family="Tahoma" font-size="14.00">all file extensions / go</text>
</g>
<!-- all file extensions / scala -->
<g id="node28" class="node">
<title>all file extensions / scala</title>
<polygon fill="#00b2ee" stroke="white" points="179.5,-1494 14.25,-1494 14.25,-1458 179.5,-1458 179.5,-1494"/>
<text text-anchor="middle" x="96.88" y="-1471.33" font-family="Tahoma" font-size="14.00">all file extensions / scala</text>
</g>
<!-- main file extensions / scala -->
<g id="node29" class="node">
<title>main file extensions / scala</title>
<polygon fill="#00b2ee" stroke="white" points="187.75,-1548 6,-1548 6,-1512 187.75,-1512 187.75,-1548"/>
<text text-anchor="middle" x="96.88" y="-1525.33" font-family="Tahoma" font-size="14.00">main file extensions / scala</text>
</g>
<!-- main file extensions / m -->
<g id="node30" class="node">
<title>main file extensions / m</title>
<polygon fill="#00b2ee" stroke="white" points="178.38,-1602 15.38,-1602 15.38,-1566 178.38,-1566 178.38,-1602"/>
<text text-anchor="middle" x="96.88" y="-1579.33" font-family="Tahoma" font-size="14.00">main file extensions / m</text>
</g>
<!-- all file extensions / cfg -->
<g id="node31" class="node">
<title>all file extensions / cfg</title>
<polygon fill="#00b2ee" stroke="white" points="173.5,-1656 20.25,-1656 20.25,-1620 173.5,-1620 173.5,-1656"/>
<text text-anchor="middle" x="96.88" y="-1633.33" font-family="Tahoma" font-size="14.00">all file extensions / cfg</text>
</g>
<!-- all file extensions / ts -->
<g id="node32" class="node">
<title>all file extensions / ts</title>
<polygon fill="#00b2ee" stroke="white" points="169.38,-1710 24.38,-1710 24.38,-1674 169.38,-1674 169.38,-1710"/>
<text text-anchor="middle" x="96.88" y="-1687.33" font-family="Tahoma" font-size="14.00">all file extensions / ts</text>
</g>
<!-- main file extensions / c -->
<g id="node33" class="node">
<title>main file extensions / c</title>
<polygon fill="#00b2ee" stroke="white" points="175.75,-1764 18,-1764 18,-1728 175.75,-1728 175.75,-1764"/>
<text text-anchor="middle" x="96.88" y="-1741.33" font-family="Tahoma" font-size="14.00">main file extensions / c</text>
</g>
<!-- all file extensions / spec -->
<g id="node34" class="node">
<title>all file extensions / spec</title>
<polygon fill="#00b2ee" stroke="white" points="178,-1818 15.75,-1818 15.75,-1782 178,-1782 178,-1818"/>
<text text-anchor="middle" x="96.88" y="-1795.33" font-family="Tahoma" font-size="14.00">all file extensions / spec</text>
</g>
<!-- all file extensions / inc -->
<g id="node35" class="node">
<title>all file extensions / inc</title>
<polygon fill="#00b2ee" stroke="white" points="172.75,-1872 21,-1872 21,-1836 172.75,-1836 172.75,-1872"/>
<text text-anchor="middle" x="96.88" y="-1849.33" font-family="Tahoma" font-size="14.00">all file extensions / inc</text>
</g>
<!-- main file extensions / py -->
<g id="node36" class="node">
<title>main file extensions / py</title>
<polygon fill="#00b2ee" stroke="white" points="179.5,-1926 14.25,-1926 14.25,-1890 179.5,-1890 179.5,-1926"/>
<text text-anchor="middle" x="96.88" y="-1903.33" font-family="Tahoma" font-size="14.00">main file extensions / py</text>
</g>
<!-- main file extensions / cpp -->
<g id="node37" class="node">
<title>main file extensions / cpp</title>
<polygon fill="#00b2ee" stroke="white" points="183.25,-1980 10.5,-1980 10.5,-1944 183.25,-1944 183.25,-1980"/>
<text text-anchor="middle" x="96.88" y="-1957.33" font-family="Tahoma" font-size="14.00">main file extensions / cpp</text>
</g>
<!-- all file extensions / c -->
<g id="node38" class="node">
<title>all file extensions / c</title>
<polygon fill="#00b2ee" stroke="white" points="167.5,-2034 26.25,-2034 26.25,-1998 167.5,-1998 167.5,-2034"/>
<text text-anchor="middle" x="96.88" y="-2011.33" font-family="Tahoma" font-size="14.00">all file extensions / c</text>
</g>
<!-- main file extensions / yaml -->
<g id="node39" class="node">
<title>main file extensions / yaml</title>
<polygon fill="#00b2ee" stroke="white" points="187,-2088 6.75,-2088 6.75,-2052 187,-2052 187,-2088"/>
<text text-anchor="middle" x="96.88" y="-2065.32" font-family="Tahoma" font-size="14.00">main file extensions / yaml</text>
</g>
<!-- all file extensions / erb -->
<g id="node40" class="node">
<title>all file extensions / erb</title>
<polygon fill="#00b2ee" stroke="white" points="174.25,-2142 19.5,-2142 19.5,-2106 174.25,-2106 174.25,-2142"/>
<text text-anchor="middle" x="96.88" y="-2119.32" font-family="Tahoma" font-size="14.00">all file extensions / erb</text>
</g>
<!-- main file extensions / ts -->
<g id="node41" class="node">
<title>main file extensions / ts</title>
<polygon fill="#00b2ee" stroke="white" points="177.62,-2196 16.12,-2196 16.12,-2160 177.62,-2160 177.62,-2196"/>
<text text-anchor="middle" x="96.88" y="-2173.32" font-family="Tahoma" font-size="14.00">main file extensions / ts</text>
</g>
<!-- all file extensions / js -->
<g id="node42" class="node">
<title>all file extensions / js</title>
<polygon fill="#00b2ee" stroke="white" points="169,-2250 24.75,-2250 24.75,-2214 169,-2214 169,-2250"/>
<text text-anchor="middle" x="96.88" y="-2227.32" font-family="Tahoma" font-size="14.00">all file extensions / js</text>
</g>
<!-- all file extensions / sql -->
<g id="node43" class="node">
<title>all file extensions / sql</title>
<polygon fill="#00b2ee" stroke="white" points="172.38,-2304 21.38,-2304 21.38,-2268 172.38,-2268 172.38,-2304"/>
<text text-anchor="middle" x="96.88" y="-2281.32" font-family="Tahoma" font-size="14.00">all file extensions / sql</text>
</g>
<!-- all file extensions / mustache -->
<g id="node44" class="node">
<title>all file extensions / mustache</title>
<polygon fill="#00b2ee" stroke="white" points="193.75,-2358 0,-2358 0,-2322 193.75,-2322 193.75,-2358"/>
<text text-anchor="middle" x="96.88" y="-2335.32" font-family="Tahoma" font-size="14.00">all file extensions / mustache</text>
</g>
<!-- main file extensions / textile -->
<g id="node45" class="node">
<title>main file extensions / textile</title>
<polygon fill="#00b2ee" stroke="white" points="190.75,-2412 3,-2412 3,-2376 190.75,-2376 190.75,-2412"/>
<text text-anchor="middle" x="96.88" y="-2389.32" font-family="Tahoma" font-size="14.00">main file extensions / textile</text>
</g>
<!-- all file extensions / yaml -->
<g id="node46" class="node">
<title>all file extensions / yaml</title>
<polygon fill="#00b2ee" stroke="white" points="178.75,-2466 15,-2466 15,-2430 178.75,-2430 178.75,-2466"/>
<text text-anchor="middle" x="96.88" y="-2443.32" font-family="Tahoma" font-size="14.00">all file extensions / yaml</text>
</g>
<!-- all file extensions / m -->
<g id="node47" class="node">
<title>all file extensions / m</title>
<polygon fill="#00b2ee" stroke="white" points="170.12,-2520 23.62,-2520 23.62,-2484 170.12,-2484 170.12,-2520"/>
<text text-anchor="middle" x="96.88" y="-2497.32" font-family="Tahoma" font-size="14.00">all file extensions / m</text>
</g>
<!-- all file extensions / graphql -->
<g id="node48" class="node">
<title>all file extensions / graphql</title>
<polygon fill="#00b2ee" stroke="white" points="186.62,-2574 7.12,-2574 7.12,-2538 186.62,-2538 186.62,-2574"/>
<text text-anchor="middle" x="96.88" y="-2551.32" font-family="Tahoma" font-size="14.00">all file extensions / graphql</text>
</g>
<!-- all file extensions / ipynb -->
<g id="node49" class="node">
<title>all file extensions / ipynb</title>
<polygon fill="#00b2ee" stroke="white" points="180.25,-2628 13.5,-2628 13.5,-2592 180.25,-2592 180.25,-2628"/>
<text text-anchor="middle" x="96.88" y="-2605.32" font-family="Tahoma" font-size="14.00">all file extensions / ipynb</text>
</g>
<!-- all file extensions / swift -->
<g id="node50" class="node">
<title>all file extensions / swift</title>
<polygon fill="#00b2ee" stroke="white" points="178.38,-2682 15.38,-2682 15.38,-2646 178.38,-2646 178.38,-2682"/>
<text text-anchor="middle" x="96.88" y="-2659.32" font-family="Tahoma" font-size="14.00">all file extensions / swift</text>
</g>
<!-- main file extensions / go -->
<g id="node51" class="node">
<title>main file extensions / go</title>
<polygon fill="#00b2ee" stroke="white" points="179.88,-2736 13.88,-2736 13.88,-2700 179.88,-2700 179.88,-2736"/>
<text text-anchor="middle" x="96.88" y="-2713.32" font-family="Tahoma" font-size="14.00">main file extensions / go</text>
</g>
<!-- all file extensions / h -->
<g id="node52" class="node">
<title>all file extensions / h</title>
<polygon fill="#00b2ee" stroke="white" points="167.88,-2790 25.88,-2790 25.88,-2754 167.88,-2754 167.88,-2790"/>
<text text-anchor="middle" x="96.88" y="-2767.32" font-family="Tahoma" font-size="14.00">all file extensions / h</text>
</g>
<!-- main file extensions / kt -->
<g id="node53" class="node">
<title>main file extensions / kt</title>
<polygon fill="#00b2ee" stroke="white" points="178,-2844 15.75,-2844 15.75,-2808 178,-2808 178,-2844"/>
<text text-anchor="middle" x="96.88" y="-2821.32" font-family="Tahoma" font-size="14.00">main file extensions / kt</text>
</g>
<!-- all file extensions / java -->
<g id="node54" class="node">
<title>all file extensions / java</title>
<polygon fill="#00b2ee" stroke="white" points="176.88,-2898 16.88,-2898 16.88,-2862 176.88,-2862 176.88,-2898"/>
<text text-anchor="middle" x="96.88" y="-2875.32" font-family="Tahoma" font-size="14.00">all file extensions / java</text>
</g>
<!-- main file extensions / css -->
<g id="node55" class="node">
<title>main file extensions / css</title>
<polygon fill="#00b2ee" stroke="white" points="181.75,-2952 12,-2952 12,-2916 181.75,-2916 181.75,-2952"/>
<text text-anchor="middle" x="96.88" y="-2929.32" font-family="Tahoma" font-size="14.00">main file extensions / css</text>
</g>
<!-- all file extensions / thrift -->
<g id="node56" class="node">
<title>all file extensions / thrift</title>
<polygon fill="#00b2ee" stroke="white" points="178.75,-3006 15,-3006 15,-2970 178.75,-2970 178.75,-3006"/>
<text text-anchor="middle" x="96.88" y="-2983.32" font-family="Tahoma" font-size="14.00">all file extensions / thrift</text>
</g>
<!-- main file extensions / vue -->
<g id="node57" class="node">
<title>main file extensions / vue</title>
<polygon fill="#00b2ee" stroke="white" points="183.25,-3060 10.5,-3060 10.5,-3024 183.25,-3024 183.25,-3060"/>
<text text-anchor="middle" x="96.88" y="-3037.32" font-family="Tahoma" font-size="14.00">main file extensions / vue</text>
</g>
<!-- all file extensions / rb -->
<g id="node58" class="node">
<title>all file extensions / rb</title>
<polygon fill="#00b2ee" stroke="white" points="170.5,-3114 23.25,-3114 23.25,-3078 170.5,-3078 170.5,-3114"/>
<text text-anchor="middle" x="96.88" y="-3091.32" font-family="Tahoma" font-size="14.00">all file extensions / rb</text>
</g>
<!-- all file extensions / coffee -->
<g id="node59" class="node">
<title>all file extensions / coffee</title>
<polygon fill="#00b2ee" stroke="white" points="183.25,-3168 10.5,-3168 10.5,-3132 183.25,-3132 183.25,-3168"/>
<text text-anchor="middle" x="96.88" y="-3145.32" font-family="Tahoma" font-size="14.00">all file extensions / coffee</text>
</g>
<!-- all file extensions / textile -->
<g id="node60" class="node">
<title>all file extensions / textile</title>
<polygon fill="#00b2ee" stroke="white" points="182.5,-3222 11.25,-3222 11.25,-3186 182.5,-3186 182.5,-3222"/>
<text text-anchor="middle" x="96.88" y="-3199.32" font-family="Tahoma" font-size="14.00">all file extensions / textile</text>
</g>
<!-- main file extensions / scss -->
<g id="node61" class="node">
<title>main file extensions / scss</title>
<polygon fill="#00b2ee" stroke="white" points="184.75,-3276 9,-3276 9,-3240 184.75,-3240 184.75,-3276"/>
<text text-anchor="middle" x="96.88" y="-3253.32" font-family="Tahoma" font-size="14.00">main file extensions / scss</text>
</g>
<!-- main file extensions / swift -->
<g id="node62" class="node">
<title>main file extensions / swift</title>
<polygon fill="#00b2ee" stroke="white" points="186.62,-3330 7.12,-3330 7.12,-3294 186.62,-3294 186.62,-3330"/>
<text text-anchor="middle" x="96.88" y="-3307.32" font-family="Tahoma" font-size="14.00">main file extensions / swift</text>
</g>
<!-- all file extensions / pat -->
<g id="node63" class="node">
<title>all file extensions / pat</title>
<polygon fill="#00b2ee" stroke="white" points="173.88,-3384 19.88,-3384 19.88,-3348 173.88,-3348 173.88,-3384"/>
<text text-anchor="middle" x="96.88" y="-3361.32" font-family="Tahoma" font-size="14.00">all file extensions / pat</text>
</g>
<!-- all file extensions / cpp -->
<g id="node64" class="node">
<title>all file extensions / cpp</title>
<polygon fill="#00b2ee" stroke="white" points="175,-3438 18.75,-3438 18.75,-3402 175,-3402 175,-3438"/>
<text text-anchor="middle" x="96.88" y="-3415.32" font-family="Tahoma" font-size="14.00">all file extensions / cpp</text>
</g>
<!-- main file extensions / html -->
<g id="node65" class="node">
<title>main file extensions / html</title>
<polygon fill="#00b2ee" stroke="white" points="185.88,-3492 7.88,-3492 7.88,-3456 185.88,-3456 185.88,-3492"/>
<text text-anchor="middle" x="96.88" y="-3469.32" font-family="Tahoma" font-size="14.00">main file extensions / html</text>
</g>
<!-- all file extensions / rs -->
<g id="node66" class="node">
<title>all file extensions / rs</title>
<polygon fill="#00b2ee" stroke="white" points="169.75,-3546 24,-3546 24,-3510 169.75,-3510 169.75,-3546"/>
<text text-anchor="middle" x="96.88" y="-3523.32" font-family="Tahoma" font-size="14.00">all file extensions / rs</text>
</g>
<!-- main file extensions / rs -->
<g id="node67" class="node">
<title>main file extensions / rs</title>
<polygon fill="#00b2ee" stroke="white" points="178,-3600 15.75,-3600 15.75,-3564 178,-3564 178,-3600"/>
<text text-anchor="middle" x="96.88" y="-3577.32" font-family="Tahoma" font-size="14.00">main file extensions / rs</text>
</g>
<!-- all file extensions / gemspec -->
<g id="node68" class="node">
<title>all file extensions / gemspec</title>
<polygon fill="#00b2ee" stroke="white" points="191.5,-3654 2.25,-3654 2.25,-3618 191.5,-3618 191.5,-3654"/>
<text text-anchor="middle" x="96.88" y="-3631.32" font-family="Tahoma" font-size="14.00">all file extensions / gemspec</text>
</g>
<!-- main file extensions / java -->
<g id="node69" class="node">
<title>main file extensions / java</title>
<polygon fill="#00b2ee" stroke="white" points="185.12,-3708 8.62,-3708 8.62,-3672 185.12,-3672 185.12,-3708"/>
<text text-anchor="middle" x="96.88" y="-3685.32" font-family="Tahoma" font-size="14.00">main file extensions / java</text>
</g>
<!-- all file extensions / cmake -->
<g id="node70" class="node">
<title>all file extensions / cmake</title>
<polygon fill="#00b2ee" stroke="white" points="184.38,-3762 9.38,-3762 9.38,-3726 184.38,-3726 184.38,-3762"/>
<text text-anchor="middle" x="96.88" y="-3739.32" font-family="Tahoma" font-size="14.00">all file extensions / cmake</text>
</g>
<!-- main file extensions / js -->
<g id="node71" class="node">
<title>main file extensions / js</title>
<polygon fill="#00b2ee" stroke="white" points="177.25,-3816 16.5,-3816 16.5,-3780 177.25,-3780 177.25,-3816"/>
<text text-anchor="middle" x="96.88" y="-3793.32" font-family="Tahoma" font-size="14.00">main file extensions / js</text>
</g>
</g>
</svg>
