<svg width="1283pt" height="648pt"
 viewBox="0.00 0.00 1282.88 647.75" xmlns="http://www.w3.org/2000/svg" xmlns:xlink="http://www.w3.org/1999/xlink">
<g id="graph0" class="graph" transform="scale(1 1) rotate(0) translate(4 643.75)">
<title>G</title>
<polygon fill="white" stroke="none" points="-4,4 -4,-643.75 1278.88,-643.75 1278.88,4 -4,4"/>
<!-- 74026070+twitterbirdwatch@users.noreply.github.com -->
<g id="node1" class="node">
<title>74026070+twitterbirdwatch@users.noreply.github.com</title>
<polygon fill="#00b2ee" stroke="white" points="352.75,-639.75 0,-639.75 0,-603.75 352.75,-603.75 352.75,-639.75"/>
<text text-anchor="middle" x="176.38" y="-617.08" font-family="Tahoma" font-size="14.00">74026070+twitterbirdwatch@users.noreply.github.com</text>
</g>
<!-- brad.miller.87@gmail.com -->
<g id="node2" class="node">
<title>brad.miller.87@gmail.com</title>
<polygon fill="#00b2ee" stroke="white" points="343.88,-553.5 168.88,-553.5 168.88,-517.5 343.88,-517.5 343.88,-553.5"/>
<text text-anchor="middle" x="256.38" y="-530.83" font-family="Tahoma" font-size="14.00">brad.miller.87@gmail.com</text>
</g>
<!-- 74026070+twitterbirdwatch@users.noreply.github.com&#45;&#45;brad.miller.87@gmail.com -->
<g id="edge1" class="edge">
<title>74026070+twitterbirdwatch@users.noreply.github.com&#45;&#45;brad.miller.87@gmail.com</title>
<path fill="none" stroke="#00688b" stroke-opacity="0.368627" d="M192.95,-603.29C206.68,-588.83 226.1,-568.39 239.82,-553.93"/>
<text text-anchor="middle" x="227.54" y="-574.35" font-family="Arial" font-size="12.00"> 1 </text>
</g>
<!-- bradm@twitter.com -->
<g id="node3" class="node">
<title>bradm@twitter.com</title>
<polygon fill="#00b2ee" stroke="white" points="324.38,-467.25 188.38,-467.25 188.38,-431.25 324.38,-431.25 324.38,-467.25"/>
<text text-anchor="middle" x="256.38" y="-444.57" font-family="Tahoma" font-size="14.00">bradm@twitter.com</text>
</g>
<!-- 74026070+twitterbirdwatch@users.noreply.github.com&#45;&#45;bradm@twitter.com -->
<g id="edge2" class="edge">
<title>74026070+twitterbirdwatch@users.noreply.github.com&#45;&#45;bradm@twitter.com</title>
<path fill="none" stroke="#00688b" stroke-opacity="0.368627" d="M163.56,-603.37C149.55,-582.05 131.04,-545.33 146.62,-517.5 159.56,-494.4 184.04,-478.27 206.6,-467.62"/>
<text text-anchor="middle" x="153" y="-531.23" font-family="Arial" font-size="12.00"> 1 </text>
</g>
<!-- jiansongc@x.com -->
<g id="node4" class="node">
<title>jiansongc@x.com</title>
<polygon fill="#00b2ee" stroke="white" points="393,-381 269.75,-381 269.75,-345 393,-345 393,-381"/>
<text text-anchor="middle" x="331.38" y="-358.32" font-family="Tahoma" font-size="14.00">jiansongc@x.com</text>
</g>
<!-- 74026070+twitterbirdwatch@users.noreply.github.com&#45;&#45;jiansongc@x.com -->
<g id="edge3" class="edge">
<title>74026070+twitterbirdwatch@users.noreply.github.com&#45;&#45;jiansongc@x.com</title>
<path fill="none" stroke="#00688b" stroke-opacity="0.368627" d="M278.18,-603.37C306.57,-593.47 334.5,-577.92 352.38,-553.5 392.94,-498.09 377.09,-463.81 354.38,-399 352.21,-392.82 348.73,-386.67 345.12,-381.27"/>
<text text-anchor="middle" x="383.75" y="-488.1" font-family="Arial" font-size="12.00"> 1 </text>
</g>
<!-- 9256836+keithcoleman@users.noreply.github.com -->
<g id="node5" class="node">
<title>9256836+keithcoleman@users.noreply.github.com</title>
<polygon fill="#00b2ee" stroke="white" points="359.62,-294.75 33.12,-294.75 33.12,-258.75 359.62,-258.75 359.62,-294.75"/>
<text text-anchor="middle" x="196.38" y="-272.07" font-family="Tahoma" font-size="14.00">9256836+keithcoleman@users.noreply.github.com</text>
</g>
<!-- 74026070+twitterbirdwatch@users.noreply.github.com&#45;&#45;9256836+keithcoleman@users.noreply.github.com -->
<g id="edge4" class="edge">
<title>74026070+twitterbirdwatch@users.noreply.github.com&#45;&#45;9256836+keithcoleman@users.noreply.github.com</title>
<path fill="none" stroke="#00688b" stroke-opacity="0.368627" d="M141.72,-603.26C118.59,-588.86 92.38,-566.04 92.38,-536.5 92.38,-536.5 92.38,-536.5 92.38,-362 92.38,-330.51 121.51,-308.76 148.94,-295.25"/>
<text text-anchor="middle" x="98.75" y="-444.98" font-family="Arial" font-size="12.00"> 1 </text>
</g>
<!-- brad.miller.87@gmail.com&#45;&#45;bradm@twitter.com -->
<g id="edge5" class="edge">
<title>brad.miller.87@gmail.com&#45;&#45;bradm@twitter.com</title>
<path fill="none" stroke="#00688b" stroke-opacity="0.368627" d="M256.38,-517.04C256.38,-502.58 256.38,-482.14 256.38,-467.68"/>
<text text-anchor="middle" x="262.75" y="-488.1" font-family="Arial" font-size="12.00"> 1 </text>
</g>
<!-- brad.miller.87@gmail.com&#45;&#45;jiansongc@x.com -->
<g id="edge6" class="edge">
<title>brad.miller.87@gmail.com&#45;&#45;jiansongc@x.com</title>
<path fill="none" stroke="#00688b" stroke-opacity="0.368627" d="M286.64,-517.2C303.82,-505.53 323.76,-488.42 333.38,-467.25 346.06,-439.34 340.9,-402.65 336.08,-381.36"/>
<text text-anchor="middle" x="347.49" y="-444.98" font-family="Arial" font-size="12.00"> 1 </text>
</g>
<!-- brad.miller.87@gmail.com&#45;&#45;9256836+keithcoleman@users.noreply.github.com -->
<g id="edge7" class="edge">
<title>brad.miller.87@gmail.com&#45;&#45;9256836+keithcoleman@users.noreply.github.com</title>
<path fill="none" stroke="#00688b" stroke-opacity="0.368627" d="M226.11,-517.2C208.93,-505.53 188.99,-488.42 179.38,-467.25 152.8,-408.76 176.42,-329.76 189.3,-295.18"/>
<text text-anchor="middle" x="173.78" y="-401.85" font-family="Arial" font-size="12.00"> 1 </text>
</g>
<!-- bradm@twitter.com&#45;&#45;jiansongc@x.com -->
<g id="edge8" class="edge">
<title>bradm@twitter.com&#45;&#45;jiansongc@x.com</title>
<path fill="none" stroke="#00688b" stroke-opacity="0.368627" d="M271.92,-430.79C284.79,-416.33 302.99,-395.89 315.85,-381.43"/>
<text text-anchor="middle" x="304.74" y="-401.85" font-family="Arial" font-size="12.00"> 1 </text>
</g>
<!-- bradm@twitter.com&#45;&#45;9256836+keithcoleman@users.noreply.github.com -->
<g id="edge9" class="edge">
<title>bradm@twitter.com&#45;&#45;9256836+keithcoleman@users.noreply.github.com</title>
<path fill="none" stroke="#00688b" stroke-opacity="0.368627" d="M250.29,-430.96C238.79,-398.28 213.99,-327.8 202.47,-295.08"/>
<text text-anchor="middle" x="238.71" y="-358.73" font-family="Arial" font-size="12.00"> 1 </text>
</g>
<!-- jiansongc@x.com&#45;&#45;9256836+keithcoleman@users.noreply.github.com -->
<g id="edge10" class="edge">
<title>jiansongc@x.com&#45;&#45;9256836+keithcoleman@users.noreply.github.com</title>
<path fill="none" stroke="#00688b" stroke-opacity="0.368627" d="M303.4,-344.54C280.23,-330.08 247.47,-309.64 224.31,-295.18"/>
<text text-anchor="middle" x="278.33" y="-315.6" font-family="Arial" font-size="12.00"> 1 </text>
</g>
<!-- jillianc@twitter.com -->
<g id="node6" class="node">
<title>jillianc@twitter.com</title>
<polygon fill="#00b2ee" stroke="white" points="888.62,-639.75 754.12,-639.75 754.12,-603.75 888.62,-603.75 888.62,-639.75"/>
<text text-anchor="middle" x="821.38" y="-617.08" font-family="Tahoma" font-size="14.00">jillianc@twitter.com</text>
</g>
<!-- ci+autoflagger@twitter.com -->
<g id="node7" class="node">
<title>ci+autoflagger@twitter.com</title>
<polygon fill="#00b2ee" stroke="white" points="998.88,-553.5 811.88,-553.5 811.88,-517.5 998.88,-517.5 998.88,-553.5"/>
<text text-anchor="middle" x="905.38" y="-530.83" font-family="Tahoma" font-size="14.00">ci+autoflagger@twitter.com</text>
</g>
<!-- jillianc@twitter.com&#45;&#45;ci+autoflagger@twitter.com -->
<g id="edge11" class="edge">
<title>jillianc@twitter.com&#45;&#45;ci+autoflagger@twitter.com</title>
<path fill="none" stroke="#00688b" stroke-opacity="0.368627" d="M838.78,-603.29C853.2,-588.83 873.58,-568.39 887.99,-553.93"/>
<text text-anchor="middle" x="874.78" y="-574.35" font-family="Arial" font-size="12.00"> 1 </text>
</g>
<!-- mbezoyan@twitter.com -->
<g id="node8" class="node">
<title>mbezoyan@twitter.com</title>
<polygon fill="#00b2ee" stroke="white" points="861,-467.25 701.75,-467.25 701.75,-431.25 861,-431.25 861,-467.25"/>
<text text-anchor="middle" x="781.38" y="-444.57" font-family="Tahoma" font-size="14.00">mbezoyan@twitter.com</text>
</g>
<!-- jillianc@twitter.com&#45;&#45;mbezoyan@twitter.com -->
<g id="edge12" class="edge">
<title>jillianc@twitter.com&#45;&#45;mbezoyan@twitter.com</title>
<path fill="none" stroke="#00688b" stroke-opacity="0.368627" d="M811.06,-603.44C803.73,-590.23 794.38,-571.34 789.62,-553.5 781.8,-524.13 780.71,-488.54 780.87,-467.74"/>
<text text-anchor="middle" x="796" y="-531.23" font-family="Arial" font-size="12.00"> 1 </text>
</g>
<!-- aivanov@twitter.com -->
<g id="node9" class="node">
<title>aivanov@twitter.com</title>
<polygon fill="#00b2ee" stroke="white" points="654.12,-381 510.62,-381 510.62,-345 654.12,-345 654.12,-381"/>
<text text-anchor="middle" x="582.38" y="-358.32" font-family="Tahoma" font-size="14.00">aivanov@twitter.com</text>
</g>
<!-- jillianc@twitter.com&#45;&#45;aivanov@twitter.com -->
<g id="edge13" class="edge">
<title>jillianc@twitter.com&#45;&#45;aivanov@twitter.com</title>
<path fill="none" stroke="#00688b" stroke-opacity="0.368627" d="M753.75,-612.87C715.9,-607.18 673.54,-598.29 659.38,-585.75 597.28,-530.77 585.25,-423.08 582.93,-381.22"/>
<text text-anchor="middle" x="611.34" y="-488.1" font-family="Arial" font-size="12.00"> 1 </text>
</g>
<!-- igorbachev@twitter.com -->
<g id="node10" class="node">
<title>igorbachev@twitter.com</title>
<polygon fill="#00b2ee" stroke="white" points="986.25,-294.75 822.5,-294.75 822.5,-258.75 986.25,-258.75 986.25,-294.75"/>
<text text-anchor="middle" x="904.38" y="-272.07" font-family="Tahoma" font-size="14.00">igorbachev@twitter.com</text>
</g>
<!-- jillianc@twitter.com&#45;&#45;igorbachev@twitter.com -->
<g id="edge14" class="edge">
<title>jillianc@twitter.com&#45;&#45;igorbachev@twitter.com</title>
<path fill="none" stroke="#00688b" stroke-opacity="0.368627" d="M889.07,-610.95C928.42,-602.04 976.39,-585.19 1008.38,-553.5 1026.56,-535.49 1023.86,-524.69 1028.38,-499.5 1033.73,-469.64 1038.48,-459.85 1028.38,-431.25 1007.88,-373.27 955.16,-321.13 925.49,-295.15"/>
<text text-anchor="middle" x="1040.68" y="-444.98" font-family="Arial" font-size="12.00"> 1 </text>
</g>
<!-- skunichi@twitter.com -->
<g id="node11" class="node">
<title>skunichi@twitter.com</title>
<polygon fill="#00b2ee" stroke="white" points="776.88,-208.5 631.88,-208.5 631.88,-172.5 776.88,-172.5 776.88,-208.5"/>
<text text-anchor="middle" x="704.38" y="-185.82" font-family="Tahoma" font-size="14.00">skunichi@twitter.com</text>
</g>
<!-- jillianc@twitter.com&#45;&#45;skunichi@twitter.com -->
<g id="edge15" class="edge">
<title>jillianc@twitter.com&#45;&#45;skunichi@twitter.com</title>
<path fill="none" stroke="#00688b" stroke-opacity="0.368627" d="M799.15,-603.34C768.23,-577.53 713.62,-525.83 692.38,-467.25 658.88,-374.91 686.72,-253.63 699.15,-208.98"/>
<text text-anchor="middle" x="685.76" y="-401.85" font-family="Arial" font-size="12.00"> 1 </text>
</g>
<!-- tpollitt@twitter.com -->
<g id="node12" class="node">
<title>tpollitt@twitter.com</title>
<polygon fill="#00b2ee" stroke="white" points="872.62,-122.25 738.12,-122.25 738.12,-86.25 872.62,-86.25 872.62,-122.25"/>
<text text-anchor="middle" x="805.38" y="-99.58" font-family="Tahoma" font-size="14.00">tpollitt@twitter.com</text>
</g>
<!-- jillianc@twitter.com&#45;&#45;tpollitt@twitter.com -->
<g id="edge16" class="edge">
<title>jillianc@twitter.com&#45;&#45;tpollitt@twitter.com</title>
<path fill="none" stroke="#00688b" stroke-opacity="0.368627" d="M888.8,-613.99C971.65,-603.78 1101.38,-580.73 1101.38,-536.5 1101.38,-536.5 1101.38,-536.5 1101.38,-318.88 1101.38,-214.92 1042.06,-189.24 950.38,-140.25 926.62,-127.56 898.24,-119.4 872.9,-114.19"/>
<text text-anchor="middle" x="1107.75" y="-358.73" font-family="Arial" font-size="12.00"> 1 </text>
</g>
<!-- spotu@twitter.com -->
<g id="node13" class="node">
<title>spotu@twitter.com</title>
<polygon fill="#00b2ee" stroke="white" points="641.38,-36 511.38,-36 511.38,0 641.38,0 641.38,-36"/>
<text text-anchor="middle" x="576.38" y="-13.32" font-family="Tahoma" font-size="14.00">spotu@twitter.com</text>
</g>
<!-- jillianc@twitter.com&#45;&#45;spotu@twitter.com -->
<g id="edge17" class="edge">
<title>jillianc@twitter.com&#45;&#45;spotu@twitter.com</title>
<path fill="none" stroke="#00688b" stroke-opacity="0.368627" d="M753.97,-619.35C645.54,-615.26 444.38,-599.21 444.38,-536.5 444.38,-536.5 444.38,-536.5 444.38,-103.25 444.38,-68.18 477.89,-47.06 511.15,-34.74"/>
<text text-anchor="middle" x="450.75" y="-315.6" font-family="Arial" font-size="12.00"> 1 </text>
</g>
<!-- eslutckii@twitter.com -->
<g id="node14" class="node">
<title>eslutckii@twitter.com</title>
<polygon fill="#00b2ee" stroke="white" points="1274.88,-553.5 1129.88,-553.5 1129.88,-517.5 1274.88,-517.5 1274.88,-553.5"/>
<text text-anchor="middle" x="1202.38" y="-530.83" font-family="Tahoma" font-size="14.00">eslutckii@twitter.com</text>
</g>
<!-- jillianc@twitter.com&#45;&#45;eslutckii@twitter.com -->
<g id="edge39" class="edge">
<title>jillianc@twitter.com&#45;&#45;eslutckii@twitter.com</title>
<path fill="none" stroke="#00688b" stroke-opacity="0.368627" d="M888.97,-620.23C949.63,-618.02 1040.4,-610.33 1115.38,-585.75 1137.81,-578.4 1160.96,-564.96 1177.73,-553.97"/>
<text text-anchor="middle" x="1154.37" y="-574.35" font-family="Arial" font-size="12.00"> 1 </text>
</g>
<!-- ci+autoflagger@twitter.com&#45;&#45;mbezoyan@twitter.com -->
<g id="edge18" class="edge">
<title>ci+autoflagger@twitter.com&#45;&#45;mbezoyan@twitter.com</title>
<path fill="none" stroke="#00688b" stroke-opacity="0.368627" d="M879.68,-517.04C858.4,-502.58 828.31,-482.14 807.03,-467.68"/>
<text text-anchor="middle" x="857.17" y="-488.1" font-family="Arial" font-size="12.00"> 1 </text>
</g>
<!-- ci+autoflagger@twitter.com&#45;&#45;aivanov@twitter.com -->
<g id="edge19" class="edge">
<title>ci+autoflagger@twitter.com&#45;&#45;aivanov@twitter.com</title>
<path fill="none" stroke="#00688b" stroke-opacity="0.368627" d="M811.39,-517.85C769.03,-507.57 719.65,-491.55 679.62,-467.25 642.58,-444.76 610.51,-404.39 594.08,-381.36"/>
<text text-anchor="middle" x="686" y="-444.98" font-family="Arial" font-size="12.00"> 1 </text>
</g>
<!-- ci+autoflagger@twitter.com&#45;&#45;igorbachev@twitter.com -->
<g id="edge20" class="edge">
<title>ci+autoflagger@twitter.com&#45;&#45;igorbachev@twitter.com</title>
<path fill="none" stroke="#00688b" stroke-opacity="0.368627" d="M905.7,-517.25C906.27,-483.96 907.32,-408.49 906.38,-345 906.12,-328.07 905.52,-308.74 905.03,-295.16"/>
<text text-anchor="middle" x="913.13" y="-401.85" font-family="Arial" font-size="12.00"> 1 </text>
</g>
<!-- ci+autoflagger@twitter.com&#45;&#45;skunichi@twitter.com -->
<g id="edge21" class="edge">
<title>ci+autoflagger@twitter.com&#45;&#45;skunichi@twitter.com</title>
<path fill="none" stroke="#00688b" stroke-opacity="0.368627" d="M903.64,-517.11C899.24,-475.79 886.64,-373.09 867.38,-345 843.84,-310.68 819.46,-322.41 788.38,-294.75 758.51,-268.17 730.65,-230.37 715.72,-208.64"/>
<text text-anchor="middle" x="887.73" y="-358.73" font-family="Arial" font-size="12.00"> 1 </text>
</g>
<!-- ci+autoflagger@twitter.com&#45;&#45;tpollitt@twitter.com -->
<g id="edge22" class="edge">
<title>ci+autoflagger@twitter.com&#45;&#45;tpollitt@twitter.com</title>
<path fill="none" stroke="#00688b" stroke-opacity="0.368627" d="M918.24,-517.29C948.84,-474.21 1021.52,-358.1 995.38,-258.75 979.98,-200.24 975.92,-177.66 928.38,-140.25 912.5,-127.76 892.37,-119.72 873.01,-114.56"/>
<text text-anchor="middle" x="1007.09" y="-315.6" font-family="Arial" font-size="12.00"> 1 </text>
</g>
<!-- ci+autoflagger@twitter.com&#45;&#45;spotu@twitter.com -->
<g id="edge23" class="edge">
<title>ci+autoflagger@twitter.com&#45;&#45;spotu@twitter.com</title>
<path fill="none" stroke="#00688b" stroke-opacity="0.368627" d="M929.63,-517.04C936.33,-511.73 943.4,-505.67 949.38,-499.5 979.31,-468.59 980.11,-454.19 993.38,-413.25 1026.38,-311.41 1038.87,-265.23 985.38,-172.5 945.14,-102.77 924.85,-79.15 848.38,-54 780.08,-31.54 697.72,-23.4 641.65,-20.5"/>
<text text-anchor="middle" x="1028.21" y="-272.48" font-family="Arial" font-size="12.00"> 1 </text>
</g>
<!-- mbezoyan@twitter.com&#45;&#45;aivanov@twitter.com -->
<g id="edge24" class="edge">
<title>mbezoyan@twitter.com&#45;&#45;aivanov@twitter.com</title>
<path fill="none" stroke="#00688b" stroke-opacity="0.368627" d="M701.39,-432.76C683.23,-427.77 664.36,-421.36 647.62,-413.25 638.43,-408.79 618.93,-393.77 603.63,-381.47"/>
<text text-anchor="middle" x="654" y="-401.85" font-family="Arial" font-size="12.00"> 1 </text>
</g>
<!-- mbezoyan@twitter.com&#45;&#45;igorbachev@twitter.com -->
<g id="edge25" class="edge">
<title>mbezoyan@twitter.com&#45;&#45;igorbachev@twitter.com</title>
<path fill="none" stroke="#00688b" stroke-opacity="0.368627" d="M793.45,-431C807.89,-410.44 832.83,-375.08 854.62,-345 866.98,-327.95 881.3,-308.64 891.39,-295.1"/>
<text text-anchor="middle" x="861" y="-358.73" font-family="Arial" font-size="12.00"> 1 </text>
</g>
<!-- mbezoyan@twitter.com&#45;&#45;skunichi@twitter.com -->
<g id="edge26" class="edge">
<title>mbezoyan@twitter.com&#45;&#45;skunichi@twitter.com</title>
<path fill="none" stroke="#00688b" stroke-opacity="0.368627" d="M768.13,-430.94C751.74,-408.4 724.53,-367.14 712.62,-327 700.43,-285.88 701.4,-234.74 702.99,-208.61"/>
<text text-anchor="middle" x="719" y="-315.6" font-family="Arial" font-size="12.00"> 1 </text>
</g>
<!-- mbezoyan@twitter.com&#45;&#45;tpollitt@twitter.com -->
<g id="edge27" class="edge">
<title>mbezoyan@twitter.com&#45;&#45;tpollitt@twitter.com</title>
<path fill="none" stroke="#00688b" stroke-opacity="0.368627" d="M782.6,-430.77C786.72,-371.93 800.04,-181.48 804.15,-122.7"/>
<text text-anchor="middle" x="800.81" y="-272.48" font-family="Arial" font-size="12.00"> 1 </text>
</g>
<!-- mbezoyan@twitter.com&#45;&#45;spotu@twitter.com -->
<g id="edge28" class="edge">
<title>mbezoyan@twitter.com&#45;&#45;spotu@twitter.com</title>
<path fill="none" stroke="#00688b" stroke-opacity="0.368627" d="M701.27,-431.21C624.93,-414.62 519.05,-390.55 501.38,-381 491.4,-375.62 482.38,-375.33 482.38,-364 482.38,-364 482.38,-364 482.38,-103.25 482.38,-72.68 510.29,-50.41 535.69,-36.47"/>
<text text-anchor="middle" x="488.75" y="-229.35" font-family="Arial" font-size="12.00"> 1 </text>
</g>
<!-- aivanov@twitter.com&#45;&#45;igorbachev@twitter.com -->
<g id="edge29" class="edge">
<title>aivanov@twitter.com&#45;&#45;igorbachev@twitter.com</title>
<path fill="none" stroke="#00688b" stroke-opacity="0.368627" d="M654.3,-345.49C678.23,-339.83 705,-333.33 729.38,-327 767.87,-317.01 810.86,-304.92 844.6,-295.22"/>
<text text-anchor="middle" x="783.98" y="-315.6" font-family="Arial" font-size="12.00"> 1 </text>
</g>
<!-- aivanov@twitter.com&#45;&#45;skunichi@twitter.com -->
<g id="edge30" class="edge">
<title>aivanov@twitter.com&#45;&#45;skunichi@twitter.com</title>
<path fill="none" stroke="#00688b" stroke-opacity="0.368627" d="M590.36,-344.94C605.49,-313.04 638.33,-245.85 655.38,-226.5 661.11,-219.99 668.28,-214.02 675.35,-208.93"/>
<text text-anchor="middle" x="640.28" y="-272.48" font-family="Arial" font-size="12.00"> 1 </text>
</g>
<!-- aivanov@twitter.com&#45;&#45;tpollitt@twitter.com -->
<g id="edge31" class="edge">
<title>aivanov@twitter.com&#45;&#45;tpollitt@twitter.com</title>
<path fill="none" stroke="#00688b" stroke-opacity="0.368627" d="M580.88,-344.7C578.71,-308.24 578.92,-222.72 622.38,-172.5 651.39,-138.97 698.63,-122.15 737.84,-113.71"/>
<text text-anchor="middle" x="599.64" y="-229.35" font-family="Arial" font-size="12.00"> 1 </text>
</g>
<!-- aivanov@twitter.com&#45;&#45;spotu@twitter.com -->
<g id="edge32" class="edge">
<title>aivanov@twitter.com&#45;&#45;spotu@twitter.com</title>
<path fill="none" stroke="#00688b" stroke-opacity="0.368627" d="M563.6,-344.52C548.71,-328.68 530.38,-303.88 530.38,-277.75 530.38,-277.75 530.38,-277.75 530.38,-103.25 530.38,-77.59 547.02,-52.31 560.29,-36.24"/>
<text text-anchor="middle" x="536.75" y="-186.22" font-family="Arial" font-size="12.00"> 1 </text>
</g>
<!-- igorbachev@twitter.com&#45;&#45;skunichi@twitter.com -->
<g id="edge33" class="edge">
<title>igorbachev@twitter.com&#45;&#45;skunichi@twitter.com</title>
<path fill="none" stroke="#00688b" stroke-opacity="0.368627" d="M862.93,-258.29C828.61,-243.83 780.07,-223.39 745.76,-208.93"/>
<text text-anchor="middle" x="822.72" y="-229.35" font-family="Arial" font-size="12.00"> 1 </text>
</g>
<!-- igorbachev@twitter.com&#45;&#45;tpollitt@twitter.com -->
<g id="edge34" class="edge">
<title>igorbachev@twitter.com&#45;&#45;tpollitt@twitter.com</title>
<path fill="none" stroke="#00688b" stroke-opacity="0.368627" d="M894.34,-258.46C875.36,-225.78 834.43,-155.3 815.44,-122.58"/>
<text text-anchor="middle" x="871.09" y="-186.22" font-family="Arial" font-size="12.00"> 1 </text>
</g>
<!-- igorbachev@twitter.com&#45;&#45;spotu@twitter.com -->
<g id="edge35" class="edge">
<title>igorbachev@twitter.com&#45;&#45;spotu@twitter.com</title>
<path fill="none" stroke="#00688b" stroke-opacity="0.368627" d="M908.16,-258.46C915.12,-221.62 925.49,-134.83 881.38,-86.25 849.84,-51.53 721.64,-33.02 641.82,-24.67"/>
<text text-anchor="middle" x="917.55" y="-143.1" font-family="Arial" font-size="12.00"> 1 </text>
</g>
<!-- skunichi@twitter.com&#45;&#45;tpollitt@twitter.com -->
<g id="edge36" class="edge">
<title>skunichi@twitter.com&#45;&#45;tpollitt@twitter.com</title>
<path fill="none" stroke="#00688b" stroke-opacity="0.368627" d="M725.3,-172.04C742.64,-157.58 767.15,-137.14 784.47,-122.68"/>
<text text-anchor="middle" x="767.3" y="-143.1" font-family="Arial" font-size="12.00"> 1 </text>
</g>
<!-- skunichi@twitter.com&#45;&#45;spotu@twitter.com -->
<g id="edge37" class="edge">
<title>skunichi@twitter.com&#45;&#45;spotu@twitter.com</title>
<path fill="none" stroke="#00688b" stroke-opacity="0.368627" d="M691.4,-172.21C666.86,-139.53 613.95,-69.05 589.39,-36.33"/>
<text text-anchor="middle" x="659.47" y="-99.97" font-family="Arial" font-size="12.00"> 1 </text>
</g>
<!-- tpollitt@twitter.com&#45;&#45;spotu@twitter.com -->
<g id="edge38" class="edge">
<title>tpollitt@twitter.com&#45;&#45;spotu@twitter.com</title>
<path fill="none" stroke="#00688b" stroke-opacity="0.368627" d="M757.93,-85.79C718.62,-71.33 663.05,-50.89 623.76,-36.43"/>
<text text-anchor="middle" x="710.96" y="-56.85" font-family="Arial" font-size="12.00"> 1 </text>
</g>
</g>
</svg>
