<svg width="1439pt" height="648pt"
 viewBox="0.00 0.00 1438.75 647.75" xmlns="http://www.w3.org/2000/svg" xmlns:xlink="http://www.w3.org/1999/xlink">
<g id="graph0" class="graph" transform="scale(1 1) rotate(0) translate(4 643.75)">
<title>G</title>
<polygon fill="white" stroke="none" points="-4,4 -4,-643.75 1434.75,-643.75 1434.75,4 -4,4"/>
<!-- jillianc@twitter.com -->
<g id="node1" class="node">
<title>jillianc@twitter.com</title>
<polygon fill="#00b2ee" stroke="white" points="459.25,-639.75 324.75,-639.75 324.75,-603.75 459.25,-603.75 459.25,-639.75"/>
<text text-anchor="middle" x="392" y="-617.08" font-family="Tahoma" font-size="14.00">jillianc@twitter.com</text>
</g>
<!-- mbezoyan@twitter.com -->
<g id="node2" class="node">
<title>mbezoyan@twitter.com</title>
<polygon fill="#00b2ee" stroke="white" points="579.62,-467.25 420.38,-467.25 420.38,-431.25 579.62,-431.25 579.62,-467.25"/>
<text text-anchor="middle" x="500" y="-444.57" font-family="Tahoma" font-size="14.00">mbezoyan@twitter.com</text>
</g>
<!-- jillianc@twitter.com&#45;&#45;mbezoyan@twitter.com -->
<g id="edge1" class="edge">
<title>jillianc@twitter.com&#45;&#45;mbezoyan@twitter.com</title>
<path fill="none" stroke="#00688b" stroke-width="2" stroke-opacity="0.439216" d="M402.95,-603.46C423.65,-570.78 468.3,-500.3 489.02,-467.58"/>
<text text-anchor="middle" x="463.11" y="-531.23" font-family="Arial" font-size="12.00"> 2 </text>
</g>
<!-- ci+autoflagger@twitter.com -->
<g id="node9" class="node">
<title>ci+autoflagger@twitter.com</title>
<polygon fill="#00b2ee" stroke="white" points="338.5,-553.5 151.5,-553.5 151.5,-517.5 338.5,-517.5 338.5,-553.5"/>
<text text-anchor="middle" x="245" y="-530.83" font-family="Tahoma" font-size="14.00">ci+autoflagger@twitter.com</text>
</g>
<!-- jillianc@twitter.com&#45;&#45;ci+autoflagger@twitter.com -->
<g id="edge17" class="edge">
<title>jillianc@twitter.com&#45;&#45;ci+autoflagger@twitter.com</title>
<path fill="none" stroke="#00688b" stroke-opacity="0.368627" d="M361.54,-603.29C336.31,-588.83 300.64,-568.39 275.42,-553.93"/>
<text text-anchor="middle" x="333.68" y="-574.35" font-family="Arial" font-size="12.00"> 1 </text>
</g>
<!-- aivanov@twitter.com -->
<g id="node10" class="node">
<title>aivanov@twitter.com</title>
<polygon fill="#00b2ee" stroke="white" points="467.75,-381 324.25,-381 324.25,-345 467.75,-345 467.75,-381"/>
<text text-anchor="middle" x="396" y="-358.32" font-family="Tahoma" font-size="14.00">aivanov@twitter.com</text>
</g>
<!-- jillianc@twitter.com&#45;&#45;aivanov@twitter.com -->
<g id="edge18" class="edge">
<title>jillianc@twitter.com&#45;&#45;aivanov@twitter.com</title>
<path fill="none" stroke="#00688b" stroke-opacity="0.368627" d="M391.87,-603.64C391.72,-577.93 391.55,-527.82 392.25,-485.25 392.86,-448.19 394.4,-404.78 395.31,-381.26"/>
<text text-anchor="middle" x="398.62" y="-488.1" font-family="Arial" font-size="12.00"> 1 </text>
</g>
<!-- igorbachev@twitter.com -->
<g id="node11" class="node">
<title>igorbachev@twitter.com</title>
<polygon fill="#00b2ee" stroke="white" points="380.88,-294.75 217.12,-294.75 217.12,-258.75 380.88,-258.75 380.88,-294.75"/>
<text text-anchor="middle" x="299" y="-272.07" font-family="Tahoma" font-size="14.00">igorbachev@twitter.com</text>
</g>
<!-- jillianc@twitter.com&#45;&#45;igorbachev@twitter.com -->
<g id="edge19" class="edge">
<title>jillianc@twitter.com&#45;&#45;igorbachev@twitter.com</title>
<path fill="none" stroke="#00688b" stroke-opacity="0.368627" d="M324.36,-611.49C258.5,-600.98 165.03,-581.55 142,-553.5 115.68,-521.43 130.96,-316.5 134,-312.75 144.92,-299.27 181.09,-290.77 216.78,-285.53"/>
<text text-anchor="middle" x="133.51" y="-444.98" font-family="Arial" font-size="12.00"> 1 </text>
</g>
<!-- skunichi@twitter.com -->
<g id="node12" class="node">
<title>skunichi@twitter.com</title>
<polygon fill="#00b2ee" stroke="white" points="359.5,-208.5 214.5,-208.5 214.5,-172.5 359.5,-172.5 359.5,-208.5"/>
<text text-anchor="middle" x="287" y="-185.82" font-family="Tahoma" font-size="14.00">skunichi@twitter.com</text>
</g>
<!-- jillianc@twitter.com&#45;&#45;skunichi@twitter.com -->
<g id="edge20" class="edge">
<title>jillianc@twitter.com&#45;&#45;skunichi@twitter.com</title>
<path fill="none" stroke="#00688b" stroke-opacity="0.368627" d="M324.58,-618.34C221.87,-612.81 38,-594.78 38,-536.5 38,-536.5 38,-536.5 38,-318.88 38,-290.1 40.77,-278.17 62,-258.75 103.52,-220.78 165.66,-204.21 214.12,-196.99"/>
<text text-anchor="middle" x="44.38" y="-401.85" font-family="Arial" font-size="12.00"> 1 </text>
</g>
<!-- tpollitt@twitter.com -->
<g id="node13" class="node">
<title>tpollitt@twitter.com</title>
<polygon fill="#00b2ee" stroke="white" points="463.25,-122.25 328.75,-122.25 328.75,-86.25 463.25,-86.25 463.25,-122.25"/>
<text text-anchor="middle" x="396" y="-99.58" font-family="Tahoma" font-size="14.00">tpollitt@twitter.com</text>
</g>
<!-- jillianc@twitter.com&#45;&#45;tpollitt@twitter.com -->
<g id="edge21" class="edge">
<title>jillianc@twitter.com&#45;&#45;tpollitt@twitter.com</title>
<path fill="none" stroke="#00688b" stroke-opacity="0.368627" d="M459.6,-610.21C529.65,-597.33 629,-572.69 629,-536.5 629,-536.5 629,-536.5 629,-405.12 629,-298.78 624.81,-265.37 573,-172.5 551.54,-134.03 504.05,-117.41 463.66,-110.3"/>
<text text-anchor="middle" x="635.27" y="-358.73" font-family="Arial" font-size="12.00"> 1 </text>
</g>
<!-- spotu@twitter.com -->
<g id="node14" class="node">
<title>spotu@twitter.com</title>
<polygon fill="#00b2ee" stroke="white" points="259,-36 129,-36 129,0 259,0 259,-36"/>
<text text-anchor="middle" x="194" y="-13.32" font-family="Tahoma" font-size="14.00">spotu@twitter.com</text>
</g>
<!-- jillianc@twitter.com&#45;&#45;spotu@twitter.com -->
<g id="edge22" class="edge">
<title>jillianc@twitter.com&#45;&#45;spotu@twitter.com</title>
<path fill="none" stroke="#00688b" stroke-opacity="0.368627" d="M324.61,-619.95C212.53,-616.78 0,-602.11 0,-536.5 0,-536.5 0,-536.5 0,-103.25 0,-45.88 72.27,-27.15 128.59,-21.27"/>
<text text-anchor="middle" x="6.38" y="-315.6" font-family="Arial" font-size="12.00"> 1 </text>
</g>
<!-- eslutckii@twitter.com -->
<g id="node15" class="node">
<title>eslutckii@twitter.com</title>
<polygon fill="#00b2ee" stroke="white" points="804.5,-381 659.5,-381 659.5,-345 804.5,-345 804.5,-381"/>
<text text-anchor="middle" x="732" y="-358.32" font-family="Tahoma" font-size="14.00">eslutckii@twitter.com</text>
</g>
<!-- jillianc@twitter.com&#45;&#45;eslutckii@twitter.com -->
<g id="edge44" class="edge">
<title>jillianc@twitter.com&#45;&#45;eslutckii@twitter.com</title>
<path fill="none" stroke="#00688b" stroke-opacity="0.368627" d="M459.72,-618.83C524.16,-615.69 615.28,-607.44 643,-585.75 709.65,-533.61 726.59,-423.75 730.73,-381.28"/>
<text text-anchor="middle" x="714.5" y="-488.1" font-family="Arial" font-size="12.00"> 1 </text>
</g>
<!-- kcelik@twitter.com -->
<g id="node16" class="node">
<title>kcelik@twitter.com</title>
<polygon fill="#00b2ee" stroke="white" points="797.38,-294.75 666.62,-294.75 666.62,-258.75 797.38,-258.75 797.38,-294.75"/>
<text text-anchor="middle" x="732" y="-272.07" font-family="Tahoma" font-size="14.00">kcelik@twitter.com</text>
</g>
<!-- jillianc@twitter.com&#45;&#45;kcelik@twitter.com -->
<g id="edge45" class="edge">
<title>jillianc@twitter.com&#45;&#45;kcelik@twitter.com</title>
<path fill="none" stroke="#00688b" stroke-opacity="0.368627" d="M459.61,-615.77C591.65,-605.14 871,-577.77 871,-536.5 871,-536.5 871,-536.5 871,-405.12 871,-352.1 815.34,-315.18 774.46,-295.21"/>
<text text-anchor="middle" x="877.38" y="-444.98" font-family="Arial" font-size="12.00"> 1 </text>
</g>
<!-- mbezoyan@twitter.com&#45;&#45;aivanov@twitter.com -->
<g id="edge29" class="edge">
<title>mbezoyan@twitter.com&#45;&#45;aivanov@twitter.com</title>
<path fill="none" stroke="#00688b" stroke-opacity="0.368627" d="M478.45,-430.79C460.6,-416.33 435.36,-395.89 417.52,-381.43"/>
<text text-anchor="middle" x="460.6" y="-401.85" font-family="Arial" font-size="12.00"> 1 </text>
</g>
<!-- mbezoyan@twitter.com&#45;&#45;igorbachev@twitter.com -->
<g id="edge30" class="edge">
<title>mbezoyan@twitter.com&#45;&#45;igorbachev@twitter.com</title>
<path fill="none" stroke="#00688b" stroke-opacity="0.368627" d="M420.34,-442.34C378.15,-434.72 329.54,-417.87 302.25,-381 283.68,-355.92 288.85,-317.23 294.07,-295.02"/>
<text text-anchor="middle" x="308.62" y="-358.73" font-family="Arial" font-size="12.00"> 1 </text>
</g>
<!-- mbezoyan@twitter.com&#45;&#45;skunichi@twitter.com -->
<g id="edge31" class="edge">
<title>mbezoyan@twitter.com&#45;&#45;skunichi@twitter.com</title>
<path fill="none" stroke="#00688b" stroke-opacity="0.368627" d="M498.17,-430.82C495.5,-409.77 489.43,-373.64 477,-345 458.51,-302.4 448.63,-293.66 418,-258.75 403.83,-242.6 400.41,-237.58 382,-226.5 370.63,-219.66 357.7,-213.81 345.13,-208.96"/>
<text text-anchor="middle" x="474.96" y="-315.6" font-family="Arial" font-size="12.00"> 1 </text>
</g>
<!-- mbezoyan@twitter.com&#45;&#45;tpollitt@twitter.com -->
<g id="edge32" class="edge">
<title>mbezoyan@twitter.com&#45;&#45;tpollitt@twitter.com</title>
<path fill="none" stroke="#00688b" stroke-opacity="0.368627" d="M510.97,-431.07C538.82,-385.05 606.29,-256.76 551,-172.5 531.53,-142.83 495.83,-126.18 463.61,-116.87"/>
<text text-anchor="middle" x="578.19" y="-272.48" font-family="Arial" font-size="12.00"> 1 </text>
</g>
<!-- mbezoyan@twitter.com&#45;&#45;spotu@twitter.com -->
<g id="edge33" class="edge">
<title>mbezoyan@twitter.com&#45;&#45;spotu@twitter.com</title>
<path fill="none" stroke="#00688b" stroke-opacity="0.368627" d="M579.78,-440.31C661.19,-430.65 780.23,-411.71 814,-381 834.74,-362.15 833,-348.9 833,-320.88 833,-320.88 833,-320.88 833,-103.25 833,-45.83 422.24,-26.33 259.38,-20.85"/>
<text text-anchor="middle" x="839.38" y="-229.35" font-family="Arial" font-size="12.00"> 1 </text>
</g>
<!-- mbezoyan@twitter.com&#45;&#45;eslutckii@twitter.com -->
<g id="edge46" class="edge">
<title>mbezoyan@twitter.com&#45;&#45;eslutckii@twitter.com</title>
<path fill="none" stroke="#00688b" stroke-opacity="0.368627" d="M548.07,-430.79C587.89,-416.33 644.19,-395.89 683.99,-381.43"/>
<text text-anchor="middle" x="636.27" y="-401.85" font-family="Arial" font-size="12.00"> 1 </text>
</g>
<!-- mbezoyan@twitter.com&#45;&#45;kcelik@twitter.com -->
<g id="edge47" class="edge">
<title>mbezoyan@twitter.com&#45;&#45;kcelik@twitter.com</title>
<path fill="none" stroke="#00688b" stroke-opacity="0.368627" d="M527.24,-430.88C534.4,-425.67 541.84,-419.63 548,-413.25 573.46,-386.9 566.57,-369.01 594.25,-345 619.58,-323.02 653.34,-306.39 681.1,-295.16"/>
<text text-anchor="middle" x="600.62" y="-358.73" font-family="Arial" font-size="12.00"> 1 </text>
</g>
<!-- jaynbaxter@gmail.com -->
<g id="node3" class="node">
<title>jaynbaxter@gmail.com</title>
<polygon fill="#00b2ee" stroke="white" points="1085.5,-639.75 928.5,-639.75 928.5,-603.75 1085.5,-603.75 1085.5,-639.75"/>
<text text-anchor="middle" x="1007" y="-617.08" font-family="Tahoma" font-size="14.00">jaynbaxter@gmail.com</text>
</g>
<!-- 74026070+twitterbirdwatch@users.noreply.github.com -->
<g id="node4" class="node">
<title>74026070+twitterbirdwatch@users.noreply.github.com</title>
<polygon fill="#00b2ee" stroke="white" points="1390.38,-553.5 1037.62,-553.5 1037.62,-517.5 1390.38,-517.5 1390.38,-553.5"/>
<text text-anchor="middle" x="1214" y="-530.83" font-family="Tahoma" font-size="14.00">74026070+twitterbirdwatch@users.noreply.github.com</text>
</g>
<!-- jaynbaxter@gmail.com&#45;&#45;74026070+twitterbirdwatch@users.noreply.github.com -->
<g id="edge2" class="edge">
<title>jaynbaxter@gmail.com&#45;&#45;74026070+twitterbirdwatch@users.noreply.github.com</title>
<path fill="none" stroke="#00688b" stroke-opacity="0.368627" d="M1049.89,-603.29C1085.42,-588.83 1135.65,-568.39 1171.16,-553.93"/>
<text text-anchor="middle" x="1129.27" y="-574.35" font-family="Arial" font-size="12.00"> 1 </text>
</g>
<!-- brad.miller.87@gmail.com -->
<g id="node5" class="node">
<title>brad.miller.87@gmail.com</title>
<polygon fill="#00b2ee" stroke="white" points="1237.5,-467.25 1062.5,-467.25 1062.5,-431.25 1237.5,-431.25 1237.5,-467.25"/>
<text text-anchor="middle" x="1150" y="-444.57" font-family="Tahoma" font-size="14.00">brad.miller.87@gmail.com</text>
</g>
<!-- jaynbaxter@gmail.com&#45;&#45;brad.miller.87@gmail.com -->
<g id="edge3" class="edge">
<title>jaynbaxter@gmail.com&#45;&#45;brad.miller.87@gmail.com</title>
<path fill="none" stroke="#00688b" stroke-opacity="0.368627" d="M1003.77,-603.35C1000.67,-581.35 998.74,-543.25 1016.25,-517.5 1032.4,-493.75 1059.53,-477.97 1085.14,-467.71"/>
<text text-anchor="middle" x="1022.62" y="-531.23" font-family="Arial" font-size="12.00"> 1 </text>
</g>
<!-- bradm@twitter.com -->
<g id="node6" class="node">
<title>bradm@twitter.com</title>
<polygon fill="#00b2ee" stroke="white" points="1114,-381 978,-381 978,-345 1114,-345 1114,-381"/>
<text text-anchor="middle" x="1046" y="-358.32" font-family="Tahoma" font-size="14.00">bradm@twitter.com</text>
</g>
<!-- jaynbaxter@gmail.com&#45;&#45;bradm@twitter.com -->
<g id="edge4" class="edge">
<title>jaynbaxter@gmail.com&#45;&#45;bradm@twitter.com</title>
<path fill="none" stroke="#00688b" stroke-opacity="0.368627" d="M1001.64,-603.47C1000.15,-597.87 998.74,-591.6 998,-585.75 997.21,-579.47 997.94,-577.83 998,-571.5 998.22,-547.5 995.91,-541.3 999,-517.5 1005.99,-463.73 1009.03,-449.79 1028,-399 1030.2,-393.11 1033.14,-386.93 1036.01,-381.44"/>
<text text-anchor="middle" x="1009.83" y="-488.1" font-family="Arial" font-size="12.00"> 1 </text>
</g>
<!-- jiansongc@x.com -->
<g id="node7" class="node">
<title>jiansongc@x.com</title>
<polygon fill="#00b2ee" stroke="white" points="1199.62,-294.75 1076.38,-294.75 1076.38,-258.75 1199.62,-258.75 1199.62,-294.75"/>
<text text-anchor="middle" x="1138" y="-272.07" font-family="Tahoma" font-size="14.00">jiansongc@x.com</text>
</g>
<!-- jaynbaxter@gmail.com&#45;&#45;jiansongc@x.com -->
<g id="edge5" class="edge">
<title>jaynbaxter@gmail.com&#45;&#45;jiansongc@x.com</title>
<path fill="none" stroke="#00688b" stroke-opacity="0.368627" d="M970.61,-603.27C946.77,-589.01 920,-566.36 920,-536.5 920,-536.5 920,-536.5 920,-362 920,-345.11 1012.22,-314.55 1076.69,-295.25"/>
<text text-anchor="middle" x="926.38" y="-444.98" font-family="Arial" font-size="12.00"> 1 </text>
</g>
<!-- 9256836+keithcoleman@users.noreply.github.com -->
<g id="node8" class="node">
<title>9256836+keithcoleman@users.noreply.github.com</title>
<polygon fill="#00b2ee" stroke="white" points="1391.25,-208.5 1064.75,-208.5 1064.75,-172.5 1391.25,-172.5 1391.25,-208.5"/>
<text text-anchor="middle" x="1228" y="-185.82" font-family="Tahoma" font-size="14.00">9256836+keithcoleman@users.noreply.github.com</text>
</g>
<!-- jaynbaxter@gmail.com&#45;&#45;9256836+keithcoleman@users.noreply.github.com -->
<g id="edge6" class="edge">
<title>jaynbaxter@gmail.com&#45;&#45;9256836+keithcoleman@users.noreply.github.com</title>
<path fill="none" stroke="#00688b" stroke-opacity="0.368627" d="M1085.76,-620.42C1205.1,-617.76 1418,-603.6 1418,-536.5 1418,-536.5 1418,-536.5 1418,-275.75 1418,-241.56 1391.97,-221.14 1359.18,-208.98"/>
<text text-anchor="middle" x="1424.38" y="-401.85" font-family="Arial" font-size="12.00"> 1 </text>
</g>
<!-- 74026070+twitterbirdwatch@users.noreply.github.com&#45;&#45;brad.miller.87@gmail.com -->
<g id="edge7" class="edge">
<title>74026070+twitterbirdwatch@users.noreply.github.com&#45;&#45;brad.miller.87@gmail.com</title>
<path fill="none" stroke="#00688b" stroke-opacity="0.368627" d="M1200.74,-517.04C1189.76,-502.58 1174.22,-482.14 1163.24,-467.68"/>
<text text-anchor="middle" x="1192.21" y="-488.1" font-family="Arial" font-size="12.00"> 1 </text>
</g>
<!-- 74026070+twitterbirdwatch@users.noreply.github.com&#45;&#45;bradm@twitter.com -->
<g id="edge8" class="edge">
<title>74026070+twitterbirdwatch@users.noreply.github.com&#45;&#45;bradm@twitter.com</title>
<path fill="none" stroke="#00688b" stroke-opacity="0.368627" d="M1112.72,-517.16C1084.97,-507.25 1057.96,-491.69 1041.25,-467.25 1023.73,-441.62 1032.06,-403.48 1039.3,-381.44"/>
<text text-anchor="middle" x="1047.62" y="-444.98" font-family="Arial" font-size="12.00"> 1 </text>
</g>
<!-- 74026070+twitterbirdwatch@users.noreply.github.com&#45;&#45;jiansongc@x.com -->
<g id="edge9" class="edge">
<title>74026070+twitterbirdwatch@users.noreply.github.com&#45;&#45;jiansongc@x.com</title>
<path fill="none" stroke="#00688b" stroke-opacity="0.368627" d="M1225.32,-517.07C1233.13,-503.96 1242.82,-485.24 1247,-467.25 1255.66,-429.95 1270.57,-347.39 1245,-312.75 1234.26,-298.2 1217.32,-289.6 1200.05,-284.54"/>
<text text-anchor="middle" x="1264.43" y="-401.85" font-family="Arial" font-size="12.00"> 1 </text>
</g>
<!-- 74026070+twitterbirdwatch@users.noreply.github.com&#45;&#45;9256836+keithcoleman@users.noreply.github.com -->
<g id="edge10" class="edge">
<title>74026070+twitterbirdwatch@users.noreply.github.com&#45;&#45;9256836+keithcoleman@users.noreply.github.com</title>
<path fill="none" stroke="#00688b" stroke-opacity="0.368627" d="M1257.27,-517.04C1283.52,-503.28 1312,-481.21 1312,-450.25 1312,-450.25 1312,-450.25 1312,-275.75 1312,-246.21 1285.79,-223.39 1262.65,-208.99"/>
<text text-anchor="middle" x="1318.38" y="-358.73" font-family="Arial" font-size="12.00"> 1 </text>
</g>
<!-- brad.miller.87@gmail.com&#45;&#45;bradm@twitter.com -->
<g id="edge11" class="edge">
<title>brad.miller.87@gmail.com&#45;&#45;bradm@twitter.com</title>
<path fill="none" stroke="#00688b" stroke-opacity="0.368627" d="M1128.45,-430.79C1110.6,-416.33 1085.36,-395.89 1067.52,-381.43"/>
<text text-anchor="middle" x="1110.6" y="-401.85" font-family="Arial" font-size="12.00"> 1 </text>
</g>
<!-- brad.miller.87@gmail.com&#45;&#45;jiansongc@x.com -->
<g id="edge12" class="edge">
<title>brad.miller.87@gmail.com&#45;&#45;jiansongc@x.com</title>
<path fill="none" stroke="#00688b" stroke-opacity="0.368627" d="M1148.78,-430.96C1146.48,-398.28 1141.52,-327.8 1139.22,-295.08"/>
<text text-anchor="middle" x="1151.57" y="-358.73" font-family="Arial" font-size="12.00"> 1 </text>
</g>
<!-- brad.miller.87@gmail.com&#45;&#45;9256836+keithcoleman@users.noreply.github.com -->
<g id="edge13" class="edge">
<title>brad.miller.87@gmail.com&#45;&#45;9256836+keithcoleman@users.noreply.github.com</title>
<path fill="none" stroke="#00688b" stroke-opacity="0.368627" d="M1157.79,-431.11C1170.25,-403.11 1194.68,-345.59 1209,-294.75 1217.35,-265.1 1222.95,-229.6 1225.8,-208.9"/>
<text text-anchor="middle" x="1209.97" y="-315.6" font-family="Arial" font-size="12.00"> 1 </text>
</g>
<!-- bradm@twitter.com&#45;&#45;jiansongc@x.com -->
<g id="edge14" class="edge">
<title>bradm@twitter.com&#45;&#45;jiansongc@x.com</title>
<path fill="none" stroke="#00688b" stroke-opacity="0.368627" d="M1065.06,-344.54C1080.85,-330.08 1103.18,-309.64 1118.96,-295.18"/>
<text text-anchor="middle" x="1103.88" y="-315.6" font-family="Arial" font-size="12.00"> 1 </text>
</g>
<!-- bradm@twitter.com&#45;&#45;9256836+keithcoleman@users.noreply.github.com -->
<g id="edge15" class="edge">
<title>bradm@twitter.com&#45;&#45;9256836+keithcoleman@users.noreply.github.com</title>
<path fill="none" stroke="#00688b" stroke-opacity="0.368627" d="M1042.24,-344.73C1038.46,-322.52 1035.55,-283.84 1054.25,-258.75 1072.42,-234.37 1100.68,-218.83 1129.16,-208.92"/>
<text text-anchor="middle" x="1060.62" y="-272.48" font-family="Arial" font-size="12.00"> 1 </text>
</g>
<!-- jiansongc@x.com&#45;&#45;9256836+keithcoleman@users.noreply.github.com -->
<g id="edge16" class="edge">
<title>jiansongc@x.com&#45;&#45;9256836+keithcoleman@users.noreply.github.com</title>
<path fill="none" stroke="#00688b" stroke-opacity="0.368627" d="M1156.65,-258.29C1172.09,-243.83 1193.94,-223.39 1209.38,-208.93"/>
<text text-anchor="middle" x="1194.76" y="-229.35" font-family="Arial" font-size="12.00"> 1 </text>
</g>
<!-- ci+autoflagger@twitter.com&#45;&#45;mbezoyan@twitter.com -->
<g id="edge23" class="edge">
<title>ci+autoflagger@twitter.com&#45;&#45;mbezoyan@twitter.com</title>
<path fill="none" stroke="#00688b" stroke-opacity="0.368627" d="M338.69,-519.32C362.03,-514.24 386.74,-507.71 409,-499.5 431.42,-491.24 455.1,-478.27 472.69,-467.71"/>
<text text-anchor="middle" x="446.53" y="-488.1" font-family="Arial" font-size="12.00"> 1 </text>
</g>
<!-- ci+autoflagger@twitter.com&#45;&#45;aivanov@twitter.com -->
<g id="edge24" class="edge">
<title>ci+autoflagger@twitter.com&#45;&#45;aivanov@twitter.com</title>
<path fill="none" stroke="#00688b" stroke-opacity="0.368627" d="M260.31,-517.21C289.25,-484.53 351.68,-414.05 380.65,-381.33"/>
<text text-anchor="middle" x="341.89" y="-444.98" font-family="Arial" font-size="12.00"> 1 </text>
</g>
<!-- ci+autoflagger@twitter.com&#45;&#45;igorbachev@twitter.com -->
<g id="edge25" class="edge">
<title>ci+autoflagger@twitter.com&#45;&#45;igorbachev@twitter.com</title>
<path fill="none" stroke="#00688b" stroke-opacity="0.368627" d="M246.91,-517.26C251.33,-479.6 263.58,-387.39 285,-312.75 286.7,-306.84 289.04,-300.55 291.32,-294.95"/>
<text text-anchor="middle" x="270.99" y="-401.85" font-family="Arial" font-size="12.00"> 1 </text>
</g>
<!-- ci+autoflagger@twitter.com&#45;&#45;skunichi@twitter.com -->
<g id="edge26" class="edge">
<title>ci+autoflagger@twitter.com&#45;&#45;skunichi@twitter.com</title>
<path fill="none" stroke="#00688b" stroke-opacity="0.368627" d="M236.39,-517.06C215.42,-471.99 166.37,-348.86 208,-258.75 217.82,-237.49 238.04,-220.48 255.56,-208.89"/>
<text text-anchor="middle" x="201.02" y="-358.73" font-family="Arial" font-size="12.00"> 1 </text>
</g>
<!-- ci+autoflagger@twitter.com&#45;&#45;tpollitt@twitter.com -->
<g id="edge27" class="edge">
<title>ci+autoflagger@twitter.com&#45;&#45;tpollitt@twitter.com</title>
<path fill="none" stroke="#00688b" stroke-opacity="0.368627" d="M230.37,-517.19C220.33,-504.28 207.66,-485.76 201,-467.25 156.65,-343.97 118.55,-270.94 205,-172.5 236.08,-137.1 286.96,-120.34 328.39,-112.4"/>
<text text-anchor="middle" x="162.41" y="-315.6" font-family="Arial" font-size="12.00"> 1 </text>
</g>
<!-- ci+autoflagger@twitter.com&#45;&#45;spotu@twitter.com -->
<g id="edge28" class="edge">
<title>ci+autoflagger@twitter.com&#45;&#45;spotu@twitter.com</title>
<path fill="none" stroke="#00688b" stroke-opacity="0.368627" d="M190.94,-517.11C166.48,-506.5 139.43,-490.44 123,-467.25 62.38,-381.72 84,-339.46 84,-234.62 84,-234.62 84,-234.62 84,-103.25 84,-71.14 113.91,-49.6 142.54,-36.35"/>
<text text-anchor="middle" x="89.96" y="-272.48" font-family="Arial" font-size="12.00"> 1 </text>
</g>
<!-- aivanov@twitter.com&#45;&#45;igorbachev@twitter.com -->
<g id="edge34" class="edge">
<title>aivanov@twitter.com&#45;&#45;igorbachev@twitter.com</title>
<path fill="none" stroke="#00688b" stroke-opacity="0.368627" d="M375.9,-344.54C359.25,-330.08 335.71,-309.64 319.07,-295.18"/>
<text text-anchor="middle" x="359.68" y="-315.6" font-family="Arial" font-size="12.00"> 1 </text>
</g>
<!-- aivanov@twitter.com&#45;&#45;skunichi@twitter.com -->
<g id="edge35" class="edge">
<title>aivanov@twitter.com&#45;&#45;skunichi@twitter.com</title>
<path fill="none" stroke="#00688b" stroke-opacity="0.368627" d="M399.49,-344.58C402.87,-322.89 405.48,-285.47 390,-258.75 376.94,-236.21 352.93,-219.88 331.38,-208.96"/>
<text text-anchor="middle" x="407.34" y="-272.48" font-family="Arial" font-size="12.00"> 1 </text>
</g>
<!-- aivanov@twitter.com&#45;&#45;tpollitt@twitter.com -->
<g id="edge36" class="edge">
<title>aivanov@twitter.com&#45;&#45;tpollitt@twitter.com</title>
<path fill="none" stroke="#00688b" stroke-opacity="0.368627" d="M408.05,-344.55C411.19,-339.15 414.2,-333.03 416,-327 420.11,-313.24 417.56,-309.1 418,-294.75 420.13,-225.84 415.74,-208.19 404,-140.25 403,-134.48 401.66,-128.22 400.36,-122.62"/>
<text text-anchor="middle" x="424.37" y="-229.35" font-family="Arial" font-size="12.00"> 1 </text>
</g>
<!-- aivanov@twitter.com&#45;&#45;spotu@twitter.com -->
<g id="edge37" class="edge">
<title>aivanov@twitter.com&#45;&#45;spotu@twitter.com</title>
<path fill="none" stroke="#00688b" stroke-opacity="0.368627" d="M468.23,-345.66C501.62,-333.41 534,-312.56 534,-277.75 534,-277.75 534,-277.75 534,-103.25 534,-47.23 357.88,-28.2 259.15,-21.94"/>
<text text-anchor="middle" x="540.38" y="-186.22" font-family="Arial" font-size="12.00"> 1 </text>
</g>
<!-- igorbachev@twitter.com&#45;&#45;skunichi@twitter.com -->
<g id="edge38" class="edge">
<title>igorbachev@twitter.com&#45;&#45;skunichi@twitter.com</title>
<path fill="none" stroke="#00688b" stroke-opacity="0.368627" d="M296.51,-258.29C294.45,-243.83 291.54,-223.39 289.48,-208.93"/>
<text text-anchor="middle" x="300.09" y="-229.35" font-family="Arial" font-size="12.00"> 1 </text>
</g>
<!-- igorbachev@twitter.com&#45;&#45;tpollitt@twitter.com -->
<g id="edge39" class="edge">
<title>igorbachev@twitter.com&#45;&#45;tpollitt@twitter.com</title>
<path fill="none" stroke="#00688b" stroke-opacity="0.368627" d="M322.34,-258.47C337.44,-246.13 356.38,-228.26 368,-208.5 384.19,-180.96 391.27,-143.82 394.16,-122.41"/>
<text text-anchor="middle" x="389.65" y="-186.22" font-family="Arial" font-size="12.00"> 1 </text>
</g>
<!-- igorbachev@twitter.com&#45;&#45;spotu@twitter.com -->
<g id="edge40" class="edge">
<title>igorbachev@twitter.com&#45;&#45;spotu@twitter.com</title>
<path fill="none" stroke="#00688b" stroke-opacity="0.368627" d="M260.34,-258.47C240.17,-247.28 217.21,-230.64 205,-208.5 173.89,-152.08 183.88,-71.32 190.34,-36.3"/>
<text text-anchor="middle" x="193.2" y="-143.1" font-family="Arial" font-size="12.00"> 1 </text>
</g>
<!-- skunichi@twitter.com&#45;&#45;tpollitt@twitter.com -->
<g id="edge41" class="edge">
<title>skunichi@twitter.com&#45;&#45;tpollitt@twitter.com</title>
<path fill="none" stroke="#00688b" stroke-opacity="0.368627" d="M309.58,-172.04C328.29,-157.58 354.74,-137.14 373.44,-122.68"/>
<text text-anchor="middle" x="354.4" y="-143.1" font-family="Arial" font-size="12.00"> 1 </text>
</g>
<!-- skunichi@twitter.com&#45;&#45;spotu@twitter.com -->
<g id="edge42" class="edge">
<title>skunichi@twitter.com&#45;&#45;spotu@twitter.com</title>
<path fill="none" stroke="#00688b" stroke-opacity="0.368627" d="M277.57,-172.21C259.75,-139.53 221.3,-69.05 203.45,-36.33"/>
<text text-anchor="middle" x="256.12" y="-99.97" font-family="Arial" font-size="12.00"> 1 </text>
</g>
<!-- tpollitt@twitter.com&#45;&#45;spotu@twitter.com -->
<g id="edge43" class="edge">
<title>tpollitt@twitter.com&#45;&#45;spotu@twitter.com</title>
<path fill="none" stroke="#00688b" stroke-opacity="0.368627" d="M354.15,-85.79C319.48,-71.33 270.45,-50.89 235.8,-36.43"/>
<text text-anchor="middle" x="313.47" y="-56.85" font-family="Arial" font-size="12.00"> 1 </text>
</g>
<!-- eslutckii@twitter.com&#45;&#45;kcelik@twitter.com -->
<g id="edge48" class="edge">
<title>eslutckii@twitter.com&#45;&#45;kcelik@twitter.com</title>
<path fill="none" stroke="#00688b" stroke-opacity="0.368627" d="M732,-344.54C732,-330.08 732,-309.64 732,-295.18"/>
<text text-anchor="middle" x="738.38" y="-315.6" font-family="Arial" font-size="12.00"> 1 </text>
</g>
</g>
</svg>
