<svg width="342pt" height="206pt"
 viewBox="0.00 0.00 341.50 206.00" xmlns="http://www.w3.org/2000/svg" xmlns:xlink="http://www.w3.org/1999/xlink">
<g id="graph0" class="graph" transform="scale(1 1) rotate(0) translate(4 202)">
<title>G</title>
<polygon fill="white" stroke="none" points="-4,4 -4,-202 337.5,-202 337.5,4 -4,4"/>
<!-- jillianc@twitter.com -->
<g id="node1" class="node">
<title>jillianc@twitter.com</title>
<polygon fill="#00b2ee" stroke="white" points="149.12,-198 14.62,-198 14.62,-162 149.12,-162 149.12,-198"/>
<text text-anchor="middle" x="81.88" y="-175.32" font-family="Tahoma" font-size="14.00">jillianc@twitter.com</text>
</g>
<!-- [twitter / finagle] -->
<g id="node2" class="node">
<title>[twitter / finagle]</title>
<polygon fill="#00b2ee" stroke="white" points="333.5,-117 212.5,-117 212.5,-81 333.5,-81 333.5,-117"/>
<text text-anchor="middle" x="273" y="-94.33" font-family="Tahoma" font-size="14.00">[twitter / finagle]</text>
</g>
<!-- jillianc@twitter.com&#45;&#45;[twitter / finagle] -->
<g id="edge1" class="edge">
<title>jillianc@twitter.com&#45;&#45;[twitter / finagle]</title>
<path fill="none" stroke="#00688b" stroke-opacity="0.368627" d="M141.11,-161.65C148.79,-158.92 156.5,-156 163.75,-153 189.36,-142.4 217.34,-128.37 238.44,-117.27"/>
<text text-anchor="middle" x="188.12" y="-147.97" font-family="Arial" font-size="12.00"> 1 </text>
</g>
<!-- aivanov@twitter.com -->
<g id="node3" class="node">
<title>aivanov@twitter.com</title>
<polygon fill="#00b2ee" stroke="white" points="153.62,-144 10.12,-144 10.12,-108 153.62,-108 153.62,-144"/>
<text text-anchor="middle" x="81.88" y="-121.33" font-family="Tahoma" font-size="14.00">aivanov@twitter.com</text>
</g>
<!-- aivanov@twitter.com&#45;&#45;[twitter / finagle] -->
<g id="edge2" class="edge">
<title>aivanov@twitter.com&#45;&#45;[twitter / finagle]</title>
<path fill="none" stroke="#00688b" stroke-opacity="0.368627" d="M154.11,-115.83C173.27,-113.1 193.79,-110.17 212.26,-107.53"/>
<text text-anchor="middle" x="188.12" y="-114.54" font-family="Arial" font-size="12.00"> 1 </text>
</g>
<!-- igorbachev@twitter.com -->
<g id="node4" class="node">
<title>igorbachev@twitter.com</title>
<polygon fill="#00b2ee" stroke="white" points="163.75,-90 0,-90 0,-54 163.75,-54 163.75,-90"/>
<text text-anchor="middle" x="81.88" y="-67.33" font-family="Tahoma" font-size="14.00">igorbachev@twitter.com</text>
</g>
<!-- igorbachev@twitter.com&#45;&#45;[twitter / finagle] -->
<g id="edge3" class="edge">
<title>igorbachev@twitter.com&#45;&#45;[twitter / finagle]</title>
<path fill="none" stroke="#00688b" stroke-opacity="0.368627" d="M164.18,-83.61C180.3,-85.91 196.94,-88.28 212.18,-90.46"/>
<text text-anchor="middle" x="188.12" y="-90.77" font-family="Arial" font-size="12.00"> 1 </text>
</g>
<!-- skunichi@twitter.com -->
<g id="node5" class="node">
<title>skunichi@twitter.com</title>
<polygon fill="#00b2ee" stroke="white" points="154.38,-36 9.38,-36 9.38,0 154.38,0 154.38,-36"/>
<text text-anchor="middle" x="81.88" y="-13.32" font-family="Tahoma" font-size="14.00">skunichi@twitter.com</text>
</g>
<!-- skunichi@twitter.com&#45;&#45;[twitter / finagle] -->
<g id="edge4" class="edge">
<title>skunichi@twitter.com&#45;&#45;[twitter / finagle]</title>
<path fill="none" stroke="#00688b" stroke-opacity="0.368627" d="M141.11,-36.35C148.79,-39.08 156.5,-42 163.75,-45 189.36,-55.6 217.34,-69.63 238.44,-80.73"/>
<text text-anchor="middle" x="188.12" y="-61.36" font-family="Arial" font-size="12.00"> 1 </text>
</g>
</g>
</svg>
