<svg width="273pt" height="303pt"
 viewBox="0.00 0.00 272.80 302.75" xmlns="http://www.w3.org/2000/svg" xmlns:xlink="http://www.w3.org/1999/xlink">
<g id="graph0" class="graph" transform="scale(1 1) rotate(0) translate(4 298.75)">
<title>G</title>
<polygon fill="white" stroke="none" points="-4,4 -4,-298.75 268.8,-298.75 268.8,4 -4,4"/>
<!-- jillianc@twitter.com -->
<g id="node1" class="node">
<title>jillianc@twitter.com</title>
<polygon fill="#00b2ee" stroke="white" points="247,-294.75 112.5,-294.75 112.5,-258.75 247,-258.75 247,-294.75"/>
<text text-anchor="middle" x="179.75" y="-272.07" font-family="Tahoma" font-size="14.00">jillianc@twitter.com</text>
</g>
<!-- aivanov@twitter.com -->
<g id="node2" class="node">
<title>aivanov@twitter.com</title>
<polygon fill="#00b2ee" stroke="white" points="143.5,-208.5 0,-208.5 0,-172.5 143.5,-172.5 143.5,-208.5"/>
<text text-anchor="middle" x="71.75" y="-185.82" font-family="Tahoma" font-size="14.00">aivanov@twitter.com</text>
</g>
<!-- jillianc@twitter.com&#45;&#45;aivanov@twitter.com -->
<g id="edge1" class="edge">
<title>jillianc@twitter.com&#45;&#45;aivanov@twitter.com</title>
<path fill="none" stroke="#00688b" stroke-opacity="0.368627" d="M157.37,-258.29C138.84,-243.83 112.63,-223.39 94.1,-208.93"/>
<text text-anchor="middle" x="138.59" y="-229.35" font-family="Arial" font-size="12.00"> 1 </text>
</g>
<!-- igorbachev@twitter.com -->
<g id="node3" class="node">
<title>igorbachev@twitter.com</title>
<polygon fill="#00b2ee" stroke="white" points="234.62,-122.25 70.88,-122.25 70.88,-86.25 234.62,-86.25 234.62,-122.25"/>
<text text-anchor="middle" x="152.75" y="-99.58" font-family="Tahoma" font-size="14.00">igorbachev@twitter.com</text>
</g>
<!-- jillianc@twitter.com&#45;&#45;igorbachev@twitter.com -->
<g id="edge2" class="edge">
<title>jillianc@twitter.com&#45;&#45;igorbachev@twitter.com</title>
<path fill="none" stroke="#00688b" stroke-opacity="0.368627" d="M177.01,-258.46C171.84,-225.78 160.68,-155.3 155.49,-122.58"/>
<text text-anchor="middle" x="175.31" y="-186.22" font-family="Arial" font-size="12.00"> 1 </text>
</g>
<!-- skunichi@twitter.com -->
<g id="node4" class="node">
<title>skunichi@twitter.com</title>
<polygon fill="#00b2ee" stroke="white" points="225.25,-36 80.25,-36 80.25,0 225.25,0 225.25,-36"/>
<text text-anchor="middle" x="152.75" y="-13.32" font-family="Tahoma" font-size="14.00">skunichi@twitter.com</text>
</g>
<!-- jillianc@twitter.com&#45;&#45;skunichi@twitter.com -->
<g id="edge3" class="edge">
<title>jillianc@twitter.com&#45;&#45;skunichi@twitter.com</title>
<path fill="none" stroke="#00688b" stroke-opacity="0.368627" d="M194.53,-258.37C221.69,-224.21 274.09,-146.4 243.75,-86.25 232.6,-64.15 210.38,-47.51 190.69,-36.32"/>
<text text-anchor="middle" x="258.42" y="-143.1" font-family="Arial" font-size="12.00"> 1 </text>
</g>
<!-- aivanov@twitter.com&#45;&#45;igorbachev@twitter.com -->
<g id="edge4" class="edge">
<title>aivanov@twitter.com&#45;&#45;igorbachev@twitter.com</title>
<path fill="none" stroke="#00688b" stroke-opacity="0.368627" d="M88.53,-172.04C102.43,-157.58 122.09,-137.14 135.99,-122.68"/>
<text text-anchor="middle" x="123.47" y="-143.1" font-family="Arial" font-size="12.00"> 1 </text>
</g>
<!-- aivanov@twitter.com&#45;&#45;skunichi@twitter.com -->
<g id="edge5" class="edge">
<title>aivanov@twitter.com&#45;&#45;skunichi@twitter.com</title>
<path fill="none" stroke="#00688b" stroke-opacity="0.368627" d="M60.93,-172.03C49.2,-150.63 34.01,-113.83 49,-86.25 61.35,-63.52 85.06,-47.29 106.7,-36.48"/>
<text text-anchor="middle" x="55.38" y="-99.97" font-family="Arial" font-size="12.00"> 1 </text>
</g>
<!-- igorbachev@twitter.com&#45;&#45;skunichi@twitter.com -->
<g id="edge6" class="edge">
<title>igorbachev@twitter.com&#45;&#45;skunichi@twitter.com</title>
<path fill="none" stroke="#00688b" stroke-opacity="0.368627" d="M152.75,-85.79C152.75,-71.33 152.75,-50.89 152.75,-36.43"/>
<text text-anchor="middle" x="159.12" y="-56.85" font-family="Arial" font-size="12.00"> 1 </text>
</g>
</g>
</svg>
